<svg class="animated" id="freepik_stories-business-crisis" xmlns="http://www.w3.org/2000/svg" viewBox="0 0 500 500" version="1.1" xmlns:xlink="http://www.w3.org/1999/xlink" xmlns:svgjs="http://svgjs.com/svgjs"><style>svg#freepik_stories-business-crisis:not(.animated) .animable {opacity: 0;}svg#freepik_stories-business-crisis.animated #freepik--Arrows--inject-298 {animation: 1.5s Infinite  linear floating;animation-delay: 0s;}svg#freepik_stories-business-crisis.animated #freepik--Character--inject-298 {animation: 1.5s Infinite  linear wind;animation-delay: 0s;}            @keyframes floating {                0% {                    opacity: 1;                    transform: translateY(0px);                }                50% {                    transform: translateY(-10px);                }                100% {                    opacity: 1;                    transform: translateY(0px);                }            }                    @keyframes wind {                0% {                    transform: rotate( 0deg );                }                25% {                    transform: rotate( 1deg );                }                75% {                    transform: rotate( -1deg );                }            }        </style><g id="freepik--background-complete--inject-298" style="transform-origin: 250px 242.3px 0px;" class="animable"><path d="M444.71,349.14H264a5.87,5.87,0,0,1-5.86-5.86V80A5.87,5.87,0,0,1,264,74.15H444.71A5.87,5.87,0,0,1,450.57,80V343.28A5.87,5.87,0,0,1,444.71,349.14ZM264,74.4A5.61,5.61,0,0,0,258.35,80V343.28a5.61,5.61,0,0,0,5.61,5.61H444.71a5.61,5.61,0,0,0,5.61-5.61V80a5.61,5.61,0,0,0-5.61-5.61Z" style="fill: rgb(240, 240, 240); transform-origin: 354.355px 211.645px 0px;" id="elnd39175xkh" class="animable"></path><path d="M236.28,349.14H55.53a5.87,5.87,0,0,1-5.86-5.86V80a5.87,5.87,0,0,1,5.86-5.86H236.28A5.87,5.87,0,0,1,242.14,80V343.28A5.87,5.87,0,0,1,236.28,349.14ZM55.53,74.4A5.61,5.61,0,0,0,49.92,80V343.28a5.61,5.61,0,0,0,5.61,5.61H236.28a5.61,5.61,0,0,0,5.61-5.61V80a5.61,5.61,0,0,0-5.61-5.61Z" style="fill: rgb(240, 240, 240); transform-origin: 145.905px 211.64px 0px;" id="el5e2j5v2m4ng" class="animable"></path><rect y="410.21" width="500" height="0.25" style="fill: rgb(240, 240, 240); transform-origin: 250px 410.335px 0px;" id="elbe3q251p77a" class="animable"></rect><polygon points="88.44 263.48 91.83 265.01 85.92 278.23 90.11 286.83 84.46 295.36 86.92 302.88 82.64 294.66 87.2 287.04 82.92 278 88.44 263.48" style="fill: #6650E9; transform-origin: 87.235px 283.18px 0px;" id="elmn1io0z3rc" class="animable"></polygon><polygon points="88.44 263.48 91.83 265.01 85.92 278.23 90.11 286.83 84.46 295.36 86.92 302.88 82.64 294.66 87.2 287.04 82.92 278 88.44 263.48" style="fill: rgb(224, 224, 224); transform-origin: 87.235px 283.18px 0px;" id="elbe0piewm1li" class="animable"></polygon><path d="M117,300c-.07.37-.15.74-.23,1.11a30.75,30.75,0,0,1-50.16,16.16,31.25,31.25,0,0,1-4.84-5.38c-.42-.61-.83-1.22-1.21-1.85a31.14,31.14,0,0,1-3.65-9c-.14-.62-.26-1.24-.37-1.88a30.49,30.49,0,0,1,.4-12c.08-.37.18-.73.28-1.1a30.7,30.7,0,0,1,31.27-22.61l-2.33,6.13-.83,2.21L82.93,278l1.1,2.35.59,1.25,2.51,5.31.07.13-.82,1.37-.28.47-.47.79-3,5,.5.95,1,1.93,1.4,2.7.79,1.52.58,1.12-.11-1.07-.13-1.38-.17-1.78-.16-1.51-.17-1.78,2.51-3.49h0l.78-1.08,1.33-1.85.79-1.1,1.8-2.5L88.74,278l-.12-.19-.37-.57.67-.71.12-.14.11-.1,3.47-3.7,1.73-1.84,4.57-4.86a30.53,30.53,0,0,1,5.57,3.1c.6.43,1.19.88,1.76,1.35a30.24,30.24,0,0,1,6.37,7.14c.38.6.74,1.19,1.08,1.81a30.8,30.8,0,0,1,2.8,7,30.24,30.24,0,0,1,1,7.8A30.54,30.54,0,0,1,117,300Z" style="fill: #6650E9; transform-origin: 86.8145px 294.129px 0px;" id="el74s6xhnv6ok" class="animable"></path><path d="M117,300c-.07.37-.15.74-.23,1.11a30.75,30.75,0,0,1-50.16,16.16,31.25,31.25,0,0,1-4.84-5.38c-.42-.61-.83-1.22-1.21-1.85a31.14,31.14,0,0,1-3.65-9c-.14-.62-.26-1.24-.37-1.88a30.49,30.49,0,0,1,.4-12c.08-.37.18-.73.28-1.1a30.7,30.7,0,0,1,31.27-22.61l-2.33,6.13-.83,2.21L82.93,278l1.1,2.35.59,1.25,2.51,5.31.07.13-.82,1.37-.28.47-.47.79-3,5,.5.95,1,1.93,1.4,2.7.79,1.52.58,1.12-.11-1.07-.13-1.38-.17-1.78-.16-1.51-.17-1.78,2.51-3.49h0l.78-1.08,1.33-1.85.79-1.1,1.8-2.5L88.74,278l-.12-.19-.37-.57.67-.71.12-.14.11-.1,3.47-3.7,1.73-1.84,4.57-4.86a30.53,30.53,0,0,1,5.57,3.1c.6.43,1.19.88,1.76,1.35a30.24,30.24,0,0,1,6.37,7.14c.38.6.74,1.19,1.08,1.81a30.8,30.8,0,0,1,2.8,7,30.24,30.24,0,0,1,1,7.8A30.54,30.54,0,0,1,117,300Z" style="fill: rgb(245, 245, 245); transform-origin: 86.8145px 294.129px 0px;" id="elr95vjmdr8l" class="animable"></path><path d="M86.11,269.61l-.83,2.21A24.6,24.6,0,0,0,62.66,289.7c.07-.37.15-.74.23-1.11A24.6,24.6,0,0,1,86.11,269.61Z" style="fill: rgb(224, 224, 224); transform-origin: 74.385px 279.655px 0px;" id="elloxfxr5b37" class="animable"></path><path d="M110.71,299.71c-.09.38-.18.74-.27,1.1.11-.61.19-1.22.26-1.83a24.59,24.59,0,0,0-3.61-15.64c-.37-.59-.77-1.18-1.18-1.73a24.51,24.51,0,0,0-7.26-6.47c-.7-.41-1.42-.79-2.16-1.13a25.13,25.13,0,0,0-3.88-1.38l1.74-1.84A24.58,24.58,0,0,1,110.71,299.71Z" style="fill: rgb(224, 224, 224); transform-origin: 101.978px 285.8px 0px;" id="ell6mqffe82kg" class="animable"></path><path d="M110.44,300.81a24.58,24.58,0,0,1-29.2,17.25c-.3-.06-.57-.13-.85-.21h0l-.84-.25-.21-.06-.9-.31-.13,0A24.84,24.84,0,0,1,75.51,316c-.3-.16-.6-.32-.89-.49-.6-.34-1.17-.7-1.72-1.08h0l-.54-.38-.28-.21c-.15-.1-.28-.22-.42-.32L71,313c-.27-.22-.53-.46-.78-.69s-.51-.47-.75-.71l-.6-.63c-.12-.13-.25-.26-.37-.41l-.3-.33-.34-.4-.52-.66c-.15-.2-.3-.39-.44-.6a1.47,1.47,0,0,1-.1-.13c-.2-.28-.4-.57-.59-.87s-.35-.56-.52-.84l0,0-.3-.52c-.1-.17-.19-.36-.28-.53l-.27-.51c-.09-.19-.18-.37-.26-.56s-.17-.36-.26-.55-.15-.36-.23-.55c-.16-.37-.3-.76-.44-1.16-.06-.16-.11-.32-.16-.48-.14-.4-.25-.8-.36-1.2A5.47,5.47,0,0,1,63,300c-.16-.61-.29-1.24-.39-1.87,0-.17,0-.34-.08-.51,0-.37-.1-.75-.14-1.13v-.05c0-.38-.07-.76-.08-1.14l0-.54a2.35,2.35,0,0,1,0-.26,5.23,5.23,0,0,1,0-.56v-.09c0-.21,0-.43,0-.64s0-.47,0-.71,0-.46,0-.7,0-.37.06-.56l0-.35a4.29,4.29,0,0,1,.07-.5l.12-.7a24.6,24.6,0,0,1,22.62-17.88L82.93,278l1.1,2.35.59,1.25,2.51,5.31.07.13-.82,1.37-.28.47-.47.79-3,5,.5.95,1,1.93,1.4,2.7.79,1.52.58,1.12-.11-1.07-.13-1.38-.17-1.78-.16-1.51-.17-1.78,2.51-3.49h0l.78-1.08,1.33-1.85.79-1.1,1.8-2.5L88.74,278l-.12-.19-.37-.57.67-.71.12-.14.11-.1,3.47-3.7A25.39,25.39,0,0,1,96.49,274c.74.34,1.46.72,2.16,1.13a24.51,24.51,0,0,1,7.26,6.47c.41.55.81,1.14,1.18,1.73A24.59,24.59,0,0,1,110.7,299C110.63,299.59,110.55,300.2,110.44,300.81Z" style="fill: rgb(240, 240, 240); transform-origin: 86.5712px 295.255px 0px;" id="el4xxe8w07qlh" class="animable"></path><path d="M97.42,300.68h0c.18-5.07-5.16-7.17-8.73-8.81h0l-2.51,3.49.17,1.78.16,1.51a5.43,5.43,0,0,1,2.06,1.48,1.06,1.06,0,0,1,.16.81c-.15.62-.7.95-1.92.87l.11,1.07-.58-1.12a9.6,9.6,0,0,1-1.19-.22,17.51,17.51,0,0,1-7.73-4.21L73.93,302l-.66.89a21.21,21.21,0,0,0,8.47,4.6l.14.05L81.3,310l-.3,1.32,5,1.18.92-4c5.77.33,9.35-2.39,10.24-6.26A7.28,7.28,0,0,0,97.42,300.68ZM87.13,286.91l-2.51-5.31c-4.12.52-6.67,2.92-7.43,6.17l0,.2s0,0,0,0c-1.1,5.34,3.31,7.8,7,9.54l-1-1.93-.5-.95,3-5a.86.86,0,0,1,0-.39,1.27,1.27,0,0,1,.32-.59,1.52,1.52,0,0,1,.43-.28L87.2,287ZM99.26,286A20.12,20.12,0,0,0,93,282.65l.3-1.31.59-2.51-.14,0-4.9-1.15-.09.39,4.65,7.3-1.8,2.5-.79,1.1a17.16,17.16,0,0,1,5,3l4-5.53Z" style="fill: rgb(224, 224, 224); transform-origin: 86.545px 295.09px 0px;" id="elynhkdhm0q" class="animable"></path><path d="M89.47,290.79l-.78,1.08h0l-2.51,3.49.17,1.78c1.64.79,2.75,1.51,2.54,2.45a.94.94,0,0,1-.32.54,2.5,2.5,0,0,1-1.89.3l.13,1.38.11,1.07-.58-1.12-.79-1.52-.24-.05A17.71,17.71,0,0,1,77.58,296l-4.15,5.52c.16.15.32.31.5.46a22.62,22.62,0,0,0,8.12,4.18l-.31,1.31-.58,2.49.14,0,4.91,1.14.92-4c5.77.33,9.35-2.39,10.25-6.26l0-.2C98.62,294.93,93.32,292.54,89.47,290.79Zm-3.68-2.87c.12-.51.51-.9,1.34-1l-2.51-5.31L84,280.35A7.92,7.92,0,0,0,77.15,288s0,0,0,0c-.14,3.91,2.94,6.06,6,7.61l-.5-.95,3-5,.47-.79c-.06-.06-.1-.13-.15-.19A.93.93,0,0,1,85.79,287.92Zm7.49-6.58-.14,0,.59-2.5.3-1.33-4.88-1.14-.11.1-.12.14-.3,1.28.12.19,4.65,7.3-1.8,2.5A17.67,17.67,0,0,1,96,290.59l3.3-4.61.66-.92A19.37,19.37,0,0,0,93.28,281.34Z" style="fill: rgb(245, 245, 245); transform-origin: 86.695px 293.735px 0px;" id="elnkk3kmejuy" class="animable"></path><polygon points="388.21 137.54 391.81 136.66 395.33 150.71 403.94 154.88 404.76 165.07 411.35 169.47 402.9 165.65 401.78 156.85 392.84 152.38 388.21 137.54" style="fill: #6650E9; transform-origin: 399.78px 153.065px 0px;" id="el9cnye06y3m" class="animable"></polygon><polygon points="388.21 137.54 391.81 136.66 395.33 150.71 403.94 154.88 404.76 165.07 411.35 169.47 402.9 165.65 401.78 156.85 392.84 152.38 388.21 137.54" style="fill: rgb(224, 224, 224); transform-origin: 399.78px 153.065px 0px;" id="eljw2cq7galak" class="animable"></polygon><path d="M433.18,148.65c.18.35.35.69.51,1a30.72,30.72,0,0,1-29.47,43.68,31.24,31.24,0,0,1-7.13-1.24c-.71-.21-1.4-.45-2.09-.71a30.56,30.56,0,0,1-8.42-4.82c-.5-.4-1-.81-1.46-1.25a30.56,30.56,0,0,1-7.08-9.66c-.16-.34-.32-.68-.46-1a30.72,30.72,0,0,1,10.63-37.11l2,6.27.71,2.25,2,6.32,2.32,1.16,1.23.62,5.26,2.62.13.07.2,1.57.07.55.12.91.73,5.77,1,.44,2,.89,2.78,1.26,1.56.71,1.15.52-.75-.78-1-1-1.23-1.29-1.05-1.09-1.24-1.3-.18-4.29h0l-.05-1.33-.1-2.28-.06-1.35-.13-3.08-8.17-2.86-.2-.08-.65-.22.09-1v-.19l0-.15.44-5,.23-2.52L398,133a31,31,0,0,1,6.3-1c.74,0,1.48-.05,2.22,0a30.66,30.66,0,0,1,9.42,1.68c.66.24,1.32.48,2,.76A30.59,30.59,0,0,1,430,143.66,30.49,30.49,0,0,1,433.18,148.65Z" style="fill: #6650E9; transform-origin: 405.863px 162.676px 0px;" id="ely32z7uam96" class="animable"></path><path d="M433.18,148.65c.18.35.35.69.51,1a30.72,30.72,0,0,1-29.47,43.68,31.24,31.24,0,0,1-7.13-1.24c-.71-.21-1.4-.45-2.09-.71a30.56,30.56,0,0,1-8.42-4.82c-.5-.4-1-.81-1.46-1.25a30.56,30.56,0,0,1-7.08-9.66c-.16-.34-.32-.68-.46-1a30.72,30.72,0,0,1,10.63-37.11l2,6.27.71,2.25,2,6.32,2.32,1.16,1.23.62,5.26,2.62.13.07.2,1.57.07.55.12.91.73,5.77,1,.44,2,.89,2.78,1.26,1.56.71,1.15.52-.75-.78-1-1-1.23-1.29-1.05-1.09-1.24-1.3-.18-4.29h0l-.05-1.33-.1-2.28-.06-1.35-.13-3.08-8.17-2.86-.2-.08-.65-.22.09-1v-.19l0-.15.44-5,.23-2.52L398,133a31,31,0,0,1,6.3-1c.74,0,1.48-.05,2.22,0a30.66,30.66,0,0,1,9.42,1.68c.66.24,1.32.48,2,.76A30.59,30.59,0,0,1,430,143.66,30.49,30.49,0,0,1,433.18,148.65Z" style="fill: rgb(245, 245, 245); transform-origin: 405.863px 162.676px 0px;" id="ella0f2k81c49" class="animable"></path><path d="M390.16,143.81l.71,2.25a24.61,24.61,0,0,0-6.75,28c-.17-.34-.34-.67-.5-1A24.59,24.59,0,0,1,390.16,143.81Z" style="fill: rgb(224, 224, 224); transform-origin: 386.097px 158.935px 0px;" id="elzil4n0kquio" class="animable"></path><path d="M428.1,152.29c.16.35.32.69.46,1-.29-.55-.6-1.09-.92-1.6a24.58,24.58,0,0,0-12.5-10.07c-.66-.24-1.33-.45-2-.64a24.69,24.69,0,0,0-9.7-.6c-.8.11-1.61.26-2.4.45a23.84,23.84,0,0,0-3.9,1.31l.23-2.52A24.57,24.57,0,0,1,428.1,152.29Z" style="fill: rgb(224, 224, 224); transform-origin: 412.85px 145.7px 0px;" id="el90598ht5aw" class="animable"></path><path d="M428.56,153.32a24.58,24.58,0,0,1-12.3,31.6c-.28.13-.53.25-.8.36h0c-.27.11-.54.23-.82.33l-.2.08-.9.31-.12.05a24.22,24.22,0,0,1-3,.75c-.33.07-.67.13-1,.17-.68.1-1.35.17-2,.21h0l-.66,0h-1.68c-.35,0-.7,0-1-.06l-1-.1-.86-.12-.55-.09-.43-.08-.52-.11-.81-.19c-.25-.06-.48-.12-.72-.2l-.16,0-1-.32c-.31-.1-.62-.22-.93-.34h0c-.19-.08-.37-.16-.56-.22l-.55-.25-.52-.24c-.18-.09-.37-.17-.55-.27l-.54-.28-.52-.29c-.36-.19-.71-.41-1.07-.64l-.42-.28a12.44,12.44,0,0,1-1-.72,4.29,4.29,0,0,1-.48-.36,19,19,0,0,1-1.46-1.23l-.38-.35-.81-.81,0,0c-.25-.28-.51-.56-.76-.85-.11-.13-.24-.27-.35-.41s-.11-.13-.16-.21l-.36-.43a.18.18,0,0,0-.05-.07,6.15,6.15,0,0,1-.37-.52,5.56,5.56,0,0,1-.41-.58,5.87,5.87,0,0,1-.39-.58c-.11-.16-.21-.32-.31-.48l-.17-.31-.26-.43c-.11-.22-.22-.42-.34-.63a24.61,24.61,0,0,1,6.75-28l2,6.32,2.32,1.16,1.23.62,5.26,2.62.13.07.2,1.57.07.55.12.91.73,5.77,1,.44,2,.89,2.78,1.26,1.56.71,1.15.52-.75-.78-1-1-1.23-1.29-1.05-1.09-1.24-1.3-.18-4.29h0l-.05-1.33-.1-2.28-.06-1.35-.13-3.08-8.17-2.86-.2-.08-.65-.22.09-1v-.19l0-.15.44-5a23.84,23.84,0,0,1,3.9-1.31c.79-.19,1.6-.34,2.4-.45a24.69,24.69,0,0,1,9.7.6c.67.19,1.35.4,2,.63a24.67,24.67,0,0,1,12.5,10.08C428,152.23,428.27,152.77,428.56,153.32Z" style="fill: rgb(240, 240, 240); transform-origin: 406.443px 163.72px 0px;" id="elsq10i14vj6" class="animable"></path><path d="M418.25,161.26h0c-3-4.09-8.48-2.45-12.3-1.53h0l.18,4.28,1.24,1.3,1.05,1.09a5.5,5.5,0,0,1,2.54-.11,1,1,0,0,1,.62.54c.27.58,0,1.18-1,1.86l.75.78L410.2,169a11.5,11.5,0,0,1-1.07.56,17.62,17.62,0,0,1-8.68,1.47l.12,5.79,0,1.11a21.4,21.4,0,0,0,9.51-1.61l.14-.05,1.07,2.29.57,1.23,4.7-2.19-1.73-3.7c4.74-3.3,5.87-7.65,4.19-11.24A7.87,7.87,0,0,0,418.25,161.26Zm-16.6-4.48-5.26-2.62c-2.91,3-3.44,6.41-2,9.44l.09.18s0,0,0,0c2.43,4.88,7.42,4.09,11.4,3.17l-2-.89-1-.44-.73-5.77a.89.89,0,0,1-.24-.3,1.29,1.29,0,0,1-.11-.67,1.75,1.75,0,0,1,.16-.49l-.2-1.57Zm9-8.21a19.76,19.76,0,0,0-7,1.25l-.57-1.21-1.1-2.34-.12.06-4.57,2.12.17.37,8.17,2.86.13,3.08.06,1.35a17.15,17.15,0,0,1,5.79-.72l-.3-6.8Z" style="fill: rgb(224, 224, 224); transform-origin: 406.686px 163.03px 0px;" id="elo9kdnzttv1e" class="animable"></path><path d="M405.89,158.39l.05,1.33h0l.18,4.29,1.24,1.3c1.77-.39,3.09-.51,3.5.35a1.07,1.07,0,0,1,.09.63c-.09.43-.49.89-1.31,1.4l1,1,.75.78L410.2,169l-1.56-.71-.22.11a17.62,17.62,0,0,1-8.68,1.46l.14,6.91.69.05a22.53,22.53,0,0,0,9-1.72l.57,1.22,1.08,2.31.13-.07,4.56-2.13-1.73-3.69c4.74-3.31,5.88-7.66,4.2-11.25l-.1-.19C415.64,156,410,157.39,405.89,158.39Zm-4.67,0a1.38,1.38,0,0,1,.43-1.63l-5.26-2.62-1.23-.62a8,8,0,0,0-1.51,8.89,7.29,7.29,0,0,0,.8,1.35s0,0,0,0c2.31,3.17,6.06,2.95,9.42,2.28l-1-.44-.73-5.77-.12-.91-.23-.06A.89.89,0,0,1,401.22,158.41Zm1.83-9.8-.14,0-1.08-2.33-.59-1.24-4.54,2.12,0,.15v.19l.56,1.19.2.08,8.17,2.86.13,3.08a18,18,0,0,1,5.13-.54l-.25-5.65,0-1.14A19.12,19.12,0,0,0,403.05,148.61Z" style="fill: rgb(245, 245, 245); transform-origin: 406.016px 161.825px 0px;" id="el22reuhb3xe2" class="animable"></path><path d="M414.17,107.69c-1.91-4.44-6.71-12.73-16.62-15-9.08-2.07-15.93,9.4-21.56,10.25s-5-1.69-16.25-5.92c-9.63-3.61-16.08,5.78-18.36,10.67Z" style="fill: rgb(245, 245, 245); transform-origin: 377.775px 100.065px 0px;" id="elmwmz5inj4t" class="animable"></path><path d="M125.71,174.38s0-8.28-8.13-8.62c-3.88-.17-8.63,3-11.63-2-3.48-5.84-9.57-9.32-15-7.06-6.05,2.5-9.49,12.07-15.4,11.29s-17.2-4.72-23,6.41Z" style="fill: rgb(245, 245, 245); transform-origin: 89.13px 165.202px 0px;" id="elr9c1b6owt2r" class="animable"></path><path d="M443.19,248.4s0-8.27-8.13-8.62c-3.89-.16-8.63,3-11.63-2-3.48-5.85-9.57-9.33-15.05-7.06-6.06,2.49-9.49,12.07-15.4,11.28s-17.2-4.72-23,6.41Z" style="fill: rgb(245, 245, 245); transform-origin: 406.585px 239.215px 0px;" id="elulzgbx1lyls" class="animable"></path></g><g id="freepik--Shadow--inject-298" style="transform-origin: 247.49px 433.59px 0px;" class="animable"><ellipse cx="247.49" cy="433.59" rx="212" ry="6.07" style="fill: rgb(240, 240, 240); transform-origin: 247.49px 433.59px 0px;" id="elyduq1kyyxn" class="animable"></ellipse></g><g id="freepik--Briefcase--inject-298" style="transform-origin: 218.895px 399.55px 0px;" class="animable"><path d="M237.71,378.27v-9.5a.59.59,0,0,0-.59-.6H232v-1.53h5.16a2.14,2.14,0,0,1,2.13,2.13v9.5Z" style="fill: rgb(38, 50, 56); transform-origin: 235.645px 372.455px 0px;" id="elay049v8kqvr" class="animable"></path><path d="M202.06,368.77v9.5h-1.54v-9.5a2.14,2.14,0,0,1,2.13-2.13h5.16v1.53h-5.16A.6.6,0,0,0,202.06,368.77Z" style="fill: rgb(38, 50, 56); transform-origin: 204.165px 372.455px 0px;" id="eljcljwqsaqyi" class="animable"></path><path d="M180.31,382.29v47.92a4,4,0,0,0,4,4h69.17a4,4,0,0,0,4-4V382.29a4,4,0,0,0-4-4H184.34A4,4,0,0,0,180.31,382.29Z" style="fill: #6650E9; transform-origin: 218.895px 406.25px 0px;" id="elebk7xfasbh6" class="animable"></path><g id="elfh9uyvoke9"><g style="opacity: 0.3; transform-origin: 218.895px 406.25px 0px;" class="animable" id="eldxs1v4795y"><path d="M180.31,382.29v47.92a4,4,0,0,0,4,4h69.17a4,4,0,0,0,4-4V382.29a4,4,0,0,0-4-4H184.34A4,4,0,0,0,180.31,382.29Z" style="fill: rgb(255, 255, 255); transform-origin: 218.895px 406.25px 0px;" id="elb6xuucatcn8" class="animable"></path></g></g><rect x="190.46" y="378.27" width="3.07" height="55.98" style="fill: rgb(38, 50, 56); transform-origin: 191.995px 406.26px 0px;" id="elt4aj87uw4zn" class="animable"></rect><rect x="244.32" y="378.27" width="3.07" height="55.98" style="fill: rgb(38, 50, 56); transform-origin: 245.855px 406.26px 0px;" id="elq7moa276ui" class="animable"></rect><g id="ele9drmt3lnt9"><rect x="206.23" y="364.85" width="27.86" height="5.11" style="fill: #6650E9; transform-origin: 220.16px 367.405px 0px; transform: rotate(180deg);" class="animable" id="eldng1661dui4"></rect></g></g><g id="freepik--Coin--inject-298" style="transform-origin: 293.317px 404.347px 0px;" class="animable"><polygon points="282.16 373.35 286.14 373.45 285.81 388.98 293.54 395.73 291.52 406.51 297.09 412.92 289.43 406.58 290.75 397.16 282.76 390 282.16 373.35" style="fill: #6650E9; transform-origin: 289.625px 393.135px 0px;" id="elw1u63z7zb4r" class="animable"></polygon><g id="elj10nwca33v"><polygon points="282.16 373.35 286.14 373.45 285.81 388.98 293.54 395.73 291.52 406.51 297.09 412.92 289.43 406.58 290.75 397.16 282.76 390 282.16 373.35" style="opacity: 0.6; transform-origin: 289.625px 393.135px 0px;" class="animable" id="elzjvq3eulj1"></polygon></g><path d="M325.56,397.55c.09.4.17.8.23,1.2a32.93,32.93,0,0,1-49.85,33.58c-.67-.42-1.33-.86-2-1.32a33,33,0,0,1-7.35-7.37c-.4-.55-.79-1.12-1.16-1.7a33,33,0,0,1-4.6-12q-.11-.6-.18-1.2a33,33,0,0,1,21.48-35.39l.25,7,.1,2.53.25,7.09,2.08,1.86,1.1,1,4.69,4.2.12.11-.24,1.68-.07.59-.14,1-.87,6.17.88.74,1.8,1.48,2.52,2.08,1.42,1.18,1,.86-.56-1-.7-1.31-.92-1.69-.78-1.42-.91-1.69,1-4.49h0l.31-1.39.55-2.39.32-1.42.74-3.22-7.65-5.27-.19-.14-.6-.41.36-1,.06-.19.06-.15,1.89-5.09.94-2.54,2.49-6.72a32.72,32.72,0,0,1,6.8.75c.78.17,1.55.36,2.31.59a33.05,33.05,0,0,1,9.27,4.4c.62.43,1.23.87,1.82,1.34a33.42,33.42,0,0,1,5.68,5.72,33,33,0,0,1,4.25,7.28A32,32,0,0,1,325.56,397.55Z" style="fill: #6650E9; transform-origin: 293.317px 404.347px 0px;" id="el7h4ez6mktfd" class="animable"></path><path d="M325.56,397.55c.09.4.17.8.23,1.2a32.93,32.93,0,0,1-49.85,33.58c-.67-.42-1.33-.86-2-1.32a33,33,0,0,1-7.35-7.37c-.4-.55-.79-1.12-1.16-1.7a33,33,0,0,1-4.6-12q-.11-.6-.18-1.2a33,33,0,0,1,21.48-35.39l.25,7,.1,2.53.25,7.09,2.08,1.86,1.1,1,4.69,4.2.12.11-.24,1.68-.07.59-.14,1-.87,6.17.88.74,1.8,1.48,2.52,2.08,1.42,1.18,1,.86-.56-1-.7-1.31-.92-1.69-.78-1.42-.91-1.69,1-4.49h0l.31-1.39.55-2.39.32-1.42.74-3.22-7.65-5.27-.19-.14-.6-.41.36-1,.06-.19.06-.15,1.89-5.09.94-2.54,2.49-6.72a32.72,32.72,0,0,1,6.8.75c.78.17,1.55.36,2.31.59a33.05,33.05,0,0,1,9.27,4.4c.62.43,1.23.87,1.82,1.34a33.42,33.42,0,0,1,5.68,5.72,33,33,0,0,1,4.25,7.28A32,32,0,0,1,325.56,397.55Z" style="fill: #6650E9; transform-origin: 293.317px 404.347px 0px;" id="elm7a2hkozc2i" class="animable"></path><g id="eldht7jjr70xo"><path d="M282.41,380.38l.1,2.53a26.38,26.38,0,0,0-14.9,27.1c-.09-.39-.16-.79-.23-1.19A26.38,26.38,0,0,1,282.41,380.38Z" style="opacity: 0.6; transform-origin: 274.755px 395.195px 0px;" class="animable" id="elofy7ouajby"></path></g><g id="el7n1mgl9z4jl"><path d="M319.28,399.87q.11.61.18,1.2c-.14-.65-.31-1.29-.5-1.92a26.32,26.32,0,0,0-10.09-13.95c-.61-.44-1.25-.84-1.89-1.22a26.37,26.37,0,0,0-9.87-3.37c-.86-.11-1.74-.18-2.61-.21a26.18,26.18,0,0,0-4.4.26l.94-2.54A26.36,26.36,0,0,1,319.28,399.87Z" style="opacity: 0.6; transform-origin: 304.78px 389.545px 0px;" class="animable" id="elh7ftrbemrmg"></path></g><g id="elt1is0awtxn"><g style="opacity: 0.3; transform-origin: 293.626px 405.524px 0px;" class="animable" id="el1fivw81msn7"><path d="M319.46,401.07a26.35,26.35,0,0,1-21.66,29.22,8,8,0,0,1-.92.15h0l-.94.11-.24,0-1,.07h-.14a25.59,25.59,0,0,1-3.28-.06l-1.08-.1c-.73-.09-1.44-.21-2.15-.36h0l-.69-.15-.37-.1a5.36,5.36,0,0,1-.54-.14c-.28-.07-.56-.15-.83-.24s-.71-.23-1.06-.35l-1-.39-.85-.37-.54-.25-.44-.2-.5-.26-.79-.43c-.23-.13-.46-.26-.68-.41l-.16-.09-.94-.61-.87-.61,0,0-.52-.39-.5-.41-.47-.39-.5-.44c-.15-.15-.31-.29-.48-.44l-.45-.44c-.32-.31-.62-.64-.92-1-.13-.13-.25-.27-.37-.41-.3-.33-.58-.68-.85-1a6.26,6.26,0,0,1-.39-.51,19.44,19.44,0,0,1-1.16-1.69c-.11-.16-.2-.31-.3-.47-.2-.35-.41-.7-.61-1.06l0-.05c-.19-.36-.38-.72-.56-1.09-.07-.17-.16-.35-.24-.52l-.11-.27c-.09-.17-.16-.36-.24-.54a.79.79,0,0,0,0-.09c-.09-.21-.17-.42-.24-.64a6.93,6.93,0,0,1-.26-.72c-.09-.23-.17-.47-.24-.71s-.12-.38-.18-.58l-.1-.37c-.05-.17-.09-.35-.14-.52s-.11-.5-.17-.75a26.38,26.38,0,0,1,14.9-27.1l.25,7.09,2.08,1.86,1.1,1,4.69,4.2.12.11-.24,1.68-.07.59-.14,1-.87,6.17.88.74,1.8,1.48,2.52,2.08,1.42,1.18,1,.86-.56-1-.7-1.31-.92-1.69-.78-1.42-.91-1.69,1-4.49h0l.31-1.39.55-2.39.32-1.42.74-3.22-7.65-5.27-.19-.14-.6-.41.36-1,.06-.19.06-.15,1.89-5.09a26.18,26.18,0,0,1,4.4-.26c.87,0,1.75.1,2.61.21A26.37,26.37,0,0,1,307,384c.64.38,1.28.78,1.89,1.22A26.32,26.32,0,0,1,319,399.15C319.15,399.78,319.32,400.42,319.46,401.07Z" id="eld2b8a8nsllu" style="transform-origin: 293.626px 405.524px 0px;" class="animable"></path></g></g><g id="elv54ap464v69"><g style="opacity: 0.6; transform-origin: 294.062px 404.95px 0px;" class="animable" id="el3ghlltlg20e"><path d="M306.55,406.37h0c-1.93-5.07-8.09-4.93-12.29-5.05h0l-1,4.49.91,1.69.78,1.42a6,6,0,0,1,2.66.6,1.13,1.13,0,0,1,.49.74c.11.68-.29,1.23-1.53,1.66l.56,1-1-.86c-.37.1-.79.19-1.27.28a18.91,18.91,0,0,1-9.4-.94l-1.51,6-.29,1.16a23,23,0,0,0,10.3,1H294l.46,2.68.25,1.43,5.48-.94-.75-4.31c5.84-2.08,8.24-6.26,7.52-10.46A9.09,9.09,0,0,0,306.55,406.37Zm-15.92-9.32-4.69-4.2c-3.86,2.24-5.38,5.67-4.77,9.2l0,.21s0,0,0,0c1.14,5.73,6.52,6.32,10.9,6.5l-1.8-1.48-.88-.74.87-6.17a1.06,1.06,0,0,1-.16-.38,1.35,1.35,0,0,1,.07-.72,1.76,1.76,0,0,1,.3-.47l.24-1.68Zm11.6-6a21.23,21.23,0,0,0-7.59-.67l-.25-1.42-.47-2.73-.15,0-5.32.91.07.43,7.65,5.27-.74,3.22-.32,1.42a18,18,0,0,1,6.19.89l1.61-7.12Z" id="el61mx3bddoii" style="transform-origin: 294.062px 404.95px 0px;" class="animable"></path></g></g><path d="M294.56,399.92l-.31,1.39h0l-1,4.49.91,1.69c1.95.1,3.35.35,3.53,1.36a1,1,0,0,1-.09.66c-.21.43-.75.79-1.74,1.09l.7,1.31.56,1-1-.86-1.42-1.18-.26.05A18.86,18.86,0,0,1,285,410l-1.8,7.18c.22.09.44.17.69.25a24.23,24.23,0,0,0,9.76.75l.25,1.42.46,2.7.15,0,5.32-.92-.74-4.31c5.84-2.08,8.24-6.26,7.52-10.46l0-.22C305.33,400.18,299.1,400,294.56,399.92Zm-4.83-1.31a1.48,1.48,0,0,1,.9-1.56l-4.69-4.2-1.1-1c-3.34,2.25-4.65,5.47-4.08,8.78a8.12,8.12,0,0,0,.45,1.62s0,0,0,0c1.49,3.92,5.44,4.76,9.1,5l-.88-.74.87-6.17.14-1a1.67,1.67,0,0,1-.23-.12A1,1,0,0,1,289.73,398.61Zm4.66-9.62h-.16l-.46-2.72-.25-1.44-5.31.91-.06.15-.06.19.24,1.39.19.14,7.65,5.27-.74,3.22a18.91,18.91,0,0,1,5.46.9l1.34-5.93.27-1.19A20.61,20.61,0,0,0,294.39,389Z" style="fill: #6650E9; transform-origin: 293.683px 403.565px 0px;" id="elxdd7p2dv1od" class="animable"></path></g><g id="freepik--Virus--inject-298" style="transform-origin: 240.787px 199.114px 0px;" class="animable"><path d="M191.67,98.77,193.43,91a.68.68,0,0,0-1.14-.64l-5.72,5.54S188.45,99.06,191.67,98.77Z" style="fill: #6650E9; transform-origin: 190.009px 94.4761px 0px;" id="eln6hy43wfkx" class="animable"></path><g id="elug9g0bh4kys"><g style="opacity: 0.4; transform-origin: 190.009px 94.4761px 0px;" class="animable" id="elyz02oy2z0z"><path d="M191.67,98.77,193.43,91a.68.68,0,0,0-1.14-.64l-5.72,5.54S188.45,99.06,191.67,98.77Z" style="fill: rgb(255, 255, 255); transform-origin: 190.009px 94.4761px 0px;" id="elqshedm0xd6" class="animable"></path></g></g><path d="M196.51,113.77l3.32-.65,1.66-.32,2.83-.55a.68.68,0,0,0,.12-1.3l-3.61-1.47L197.06,108S195,110.94,196.51,113.77Z" style="fill: #6650E9; transform-origin: 200.414px 110.885px 0px;" id="eligd2o115zyd" class="animable"></path><g id="ely3s1wgnfjl"><g style="opacity: 0.4; transform-origin: 200.414px 110.885px 0px;" class="animable" id="elkfa9b15mcwi"><path d="M196.51,113.77l3.32-.65,1.66-.32,2.83-.55a.68.68,0,0,0,.12-1.3l-3.61-1.47L197.06,108S195,110.94,196.51,113.77Z" style="fill: rgb(255, 255, 255); transform-origin: 200.414px 110.885px 0px;" id="eloxkofkogi2n" class="animable"></path></g></g><path d="M171.5,100.17,164,97.5a.68.68,0,0,0-.77,1l4.81,6.34S171.4,103.4,171.5,100.17Z" style="fill: #6650E9; transform-origin: 167.318px 101.157px 0px;" id="elrto68uc2hve" class="animable"></path><g id="el6ytn8cg01pj"><g style="opacity: 0.4; transform-origin: 167.318px 101.157px 0px;" class="animable" id="elhdl619fuqx"><path d="M171.5,100.17,164,97.5a.68.68,0,0,0-.77,1l4.81,6.34S171.4,103.4,171.5,100.17Z" style="fill: rgb(255, 255, 255); transform-origin: 167.318px 101.157px 0px;" id="elsx4omgf6m6d" class="animable"></path></g></g><path d="M195.24,108.67l6.55-4.51a.68.68,0,0,0-.4-1.24l-8,.19S192.68,106.7,195.24,108.67Z" style="fill: #6650E9; transform-origin: 197.692px 105.795px 0px;" id="ello9b63zlyz" class="animable"></path><g id="eloir208zfxkk"><path d="M195.24,108.67l6.55-4.51a.68.68,0,0,0-.4-1.24l-8,.19S192.68,106.7,195.24,108.67Z" style="fill: rgb(255, 255, 255); opacity: 0.4; transform-origin: 197.692px 105.795px 0px;" class="animable" id="elc16azdrqp2"></path></g><path d="M173.41,119l-2.11,7.66a.68.68,0,0,0,1.1.69l6-5.27S176.64,118.81,173.41,119Z" style="fill: #6650E9; transform-origin: 174.839px 123.253px 0px;" id="eld9swuju6vtw" class="animable"></path><g id="elvqsvz855my"><g style="opacity: 0.4; transform-origin: 174.839px 123.253px 0px;" class="animable" id="elu5lotrf7ju"><path d="M173.41,119l-2.11,7.66a.68.68,0,0,0,1.1.69l6-5.27S176.64,118.81,173.41,119Z" style="fill: rgb(255, 255, 255); transform-origin: 174.839px 123.253px 0px;" id="elm7kvcrhnxec" class="animable"></path></g></g><path d="M181.35,124.1l4.5,6.55a.68.68,0,0,0,1.24-.4l-.19-8S183.32,121.54,181.35,124.1Z" style="fill: #6650E9; transform-origin: 184.22px 126.552px 0px;" id="elf4ow8mslao6" class="animable"></path><g id="elqcz8qfb7s8"><g style="opacity: 0.4; transform-origin: 184.22px 126.552px 0px;" class="animable" id="elhyns859663"><path d="M181.35,124.1l4.5,6.55a.68.68,0,0,0,1.24-.4l-.19-8S183.32,121.54,181.35,124.1Z" style="fill: rgb(255, 255, 255); transform-origin: 184.22px 126.552px 0px;" id="eljqjgbp58s8" class="animable"></path></g></g><path d="M160.66,112.11l6.55,1.27a14.88,14.88,0,0,0,.86,2.37l-3.71,3.64a.68.68,0,0,0,.61,1.15l5.46-1.09a15.47,15.47,0,0,0,1.51,1.52,16.22,16.22,0,0,0,2.64,1.86,15.49,15.49,0,0,0,17.1-1.31l.36-.29.49-.42.06-.06,1.33.34,2.8.72a.67.67,0,0,0,.66-1.11L194.94,118,195,118c.23-.34.44-.69.64-1a15.46,15.46,0,0,0-17.95-22.37L175.11,91a.68.68,0,0,0-1.23.44l.23,4.69c-.42.26-.82.53-1.22.82a15.54,15.54,0,0,0-4.24,4.84,15.36,15.36,0,0,0-2,6.53l-6.17,2.52A.68.68,0,0,0,160.66,112.11Z" style="fill: #6650E9; transform-origin: 178.867px 107.76px 0px;" id="elqiuk2xhxr2" class="animable"></path><g id="elm42x4az056g"><g style="opacity: 0.5; transform-origin: 178.867px 107.76px 0px;" class="animable" id="elswhqy2sste"><path d="M160.66,112.11l6.55,1.27a14.88,14.88,0,0,0,.86,2.37l-3.71,3.64a.68.68,0,0,0,.61,1.15l5.46-1.09a15.47,15.47,0,0,0,1.51,1.52,16.22,16.22,0,0,0,2.64,1.86,15.49,15.49,0,0,0,17.1-1.31l.36-.29.49-.42.06-.06,1.33.34,2.8.72a.67.67,0,0,0,.66-1.11L194.94,118,195,118c.23-.34.44-.69.64-1a15.46,15.46,0,0,0-17.95-22.37L175.11,91a.68.68,0,0,0-1.23.44l.23,4.69c-.42.26-.82.53-1.22.82a15.54,15.54,0,0,0-4.24,4.84,15.36,15.36,0,0,0-2,6.53l-6.17,2.52A.68.68,0,0,0,160.66,112.11Z" style="fill: rgb(255, 255, 255); transform-origin: 178.867px 107.76px 0px;" id="el4xujxjibilm" class="animable"></path></g></g><g id="elh49ags178ga"><g style="opacity: 0.5; transform-origin: 182.546px 108.957px 0px;" class="animable" id="el930ia4xwpmb"><path d="M173.69,104a10.15,10.15,0,1,0,13.81-3.9A10.14,10.14,0,0,0,173.69,104Z" style="fill: rgb(255, 255, 255); transform-origin: 182.546px 108.957px 0px;" id="el69zzu54mkhf" class="animable"></path></g></g><g id="eln2bh2xqw59m"><g style="opacity: 0.2; transform-origin: 186.474px 109.302px 0px;" class="animable" id="elu4v2w1uq9qs"><path d="M184.82,102c1.12-.94,2.92-.36,4.34.82a7,7,0,0,1,2.35,5c.48,4.22-2.74,9.85-7.29,9.2s-3-5,.35-5.59,3.63-4.94.67-7.12C183.92,103.29,184.16,102.52,184.82,102Z" style="fill: #6650E9; transform-origin: 186.474px 109.302px 0px;" id="el0mnt0a5w391" class="animable"></path></g></g><g id="eljkppmvinmth"><g style="opacity: 0.2; transform-origin: 179.844px 108.109px 0px;" class="animable" id="el7dy6tlbfcxk"><path d="M181.44,105a5.29,5.29,0,0,1,2.33.37c1,.43,2.09,1.29,1.47,2.93-1,2.54-4.54,0-6.23,1.93-2,2.25-5.62.34-4.55-2.13S179.68,105.13,181.44,105Z" style="fill: #6650E9; transform-origin: 179.844px 108.109px 0px;" id="el4tucpvmlu0c" class="animable"></path></g></g><g id="elnpgl79jrhb9"><g style="opacity: 0.2; transform-origin: 177.87px 114.409px 0px;" class="animable" id="elx0fh2aeazbj"><path d="M177,112.2a2.87,2.87,0,0,1,3,1.55,2,2,0,0,1-.3,2.32c-1.62,2-4.71-1.69-4.13-3A1.72,1.72,0,0,1,177,112.2Z" style="fill: #6650E9; transform-origin: 177.87px 114.409px 0px;" id="elka12ywcgim" class="animable"></path></g></g><g id="elab6ywj16y5b"><g style="opacity: 0.2; transform-origin: 181.596px 101.885px 0px;" class="animable" id="el3e81wl9gypr"><path d="M181.8,100.08a2.26,2.26,0,0,1,1.5.71,1.57,1.57,0,0,1-.11,2.31c-1.6,1.89-4.31-1.08-3.65-2.25C180,100.09,181.08,100,181.8,100.08Z" style="fill: #6650E9; transform-origin: 181.596px 101.885px 0px;" id="elw6jlaob8c7" class="animable"></path></g></g><g id="el2tyskamfrm7"><g style="opacity: 0.2; transform-origin: 177.289px 103.694px 0px;" class="animable" id="eluo6i543fv3"><path d="M177.61,105a1.77,1.77,0,0,1-1.3-.06,1.25,1.25,0,0,1-.63-1.72c.59-1.86,3.47-.52,3.35.53C179,104.39,178.15,104.77,177.61,105Z" style="fill: #6650E9; transform-origin: 177.289px 103.694px 0px;" id="el9yvhx7i0sxr" class="animable"></path></g></g><path d="M308.25,275.89l1.76-7.75a.68.68,0,0,0-1.14-.64L303.15,273S305,276.18,308.25,275.89Z" style="fill: #6650E9; transform-origin: 306.589px 271.606px 0px;" id="elmgxfltsj6ki" class="animable"></path><g id="el4dcs50wmcd8"><g style="opacity: 0.4; transform-origin: 306.589px 271.606px 0px;" class="animable" id="el0lwr3fpg63s"><path d="M308.25,275.89l1.76-7.75a.68.68,0,0,0-1.14-.64L303.15,273S305,276.18,308.25,275.89Z" style="fill: rgb(255, 255, 255); transform-origin: 306.589px 271.606px 0px;" id="eldrzmaua10ze" class="animable"></path></g></g><path d="M313.09,290.89l3.32-.65,1.66-.32,2.83-.56a.67.67,0,0,0,.12-1.29l-3.61-1.47-3.77-1.52S311.53,288.06,313.09,290.89Z" style="fill: #6650E9; transform-origin: 316.987px 287.985px 0px;" id="elc4c7dcrcx5" class="animable"></path><g id="elg5wrtew91nr"><g style="opacity: 0.4; transform-origin: 316.987px 287.985px 0px;" class="animable" id="elhr7cwbgfi0c"><path d="M313.09,290.89l3.32-.65,1.66-.32,2.83-.56a.67.67,0,0,0,.12-1.29l-3.61-1.47-3.77-1.52S311.53,288.06,313.09,290.89Z" style="fill: rgb(255, 255, 255); transform-origin: 316.987px 287.985px 0px;" id="elay8dpbkh2a" class="animable"></path></g></g><path d="M288.08,277.29l-7.49-2.67a.68.68,0,0,0-.77,1.05l4.81,6.34S288,280.52,288.08,277.29Z" style="fill: #6650E9; transform-origin: 283.882px 278.296px 0px;" id="elyrr97envr3e" class="animable"></path><g id="eldxnpcn2yegp"><g style="opacity: 0.4; transform-origin: 283.882px 278.296px 0px;" class="animable" id="el4pti2l3fsue"><path d="M288.08,277.29l-7.49-2.67a.68.68,0,0,0-.77,1.05l4.81,6.34S288,280.52,288.08,277.29Z" style="fill: rgb(255, 255, 255); transform-origin: 283.882px 278.296px 0px;" id="elabj0cvxwope" class="animable"></path></g></g><path d="M311.82,285.78l6.55-4.51A.68.68,0,0,0,318,280l-8,.19S309.26,283.82,311.82,285.78Z" style="fill: #6650E9; transform-origin: 314.307px 282.89px 0px;" id="elyzg8dbfgpv" class="animable"></path><g id="el9mhx8zbmtx7"><path d="M311.82,285.78l6.55-4.51A.68.68,0,0,0,318,280l-8,.19S309.26,283.82,311.82,285.78Z" style="fill: rgb(255, 255, 255); opacity: 0.4; transform-origin: 314.307px 282.89px 0px;" class="animable" id="elwl5clua3iv"></path></g><path d="M290,296.06l-2.11,7.67a.68.68,0,0,0,1.1.69l6-5.27S293.22,295.93,290,296.06Z" style="fill: #6650E9; transform-origin: 291.429px 300.32px 0px;" id="elby6l6togvai" class="animable"></path><g id="elmf25kkt6hs"><g style="opacity: 0.4; transform-origin: 291.429px 300.32px 0px;" class="animable" id="elxu38uapdf1"><path d="M290,296.06l-2.11,7.67a.68.68,0,0,0,1.1.69l6-5.27S293.22,295.93,290,296.06Z" style="fill: rgb(255, 255, 255); transform-origin: 291.429px 300.32px 0px;" id="eleijdpj259sd" class="animable"></path></g></g><path d="M297.93,301.22l4.5,6.55a.68.68,0,0,0,1.24-.4l-.19-8S299.9,298.66,297.93,301.22Z" style="fill: #6650E9; transform-origin: 300.8px 303.672px 0px;" id="el4nzr5aavsf9" class="animable"></path><g id="el7lj7zlxwlk5"><g style="opacity: 0.4; transform-origin: 300.8px 303.672px 0px;" class="animable" id="elvgo2tqfgh3"><path d="M297.93,301.22l4.5,6.55a.68.68,0,0,0,1.24-.4l-.19-8S299.9,298.66,297.93,301.22Z" style="fill: rgb(255, 255, 255); transform-origin: 300.8px 303.672px 0px;" id="el597jwwvfk0r" class="animable"></path></g></g><path d="M277.24,289.23l6.55,1.27a14.88,14.88,0,0,0,.86,2.37l-3.7,3.64a.68.68,0,0,0,.6,1.15l5.46-1.09a15.47,15.47,0,0,0,1.51,1.52,16.22,16.22,0,0,0,2.64,1.86,15.49,15.49,0,0,0,17.1-1.31l.36-.29.49-.42.06-.06,1.33.34,2.8.72a.67.67,0,0,0,.66-1.11l-2.44-2.68.05-.07c.23-.34.44-.69.64-1.05a15.46,15.46,0,0,0-17.95-22.37l-2.57-3.55a.68.68,0,0,0-1.23.43l.23,4.7c-.42.25-.82.53-1.22.82a15.55,15.55,0,0,0-6.19,11.37l-6.17,2.52A.68.68,0,0,0,277.24,289.23Z" style="fill: #6650E9; transform-origin: 295.445px 284.871px 0px;" id="elpjrcsmrk4d" class="animable"></path><g id="elab53s8d124a"><g style="opacity: 0.5; transform-origin: 295.445px 284.871px 0px;" class="animable" id="elkdpq394am6"><path d="M277.24,289.23l6.55,1.27a14.88,14.88,0,0,0,.86,2.37l-3.7,3.64a.68.68,0,0,0,.6,1.15l5.46-1.09a15.47,15.47,0,0,0,1.51,1.52,16.22,16.22,0,0,0,2.64,1.86,15.49,15.49,0,0,0,17.1-1.31l.36-.29.49-.42.06-.06,1.33.34,2.8.72a.67.67,0,0,0,.66-1.11l-2.44-2.68.05-.07c.23-.34.44-.69.64-1.05a15.46,15.46,0,0,0-17.95-22.37l-2.57-3.55a.68.68,0,0,0-1.23.43l.23,4.7c-.42.25-.82.53-1.22.82a15.55,15.55,0,0,0-6.19,11.37l-6.17,2.52A.68.68,0,0,0,277.24,289.23Z" style="fill: rgb(255, 255, 255); transform-origin: 295.445px 284.871px 0px;" id="eluy8mk0crzc" class="animable"></path></g></g><g id="elxnnti37ygr"><g style="opacity: 0.5; transform-origin: 299.126px 286.097px 0px;" class="animable" id="el2y9h5hpxqk8"><path d="M290.27,281.14a10.15,10.15,0,1,0,13.81-3.9A10.14,10.14,0,0,0,290.27,281.14Z" style="fill: rgb(255, 255, 255); transform-origin: 299.126px 286.097px 0px;" id="elqnq8f4c0yk9" class="animable"></path></g></g><g id="elelx6mzj1dgj"><g style="opacity: 0.2; transform-origin: 303.054px 286.372px 0px;" class="animable" id="elhyo68m3qfn"><path d="M301.41,279.07c1.11-.94,2.91-.36,4.33.82a7,7,0,0,1,2.35,5c.48,4.22-2.74,9.85-7.29,9.2s-3-5,.35-5.59,3.63-4.94.67-7.12C300.5,280.41,300.74,279.63,301.41,279.07Z" style="fill: #6650E9; transform-origin: 303.054px 286.372px 0px;" id="elxr6nvdclxs" class="animable"></path></g></g><g id="elzh0ybgomum"><g style="opacity: 0.2; transform-origin: 296.409px 285.238px 0px;" class="animable" id="elavvu36afwm"><path d="M298,282.13a5.29,5.29,0,0,1,2.33.37c1,.43,2.09,1.28,1.47,2.93-1,2.54-4.53,0-6.22,1.93-2,2.25-5.62.33-4.55-2.13S296.26,282.25,298,282.13Z" style="fill: #6650E9; transform-origin: 296.409px 285.238px 0px;" id="el1tt3119n1u8" class="animable"></path></g></g><g id="elter4d8i04gn"><g style="opacity: 0.2; transform-origin: 294.422px 291.529px 0px;" class="animable" id="elykes0xle1z"><path d="M293.55,289.32a2.87,2.87,0,0,1,3,1.55,2,2,0,0,1-.29,2.32c-1.63,2-4.72-1.7-4.14-3A1.72,1.72,0,0,1,293.55,289.32Z" style="fill: #6650E9; transform-origin: 294.422px 291.529px 0px;" id="elz2u0duprn8m" class="animable"></path></g></g><g id="elfvdiakgca8k"><g style="opacity: 0.2; transform-origin: 298.177px 279.01px 0px;" class="animable" id="elw2r1svqkly"><path d="M298.38,277.2a2.25,2.25,0,0,1,1.5.7,1.58,1.58,0,0,1-.11,2.32c-1.6,1.89-4.31-1.08-3.65-2.25C296.54,277.2,297.66,277.15,298.38,277.2Z" style="fill: #6650E9; transform-origin: 298.177px 279.01px 0px;" id="elaa5hzk06uxc" class="animable"></path></g></g><g id="elcyiqho1l8vh"><g style="opacity: 0.2; transform-origin: 293.869px 280.764px 0px;" class="animable" id="el8txw0wvyyj7"><path d="M294.19,282.07a1.77,1.77,0,0,1-1.3-.06,1.25,1.25,0,0,1-.63-1.72c.59-1.86,3.47-.52,3.35.53C295.53,281.5,294.73,281.88,294.19,282.07Z" style="fill: #6650E9; transform-origin: 293.869px 280.764px 0px;" id="elgexedlxwasf" class="animable"></path></g></g></g><g id="freepik--Arrows--inject-298" style="transform-origin: 261.905px 218.785px 0px;" class="animable"><polygon points="224.66 321.42 220.62 288.09 210.03 298.68 99.68 188.32 83.72 188.59 201.92 306.79 191.33 317.39 224.66 321.42" style="fill: #6650E9; transform-origin: 154.19px 254.87px 0px;" id="elf6a97fjbdp" class="animable"></polygon><g id="elz0zjaxe81zd"><polygon points="224.66 321.42 220.62 288.09 210.03 298.68 99.68 188.32 83.72 188.59 201.92 306.79 191.33 317.39 224.66 321.42" style="fill: rgb(255, 255, 255); opacity: 0.7; transform-origin: 154.19px 254.87px 0px;" class="animable" id="elzz53twhdov"></polygon></g><polygon points="440.09 338.82 436.05 305.49 425.46 316.08 311.86 202.48 263.56 250.78 218.19 205.41 204.71 191.93 204.68 191.96 111.46 98.75 95.25 98.75 209.54 213.04 209.61 213.05 263.56 267 311.86 218.7 417.35 324.19 406.76 334.79 440.09 338.82" style="fill: #6650E9; transform-origin: 267.67px 218.785px 0px;" id="el4ah925lfpeh" class="animable"></polygon><g id="elpw7iqh6jee"><polygon points="440.09 338.82 436.05 305.49 425.46 316.08 311.86 202.48 263.56 250.78 218.19 205.41 204.71 191.93 204.68 191.96 111.46 98.75 95.25 98.75 209.54 213.04 209.61 213.05 263.56 267 311.86 218.7 417.35 324.19 406.76 334.79 440.09 338.82" style="fill: rgb(255, 255, 255); opacity: 0.7; transform-origin: 267.67px 218.785px 0px;" class="animable" id="elc5a59oo6jsr"></polygon></g><polygon points="341.38 191.06 345.68 186.76 365.78 206.87 371.49 201.17 373.6 218.61 356.16 216.5 361.53 211.12 341.38 191.06" style="fill: #6650E9; transform-origin: 357.49px 202.685px 0px;" id="elebkfksns1ii" class="animable"></polygon><polygon points="184.29 230.98 188.59 226.68 208.7 246.79 214.4 241.09 216.51 258.53 199.07 256.42 204.44 251.04 184.29 230.98" style="fill: #6650E9; transform-origin: 200.4px 242.605px 0px;" id="el668d9iead98" class="animable"></polygon><polygon points="349.86 305.49 369.96 325.61 375.66 319.9 377.77 337.34 360.33 335.23 365.71 329.86 345.56 309.79 349.86 305.49" style="fill: #6650E9; transform-origin: 361.665px 321.415px 0px;" id="elklx1xqpzl7c" class="animable"></polygon></g><g id="freepik--Chart--inject-298" style="transform-origin: 276.585px 139.96px 0px;" class="animable"><rect x="220.72" y="105.74" width="111.73" height="68.44" rx="3.52" style="fill: #6650E9; transform-origin: 276.585px 139.96px 0px;" id="elg9y4s7tu149" class="animable"></rect><g id="ell9094b70ec"><rect x="220.72" y="105.74" width="111.73" height="68.44" rx="3.52" style="fill: rgb(255, 255, 255); opacity: 0.7; transform-origin: 276.585px 139.96px 0px;" class="animable" id="elrq1mizb0u8"></rect></g><rect x="237.33" y="123.44" width="9.66" height="39.42" style="fill: #6650E9; transform-origin: 242.16px 143.15px 0px;" id="elgcpy82n9uij" class="animable"></rect><rect x="255.41" y="129.56" width="9.66" height="33.31" style="fill: #6650E9; transform-origin: 260.24px 146.215px 0px;" id="elf277hc1p4ib" class="animable"></rect><rect x="255.41" y="129.56" width="9.66" height="33.31" style="fill: #6650E9; transform-origin: 260.24px 146.215px 0px;" id="elle6woip11a" class="animable"></rect><g id="elc9s2q7n5hcv"><rect x="255.41" y="129.56" width="9.66" height="33.31" style="fill: rgb(255, 255, 255); opacity: 0.3; transform-origin: 260.24px 146.215px 0px;" class="animable" id="el125cd942sq5l"></rect></g><rect x="273.5" y="135.68" width="9.66" height="27.19" style="fill: #6650E9; transform-origin: 278.33px 149.275px 0px;" id="el58hjsonqeko" class="animable"></rect><rect x="291.58" y="141.8" width="9.66" height="21.07" style="fill: #6650E9; transform-origin: 296.41px 152.335px 0px;" id="el0eree5uiffc4" class="animable"></rect><g id="eliprdxbsf0d7"><rect x="291.58" y="141.8" width="9.66" height="21.07" style="fill: rgb(255, 255, 255); opacity: 0.3; transform-origin: 296.41px 152.335px 0px;" class="animable" id="el1gbu69dii4i"></rect></g><rect x="309.67" y="147.92" width="9.66" height="14.95" style="fill: #6650E9; transform-origin: 314.5px 155.395px 0px;" id="elghpg9q1uz36" class="animable"></rect><polygon points="325.03 163.36 230.79 163.36 230.79 117.07 231.79 117.07 231.79 162.36 325.03 162.36 325.03 163.36" style="fill: rgb(38, 50, 56); transform-origin: 277.91px 140.215px 0px;" id="el7p5s1iffzea" class="animable"></polygon><polygon points="312.81 139.79 314.32 137.97 302.93 128.57 296.73 136.1 283.52 125.22 278.59 131.19 265.48 120.38 259.77 127.29 244.78 115.89 244.65 114.52 259.6 125.91 265.34 118.95 278.46 129.77 283.39 123.79 296.59 134.69 302.79 127.15 314.97 137.18 316.29 135.58 317.87 140.42 312.81 139.79" style="fill: #6650E9; transform-origin: 281.26px 127.47px 0px;" id="el5vodjfu1sqn" class="animable"></polygon></g><g id="freepik--speech-bubble--inject-298" style="transform-origin: 98.248px 134.56px 0px;" class="animable"><g id="elfnszlinyk3h"><circle cx="97.43" cy="134.56" r="17.17" style="fill: #6650E9; transform-origin: 97.43px 134.56px 0px; transform: rotate(-76.55deg);" class="animable" id="elz2krj6uxut"></circle></g><g id="elmx4zpta8ga"><g style="opacity: 0.7; transform-origin: 97.43px 134.56px 0px;" class="animable" id="eliws711jv32l"><g id="ell0a9b3ak6cm"><circle cx="97.43" cy="134.56" r="17.17" style="fill: rgb(255, 255, 255); transform-origin: 97.43px 134.56px 0px; transform: rotate(-76.55deg);" class="animable" id="elhgq719bhbzb"></circle></g></g></g><path d="M94.35,141.18a3.1,3.1,0,0,1,6.14,0c0,1.47-1.18,2.62-3.08,2.62S94.35,142.65,94.35,141.18Zm5.35-4.34H95.12l-.63-11.43h5.84Z" style="fill: #6650E9; transform-origin: 97.42px 134.605px 0px;" id="elw1wdwyij5u" class="animable"></path><path d="M97.43,152.09A17.53,17.53,0,1,1,115,134.56,17.55,17.55,0,0,1,97.43,152.09Zm0-34.35a16.82,16.82,0,1,0,16.82,16.82A16.84,16.84,0,0,0,97.43,117.74Z" style="fill: #6650E9; transform-origin: 97.47px 134.56px 0px;" id="elfirwm21i5q9" class="animable"></path><path d="M110.09,146.22l6,1.91a.36.36,0,0,0,.42-.52l-3.38-5.91A17.4,17.4,0,0,1,110.09,146.22Z" style="fill: #6650E9; transform-origin: 113.323px 144.923px 0px;" id="elhy8dxk0m0m" class="animable"></path></g><g id="freepik--Character--inject-298" style="transform-origin: 142.399px 285.049px 0px;" class="animable animator-active"><polygon points="89.22 406.62 85.25 420.94 90.91 423.01 97.46 410.38 89.22 406.62" style="fill: rgb(255, 139, 123); transform-origin: 91.355px 414.815px 0px;" id="elv5oydnnp17" class="animable"></polygon><path d="M89.6,421.19s2.79-3,3.76-2.31.23,5,.23,5,5.29,3.57,6.89,4.12,2.67,1.85,2,5.09l-19.91-5.53s2.13-7.15,2.5-8.37,1.71.8,1.71.8Z" style="fill: rgb(38, 50, 56); transform-origin: 92.6266px 425.933px 0px;" id="elt2z3i5hk8v" class="animable"></path><path d="M146.93,263.29c-1.11,4.43-2.17,15.18-3.46,27.7-.89,8.59-1.88,18-3.07,26.79-1.5,11.24-3.32,21.43-5.63,27.47-8.12,21.29-38,68.3-38,68.3L87.4,411s18.12-51.2,20.12-56.95,10.25-27.5,10.19-50.25S119,260,119,260Z" style="fill: rgb(38, 50, 56); transform-origin: 117.165px 336.775px 0px;" id="elujtybfyc0uf" class="animable"></path><g id="ellweyztxt9p"><path d="M143.47,291c-.89,8.59-1.88,18-3.07,26.79-2.69-16.84-3.56-41.87-3.56-41.87Z" style="opacity: 0.2; transform-origin: 140.155px 296.855px 0px;" class="animable" id="eldrtuycebms"></path></g><polygon points="86.5 411.06 97.47 414.11 99.25 410.83 87.22 407.33 86.5 411.06" style="fill: #6650E9; transform-origin: 92.875px 410.72px 0px;" id="elkkp7rh9dapj" class="animable"></polygon><polygon points="145.33 411.59 145.33 426.46 151.34 426.93 154.28 413.01 145.33 411.59" style="fill: rgb(255, 139, 123); transform-origin: 149.805px 419.26px 0px;" id="el82ay46ncxde" class="animable"></polygon><path d="M149.59,425.53s1.89-3.62,3-3.23,1.57,4.78,1.57,4.78,6.06,2,7.75,2.13,3.06,1.07,3.27,4.37H144.51s.14-7.46.18-8.74,1.86.32,1.86.32Z" style="fill: rgb(38, 50, 56); transform-origin: 154.845px 427.925px 0px;" id="elu9enzhrbgx" class="animable"></path><path d="M138.18,261.75c-2.33,1.54-1,11.68-.63,16.05.68,8.34,5.92,20.73,6.64,31.56.84,12.54,1.44,25.1,1.14,33.81-.77,22.38-.6,73.08-.6,73.08h9.71s11.4-50.4,13.53-73.08c1.78-18.8.3-72.93,0-84.64Z" style="fill: rgb(38, 50, 56); transform-origin: 152.834px 337.39px 0px;" id="elxzkvz69sf7" class="animable"></path><polygon points="143.89 416.6 155.28 416.6 156.12 412.96 143.59 412.81 143.89 416.6" style="fill: #6650E9; transform-origin: 149.855px 414.705px 0px;" id="el75qs1c1ph0d" class="animable"></polygon><path d="M144.53,176.68l-7.77,11.64a99.41,99.41,0,0,1-11.14-8.23,70.15,70.15,0,0,1-5.26-4.91,38.5,38.5,0,0,1-2.6-2.94,20.49,20.49,0,0,1-2.64-4.2l-.33-.77,0-.1c0-.13-.11-.32-.16-.49a6.27,6.27,0,0,1-.24-1,8.09,8.09,0,0,1-.08-1,8.22,8.22,0,0,1,0-.92,7.4,7.4,0,0,1,.34-1.45,6,6,0,0,1,.22-.59c.08-.17.14-.3.22-.45l.23-.42.21-.33a5,5,0,0,1,.41-.57,9.39,9.39,0,0,1,1.34-1.38c.4-.34.75-.6,1.09-.84a27.32,27.32,0,0,1,3.6-2.06,64.59,64.59,0,0,1,6.59-2.67,100.68,100.68,0,0,1,13.13-3.65l2.5,6.46c-3.7,2.3-7.51,4.51-11.13,6.73-1.32.82-2.63,1.64-3.85,2.46l.53.48c1.43,1.26,3,2.52,4.67,3.78C137.68,171.74,141.22,174.26,144.53,176.68Z" style="fill: #6650E9; transform-origin: 129.414px 168.835px 0px;" id="el1qgpitoxrt3" class="animable"></path><path d="M170.39,155a23.56,23.56,0,0,0,4.19,4.87,3.78,3.78,0,0,1-3,1.2Z" style="fill: rgb(255, 86, 82); transform-origin: 172.485px 158.039px 0px;" id="el9inn4mhfug5" class="animable"></path><path d="M166.79,150.8a.4.4,0,0,1-.26-.11.39.39,0,0,1,0-.54,3.85,3.85,0,0,1,3.27-1.28.4.4,0,0,1,.32.45.39.39,0,0,1-.45.31h0a3,3,0,0,0-2.57,1A.41.41,0,0,1,166.79,150.8Z" style="fill: rgb(38, 50, 56); transform-origin: 168.273px 149.825px 0px;" id="el1jfber095ug" class="animable"></path><path d="M152.87,160.34c-1.28,5.92-4.51,16.38-9.9,18.38,0,0-.89,6.18,9.26,10.54,11.15,4.8,7.71-3.24,7.71-3.24-5.47-4.08-3.37-8.52-.48-12.31Z" style="fill: rgb(255, 139, 123); transform-origin: 151.696px 175.564px 0px;" id="eldq45ml157kj" class="animable"></path><path d="M144.53,173.54s3.85-2.92,5.41-2.79,8.39,4.56,8.39,4.56l.06,2.16Z" style="fill: #6650E9; transform-origin: 151.46px 174.108px 0px;" id="eldb7vo0hl5vh" class="animable"></path><path d="M148.19,156.9c2.1,7.78,2.93,12.44,7.73,15.67,7.24,4.86,16.23-.74,16.5-9,.24-7.43-3.23-18.91-11.58-20.46A11,11,0,0,0,148.19,156.9Z" style="fill: rgb(255, 139, 123); transform-origin: 160.104px 158.646px 0px;" id="elt8rk1g55af" class="animable"></path><path d="M168.85,145.14c-3.16,6.59.23,8.07-.46,10.76s-3.87-2.42-5,4.1-9.14,9.64-9.14,9.64a5.46,5.46,0,0,0-4.24-.81c-20.35-15.54-5.44-22.22-5.44-22.22s.06-3.44,4.58-5.49c5.12-2.32,5,.14,10.25-1.57s10.35-5.38,12.4-.86C172.9,141.19,168.85,145.14,168.85,145.14Z" style="fill: rgb(38, 50, 56); transform-origin: 155.646px 153.079px 0px;" id="elfuczff6mbwc" class="animable"></path><path d="M161.44,157.21a9.06,9.06,0,0,0,3.28,4.84c2.11,1.57,3.69,0,3.54-2.37-.14-2.15-1.41-5.57-3.74-6.2S160.83,154.87,161.44,157.21Z" style="fill: rgb(255, 139, 123); transform-origin: 164.782px 158.023px 0px;" id="ellm2secmrx6p" class="animable"></path><path d="M170.39,263.38c-21.22,18.36-54.62,0-54.62,0,4.07-50.1,6.28-76,12.92-85.12,2.8-3.86,7.27-5.7,13-5.08,19.26,2.1,25.81,9.24,27.47,17.39a25,25,0,0,1,.44,3.77c.27,6.53-1.74,13.31-2.27,18.39C166.09,224.15,170.39,263.38,170.39,263.38Z" style="fill: #6650E9; transform-origin: 143.08px 222.301px 0px;" id="el7b3l25wufoe" class="animable"></path><g id="el6c80twzx87a"><path d="M169.56,194.34c-3.59-.88-7.39-2.23-7.39-2.23l7-1.54A25,25,0,0,1,169.56,194.34Z" style="opacity: 0.2; transform-origin: 165.865px 192.455px 0px;" class="animable" id="elvc59xz9ui"></path></g><path d="M202.22,171.3a8.64,8.64,0,0,1-.19,2.2,9.63,9.63,0,0,1-1.32,3.07,14.89,14.89,0,0,1-2.86,3.18,25.81,25.81,0,0,1-2.62,2,40.61,40.61,0,0,1-5,2.83,75.07,75.07,0,0,1-10,4,82.22,82.22,0,0,1-10.33,2.63c-1.77.34-3.58.58-5.45.76a34.4,34.4,0,0,1-6.05.09l.86-14c1.07,0,2.44-.06,3.83-.19s2.87-.38,4.35-.62c2.95-.5,6-1.14,8.93-1.9a86.42,86.42,0,0,0,8.65-2.67c1.36-.51,2.67-1.08,3.8-1.64l.57-.3c-.42-.47-.9-1-1.39-1.45a91.61,91.61,0,0,0-7-6.19c-5-4-10.25-8-15.5-11.8l3.53-6a195.8,195.8,0,0,1,17.67,9.8,93.39,93.39,0,0,1,8.56,6,32,32,0,0,1,4.32,4.12,14.75,14.75,0,0,1,1.14,1.56,10.07,10.07,0,0,1,1.15,2.41,8.65,8.65,0,0,1,.23.91A10.48,10.48,0,0,1,202.22,171.3Z" style="fill: #6650E9; transform-origin: 180.314px 168.726px 0px;" id="elfr9562vjk6u" class="animable"></path><path d="M168.85,145.62a17.43,17.43,0,0,0-3.56-4,10.2,10.2,0,0,0-6.08-1.56c-2.6,0-3.18,3.71-1.89,4.44s2,2.64,2.79,3.46,4.52,3.77,5.74,3.23S168.85,145.62,168.85,145.62Z" style="fill: rgb(255, 139, 123); transform-origin: 162.754px 145.648px 0px;" id="elzbrjqgej8mj" class="animable"></path><path d="M144.71,145.7a15.34,15.34,0,0,1-.7,4.92c-.74,2.25-3.34,4.39-4.52,4.62s-1.11-2.73.25-5.94C141.46,145.22,144.71,145.7,144.71,145.7Z" style="fill: rgb(255, 139, 123); transform-origin: 141.686px 150.468px 0px;" id="eljdgezr4qvhd" class="animable"></path><path d="M166.08,150.82s-3.22.73-5.17,0-3.37-1.37-2.09-1.85a14.53,14.53,0,0,1,4.3-.28Z" style="fill: rgb(255, 139, 123); transform-origin: 162.205px 149.892px 0px;" id="elrdsypws15hf" class="animable"></path></g><defs>     <filter id="active" height="200%">         <feMorphology in="SourceAlpha" result="DILATED" operator="dilate" radius="2"></feMorphology>                <feFlood flood-color="#32DFEC" flood-opacity="1" result="PINK"></feFlood>        <feComposite in="PINK" in2="DILATED" operator="in" result="OUTLINE"></feComposite>        <feMerge>            <feMergeNode in="OUTLINE"></feMergeNode>            <feMergeNode in="SourceGraphic"></feMergeNode>        </feMerge>    </filter>    <filter id="hover" height="200%">        <feMorphology in="SourceAlpha" result="DILATED" operator="dilate" radius="2"></feMorphology>                <feFlood flood-color="#ff0000" flood-opacity="0.5" result="PINK"></feFlood>        <feComposite in="PINK" in2="DILATED" operator="in" result="OUTLINE"></feComposite>        <feMerge>            <feMergeNode in="OUTLINE"></feMergeNode>            <feMergeNode in="SourceGraphic"></feMergeNode>        </feMerge>            <feColorMatrix type="matrix" values="0   0   0   0   0                0   1   0   0   0                0   0   0   0   0                0   0   0   1   0 "></feColorMatrix>    </filter></defs></svg>