<svg class="animated" id="freepik_stories-flamenco-dance" xmlns="http://www.w3.org/2000/svg" viewBox="0 0 500 500" version="1.1" xmlns:xlink="http://www.w3.org/1999/xlink" xmlns:svgjs="http://svgjs.com/svgjs"><style>svg#freepik_stories-flamenco-dance:not(.animated) .animable {opacity: 0;}svg#freepik_stories-flamenco-dance.animated #freepik--musical-notes--inject-40 {animation: 1.5s Infinite  linear floating;animation-delay: 0s;}svg#freepik_stories-flamenco-dance.animated #freepik--character-1--inject-40 {animation: 1.5s Infinite  linear wind;animation-delay: 0s;}            @keyframes floating {                0% {                    opacity: 1;                    transform: translateY(0px);                }                50% {                    transform: translateY(-10px);                }                100% {                    opacity: 1;                    transform: translateY(0px);                }            }                    @keyframes wind {                0% {                    transform: rotate( 0deg );                }                25% {                    transform: rotate( 1deg );                }                75% {                    transform: rotate( -1deg );                }            }        </style><g id="freepik--background-complete--inject-40" style="transform-origin: 250px 228.23px 0px;" class="animable"><rect y="382.4" width="500" height="0.25" style="fill: rgb(235, 235, 235); transform-origin: 250px 382.525px 0px;" id="elqmgsp75cyi" class="animable"></rect><rect x="416.78" y="398.49" width="33.12" height="0.25" style="fill: rgb(235, 235, 235); transform-origin: 433.34px 398.615px 0px;" id="el8743zuz9x99" class="animable"></rect><rect x="322.53" y="401.21" width="8.69" height="0.25" style="fill: rgb(235, 235, 235); transform-origin: 326.875px 401.335px 0px;" id="el11zk76teryrc" class="animable"></rect><rect x="396.59" y="389.21" width="19.19" height="0.25" style="fill: rgb(235, 235, 235); transform-origin: 406.185px 389.335px 0px;" id="elncofjncxm5" class="animable"></rect><rect x="52.46" y="390.89" width="43.19" height="0.25" style="fill: rgb(235, 235, 235); transform-origin: 74.055px 391.015px 0px;" id="elz7qt3zdbib" class="animable"></rect><rect x="104.56" y="390.89" width="6.33" height="0.25" style="fill: rgb(235, 235, 235); transform-origin: 107.725px 391.015px 0px;" id="elsgyybsamdg" class="animable"></rect><rect x="131.47" y="395.11" width="93.68" height="0.25" style="fill: rgb(235, 235, 235); transform-origin: 178.31px 395.235px 0px;" id="elvtgvzwokp9" class="animable"></rect><path d="M237,337.8H43.91a5.71,5.71,0,0,1-5.7-5.71V60.66A5.71,5.71,0,0,1,43.91,55H237a5.71,5.71,0,0,1,5.71,5.71V332.09A5.71,5.71,0,0,1,237,337.8ZM43.91,55.2a5.46,5.46,0,0,0-5.45,5.46V332.09a5.46,5.46,0,0,0,5.45,5.46H237a5.47,5.47,0,0,0,5.46-5.46V60.66A5.47,5.47,0,0,0,237,55.2Z" style="fill: rgb(235, 235, 235); transform-origin: 140.46px 196.4px 0px;" id="elllviymgvwn" class="animable"></path><path d="M453.31,337.8H260.21a5.72,5.72,0,0,1-5.71-5.71V60.66A5.72,5.72,0,0,1,260.21,55h193.1A5.71,5.71,0,0,1,459,60.66V332.09A5.71,5.71,0,0,1,453.31,337.8ZM260.21,55.2a5.47,5.47,0,0,0-5.46,5.46V332.09a5.47,5.47,0,0,0,5.46,5.46h193.1a5.47,5.47,0,0,0,5.46-5.46V60.66a5.47,5.47,0,0,0-5.46-5.46Z" style="fill: rgb(235, 235, 235); transform-origin: 356.75px 196.4px 0px;" id="elde9llp42emq" class="animable"></path><polygon points="337.11 375.01 225.22 111.52 152.95 111.52 332.38 376.59 337.11 375.01" style="fill: rgb(245, 245, 245); transform-origin: 245.03px 244.055px 0px;" id="elfw1c8l4bp" class="animable"></polygon><polygon points="347.05 381.82 317.7 381.82 322.7 371.37 342.05 371.37 347.05 381.82" style="fill: rgb(224, 224, 224); transform-origin: 332.375px 376.595px 0px;" id="elw6vg0kivsm" class="animable"></polygon><polygon points="162.9 375.01 274.78 111.52 347.05 111.52 167.63 376.59 162.9 375.01" style="fill: rgb(245, 245, 245); transform-origin: 254.975px 244.055px 0px;" id="eltxbrwb98q4f" class="animable"></polygon><polygon points="152.95 381.82 182.3 381.82 177.3 371.37 157.95 371.37 152.95 381.82" style="fill: rgb(224, 224, 224); transform-origin: 167.625px 376.595px 0px;" id="elhoovcsv3o7e" class="animable"></polygon><path d="M418.8,118.65V381.82H395.89s1-95.81,14.93-131c0,0-57.5-47.07-77.78-134.42Z" style="fill: rgb(230, 230, 230); transform-origin: 375.92px 249.11px 0px;" id="elz6es0za5xgs" class="animable"></path><path d="M348.38,118.65s13.45,65.4,48.76,98.79c0,0-32.78-43.79-36.75-97.44Z" style="fill: rgb(224, 224, 224); transform-origin: 372.76px 168.045px 0px;" id="el4potmddssnv" class="animable"></path><path d="M381.83,120s8.2,51,22.58,75.77c0,0-15.44-48.77-12.71-75.36Z" style="fill: rgb(224, 224, 224); transform-origin: 393.12px 157.885px 0px;" id="elir3akvx76sa" class="animable"></path><path d="M81.2,118.65V381.82h22.91s-1-95.81-14.93-131c0,0,57.5-47.07,77.78-134.42Z" style="fill: rgb(230, 230, 230); transform-origin: 124.08px 249.11px 0px;" id="elf85yqo7now4" class="animable"></path><path d="M151.62,118.65s-13.45,65.4-48.76,98.79c0,0,32.78-43.79,36.75-97.44Z" style="fill: rgb(224, 224, 224); transform-origin: 127.24px 168.045px 0px;" id="eluu8o2f3m2l" class="animable"></path><path d="M118.17,120s-8.2,51-22.58,75.77c0,0,15.44-48.77,12.71-75.36Z" style="fill: rgb(224, 224, 224); transform-origin: 106.88px 157.885px 0px;" id="elubt7i0tb90m" class="animable"></path><rect x="76.66" y="105.05" width="346.69" height="18.36" rx="3.18" style="fill: rgb(240, 240, 240); transform-origin: 250.005px 114.23px 0px;" id="elxhuy2zjy7er" class="animable"></rect></g><g id="freepik--Shadow--inject-40" style="transform-origin: 250px 416.24px 0px;" class="animable"><ellipse id="freepik--path--inject-40" cx="250" cy="416.24" rx="193.89" ry="11.32" style="fill: rgb(245, 245, 245); transform-origin: 250px 416.24px 0px;" class="animable"></ellipse></g><g id="freepik--Speakers--inject-40" style="transform-origin: 250px 391.365px 0px;" class="animable"><polygon points="446.21 411.38 373.81 411.38 387.3 371.35 421.32 371.35 443.47 386.78 446.21 411.38" style="fill: rgb(38, 50, 56); transform-origin: 410.01px 391.365px 0px;" id="el8hukme6sef8" class="animable"></polygon><g id="ell98as45e2h8"><polygon points="446.21 411.38 373.81 411.38 387.3 371.35 421.32 371.35 443.47 386.78 446.21 411.38" style="fill: rgb(255, 255, 255); isolation: isolate; opacity: 0.3; transform-origin: 410.01px 391.365px 0px;" class="animable"></polygon></g><g id="eld425lxyzz84"><polygon points="421.32 371.35 412.62 411.38 373.81 411.38 387.3 371.35 421.32 371.35" style="fill: rgb(255, 255, 255); isolation: isolate; opacity: 0.2; transform-origin: 397.565px 391.365px 0px;" class="animable"></polygon></g><g id="elw5slw43y0ct"><ellipse cx="398.39" cy="391.36" rx="15.46" ry="11.16" style="fill: rgb(38, 50, 56); transform-origin: 398.39px 391.36px 0px; transform: rotate(-72.58deg);" class="animable"></ellipse></g><g id="elpab3bi7g85"><ellipse cx="398.39" cy="391.36" rx="15.46" ry="11.16" style="fill: rgb(255, 255, 255); isolation: isolate; opacity: 0.2; transform-origin: 398.39px 391.36px 0px; transform: rotate(-72.58deg);" class="animable"></ellipse></g><g id="el8ctv212dend"><path d="M397.06,401.07c3.57,1.12,7.73-2,9.28-6.94s-.08-9.87-3.66-11-7.72,2-9.28,6.93S393.49,399.94,397.06,401.07Zm-2.83-10.74c1.35-4.32,5-7,8.1-6.05s4.54,5.27,3.19,9.59-5,7-8.1,6.06S392.87,394.65,394.23,390.33Z" style="opacity: 0.2; transform-origin: 399.869px 392.098px 0px;" class="animable"></path></g><g id="el0ick20w3s397"><path d="M400.06,392.07c.51-1.62,1.87-2.64,3-2.27s1.71,2,1.2,3.6-1.87,2.64-3,2.27S399.56,393.69,400.06,392.07Z" style="opacity: 0.2; transform-origin: 402.162px 392.735px 0px;" class="animable"></path></g><polygon points="53.79 411.38 126.19 411.38 112.7 371.35 78.68 371.35 56.53 386.78 53.79 411.38" style="fill: rgb(38, 50, 56); transform-origin: 89.99px 391.365px 0px;" id="el5mn4s9urgan" class="animable"></polygon><g id="ela6rtsw9jk3"><polygon points="53.79 411.38 126.19 411.38 112.7 371.35 78.68 371.35 56.53 386.78 53.79 411.38" style="fill: rgb(255, 255, 255); isolation: isolate; opacity: 0.3; transform-origin: 89.99px 391.365px 0px;" class="animable"></polygon></g><g id="elqey5ej4lan8"><polygon points="78.68 371.35 87.39 411.38 126.19 411.38 112.7 371.35 78.68 371.35" style="fill: rgb(255, 255, 255); isolation: isolate; opacity: 0.2; transform-origin: 102.435px 391.365px 0px;" class="animable"></polygon></g><g id="elk0sfjom3nc"><ellipse cx="101.61" cy="391.36" rx="11.16" ry="15.46" style="fill: rgb(38, 50, 56); transform-origin: 101.61px 391.36px 0px; transform: rotate(-17.42deg);" class="animable"></ellipse></g><g id="elov44aftoiyi"><ellipse cx="101.61" cy="391.36" rx="11.16" ry="15.46" style="fill: rgb(255, 255, 255); isolation: isolate; opacity: 0.2; transform-origin: 101.61px 391.36px 0px; transform: rotate(-17.42deg);" class="animable"></ellipse></g><g id="elrrveml9rixs"><path d="M106.6,390.07c-1.56-4.95-5.71-8.05-9.28-6.93s-5.21,6-3.66,11,5.71,8.06,9.28,6.94S108.15,395,106.6,390.07Zm-4,9.86c-3.12,1-6.74-1.74-8.1-6.06s.08-8.61,3.19-9.59,6.75,1.73,8.1,6.05S105.7,399,102.58,399.93Z" style="opacity: 0.2; transform-origin: 100.13px 392.111px 0px;" class="animable"></path></g><g id="elgrkofs8yhrj"><path d="M99.94,392.07c-.51-1.62-1.87-2.64-3-2.27s-1.71,2-1.2,3.6,1.87,2.64,3,2.27S100.44,393.69,99.94,392.07Z" style="opacity: 0.2; transform-origin: 97.8379px 392.735px 0px;" class="animable"></path></g></g><g id="freepik--musical-notes--inject-40" style="transform-origin: 249.392px 224.506px 0px;" class="animable"><path d="M403.23,304.52c-4.24,0-9.48-.85-13.82-4.12-5.79-4.38-8.72-12-8.71-22.78,0-16.11-7.42-31.75-20.41-42.92-14-12-40.84-24.81-89.22-17.39-26.72,4.09-42.54,2.95-51.29-3.71-8.38-6.37-9.65-17.11-11.27-30.72-1-8.9-2.25-19-5.74-29.59-3.13-9.53-10.51-16.34-21.93-20.22-9.17-3.12-21-4.38-35-3.74a235.36,235.36,0,0,0-46.76,7.47.25.25,0,0,1-.31-.17.24.24,0,0,1,.17-.31,235.88,235.88,0,0,1,46.87-7.49c14.12-.64,26,.62,35.19,3.76,11.59,3.94,19.07,10.85,22.26,20.54,3.5,10.66,4.7,20.77,5.76,29.69,1.6,13.49,2.86,24.14,11.07,30.39,8.64,6.57,24.34,7.68,50.91,3.6,48.57-7.44,75.54,5.42,89.62,17.51,13.1,11.27,20.61,27.05,20.59,43.3,0,10.57,2.85,18.1,8.51,22.38,8.7,6.57,21.15,3.12,21.28,3.08a.25.25,0,0,1,.14.49A33,33,0,0,1,403.23,304.52Z" style="fill: rgb(38, 50, 56); transform-origin: 255.041px 216.594px 0px;" id="el9tskamxnm1" class="animable"></path><path d="M400.4,311.47c-4.24,0-9.48-.84-13.81-4.12-5.8-4.38-8.73-12-8.72-22.78,0-16.11-7.42-31.75-20.41-42.91-14-12-40.84-24.82-89.21-17.4-26.72,4.1-42.54,3-51.3-3.7-8.37-6.37-9.65-17.12-11.26-30.73-1.06-8.9-2.26-19-5.74-29.59-3.14-9.53-10.52-16.33-21.94-20.22-9.17-3.12-20.95-4.37-35-3.74-24,1.09-46.53,7.41-46.76,7.47a.25.25,0,0,1-.14-.48c.23-.06,22.85-6.39,46.87-7.49,14.12-.64,26,.63,35.2,3.77,11.58,3.93,19.07,10.85,22.25,20.54,3.5,10.65,4.7,20.76,5.76,29.68,1.6,13.49,2.87,24.15,11.07,30.39,8.64,6.57,24.35,7.68,50.92,3.61,48.56-7.45,75.54,5.41,89.62,17.51,13.1,11.26,20.6,27,20.58,43.29,0,10.57,2.86,18.1,8.52,22.38,8.69,6.57,21.15,3.12,21.27,3.09a.25.25,0,1,1,.14.48A32.2,32.2,0,0,1,400.4,311.47Z" style="fill: rgb(38, 50, 56); transform-origin: 252.21px 223.545px 0px;" id="elx8xa6fex7ch" class="animable"></path><path d="M397.58,318.43c-4.25,0-9.48-.85-13.82-4.12-5.79-4.38-8.73-12.05-8.71-22.78,0-16.11-7.42-31.75-20.42-42.92-14-12-40.83-24.81-89.21-17.39-26.72,4.09-42.54,2.95-51.29-3.71-8.38-6.37-9.65-17.12-11.27-30.72-1.06-8.9-2.25-19-5.74-29.59-3.13-9.54-10.51-16.34-21.93-20.23-9.17-3.12-20.95-4.37-35-3.73a235.71,235.71,0,0,0-46.77,7.47.24.24,0,0,1-.3-.18.24.24,0,0,1,.17-.3,235.55,235.55,0,0,1,46.87-7.49c14.12-.65,26,.62,35.19,3.76,11.58,3.94,19.07,10.85,22.26,20.54,3.5,10.65,4.7,20.77,5.76,29.69,1.6,13.49,2.86,24.14,11.07,30.38,8.64,6.57,24.34,7.69,50.91,3.61,48.57-7.44,75.54,5.42,89.62,17.51,13.1,11.26,20.61,27,20.59,43.3,0,10.57,2.85,18.1,8.51,22.38,8.7,6.57,21.15,3.12,21.28,3.08a.25.25,0,0,1,.31.18.24.24,0,0,1-.17.3A32.09,32.09,0,0,1,397.58,318.43Z" style="fill: rgb(38, 50, 56); transform-origin: 249.39px 230.502px 0px;" id="eldfhhacpoga4" class="animable"></path><path d="M394.75,325.38c-4.24,0-9.48-.84-13.81-4.12-5.8-4.38-8.73-12-8.72-22.78,0-16.11-7.42-31.75-20.41-42.91-14-12-40.84-24.82-89.22-17.4-26.71,4.1-42.53,3-51.29-3.7-8.37-6.37-9.65-17.12-11.26-30.73-1.06-8.9-2.26-19-5.74-29.59-3.14-9.53-10.52-16.34-21.94-20.22-9.17-3.12-21-4.38-35-3.74a236.37,236.37,0,0,0-46.76,7.47.25.25,0,1,1-.14-.48c.23-.06,22.85-6.39,46.87-7.49,14.13-.64,26,.62,35.2,3.76,11.58,3.94,19.07,10.85,22.25,20.55,3.5,10.65,4.7,20.76,5.76,29.68,1.6,13.49,2.87,24.15,11.07,30.39,8.64,6.57,24.35,7.68,50.92,3.61,48.56-7.45,75.54,5.41,89.61,17.51,13.11,11.26,20.61,27,20.59,43.29,0,10.57,2.85,18.1,8.52,22.38,8.69,6.57,21.15,3.12,21.27,3.09a.25.25,0,0,1,.31.17.25.25,0,0,1-.17.31A32.2,32.2,0,0,1,394.75,325.38Z" style="fill: rgb(38, 50, 56); transform-origin: 246.559px 237.454px 0px;" id="elg4ptbq20osp" class="animable"></path><path d="M391.93,332.33c-4.25,0-9.48-.84-13.82-4.11-5.79-4.38-8.73-12.05-8.71-22.79,0-16.1-7.42-31.74-20.42-42.91-14-12-40.83-24.81-89.21-17.4-26.72,4.1-42.54,3-51.29-3.7-8.38-6.37-9.65-17.12-11.27-30.73-1.06-8.89-2.25-19-5.74-29.58-3.13-9.54-10.51-16.34-21.93-20.23-9.18-3.12-21-4.37-35-3.73a234.87,234.87,0,0,0-46.77,7.47.24.24,0,0,1-.3-.18.25.25,0,0,1,.17-.31,236.79,236.79,0,0,1,46.87-7.48c14.12-.65,26,.62,35.19,3.76,11.58,3.94,19.07,10.85,22.26,20.54,3.5,10.65,4.7,20.76,5.76,29.69,1.6,13.49,2.86,24.14,11.07,30.38,8.64,6.57,24.34,7.69,50.91,3.61,48.57-7.44,75.54,5.41,89.62,17.51,13.1,11.26,20.61,27,20.59,43.29,0,10.58,2.85,18.11,8.51,22.38,8.69,6.57,21.15,3.13,21.28,3.09a.25.25,0,0,1,.31.17.26.26,0,0,1-.17.31A32.4,32.4,0,0,1,391.93,332.33Z" style="fill: rgb(38, 50, 56); transform-origin: 243.739px 244.407px 0px;" id="el9v0ozvrukha" class="animable"></path><g id="elfyta2jq2zwn"><g style="opacity: 0.7; transform-origin: 249.392px 230.499px 0px;" class="animable"><path d="M403.23,304.52c-4.24,0-9.48-.85-13.82-4.12-5.79-4.38-8.72-12-8.71-22.78,0-16.11-7.42-31.75-20.41-42.92-14-12-40.84-24.81-89.22-17.39-26.72,4.09-42.54,2.95-51.29-3.71-8.38-6.37-9.65-17.11-11.27-30.72-1-8.9-2.25-19-5.74-29.59-3.13-9.53-10.51-16.34-21.93-20.22-9.17-3.12-21-4.38-35-3.74a235.36,235.36,0,0,0-46.76,7.47.25.25,0,0,1-.31-.17.24.24,0,0,1,.17-.31,235.88,235.88,0,0,1,46.87-7.49c14.12-.64,26,.62,35.19,3.76,11.59,3.94,19.07,10.85,22.26,20.54,3.5,10.66,4.7,20.77,5.76,29.69,1.6,13.49,2.86,24.14,11.07,30.39,8.64,6.57,24.34,7.68,50.91,3.6,48.57-7.44,75.54,5.42,89.62,17.51,13.1,11.27,20.61,27.05,20.59,43.3,0,10.57,2.85,18.1,8.51,22.38,8.7,6.57,21.15,3.12,21.28,3.08a.25.25,0,0,1,.14.49A33,33,0,0,1,403.23,304.52Z" style="fill: rgb(255, 255, 255); transform-origin: 255.041px 216.594px 0px;" id="eld4eb47nvgmv" class="animable"></path><path d="M400.4,311.47c-4.24,0-9.48-.84-13.81-4.12-5.8-4.38-8.73-12-8.72-22.78,0-16.11-7.42-31.75-20.41-42.91-14-12-40.84-24.82-89.21-17.4-26.72,4.1-42.54,3-51.3-3.7-8.37-6.37-9.65-17.12-11.26-30.73-1.06-8.9-2.26-19-5.74-29.59-3.14-9.53-10.52-16.33-21.94-20.22-9.17-3.12-20.95-4.37-35-3.74-24,1.09-46.53,7.41-46.76,7.47a.25.25,0,0,1-.14-.48c.23-.06,22.85-6.39,46.87-7.49,14.12-.64,26,.63,35.2,3.77,11.58,3.93,19.07,10.85,22.25,20.54,3.5,10.65,4.7,20.76,5.76,29.68,1.6,13.49,2.87,24.15,11.07,30.39,8.64,6.57,24.35,7.68,50.92,3.61,48.56-7.45,75.54,5.41,89.62,17.51,13.1,11.26,20.6,27,20.58,43.29,0,10.57,2.86,18.1,8.52,22.38,8.69,6.57,21.15,3.12,21.27,3.09a.25.25,0,1,1,.14.48A32.2,32.2,0,0,1,400.4,311.47Z" style="fill: rgb(255, 255, 255); transform-origin: 252.21px 223.545px 0px;" id="el66g0yve0brw" class="animable"></path><path d="M397.58,318.43c-4.25,0-9.48-.85-13.82-4.12-5.79-4.38-8.73-12.05-8.71-22.78,0-16.11-7.42-31.75-20.42-42.92-14-12-40.83-24.81-89.21-17.39-26.72,4.09-42.54,2.95-51.29-3.71-8.38-6.37-9.65-17.12-11.27-30.72-1.06-8.9-2.25-19-5.74-29.59-3.13-9.54-10.51-16.34-21.93-20.23-9.17-3.12-20.95-4.37-35-3.73a235.71,235.71,0,0,0-46.77,7.47.24.24,0,0,1-.3-.18.24.24,0,0,1,.17-.3,235.55,235.55,0,0,1,46.87-7.49c14.12-.65,26,.62,35.19,3.76,11.58,3.94,19.07,10.85,22.26,20.54,3.5,10.65,4.7,20.77,5.76,29.69,1.6,13.49,2.86,24.14,11.07,30.38,8.64,6.57,24.34,7.69,50.91,3.61,48.57-7.44,75.54,5.42,89.62,17.51,13.1,11.26,20.61,27,20.59,43.3,0,10.57,2.85,18.1,8.51,22.38,8.7,6.57,21.15,3.12,21.28,3.08a.25.25,0,0,1,.31.18.24.24,0,0,1-.17.3A32.09,32.09,0,0,1,397.58,318.43Z" style="fill: rgb(255, 255, 255); transform-origin: 249.39px 230.502px 0px;" id="elt0l91a8euu9" class="animable"></path><path d="M394.75,325.38c-4.24,0-9.48-.84-13.81-4.12-5.8-4.38-8.73-12-8.72-22.78,0-16.11-7.42-31.75-20.41-42.91-14-12-40.84-24.82-89.22-17.4-26.71,4.1-42.53,3-51.29-3.7-8.37-6.37-9.65-17.12-11.26-30.73-1.06-8.9-2.26-19-5.74-29.59-3.14-9.53-10.52-16.34-21.94-20.22-9.17-3.12-21-4.38-35-3.74a236.37,236.37,0,0,0-46.76,7.47.25.25,0,1,1-.14-.48c.23-.06,22.85-6.39,46.87-7.49,14.13-.64,26,.62,35.2,3.76,11.58,3.94,19.07,10.85,22.25,20.55,3.5,10.65,4.7,20.76,5.76,29.68,1.6,13.49,2.87,24.15,11.07,30.39,8.64,6.57,24.35,7.68,50.92,3.61,48.56-7.45,75.54,5.41,89.61,17.51,13.11,11.26,20.61,27,20.59,43.29,0,10.57,2.85,18.1,8.52,22.38,8.69,6.57,21.15,3.12,21.27,3.09a.25.25,0,0,1,.31.17.25.25,0,0,1-.17.31A32.2,32.2,0,0,1,394.75,325.38Z" style="fill: rgb(255, 255, 255); transform-origin: 246.559px 237.454px 0px;" id="elose5dw1v7lf" class="animable"></path><path d="M391.93,332.33c-4.25,0-9.48-.84-13.82-4.11-5.79-4.38-8.73-12.05-8.71-22.79,0-16.1-7.42-31.74-20.42-42.91-14-12-40.83-24.81-89.21-17.4-26.72,4.1-42.54,3-51.29-3.7-8.38-6.37-9.65-17.12-11.27-30.73-1.06-8.89-2.25-19-5.74-29.58-3.13-9.54-10.51-16.34-21.93-20.23-9.18-3.12-21-4.37-35-3.73a234.87,234.87,0,0,0-46.77,7.47.24.24,0,0,1-.3-.18.25.25,0,0,1,.17-.31,236.79,236.79,0,0,1,46.87-7.48c14.12-.65,26,.62,35.19,3.76,11.58,3.94,19.07,10.85,22.26,20.54,3.5,10.65,4.7,20.76,5.76,29.69,1.6,13.49,2.86,24.14,11.07,30.38,8.64,6.57,24.34,7.69,50.91,3.61,48.57-7.44,75.54,5.41,89.62,17.51,13.1,11.26,20.61,27,20.59,43.29,0,10.58,2.85,18.11,8.51,22.38,8.69,6.57,21.15,3.13,21.28,3.09a.25.25,0,0,1,.31.17.26.26,0,0,1-.17.31A32.4,32.4,0,0,1,391.93,332.33Z" style="fill: rgb(255, 255, 255); transform-origin: 243.739px 244.407px 0px;" id="el8t6xprywlb" class="animable"></path></g></g><path d="M371,312c-.32.81-1.74,1-3.15.45s-2.31-1.68-2-2.49,1.73-1,3.15-.45S371.29,311.16,371,312Z" style="fill: rgb(102, 80, 233); transform-origin: 368.422px 310.98px 0px;" id="elbilm7yf96p" class="animable"></path><path d="M376.09,329.38c-.33.81-1.74,1-3.16.45s-2.3-1.68-2-2.49,1.73-1,3.15-.45S376.41,328.57,376.09,329.38Z" style="fill: rgb(102, 80, 233); transform-origin: 373.513px 328.36px 0px;" id="elqo5brhp1zu" class="animable"></path><polygon points="370.97 311.97 373.91 298.5 378.07 315.17 375.24 329.04 376.08 329.38 379.76 310.41 375.07 290.06 370.38 311.39 370.97 311.97" style="fill: rgb(102, 80, 233); transform-origin: 375.07px 309.72px 0px;" id="elcom7shu3xi5" class="animable"></polygon><path d="M209.06,166.18,203,140l-5.81,26.41a5.3,5.3,0,0,0-2-1.4c-1.83-.72-3.64-.46-4.06.58s.73,2.48,2.56,3.21,3.65.46,4.06-.58l3.79-17.35,5.36,21.47-3.31,16.25a5.47,5.47,0,0,0-1.8-1.15c-1.83-.72-3.65-.46-4.06.58s.73,2.48,2.55,3.2,3.65.47,4.06-.57a1.27,1.27,0,0,0,.09-.43Z" style="fill: rgb(102, 80, 233); transform-origin: 200.052px 165.815px 0px;" id="elb4hqujpebl5" class="animable"></path><path d="M308.93,208.88l-21.19,4v24.57a5.13,5.13,0,0,0-2.62.36c-1.82.73-3,2.16-2.55,3.21s2.23,1.3,4.05.57,3-2.16,2.56-3.2V224.14l18.34-3.71v13a5,5,0,0,0-2.65.35c-1.83.73-3,2.16-2.56,3.21s2.23,1.3,4.06.58,3-2.17,2.56-3.21Zm-19.75,13.55V220l18.34-4v2.74Z" style="fill: rgb(102, 80, 233); transform-origin: 295.748px 225.444px 0px;" id="elqx3k5ifrm1h" class="animable"></path><path d="M215.94,210.73l-3.52,30.38a5,5,0,0,0-2.79-.51c-2,.17-3.47,1.21-3.37,2.33s1.76,1.89,3.72,1.73,3.47-1.21,3.37-2.33l2.88-24.21s1,4.38,2.57,6.06,1.25,4.84,1.25,4.84,1.8-5.78-.33-7.71S215.94,210.73,215.94,210.73Z" style="fill: rgb(102, 80, 233); transform-origin: 213.508px 227.706px 0px;" id="elqw6z2sn5lxg" class="animable"></path><path d="M377.86,248c-1.81-2.23-2.14-11-2.14-11l-8.08,29.5a4.88,4.88,0,0,0-2.68-.93c-2-.13-3.61.67-3.69,1.79s1.46,2.14,3.42,2.27,3.61-.67,3.69-1.79l6.51-23.49s.32,4.47,1.63,6.38.49,5,.49,5S379.67,250.2,377.86,248Z" style="fill: rgb(102, 80, 233); transform-origin: 369.879px 253.322px 0px;" id="el0z35hpnylio" class="animable"></path><path d="M253.39,216.71c-1.74-1.45-3-4.07-3.91-6.29l-.18-3.26s1.75,4.31,3.63,6S255,217.9,255,217.9s.8-5.7-1.66-7.6-5.63-10.43-5.63-10.43l1.76,29.95a5.34,5.34,0,0,0-2.87-.5c-1.93.16-3.26,1.18-3,2.29s2.08,1.86,4,1.7,3.27-1.19,3-2.29l-.9-16.16a15.1,15.1,0,0,0,3.24,4.68,9.4,9.4,0,0,1,2.08,4.77S255.78,218.7,253.39,216.71Z" style="fill: rgb(102, 80, 233); transform-origin: 249.351px 216.601px 0px;" id="el0cdkskbyc4ej" class="animable"></path><path d="M336.34,231.18l-4.27,29.69a5.36,5.36,0,0,0-2.71-1.06c-1.93-.23-3.44.51-3.37,1.65s1.67,2.24,3.59,2.47,3.44-.51,3.38-1.65l2.35-16a15,15,0,0,0,2.24,5.23,9.46,9.46,0,0,1,1.08,5.09s1.84-5.35-.11-7.78c-1.42-1.76-2.17-4.6-2.56-6.94l.47-3.24s.85,4.58,2.36,6.58,1.09,5.1,1.09,5.1,1.92-5.43-.11-7.79S336.34,231.18,336.34,231.18Z" style="fill: rgb(102, 80, 233); transform-origin: 333.345px 247.576px 0px;" id="elxn4xa0pbrmc" class="animable"></path><path d="M175,119.27c-.42-1.81-1.62-2.77-3.19-2.56-2.89.37-4.52,7.14-6.59,21.22a16.15,16.15,0,0,1-5.68,3.57c-5.8,2-8.94,5.88-8.4,10.3a9.4,9.4,0,0,0,8.64,7.87,13.29,13.29,0,0,0,2.27,0c-.78,4.6-1.42,7.67-2.38,8.78a1.72,1.72,0,0,1-2,.31,1.89,1.89,0,0,1-.89-2.88s1.58.79,2.18-1.71-2.78-2.92-4.35,1.1c-2.13,5.51,4.35,8.52,7.35,3.22.93-1.63,1.46-4.64,2.21-9.16,5-1.27,8.11-5.51,8.48-8.83.34-3.05-1.41-5.19-4.56-5.59a14.59,14.59,0,0,0-1.81-.12h0c.26-1.87.54-3.9.84-6C172.9,132.88,176,123.56,175,119.27Zm-2.94-.58h.17c.26,0,.61.13.83,1,.69,2.93-1.25,10-5.41,15.48C168.89,126.93,170.47,119,172,118.69Zm-8.66,32.16c-1-.45-1.59-1.23-1.43-2a2.57,2.57,0,0,1,2-1.69C163.71,148.33,163.53,149.58,163.35,150.85ZM160,148.41c-.39,1.91.88,3.72,3.11,4.47-.24,1.61-.48,3.22-.73,4.76a10.81,10.81,0,0,1-2.42,0,7.41,7.41,0,0,1-6.85-6.12c-.41-3.42,2.24-6.48,7.08-8.17a16.87,16.87,0,0,0,4.59-2.52c-.19,1.32-.38,2.7-.58,4.13C161.67,145.5,160.28,146.89,160,148.41Zm7.81-1.49c2.74.34,2.95,2.26,2.82,3.38-.28,2.52-2.58,5.57-6.14,6.83.45-2.88.93-6.29,1.48-10.31A10.89,10.89,0,0,1,167.77,146.92Z" style="fill: rgb(102, 80, 233); transform-origin: 163.133px 143.968px 0px;" id="elf7ykpm04soo" class="animable"></path><g id="elv679iwc7wh"><g style="isolation: isolate; opacity: 0.5; transform-origin: 264.786px 193.163px 0px;" class="animable"><path d="M209.06,166.18,203,140l-5.81,26.41a5.3,5.3,0,0,0-2-1.4c-1.83-.72-3.64-.46-4.06.58s.73,2.48,2.56,3.21,3.65.46,4.06-.58l3.79-17.35,5.36,21.47-3.31,16.25a5.47,5.47,0,0,0-1.8-1.15c-1.83-.72-3.65-.46-4.06.58s.73,2.48,2.55,3.2,3.65.47,4.06-.57a1.27,1.27,0,0,0,.09-.43Z" style="fill: rgb(255, 255, 255); transform-origin: 200.052px 165.815px 0px;" id="elywbnal37vp" class="animable"></path><path d="M308.93,208.88l-21.19,4v24.57a5.13,5.13,0,0,0-2.62.36c-1.82.73-3,2.16-2.55,3.21s2.23,1.3,4.05.57,3-2.16,2.56-3.2V224.14l18.34-3.71v13a5,5,0,0,0-2.65.35c-1.83.73-3,2.16-2.56,3.21s2.23,1.3,4.06.58,3-2.17,2.56-3.21Zm-19.75,13.55V220l18.34-4v2.74Z" style="fill: rgb(255, 255, 255); transform-origin: 295.748px 225.444px 0px;" id="elb5axlqvqbbb" class="animable"></path><path d="M215.94,210.73l-3.52,30.38a5,5,0,0,0-2.79-.51c-2,.17-3.47,1.21-3.37,2.33s1.76,1.89,3.72,1.73,3.47-1.21,3.37-2.33l2.88-24.21s1,4.38,2.57,6.06,1.25,4.84,1.25,4.84,1.8-5.78-.33-7.71S215.94,210.73,215.94,210.73Z" style="fill: rgb(255, 255, 255); transform-origin: 213.508px 227.706px 0px;" id="el9h10ozoa8xh" class="animable"></path><path d="M377.86,248c-1.81-2.23-2.14-11-2.14-11l-8.08,29.5a4.88,4.88,0,0,0-2.68-.93c-2-.13-3.61.67-3.69,1.79s1.46,2.14,3.42,2.27,3.61-.67,3.69-1.79l6.51-23.49s.32,4.47,1.63,6.38.49,5,.49,5S379.67,250.2,377.86,248Z" style="fill: rgb(255, 255, 255); transform-origin: 369.879px 253.322px 0px;" id="elumalu8v4qu" class="animable"></path><path d="M253.39,216.71c-1.74-1.45-3-4.07-3.91-6.29l-.18-3.26s1.75,4.31,3.63,6S255,217.9,255,217.9s.8-5.7-1.66-7.6-5.63-10.43-5.63-10.43l1.76,29.95a5.34,5.34,0,0,0-2.87-.5c-1.93.16-3.26,1.18-3,2.29s2.08,1.86,4,1.7,3.27-1.19,3-2.29l-.9-16.16a15.1,15.1,0,0,0,3.24,4.68,9.4,9.4,0,0,1,2.08,4.77S255.78,218.7,253.39,216.71Z" style="fill: rgb(255, 255, 255); transform-origin: 249.351px 216.601px 0px;" id="elje91zo3esnh" class="animable"></path><path d="M336.34,231.18l-4.27,29.69a5.36,5.36,0,0,0-2.71-1.06c-1.93-.23-3.44.51-3.37,1.65s1.67,2.24,3.59,2.47,3.44-.51,3.38-1.65l2.35-16a15,15,0,0,0,2.24,5.23,9.46,9.46,0,0,1,1.08,5.09s1.84-5.35-.11-7.78c-1.42-1.76-2.17-4.6-2.56-6.94l.47-3.24s.85,4.58,2.36,6.58,1.09,5.1,1.09,5.1,1.92-5.43-.11-7.79S336.34,231.18,336.34,231.18Z" style="fill: rgb(255, 255, 255); transform-origin: 333.345px 247.576px 0px;" id="el3qamkz92vao" class="animable"></path><path d="M175,119.27c-.42-1.81-1.62-2.77-3.19-2.56-2.89.37-4.52,7.14-6.59,21.22a16.15,16.15,0,0,1-5.68,3.57c-5.8,2-8.94,5.88-8.4,10.3a9.4,9.4,0,0,0,8.64,7.87,13.29,13.29,0,0,0,2.27,0c-.78,4.6-1.42,7.67-2.38,8.78a1.72,1.72,0,0,1-2,.31,1.89,1.89,0,0,1-.89-2.88s1.58.79,2.18-1.71-2.78-2.92-4.35,1.1c-2.13,5.51,4.35,8.52,7.35,3.22.93-1.63,1.46-4.64,2.21-9.16,5-1.27,8.11-5.51,8.48-8.83.34-3.05-1.41-5.19-4.56-5.59a14.59,14.59,0,0,0-1.81-.12h0c.26-1.87.54-3.9.84-6C172.9,132.88,176,123.56,175,119.27Zm-2.94-.58h.17c.26,0,.61.13.83,1,.69,2.93-1.25,10-5.41,15.48C168.89,126.93,170.47,119,172,118.69Zm-8.66,32.16c-1-.45-1.59-1.23-1.43-2a2.57,2.57,0,0,1,2-1.69C163.71,148.33,163.53,149.58,163.35,150.85ZM160,148.41c-.39,1.91.88,3.72,3.11,4.47-.24,1.61-.48,3.22-.73,4.76a10.81,10.81,0,0,1-2.42,0,7.41,7.41,0,0,1-6.85-6.12c-.41-3.42,2.24-6.48,7.08-8.17a16.87,16.87,0,0,0,4.59-2.52c-.19,1.32-.38,2.7-.58,4.13C161.67,145.5,160.28,146.89,160,148.41Zm7.81-1.49c2.74.34,2.95,2.26,2.82,3.38-.28,2.52-2.58,5.57-6.14,6.83.45-2.88.93-6.29,1.48-10.31A10.89,10.89,0,0,1,167.77,146.92Z" style="fill: rgb(255, 255, 255); transform-origin: 163.133px 143.968px 0px;" id="el4jf5lel6c4n" class="animable"></path></g></g></g><g id="freepik--character-2--inject-40" style="transform-origin: 334.681px 276.2px 0px;" class="animable animator-active"><path d="M366.31,239.15s4.58,21.84-2.68,37.7-39.94-16.27-39.94-16.27l9.63-27.48Z" style="fill: rgb(38, 50, 56); transform-origin: 345.713px 257.174px 0px;" id="elv3quqadtkt" class="animable"></path><path d="M335.59,191.53s12.65-5.25,24-3.81,22.23,12.15,22.23,12.15-5.9,36.76-14.07,40.94-35-4.11-35-4.11S323.84,219.9,335.59,191.53Z" style="fill: rgb(102, 80, 233); transform-origin: 355.667px 214.729px 0px;" id="elbr4adhw8pof" class="animable"></path><g id="elai9jj6hww9e"><path d="M381.8,199.88s-1.41,8.78-3.81,18.26c-2.51,9.9-6.09,20.53-10.26,22.67a13.24,13.24,0,0,1-5.2,1.12c-10.91.6-29.83-5.23-29.83-5.23s-8.86-16.8,2.88-45.17c0,0,12.66-5.25,24-3.82S381.8,199.88,381.8,199.88Z" style="fill: rgb(255, 255, 255); opacity: 0.7; transform-origin: 355.647px 214.718px 0px;" class="animable"></path></g><g id="elenmtm96p0iu"><path d="M378,218.14c-2.51,9.9-6.09,20.53-10.26,22.67a13.24,13.24,0,0,1-5.2,1.12,57.53,57.53,0,0,1-6.53-9.39l2.26-17.15L370.81,220a10.68,10.68,0,0,1,2.06-6.53A16,16,0,0,1,378,218.14Z" style="opacity: 0.2; transform-origin: 367.005px 227.7px 0px;" class="animable"></path></g><path d="M338.73,190.68c-5.8.52-12,13-14.24,12.43s-7-12.93-9.77-14.93l-1-3.78-5.14-.91-.11,6.39s-1.83,3.17-.44,9.54,8.13,22.77,19.12,24.09,19.29-24.7,19.29-24.7Z" style="fill: rgb(102, 80, 233); transform-origin: 326.974px 203.524px 0px;" id="elx53lfq88iyl" class="animable"></path><g id="elknosq4z5jhf"><path d="M338.73,190.68c-5.8.52-12,13-14.24,12.43s-7-12.93-9.77-14.93l-1-3.78-5.14-.91-.11,6.39s-1.83,3.17-.44,9.54,8.13,22.77,19.12,24.09,19.29-24.7,19.29-24.7Z" style="fill: rgb(255, 255, 255); opacity: 0.7; transform-origin: 326.974px 203.524px 0px;" class="animable"></path></g><polygon points="305.76 401.63 298.98 399.16 302.71 382.81 309.5 385.27 305.76 401.63" style="fill: rgb(228, 137, 123); transform-origin: 304.24px 392.22px 0px;" id="elei6eh8z1tcd" class="animable"></polygon><polygon points="359.29 410.64 352.08 410.64 350.04 393.96 357.24 393.96 359.29 410.64" style="fill: rgb(228, 137, 123); transform-origin: 354.665px 402.3px 0px;" id="el3n2hhduedtf" class="animable"></polygon><path d="M351.14,409.81h8.78a.64.64,0,0,1,.62.49l1.48,6.4a1,1,0,0,1-1,1.28c-2.82-.05-4.89-.21-8.45-.21-2.19,0-8.79.22-11.81.22s-3.45-3-2.21-3.26c5.54-1.21,9.7-2.88,11.46-4.48A1.74,1.74,0,0,1,351.14,409.81Z" style="fill: rgb(38, 50, 56); transform-origin: 349.98px 413.9px 0px;" id="elopvzpoyzpt" class="animable"></path><path d="M298.73,397.78l7.71,1.66a.64.64,0,0,1,.5.61l.11,6.55a1,1,0,0,1-1.27,1C303,407,299,406,295.53,405.22c-4.09-.88-6.62-1.7-11.42-2.73-2.89-.62-3.1-3.72-1.83-3.72,5.77,0,9.26,1.11,14.63-.8A3.34,3.34,0,0,1,298.73,397.78Z" style="fill: rgb(38, 50, 56); transform-origin: 294.295px 402.684px 0px;" id="el3p4r2i1v9iy" class="animable"></path><g id="el86110p2lwq3"><polygon points="302.71 382.81 300.79 391.24 307.57 393.71 309.5 385.28 302.71 382.81" style="opacity: 0.2; transform-origin: 305.145px 388.26px 0px;" class="animable"></polygon></g><g id="el9q4alucea2k"><polygon points="357.24 393.96 350.04 393.96 351.09 402.56 358.3 402.56 357.24 393.96" style="opacity: 0.2; transform-origin: 354.17px 398.26px 0px;" class="animable"></polygon></g><path d="M298.79,388.75l11.5,4.17s9-39.52,13.74-61.44a237.53,237.53,0,0,1,7.83-25.59c4.36-12.31,9.57-25.55,13.77-35.9,4.43-10.9,7.73-18.59,7.73-18.59l-24.84-5s-19,54.55-23.22,76.11C300.87,344.9,298.79,388.75,298.79,388.75Z" style="fill: rgb(38, 50, 56); transform-origin: 326.075px 319.66px 0px;" id="elxfbw6vi80m" class="animable"></path><g id="elqk4xo4nispb"><path d="M331.86,305.89c4.36-12.31,9.57-25.55,13.77-35.9l-1.92-5.94C336.6,270.63,332.16,293.3,331.86,305.89Z" style="opacity: 0.2; transform-origin: 338.745px 284.97px 0px;" class="animable"></path></g><path d="M341.92,249.08s-4.43,62.21-4.7,83.34c-.3,23.14,10.53,68.48,10.53,68.48h13.19s-5.27-40.91-3.51-63.84c2-25.64,8.88-83,8.88-83Z" style="fill: rgb(38, 50, 56); transform-origin: 351.762px 324.99px 0px;" id="el27e7uy34kni" class="animable"></path><polygon points="346.17 401.18 361.71 401.18 361.66 396.54 345.44 395.6 346.17 401.18" style="fill: rgb(38, 50, 56); transform-origin: 353.575px 398.39px 0px;" id="el5kfq4qxrap7" class="animable"></polygon><polygon points="297.26 388.61 311.02 393.38 312.52 388.94 297.47 383.46 297.26 388.61" style="fill: rgb(38, 50, 56); transform-origin: 304.89px 388.42px 0px;" id="el02zvet0pn4nr" class="animable"></polygon><path d="M348.77,411.06a2.22,2.22,0,0,1-1.39-.36,1.05,1.05,0,0,1-.37-.91.56.56,0,0,1,.29-.48c.79-.41,3.13,1,3.4,1.18a.18.18,0,0,1-.05.32A8.56,8.56,0,0,1,348.77,411.06Zm-1.09-1.49a.48.48,0,0,0-.22.05s-.1.06-.11.2a.74.74,0,0,0,.24.62,3.52,3.52,0,0,0,2.56.13A7,7,0,0,0,347.68,409.57Z" style="fill: rgb(102, 80, 233); transform-origin: 348.891px 410.151px 0px;" id="el4535r0wdza7" class="animable"></path><path d="M350.61,410.81l-.08,0c-.75-.41-2.21-2-2.06-2.79a.54.54,0,0,1,.53-.44.94.94,0,0,1,.73.22c.85.68,1,2.76,1,2.85a.18.18,0,0,1-.08.15A.16.16,0,0,1,350.61,410.81Zm-1.48-2.92h-.08c-.22,0-.24.13-.25.18-.08.47.85,1.66,1.59,2.23a4.15,4.15,0,0,0-.87-2.26A.6.6,0,0,0,349.13,407.89Z" style="fill: rgb(102, 80, 233); transform-origin: 349.595px 409.191px 0px;" id="el9q9w05vhplu" class="animable"></path><path d="M297.83,398.61h0c-1.18,0-3.26-.18-3.9-1a.94.94,0,0,1-.14-.88.53.53,0,0,1,.36-.38c1-.3,3.5,1.75,3.79,2a.19.19,0,0,1,.05.2A.16.16,0,0,1,297.83,398.61Zm-3.53-2-.06,0a.21.21,0,0,0-.15.15.65.65,0,0,0,.09.58c.36.48,1.51.79,3.12.87C296.29,397.48,294.87,396.56,294.3,396.63Z" style="fill: rgb(102, 80, 233); transform-origin: 295.869px 397.467px 0px;" id="el1dl1onmk307" class="animable"></path><path d="M297.83,398.61a.19.19,0,0,1-.12,0c-.77-.56-2.15-2.45-1.86-3.21.07-.18.25-.39.72-.34a1.29,1.29,0,0,1,.87.49,4.86,4.86,0,0,1,.54,2.95.15.15,0,0,1-.1.13Zm-1.47-3.25c-.15,0-.18.09-.19.12-.17.46.73,1.9,1.49,2.61a4,4,0,0,0-.48-2.37,1,1,0,0,0-.64-.36Z" style="fill: rgb(102, 80, 233); transform-origin: 296.917px 396.841px 0px;" id="elsmp2ii5o0ph" class="animable"></path><path d="M321.52,236.71c-3.71-8.53,9.18-22.32-.59-25.46s-10.14-15.47,1.6-22,22.06.2,19.63,10.16,16.07,6.19,21.4,13.81c7.33,10.48.48,22.62-11.27,29.19S326.63,248.44,321.52,236.71Z" style="fill: rgb(102, 80, 233); transform-origin: 340.122px 216.644px 0px;" id="elss4nn1xz28" class="animable"></path><polygon points="336.01 220 341.74 216.8 300.56 145.93 297.12 147.85 336.01 220" style="fill: rgb(102, 80, 233); transform-origin: 319.43px 182.965px 0px;" id="elgfgptx83nk7" class="animable"></polygon><path d="M334.73,225.3a7,7,0,1,0,2.68-9.51A7,7,0,0,0,334.73,225.3Z" style="fill: rgb(38, 50, 56); transform-origin: 340.843px 221.89px 0px;" id="el7c36mjl0nka" class="animable"></path><g id="el50xhvshm5ke"><rect x="341.28" y="231.31" width="10.7" height="1.9" style="fill: rgb(38, 50, 56); transform-origin: 346.63px 232.26px 0px; transform: rotate(150.76deg);" class="animable"></rect></g><path d="M292.53,141.14l-2.25,1.26s-.68-1-.88-.5,1,1.85,1,1.85l.28-.9,2.11-1.18Z" style="fill: rgb(102, 80, 233); transform-origin: 291.084px 142.445px 0px;" id="elxcnf4h2flzq" class="animable"></path><path d="M294.86,144.43l-2.26,1.26s-.68-1-.88-.51,1,1.85,1,1.85l.28-.9,2.11-1.18Z" style="fill: rgb(102, 80, 233); transform-origin: 293.404px 145.73px 0px;" id="elu4fftijavpc" class="animable"></path><path d="M297.18,147.71,294.92,149s-.67-1-.88-.51,1,1.85,1,1.85l.28-.9,2.11-1.18Z" style="fill: rgb(102, 80, 233); transform-origin: 295.723px 149.025px 0px;" id="elf07lejogzwg" class="animable"></path><path d="M297.24,138.51l2.26-1.27s-.52-1.11,0-1,1,1.85,1,1.85l-.92-.23-2.1,1.18Z" style="fill: rgb(102, 80, 233); transform-origin: 298.87px 137.636px 0px;" id="elyrstsoq0ji" class="animable"></path><path d="M298.83,142.2l2.26-1.26s-.53-1.11,0-1,1,1.85,1,1.85l-.92-.23-2.11,1.18Z" style="fill: rgb(102, 80, 233); transform-origin: 300.46px 141.336px 0px;" id="eld3tdbrabn4p" class="animable"></path><path d="M300.42,145.9l2.26-1.26s-.53-1.12,0-1,1,1.85,1,1.85l-.92-.22-2.11,1.18Z" style="fill: rgb(102, 80, 233); transform-origin: 302.05px 145.041px 0px;" id="elfi3nkwfmgtp" class="animable"></path><path d="M299.41,151.82l3.34-1.87a1.45,1.45,0,0,0,.61-1.88l-5.94-12.83a1.46,1.46,0,0,0-2-.66l-5.24,2.93a1.46,1.46,0,0,0-.5,2.08l7.84,11.77A1.45,1.45,0,0,0,299.41,151.82Z" style="fill: rgb(102, 80, 233); transform-origin: 296.466px 143.203px 0px;" id="elv0ecj2c6rn" class="animable"></path><path d="M346.12,232.72a.16.16,0,0,1-.15-.09l-45.33-81.49a.18.18,0,0,1,.07-.25.17.17,0,0,1,.24.07l45.33,81.49a.18.18,0,0,1-.07.25A.13.13,0,0,1,346.12,232.72Z" style="fill: rgb(255, 255, 255); transform-origin: 323.46px 191.793px 0px;" id="eldfpklsl5pbh" class="animable"></path><path d="M345.11,233.29a.17.17,0,0,1-.16-.09l-44.86-81.76a.17.17,0,0,1,.07-.24.17.17,0,0,1,.24.07L345.27,233a.19.19,0,0,1-.07.25A.15.15,0,0,1,345.11,233.29Z" style="fill: rgb(255, 255, 255); transform-origin: 322.678px 192.233px 0px;" id="el7plgu9xy148" class="animable"></path><path d="M344.09,233.86a.19.19,0,0,1-.16-.09l-44.39-82a.18.18,0,0,1,.07-.25.18.18,0,0,1,.24.08l44.4,82a.18.18,0,0,1-.07.25Z" style="fill: rgb(255, 255, 255); transform-origin: 321.895px 192.681px 0px;" id="eln813hqw9u" class="animable"></path><path d="M347.14,232.15a.19.19,0,0,1-.16-.09l-45.77-81.24a.18.18,0,0,1,.32-.18l45.77,81.24a.18.18,0,0,1-.07.25A.15.15,0,0,1,347.14,232.15Z" style="fill: rgb(255, 255, 255); transform-origin: 324.256px 191.349px 0px;" id="els4n22wm3kja" class="animable"></path><path d="M348.16,231.58a.17.17,0,0,1-.16-.09l-46.24-81a.18.18,0,0,1,.07-.25.18.18,0,0,1,.25.07l46.23,81a.19.19,0,0,1-.06.25A.15.15,0,0,1,348.16,231.58Z" style="fill: rgb(255, 255, 255); transform-origin: 325.035px 190.898px 0px;" id="elcprf9w0dgxd" class="animable"></path><path d="M349.17,231a.19.19,0,0,1-.15-.09L302.31,150.2a.17.17,0,0,1,.07-.24.18.18,0,0,1,.24.06l46.71,80.73a.17.17,0,0,1-.07.24A.14.14,0,0,1,349.17,231Z" style="fill: rgb(255, 255, 255); transform-origin: 325.82px 190.47px 0px;" id="elga8t75z9yu" class="animable"></path><path d="M346.34,213.82l-5.13-5.19L338,217.3s5.35,3.44,7.47.78Z" style="fill: rgb(228, 137, 123); transform-origin: 342.17px 213.86px 0px;" id="elc5iah7k9gf" class="animable"></path><polygon points="335.27 207.86 332.96 215.15 338.01 217.3 341.21 208.63 335.27 207.86" style="fill: rgb(228, 137, 123); transform-origin: 337.085px 212.58px 0px;" id="el8dw80v050gk" class="animable"></polygon><path d="M369.88,170.43c-2,5-5.58,14.82-1.4,20.25-3.18,2.19-16.09,10.93-16.09,10.93s-3.11-13-1.78-14.49c6-.21,8-6,7.79-10.27Z" style="fill: rgb(228, 137, 123); transform-origin: 360.08px 186.02px 0px;" id="ell3jifvt7zf9" class="animable"></path><g id="el1if5lt85o0n"><path d="M365.2,173.05l-6.79,3.8a17,17,0,0,1-.06,3c2.27.13,5.76-1.67,6.43-3.93A8,8,0,0,0,365.2,173.05Z" style="opacity: 0.2; transform-origin: 361.778px 176.453px 0px;" class="animable"></path></g><path d="M367,186s6.16,1.95,5.52,10.05l-7.2-2.92L351.88,203.6l-3.12-12.44-6.07.76s2.06-6.15,12.57-6.68a10.19,10.19,0,0,0-3.74,4.22c-1.07,2.59.87,12.15.87,12.15S363.11,195.91,367,186Z" style="fill: rgb(102, 80, 233); transform-origin: 357.628px 194.42px 0px;" id="elgyysq1uki8d" class="animable"></path><g id="elphk6inaqx4"><path d="M367,186s6.16,1.95,5.52,10.05l-7.2-2.92L351.88,203.6l-3.12-12.44-6.07.76s2.06-6.15,12.57-6.68a10.19,10.19,0,0,0-3.74,4.22c-1.07,2.59.87,12.15.87,12.15S363.11,195.91,367,186Z" style="fill: rgb(255, 255, 255); opacity: 0.8; transform-origin: 357.628px 194.42px 0px;" class="animable"></path></g><path d="M308.62,183.49l-1.88-7.1,8,1.51s1.3,6.44-2,7Z" style="fill: rgb(228, 137, 123); transform-origin: 310.866px 180.645px 0px;" id="el0qmwudvxlie" class="animable"></path><polygon points="308.8 169.42 315.24 173.06 314.74 177.9 306.74 176.39 308.8 169.42" style="fill: rgb(228, 137, 123); transform-origin: 310.99px 173.66px 0px;" id="elwq60hcsfdfc" class="animable"></polygon><path d="M381.8,199.87c8,7.11,9.39,43.22-4.28,44.22-10,.72-29.15-18.59-29.36-22.88l-3.35-2,1.53-5.37,3.83,2.07s2.54-1,4.2-.5,16.68,7,18.1,6.9.3-9.71.3-9.71Z" style="fill: rgb(102, 80, 233); transform-origin: 366.316px 221.99px 0px;" id="ele30150pc7q" class="animable"></path><g id="elyjqwisg0scg"><path d="M381.8,199.87c8,7.11,9.39,43.22-4.28,44.22-10,.72-29.15-18.59-29.36-22.88l-3.35-2,1.53-5.37,3.83,2.07s2.54-1,4.2-.5,16.68,7,18.1,6.9.3-9.71.3-9.71Z" style="fill: rgb(255, 255, 255); opacity: 0.7; transform-origin: 366.316px 221.99px 0px;" class="animable"></path></g><g id="eli1gjzw4x9q"><polygon points="346.17 401.18 361.71 401.18 361.66 396.54 345.44 395.6 346.17 401.18" style="fill: rgb(255, 255, 255); opacity: 0.2; transform-origin: 353.575px 398.39px 0px;" class="animable"></polygon></g><g id="el15so7okt6rt"><polygon points="297.26 388.61 311.02 393.38 312.52 388.94 297.47 383.46 297.26 388.61" style="fill: rgb(255, 255, 255); opacity: 0.2; transform-origin: 304.89px 388.42px 0px;" class="animable"></polygon></g><path d="M356.77,152.45c-2,2.14-3.94,7.51.36,7.46S360.15,148.76,356.77,152.45Z" style="fill: rgb(38, 50, 56); transform-origin: 357.207px 155.805px 0px;" id="el3ggw5tur0sy" class="animable"></path><path d="M373.3,164.29c-2.63,6.64-3.83,10.66-8.38,13-6.85,3.5-14.19-2.42-13.6-9.73.53-6.58,4.74-16.34,12.24-16.8A9.85,9.85,0,0,1,373.3,164.29Z" style="fill: rgb(228, 137, 123); transform-origin: 362.654px 164.533px 0px;" id="el5s78ebl6pso" class="animable"></path><path d="M358.59,155.06c-4.46-2.22-5.86-8.44,1.52-10a15.36,15.36,0,0,1,5.18,0s-1.92,1.19-1.26,3a7.19,7.19,0,0,1,8.52-1.11c-1.39,1.08-1.69,4.47.86,4.54,3.88.11,8.38,2.92,6.13,6.81,3.27,4.09-1.82,9.77-9.05,10.36-2-4,1.21-9.84,1.21-9.84C368.07,158.68,362.63,157.08,358.59,155.06Z" style="fill: rgb(38, 50, 56); transform-origin: 367.731px 156.75px 0px;" id="elg9yjabp6glt" class="animable"></path><path d="M378.46,158.38s3.3-.47,2.18-3.57C383.11,156.88,381.3,158.78,378.46,158.38Z" style="fill: rgb(38, 50, 56); transform-origin: 380.132px 156.622px 0px;" id="elv36aoe9ypn" class="animable"></path><path d="M377.78,158.89s3.2-.94,3.45,2.35C382.63,158.35,380.21,157.35,377.78,158.89Z" style="fill: rgb(38, 50, 56); transform-origin: 379.711px 159.705px 0px;" id="el9k49i80zakr" class="animable"></path><path d="M374.07,170.79a6.64,6.64,0,0,1-4.41,2.69c-2.34.35-3.24-1.84-2.35-3.91.8-1.87,3-4.29,5.23-3.69A3.09,3.09,0,0,1,374.07,170.79Z" style="fill: rgb(228, 137, 123); transform-origin: 370.866px 169.652px 0px;" id="el7dhgzrdk7ig" class="animable"></path><path d="M362.41,162.72c-.18.55-.61.9-1,.78s-.51-.67-.33-1.22.62-.9,1-.78S362.59,162.17,362.41,162.72Z" style="fill: rgb(38, 50, 56); transform-origin: 361.744px 162.5px 0px;" id="elhlvl9t2s6l" class="animable"></path><path d="M356.19,160.62c-.18.55-.62.9-1,.78s-.51-.67-.33-1.22.62-.9,1-.78S356.37,160.07,356.19,160.62Z" style="fill: rgb(38, 50, 56); transform-origin: 355.525px 160.4px 0px;" id="eleoqq36wpvy" class="animable"></path><path d="M358.08,161.56a20.05,20.05,0,0,1-4.17,3.66,3.48,3.48,0,0,0,2.48,1.32Z" style="fill: rgb(222, 87, 83); transform-origin: 355.995px 164.05px 0px;" id="el5jhwj5a7rgq" class="animable"></path><path d="M358.65,169.65c-.23-.05-.48-.11-.73-.19a.17.17,0,0,1,.11-.33,4.52,4.52,0,0,0,4.11-.51.17.17,0,0,1,.22.27A4.79,4.79,0,0,1,358.65,169.65Z" style="fill: rgb(38, 50, 56); transform-origin: 360.113px 169.165px 0px;" id="ely0ptbtgfua" class="animable"></path><path d="M365,161.35a.33.33,0,0,1-.26-.22,2.72,2.72,0,0,0-1.72-1.78.36.36,0,0,1-.25-.42.35.35,0,0,1,.42-.25,3.45,3.45,0,0,1,2.19,2.23.33.33,0,0,1-.21.43A.25.25,0,0,1,365,161.35Z" style="fill: rgb(38, 50, 56); transform-origin: 364.081px 160.015px 0px;" id="ely784botke9" class="animable"></path><path d="M354.2,157.57a.32.32,0,0,1-.17-.09.34.34,0,0,1,0-.48,3.37,3.37,0,0,1,2.92-1.05.36.36,0,0,1,.27.41.35.35,0,0,1-.4.27,2.59,2.59,0,0,0-2.3.85A.35.35,0,0,1,354.2,157.57Z" style="fill: rgb(38, 50, 56); transform-origin: 355.578px 156.749px 0px;" id="el4g3b6d5phhf" class="animable"></path></g><g id="freepik--character-1--inject-40" style="transform-origin: 191.468px 281.705px 0px;" class="animable"><path d="M216.08,252c-3.33.12-16-.74-18.1-.54,2-3.9,11.82-10.65,17.26-8.15C217.24,244.18,217.27,249.72,216.08,252Z" style="fill: rgb(102, 80, 233); transform-origin: 207.429px 247.39px 0px;" id="eldoiyt0kah37" class="animable"></path><g id="el6b5q43jbgf6"><path d="M216.08,252c-3.33.12-16-.74-18.1-.54,2-3.9,12-10.66,17.26-8.15C217.22,244.21,217.27,249.72,216.08,252Z" style="opacity: 0.4; transform-origin: 207.426px 247.388px 0px;" class="animable"></path></g><path d="M121.76,309.35a29.91,29.91,0,0,1,1.35,7.24c-3.18,1.15-5.24,1.35-5.74.3C115.23,312.39,118.78,311.85,121.76,309.35Z" style="fill: rgb(102, 80, 233); transform-origin: 119.913px 313.463px 0px;" id="el4comd8j113s" class="animable"></path><g id="eld084r2y7cvo"><path d="M121.76,309.35a29.91,29.91,0,0,1,1.35,7.24c-3.18,1.15-5.24,1.35-5.74.3C115.23,312.39,118.78,311.85,121.76,309.35Z" style="opacity: 0.4; transform-origin: 119.913px 313.463px 0px;" class="animable"></path></g><path d="M185,307.46s48.41-52.26,43-56.11-10.68,16.91-15.59,15.76,4.25-15.87-.73-16-5.77,18.06-13.1,18.15.38-11-6.79-10.69,4.26,10.61-2.19,15.83-1.2-17.76-9.5-14.79,6.44,14.67-1,20-4.23-13.93-12.43-10.34,10.94,10.32,3.21,16.6-9.85-16.4-19.78-9,16.85,9.2,8.41,17-10.47-15.48-18.24-6.39,15,11.14,9.94,16S134.91,289.6,130,301.34s15.62,0,11.53,9.25S127,308.39,124,315.53s14.93-3.57,12.87,5.78-17,3-21.1,9.24S142.59,342.52,185,307.46Z" style="fill: rgb(102, 80, 233); transform-origin: 171.914px 293.053px 0px;" id="elazwaurzv8uh" class="animable"></path><g id="el3z9d9oakwe2"><path d="M185,307.46s48.41-52.26,43-56.11-10.68,16.91-15.59,15.76,4.25-15.87-.73-16-5.77,18.06-13.1,18.15.38-11-6.79-10.69,4.26,10.61-2.19,15.83-1.2-17.76-9.5-14.79,6.44,14.67-1,20-4.23-13.93-12.43-10.34,10.94,10.32,3.21,16.6-9.85-16.4-19.78-9,16.85,9.2,8.41,17-10.47-15.48-18.24-6.39,15,11.14,9.94,16S134.91,289.6,130,301.34s15.62,0,11.53,9.25S127,308.39,124,315.53s14.93-3.57,12.87,5.78-17,3-21.1,9.24S142.59,342.52,185,307.46Z" style="opacity: 0.5; transform-origin: 171.914px 293.053px 0px;" class="animable"></path></g><path d="M251.86,248.15a4.15,4.15,0,0,0-2-.2c-9.59-.07-21.36,11.64-31.34,7.52-10.69-4.41-49.62-1.92-73.21,15.48S130,321.86,123.74,331.63s-12.88,12.7-12.88,12.7l.5.17c-.22,1.52,4.52,4.83,17.3,10.27,23.39,10,109.87-46.65,125.15-92.36C253.81,262.41,260.27,250.71,251.86,248.15Z" style="fill: rgb(102, 80, 233); transform-origin: 183.52px 301.918px 0px;" id="elhpcs44q1d35" class="animable"></path><g id="el2rvz2qqgr2i"><path d="M251.86,248.15a4.15,4.15,0,0,0-2-.2c-9.59-.07-21.36,11.64-31.34,7.52-10.69-4.41-49.62-1.92-73.21,15.48S130,321.86,123.74,331.63s-12.88,12.7-12.88,12.7l.5.17c-.22,1.52,4.52,4.83,17.3,10.27,23.39,10,109.87-46.65,125.15-92.36C253.81,262.41,260.27,250.71,251.86,248.15Z" style="opacity: 0.4; transform-origin: 183.52px 301.918px 0px;" class="animable"></path></g><path d="M280.26,256.77c-4.83-2.21-21.79,1.13-21.79,1.13s-28.85,33.18-22.21,43.89S280.26,256.77,280.26,256.77Z" style="fill: rgb(102, 80, 233); transform-origin: 257.764px 279.586px 0px;" id="elydaimd68la" class="animable"></path><path d="M271.82,237.56c5,2.87-5,19-2.29,23s8-7.39,10.73-3.79S266.17,273.14,267,279s11.63,1.4,6.5,9.32S254,300.52,254.69,305.45s-2,8-9.59,11.6-17,9.06-14.81,13.21-12,14.32-19.33,15-11.07,2.35-12.35,10.35-6.75,13-15.08,12.74-13.46-.88-16.85,4.76-5.91,6.78-9.51,4.28-10.45.6-16.17,3.8-14.65,1.36-16.78-2.84-11.81.07-15.45-.38-8.67-3.7-5.26-7.47,10.82-6.91,10.82-6.91-9.53-10.85-3.43-12.08,116.37-56,126.11-72.84S267.72,235.2,271.82,237.56Z" style="fill: rgb(102, 80, 233); transform-origin: 191.468px 310.113px 0px;" id="elg3eypcu1vot" class="animable"></path><g id="el88m1jke6wmc"><path d="M271.82,237.56c5,2.87-5,19-2.29,23s8-7.39,10.73-3.79S266.17,273.14,267,279s11.63,1.4,6.5,9.32S254,300.52,254.69,305.45s-2,8-9.59,11.6-17,9.06-14.81,13.21-12,14.32-19.33,15-11.07,2.35-12.35,10.35-6.75,13-15.08,12.74-13.46-.88-16.85,4.76-5.91,6.78-9.51,4.28-10.45.6-16.17,3.8-14.65,1.36-16.78-2.84-11.81.07-15.45-.38-8.67-3.7-5.26-7.47,10.82-6.91,10.82-6.91-9.53-10.85-3.43-12.08,116.37-56,126.11-72.84S267.72,235.2,271.82,237.56Z" style="opacity: 0.5; transform-origin: 191.468px 310.113px 0px;" class="animable"></path></g><path d="M137.55,270.77s43.87,38.54,51,36.82c24.61-3,61.72-10.49,76.29-10.58,2.16-.22.8-4.61-.17-5.62,0,0-39.76-9.82-78.65.36-8.36-21.22-32.44-38.64-32.44-38.64Z" style="fill: rgb(255, 181, 115); transform-origin: 201.771px 280.378px 0px;" id="elb25c06kql5l" class="animable"></path><path d="M122.11,337.05c4.67,24.23,9.69,57.46,8.45,71.61,1.35.79,3.86.88,6.59,0,0,0,8.85-44.09,2.49-71.65Z" style="fill: rgb(255, 181, 115); transform-origin: 132.025px 373.148px 0px;" id="el22t48j7ympu" class="animable"></path><path d="M271.82,237.56c-9.13-.17-2.49,29.82-6.81,34.48s-6.11-8.76-11.34-8.2-3.12,23.14-8,25.68-5.76-7.66-10.23-6.31,1.24,16.53-4.51,21.06-6.27-9.65-13.68-5.38-4.78,7.68-4.52,14.33-3.4,13-8.46,8.81-7.41-13.65-11-4.37,1.11,15-4.06,13.79-11-18.94-12.91-7.79,1.86,20.5-5.94,19.69-4-7.64-8.07-7.7-9.08,10.55-6.26,15.28-8.37,10.35-12.51,4.88,5.58-13.8-.14-14.3-5.16,20.82-12,18.9-6.89-7-17.49-6.5,2.17,8.5,5,10.13-1,8-15.4,6.45l8.54-9.42s-4.37-6.24-4-7.75,12.5-7.55,16.51-17.37,19.25-27.15,33.54-40.15,57.27-33.25,67.3-34.79,21.56-3.65,29-10.19,8.71-10,12.33-12.55S271.82,237.56,271.82,237.56Z" style="fill: rgb(102, 80, 233); transform-origin: 187.655px 303.825px 0px;" id="elwbv68r310g" class="animable"></path><g id="el5frx3oz3dmb"><path d="M271.82,237.56c-9.13-.17-2.49,29.82-6.81,34.48s-6.11-8.76-11.34-8.2-3.12,23.14-8,25.68-5.76-7.66-10.23-6.31,1.24,16.53-4.51,21.06-6.27-9.65-13.68-5.38-4.78,7.68-4.52,14.33-3.4,13-8.46,8.81-7.41-13.65-11-4.37,1.11,15-4.06,13.79-11-18.94-12.91-7.79,1.86,20.5-5.94,19.69-4-7.64-8.07-7.7-9.08,10.55-6.26,15.28-8.37,10.35-12.51,4.88,5.58-13.8-.14-14.3-5.16,20.82-12,18.9-6.89-7-17.49-6.5,2.17,8.5,5,10.13-1,8-15.4,6.45l8.54-9.42s-4.37-6.24-4-7.75,12.5-7.55,16.51-17.37,19.25-27.15,33.54-40.15,57.27-33.25,67.3-34.79,21.56-3.65,29-10.19,8.71-10,12.33-12.55S271.82,237.56,271.82,237.56Z" style="opacity: 0.2; transform-origin: 187.655px 303.825px 0px;" class="animable"></path></g><path d="M240.27,270.89c-5.81,1.26-15.51-2.87-15.51-2.87l.15,15.17s-7.63,2.13-13.25-2.36c0,0,3.32,9.62,1.7,11.17s-17.42-4.91-17.42-4.91l3.57,16.12s-14.8-10.54-14.28-7.52,2.21,13.09,1.54,15.11-3.87,6.51-8.3,4.22-12.89-13.24-12.89-13.24-1,23.21-3.67,22.57-4.27-14.17-5.38-12.83-.4,22-7.45,22.65-5.2-18.13-8.43-16.47-3.4,27.67-10,27.92-8-.45-5.71-6.9,4.45-28.78,11.47-32.62,75.35-46,84.26-45.56,13.22-9.4,18.8-6.86S240.27,270.89,240.27,270.89Z" style="fill: rgb(102, 80, 233); transform-origin: 183.046px 299.461px 0px;" id="el2akequ15r8f" class="animable"></path><g id="eliobu3vn2c8q"><path d="M240.27,270.89c-5.81,1.26-15.51-2.87-15.51-2.87l.15,15.17s-7.63,2.13-13.25-2.36c0,0,3.32,9.62,1.7,11.17s-17.42-4.91-17.42-4.91l3.57,16.12s-14.8-10.54-14.28-7.52,2.21,13.09,1.54,15.11-3.87,6.51-8.3,4.22-12.89-13.24-12.89-13.24-1,23.21-3.67,22.57-4.27-14.17-5.38-12.83-.4,22-7.45,22.65-5.2-18.13-8.43-16.47-3.4,27.67-10,27.92-8-.45-5.71-6.9,4.45-28.78,11.47-32.62,75.35-46,84.26-45.56,13.22-9.4,18.8-6.86S240.27,270.89,240.27,270.89Z" style="opacity: 0.4; transform-origin: 183.046px 299.461px 0px;" class="animable"></path></g><path d="M242.47,269.78c-8.55,5.93,1.68-13.21-6.12-14.74s-.41,20.94-9.09,27.08-1.78-16-12.69-13.44,5.69,18.52,0,22.72-1.38-13.9-12.46-11.52,4.48,12.8-.51,21.24-8.37-10.22-16-9.22,8.69,22.21-3.89,23.44-3.24-14.82-9.75-15.47-4.2,24.16-10.06,24.48,4.39-13.85-4.42-15.08,1.83,24.92-8.41,24.9.47-5.9-8.26-8.9-9.89,6.27-8.92,14,0,7.21-11.54,5c-5.26-1-8.86-1-9,.29l-.48-.17s6.66-2.92,12.88-12.69-2-43.29,21.58-60.69,62.52-19.89,73.21-15.48c10,4.12,21.73-7.58,31.32-7.51C244.75,249,250.19,264.43,242.47,269.78Z" style="fill: rgb(102, 80, 233); transform-origin: 180.365px 296.859px 0px;" id="elpzwgg2hjpb" class="animable"></path><path d="M150.25,207.14c1.21-.52,2.25-.91,3.37-1.29s2.22-.74,3.34-1.09c2.23-.66,4.51-1.23,6.82-1.67a56.57,56.57,0,0,1,7.06-1c1.19-.12,2.41-.14,3.63-.15l1.84,0,.76,0,.54.08a5.16,5.16,0,0,1,1.37.4,5,5,0,0,1,1.88,1.35,5,5,0,0,1,.78,1.19,5.92,5.92,0,0,1,.25.66c.06.2.1.39.14.59s.06.41.07.57,0,.32,0,.47a4.24,4.24,0,0,1-.08.81l-.07.36-.08.28a7.16,7.16,0,0,1-.69,1.62,13.83,13.83,0,0,1-1.35,1.91,31.4,31.4,0,0,1-2.6,2.74c-1.74,1.63-3.49,3.1-5.29,4.5a122.54,122.54,0,0,1-11.1,7.75,2.4,2.4,0,0,1-3.29-.77,2.37,2.37,0,0,1,.35-3l0,0c3.12-3.08,6.26-6.2,9.28-9.28,1.5-1.56,3-3.11,4.31-4.68a24.43,24.43,0,0,0,1.77-2.27,4.79,4.79,0,0,0,.48-.86c0-.06,0-.12-.06.1l0,.08,0,.15a3.53,3.53,0,0,0-.05.39,2.44,2.44,0,0,0,0,.27c0,.09,0,.25,0,.37a2.62,2.62,0,0,0,.09.38,2.68,2.68,0,0,0,.18.47,3.43,3.43,0,0,0,.55.85,3.26,3.26,0,0,0,.66.59,3.35,3.35,0,0,0,.54.3,3.45,3.45,0,0,0,.35.13l.22.06s.14,0,.13,0,.12,0-.07,0l-1.48.11c-1,.1-2,.2-3,.36a61.41,61.41,0,0,0-6,1.2c-2,.49-4,1-6,1.67-1,.31-2,.63-3,1l-2.85,1-.19.06a4.78,4.78,0,0,1-3.48-8.91Z" style="fill: rgb(255, 181, 115); transform-origin: 164.67px 214.758px 0px;" id="elww8qrrgx96n" class="animable"></path><path d="M119.09,202.92c-1.77-4.62-3.38-9.23-4.86-13.95-.74-2.35-1.48-4.71-2.13-7.13a72.52,72.52,0,0,1-1.72-7.61,17.25,17.25,0,0,1-.23-2.5,8.22,8.22,0,0,1,.21-1.93A8.12,8.12,0,0,1,111,168a9.94,9.94,0,0,1,1.81-2.47,15,15,0,0,1,1.91-1.61,30.63,30.63,0,0,1,7.42-3.71,71.37,71.37,0,0,1,14.8-3.44,2.38,2.38,0,0,1,1.15,4.59l-.08,0a126.79,126.79,0,0,0-13,5.57,27.22,27.22,0,0,0-5.3,3.4,3.6,3.6,0,0,0-1.07,1.34s0,0,.05-.06,0-.23.06-.12.1.65.21,1.13c.47,2,1.19,4.3,1.91,6.53s1.5,4.51,2.3,6.78l4.83,13.6v0a4.79,4.79,0,0,1-9,3.32Z" style="fill: rgb(255, 181, 115); transform-origin: 124.897px 181.368px 0px;" id="el9cfcfvu061p" class="animable"></path><path d="M142.7,206.74s-2.22,2.89-12.85-1.94c-3.23-1.48-.24-4-.24-4,4.72.95,6.6-1.68,7.61-4.76.12-.38.23-.76.32-1.13l11.68-3c-2.52,3.05-6.3,8.38-6.75,12.43A5.23,5.23,0,0,0,142.7,206.74Z" style="fill: rgb(255, 181, 115); transform-origin: 138.785px 199.754px 0px;" id="el71z47gm8n43" class="animable"></path><g id="eljns11s8rg59"><path d="M142.47,204.34c-3.77-1.87-4.93-5.57-5.25-8.33.12-.38.23-.76.32-1.13l11.68-3C146.7,195,142.92,200.29,142.47,204.34Z" style="opacity: 0.2; transform-origin: 143.22px 198.11px 0px;" class="animable"></path></g><path d="M130.39,179.54s-5.4-3.36-7.72-.41-1.14,10.71,5.61,9.39S131.92,180.31,130.39,179.54Z" style="fill: rgb(38, 50, 56); transform-origin: 127.017px 183.294px 0px;" id="el7jht2s8s3s" class="animable"></path><path d="M131.18,178.81s-.63-3.23-2.83-3.23-1.12,3.23-1.12,3.23-2.16-1.7-2.79.81a2.36,2.36,0,0,0,1.89,3s-2.34,1-1.53,3,2.22.69,2.22.69-1,2.33.21,3.23,2.42-.81,2.42-.81a2.42,2.42,0,0,0,1.53,2.79c2,.84,3.56-4.05,3.56-4.05Z" style="fill: rgb(102, 80, 233); transform-origin: 129.541px 183.599px 0px;" id="ela90cfkzdz8q" class="animable"></path><g id="eldn55rieqyg"><path d="M131.18,178.81s-.63-3.23-2.83-3.23-1.12,3.23-1.12,3.23-2.16-1.7-2.79.81a2.36,2.36,0,0,0,1.89,3s-2.34,1-1.53,3,2.22.69,2.22.69-1,2.33.21,3.23,2.42-.81,2.42-.81a2.42,2.42,0,0,0,1.53,2.79c2,.84,3.56-4.05,3.56-4.05Z" style="fill: rgb(255, 255, 255); opacity: 0.4; transform-origin: 129.541px 183.599px 0px;" class="animable"></path></g><path d="M141.61,172.34c5.85-.81,13.48,3.51,14.28,9.5,1.21,9-9,14.37-11.29,14.27C123.45,195.2,125.08,174.63,141.61,172.34Z" style="fill: rgb(38, 50, 56); transform-origin: 142.48px 184.177px 0px;" id="ele9adudodqnn" class="animable"></path><path d="M133.85,183.57c.48,7.58.53,10.8,4.32,14.87,5.71,6.14,14.8,4.38,16.57-3.08,1.59-6.71.53-18-6.81-21.38A9.74,9.74,0,0,0,133.85,183.57Z" style="fill: rgb(255, 181, 115); transform-origin: 144.594px 187.55px 0px;" id="elar8erh1m53e" class="animable"></path><path d="M145.45,186.25c0,.63.35,1.17.75,1.19s.73-.48.71-1.12-.35-1.18-.75-1.2S145.43,185.61,145.45,186.25Z" style="fill: rgb(38, 50, 56); transform-origin: 146.18px 186.28px 0px;" id="elnzg8342uj4" class="animable"></path><path d="M153.08,186.73c0,.64.35,1.17.75,1.19s.73-.48.71-1.12-.35-1.17-.75-1.19S153.06,186.09,153.08,186.73Z" style="fill: rgb(38, 50, 56); transform-origin: 153.81px 186.765px 0px;" id="el16hudc9xg5i" class="animable"></path><path d="M153.61,185.64l1.48-.37S154.35,186.43,153.61,185.64Z" style="fill: rgb(38, 50, 56); transform-origin: 154.35px 185.593px 0px;" id="eln4d9scy1o0g" class="animable"></path><path d="M151,187.67a19.07,19.07,0,0,0,2.29,4.19,2.56,2.56,0,0,1-2.2.32Z" style="fill: rgb(237, 137, 62); transform-origin: 152.145px 189.984px 0px;" id="eldgugnvhl8jt" class="animable"></path><path d="M143.74,182.61a.32.32,0,0,0,.28-.08,2.72,2.72,0,0,1,2.51-.62.35.35,0,0,0,.44-.24.42.42,0,0,0-.26-.48,3.43,3.43,0,0,0-3.19.76.39.39,0,0,0,0,.53A.41.41,0,0,0,143.74,182.61Z" style="fill: rgb(38, 50, 56); transform-origin: 145.198px 181.843px 0px;" id="el1f1eq143ma5" class="animable"></path><path d="M155.22,183.33a.33.33,0,0,0,.27-.05.36.36,0,0,0,.07-.51,3.88,3.88,0,0,0-3-1.79.34.34,0,0,0-.34.37.4.4,0,0,0,.39.38,3.12,3.12,0,0,1,2.33,1.44A.39.39,0,0,0,155.22,183.33Z" style="fill: rgb(38, 50, 56); transform-origin: 153.927px 182.16px 0px;" id="elx5c23qdxg6" class="animable"></path><path d="M146,185.15l1.48-.37S146.72,185.94,146,185.15Z" style="fill: rgb(38, 50, 56); transform-origin: 146.74px 185.103px 0px;" id="el8bs9fjj0q1" class="animable"></path><path d="M150,194a21.75,21.75,0,0,0-2.09,2.4l-.5-.26c-2.24-1.21-2.88-2.5-2.91-3.58a3.3,3.3,0,0,1,.36-1.51,3.23,3.23,0,0,1,.48-.74,11.84,11.84,0,0,0,3.9,3.27C149.67,193.82,150,194,150,194Z" style="fill: rgb(38, 50, 56); transform-origin: 147.25px 193.355px 0px;" id="ele5ikijtwzk" class="animable"></path><path d="M149.21,193.55l-.64.69c-2.1-1.14-3.43-2.22-3.74-3.22a3.23,3.23,0,0,1,.48-.74A11.84,11.84,0,0,0,149.21,193.55Z" style="fill: rgb(255, 255, 255); transform-origin: 147.02px 192.26px 0px;" id="elaixo2dit1l" class="animable"></path><path d="M147.38,196.11c-2.24-1.21-2.88-2.5-2.91-3.58a8.24,8.24,0,0,1,2.22,1.83A3,3,0,0,1,147.38,196.11Z" style="fill: rgb(222, 87, 83); transform-origin: 145.925px 194.32px 0px;" id="elsjgph6f8sqf" class="animable"></path><path d="M132.25,190.63a5.24,5.24,0,0,0,2.81,3.15c1.67.67,2.67-1.22,2.33-3.26-.3-1.85-1.52-4.42-3.26-4.19S131.59,188.78,132.25,190.63Z" style="fill: rgb(255, 181, 115); transform-origin: 134.738px 190.117px 0px;" id="el9n84qwcpm0i" class="animable"></path><path d="M145.45,176.67s-2.32,1.51-3.39,6c-1.66,6.8-6.27,7.11-9,6-3.13-1.24-5.28-6.73-2.83-12,4.48-9.63,17.33-8.16,20.71-4.33C154.54,176.39,151,178.72,145.45,176.67Z" style="fill: rgb(38, 50, 56); transform-origin: 140.783px 179.279px 0px;" id="elhixmt170fx" class="animable"></path><path d="M140.38,156.67l-.64-6.44L134,155.68s1.25,4.86,4.41,5.63l.55-.54A5.09,5.09,0,0,0,140.38,156.67Z" style="fill: rgb(255, 181, 115); transform-origin: 137.205px 155.77px 0px;" id="el79v8bhxw91o" class="animable"></path><polygon points="136.47 145.42 130.98 149.21 133.95 155.68 139.74 150.23 136.47 145.42" style="fill: rgb(255, 181, 115); transform-origin: 135.36px 150.55px 0px;" id="elhh8xkszjbsa" class="animable"></polygon><path d="M158.88,229.18l4.74,4.41.74-7.91s-4.16-2.82-7-1.31l0,.77A5,5,0,0,0,158.88,229.18Z" style="fill: rgb(255, 181, 115); transform-origin: 160.851px 228.758px 0px;" id="eljs2vfs0q6t" class="animable"></path><polygon points="169.25 235.03 170.87 228.57 164.36 225.68 163.62 233.59 169.25 235.03" style="fill: rgb(255, 181, 115); transform-origin: 167.245px 230.355px 0px;" id="el0cc4o96hibuo" class="animable"></polygon><path d="M126,195.46s6,10.87,26.1,10.87l.9,9.79c-2.68,3.59-8.26,16.77-6.33,27.08l-25.1,6.66a208.8,208.8,0,0,1-4-52.43Z" style="fill: rgb(255, 181, 115); transform-origin: 135.154px 222.66px 0px;" id="ellnbbevf5bxh" class="animable"></path><path d="M143.58,204.61l-14.35,11.28a27,27,0,0,1,1-17L127,195.2s-17.45,22.61-6.87,54.66l26.51-6.66a44.05,44.05,0,0,1,2.78-17.76s-4.11-12.9-2.1-20.11Z" style="fill: rgb(102, 80, 233); transform-origin: 133.072px 222.53px 0px;" id="ele4562ca645u" class="animable"></path><path d="M212.36,267.11c-3.64-.69-10-6.09-10-6.09l-3.81,8.22s-5.68.73-10.29-7-.17,12.87-.17,12.87-5.23,1.1-9-6.86-1.79,12.16-1.79,12.16-2.55,1.05-5.16-4.43-.05,5.12-.41,6.57-15.13-10-15.13-10a11.42,11.42,0,0,0,.62,8.64c2.23,4.68,4.87,8.92,2.39,11.24S147.25,280,145,280.19s2.88,17.61,5.4,20.63-8.51.3-11.21-3.5-4.42,3.15,2.53,10.12l-11.39,3s7.26,4,6.55,8.4-18.27,5.64-18.27,5.64l1-14.12s8.93-27.71,36.78-43.63,52.12-18.17,58.54-16S212.36,267.11,212.36,267.11Z" style="fill: rgb(102, 80, 233); transform-origin: 167.926px 287.256px 0px;" id="el4lhqryn7p8e" class="animable"></path><g id="el97ckrpyk72"><path d="M212.36,267.11c-3.64-.69-10-6.09-10-6.09l-3.81,8.22s-5.68.73-10.29-7-.17,12.87-.17,12.87-5.23,1.1-9-6.86-1.79,12.16-1.79,12.16-2.55,1.05-5.16-4.43-.05,5.12-.41,6.57-15.13-10-15.13-10a11.42,11.42,0,0,0,.62,8.64c2.23,4.68,4.87,8.92,2.39,11.24S147.25,280,145,280.19s2.88,17.61,5.4,20.63-8.51.3-11.21-3.5-4.42,3.15,2.53,10.12l-11.39,3s7.26,4,6.55,8.4-18.27,5.64-18.27,5.64l1-14.12s8.93-27.71,36.78-43.63,52.12-18.17,58.54-16S212.36,267.11,212.36,267.11Z" style="opacity: 0.5; transform-origin: 167.926px 287.256px 0px;" class="animable"></path></g><path d="M227.27,251c-5.19-1.79-10.21,17.2-14.9,16.12-4.91-1.16,4.24-15.87-.74-16s-5.77,18.06-13.1,18.15.38-11-6.78-10.69,4.25,10.61-2.2,15.83-1.2-17.75-9.49-14.79,6.42,14.67-1,20-4.23-13.93-12.42-10.34,10.93,10.32,3.2,16.6S160,269.44,150,276.78s16.85,9.21,8.41,17-10.47-15.48-18.24-6.39,15,11.14,9.94,16-15.22-13.8-20.12-2.05,15.62,0,11.53,9.25S127,308.38,124,315.53s14.93-3.57,12.87,5.78-17,3-21.1,9.24a136.51,136.51,0,0,1,2.67-15.35s2-30.21,4.76-37.05,8.52-33.37,8.52-33.37l49.37-5.84,21.46,11S221.1,248.26,227.27,251Z" style="fill: rgb(102, 80, 233); transform-origin: 171.52px 284.745px 0px;" id="elrg53tc5mp5h" class="animable"></path><g id="elwcjnt9ofnzi"><path d="M227.27,251c-5.19-1.79-10.21,17.2-14.9,16.12-4.91-1.16,4.24-15.87-.74-16s-5.77,18.06-13.1,18.15.38-11-6.78-10.69,4.25,10.61-2.2,15.83-1.2-17.75-9.49-14.79,6.42,14.67-1,20-4.23-13.93-12.42-10.34,10.93,10.32,3.2,16.6S160,269.44,150,276.78s16.85,9.21,8.41,17-10.47-15.48-18.24-6.39,15,11.14,9.94,16-15.22-13.8-20.12-2.05,15.62,0,11.53,9.25S127,308.38,124,315.53s14.93-3.57,12.87,5.78-17,3-21.1,9.24a136.51,136.51,0,0,1,2.67-15.35s2-30.21,4.76-37.05,8.52-33.37,8.52-33.37l49.37-5.84,21.46,11S221.1,248.26,227.27,251Z" style="opacity: 0.2; transform-origin: 171.52px 284.745px 0px;" class="animable"></path></g><path d="M202.93,235.18c-3.4-.28-6.49,3.2-9.55,3.69-2.09,5.78-6.41,13-.6,14C201.38,254.44,197.21,236.14,202.93,235.18Z" style="fill: rgb(102, 80, 233); transform-origin: 196.398px 244.065px 0px;" id="el7q7j0lwr8t" class="animable"></path><path d="M128.62,294.79c1.36-5.73-6.07-6.28-9.38-8.1a63.53,63.53,0,0,1-3.57,9.53C119.93,294.21,127,301.64,128.62,294.79Z" style="fill: rgb(102, 80, 233); transform-origin: 122.227px 292.224px 0px;" id="elhk1qkspjlhb" class="animable"></path><path d="M200.48,256.06c5.22,2.43,7.5-16.65,14.92-12.65h0c-3.34-2.57-8,.67-9.42.8C202.86,249.24,197.42,254.63,200.48,256.06Z" style="fill: rgb(102, 80, 233); transform-origin: 207.488px 249.348px 0px;" id="elj9fyq49tmi" class="animable"></path><path d="M117.77,285.13v0h0Z" style="fill: rgb(102, 80, 233); transform-origin: 117.77px 285.13px 0px;" id="eli3p3qvob0jd" class="animable"></path><path d="M124.88,304.34c1.07-4.64-4.3-2-8.21-1.16-1,4.39-2.28,12,.71,13.71h0C114.27,310.39,123.08,312.15,124.88,304.34Z" style="fill: rgb(102, 80, 233); transform-origin: 120.27px 309.28px 0px;" id="elh533qdwpupm" class="animable"></path><polygon points="112.86 301.15 112.85 301.16 112.86 301.16 112.86 301.15" style="fill: rgb(102, 80, 233); transform-origin: 112.855px 301.155px 0px;" id="elblotli43rt7" class="animable"></polygon><path d="M119.17,270.46a59.57,59.57,0,0,1-1,12.89,6.47,6.47,0,0,1,.61-.89c5.44-6.72,5.26,9.73,12.49,3s-14-10-4.61-15.34,6.24,14.37,16.48,6.16-13.83-10.48-6-16.9,7.4,12,14.33,7.06-12.45-13.77-2.31-19.08S154,266,162,261.11s-11.46-16.19-.54-19.69.54,19.69,8.72,15.07-7.89-20.77,2.78-19.24S168.08,254,179.61,253c10.79-.91.28-20.47,9.46-21.62h0c-4-.95-9.48,5.16-13.12,5-2.22-1.79-4.11-3-5.37-3.29-6.18-1.34-52.17,11.18-52.17,11.18l.76,26.13Z" style="fill: rgb(102, 80, 233); transform-origin: 153.62px 259.196px 0px;" id="eldtsgs53aw5a" class="animable"></path><path d="M228,250.14a5.45,5.45,0,0,0-.64-.32A2.4,2.4,0,0,1,228,250.14Z" style="fill: rgb(38, 50, 56); transform-origin: 227.68px 249.98px 0px;" id="elm25wyqq8qgq" class="animable"></path><path d="M113.21,299.57c2.11-6.78,7.8-2.3,11.72-1.85a13.2,13.2,0,0,1,.07,5.34C124.61,298.09,110.37,308.68,113.21,299.57Z" style="fill: rgb(102, 80, 233); transform-origin: 119.037px 299.637px 0px;" id="eltob13qlllpb" class="animable"></path><path d="M128.1,287.13a22.49,22.49,0,0,1,.66,6.72c.56-7.34-15.22-4.94-10-11.39C123.27,276.91,123.93,287.17,128.1,287.13Z" style="fill: rgb(102, 80, 233); transform-origin: 123.246px 287.332px 0px;" id="elrvn32hm6vy" class="animable"></path><path d="M132.25,270.47c-.21,3-.41,8.19.37,11.23-1.62-4.38-13.41-7.35-6-11.56C129.35,268.61,131,269.14,132.25,270.47Z" style="fill: rgb(102, 80, 233); transform-origin: 128.408px 275.454px 0px;" id="el8u04ktgdipa" class="animable"></path><path d="M145.32,271c-2.28-4.31-14-6.79-8.23-11.55,4.47-3.69,6.25.85,8.28,4.41A11.17,11.17,0,0,0,145.32,271Z" style="fill: rgb(102, 80, 233); transform-origin: 140.44px 264.539px 0px;" id="ele33cc6278rq" class="animable"></path><path d="M159,261.45a35.75,35.75,0,0,0-8.16-2.12c-3.12-4.17-7.91-8.71-1.72-11.95C157.59,242.94,155.3,259,159,261.45Z" style="fill: rgb(102, 80, 233); transform-origin: 152.556px 254.029px 0px;" id="elf10rufla7vk" class="animable"></path><path d="M167.22,256.47a30.89,30.89,0,0,0-5.38-3.79c-2.83-4.53-6.77-9.22-.41-11.26C170.27,238.58,165.15,253.24,167.22,256.47Z" style="fill: rgb(102, 80, 233); transform-origin: 162.616px 248.764px 0px;" id="elg8ertt8ouv" class="animable"></path><path d="M178.08,253.06s-2.06.68-5.51-1.05h0c-.06-6.45-7.93-15.94.38-14.76C183.08,238.71,169.57,252.52,178.08,253.06Z" style="fill: rgb(102, 80, 233); transform-origin: 173.611px 245.171px 0px;" id="elxwnjl6v29pn" class="animable"></path><path d="M191.44,252.45l-.06,0s-4.42.68-7.74-1.54c3.87-5.74-3.06-20.79,7.58-19.44C200.65,232.63,185.07,249.19,191.44,252.45Z" style="fill: rgb(102, 80, 233); transform-origin: 188.989px 241.966px 0px;" id="elgien7f0hg7w" class="animable"></path><path d="M200.48,256.06l-8.35-3.33c.2.06.42.11.65.16,9.61,1.73,3.27-21.36,12.6-17.28S195.27,253.63,200.48,256.06Z" style="fill: rgb(102, 80, 233); transform-origin: 200.042px 245.593px 0px;" id="elw6asdye1b8b" class="animable"></path><g id="el183mdgh7jnk"><path d="M113.21,299.57c2.11-6.78,7.8-2.3,11.72-1.85a13.2,13.2,0,0,1,.07,5.34C124.61,298.09,110.37,308.68,113.21,299.57Z" style="opacity: 0.4; transform-origin: 119.037px 299.637px 0px;" class="animable"></path></g><g id="elvfsbh1yiy1"><path d="M128.1,287.13a22.49,22.49,0,0,1,.66,6.72c.56-7.34-15.22-4.94-10-11.39C123.27,276.91,123.93,287.17,128.1,287.13Z" style="opacity: 0.4; transform-origin: 123.246px 287.332px 0px;" class="animable"></path></g><g id="eldyxr2rmuxyi"><path d="M132.25,270.47c-.21,3-.41,8.19.37,11.23-1.62-4.38-13.41-7.35-6-11.56C129.35,268.61,131,269.14,132.25,270.47Z" style="opacity: 0.4; transform-origin: 128.408px 275.454px 0px;" class="animable"></path></g><g id="elzboe0ajpa5"><path d="M145.32,271c-2.28-4.31-14-6.79-8.23-11.55,4.47-3.69,6.25.85,8.28,4.41A11.17,11.17,0,0,0,145.32,271Z" style="opacity: 0.4; transform-origin: 140.44px 264.539px 0px;" class="animable"></path></g><g id="el2lc6ak6uxlr"><path d="M159,261.45a35.75,35.75,0,0,0-8.16-2.12c-3.12-4.17-7.91-8.71-1.72-11.95C157.59,242.94,155.3,259,159,261.45Z" style="opacity: 0.4; transform-origin: 152.556px 254.029px 0px;" class="animable"></path></g><g id="elb1sho77g9st"><path d="M167.22,256.47a30.89,30.89,0,0,0-5.38-3.79c-2.83-4.53-6.77-9.22-.41-11.26C170.27,238.58,165.15,253.24,167.22,256.47Z" style="opacity: 0.4; transform-origin: 162.616px 248.764px 0px;" class="animable"></path></g><g id="elg9yd52evxhp"><path d="M178.08,253.06s-2.06.68-5.51-1.05h0c-.06-6.45-7.93-15.94.38-14.76C183.08,238.71,169.57,252.52,178.08,253.06Z" style="opacity: 0.4; transform-origin: 173.611px 245.171px 0px;" class="animable"></path></g><g id="el2bzn6bm3hy9"><path d="M191.44,252.45l-.06,0s-4.42.68-7.74-1.54c3.87-5.74-3.06-20.79,7.58-19.44C200.65,232.63,185.07,249.19,191.44,252.45Z" style="opacity: 0.4; transform-origin: 188.989px 241.966px 0px;" class="animable"></path></g><g id="elnqbq1odr5ta"><path d="M200.48,256.06l-8.35-3.33c.2.06.42.11.65.16,9.61,1.73,3.27-21.36,12.6-17.28S195.27,253.63,200.48,256.06Z" style="opacity: 0.4; transform-origin: 200.042px 245.593px 0px;" class="animable"></path></g><path d="M137.19,417.66h-1.31l-.36-1.61-4.3,1.94H120.3s-1.74-1.74,3.46-3.13a4.26,4.26,0,0,0,.74-.28c2.77-1.3,6.72-5.69,6.72-5.69h6a8.31,8.31,0,0,1,.5.86C138.35,411.07,139.48,413.83,137.19,417.66Z" style="fill: rgb(38, 50, 56); transform-origin: 129.291px 413.44px 0px;" id="eljjdfv4bbexb" class="animable"></path><path d="M137.7,409.75v0c-.8-.88-4.39,3-7,4.31-2.35,1.17-5,1.69-6.17.5,2.77-1.3,7.13-7,7.13-7h4.82S137.41,409.19,137.7,409.75Z" style="fill: rgb(255, 181, 115); transform-origin: 131.115px 411.398px 0px;" id="elkvmnww36bao" class="animable"></path><path d="M268.67,286.17l.86,1-1,1.34,4.32,1.93,7.26,8.15s-.15,2.46-4.65-.5a3.53,3.53,0,0,0-.7-.37c-2.81-1.2-8.71-1.23-8.71-1.23l-4-4.47a8.31,8.31,0,0,1,.32-.94C263,289.68,264.29,287,268.67,286.17Z" style="fill: rgb(38, 50, 56); transform-origin: 271.08px 292.86px 0px;" id="elnatlz2xeqag" class="animable"></path><path d="M262.42,291.05l0,0c-.14,1.18,5.15,1.3,7.88,2.39,2.45,1,4.59,2.61,4.48,4.27-2.81-1.2-9.95-.68-9.95-.68l-3.2-3.6S262.19,291.63,262.42,291.05Z" style="fill: rgb(255, 181, 115); transform-origin: 268.207px 294.38px 0px;" id="elqhmlt183gul" class="animable"></path></g><defs>     <filter id="active" height="200%">         <feMorphology in="SourceAlpha" result="DILATED" operator="dilate" radius="2"></feMorphology>                <feFlood flood-color="#32DFEC" flood-opacity="1" result="PINK"></feFlood>        <feComposite in="PINK" in2="DILATED" operator="in" result="OUTLINE"></feComposite>        <feMerge>            <feMergeNode in="OUTLINE"></feMergeNode>            <feMergeNode in="SourceGraphic"></feMergeNode>        </feMerge>    </filter>    <filter id="hover" height="200%">        <feMorphology in="SourceAlpha" result="DILATED" operator="dilate" radius="2"></feMorphology>                <feFlood flood-color="#ff0000" flood-opacity="0.5" result="PINK"></feFlood>        <feComposite in="PINK" in2="DILATED" operator="in" result="OUTLINE"></feComposite>        <feMerge>            <feMergeNode in="OUTLINE"></feMergeNode>            <feMergeNode in="SourceGraphic"></feMergeNode>        </feMerge>            <feColorMatrix type="matrix" values="0   0   0   0   0                0   1   0   0   0                0   0   0   0   0                0   0   0   1   0 "></feColorMatrix>    </filter></defs></svg>