<svg class="animated" id="freepik_stories-spooky-self-makeup" xmlns="http://www.w3.org/2000/svg" viewBox="0 0 500 500" version="1.1" xmlns:xlink="http://www.w3.org/1999/xlink" xmlns:svgjs="http://svgjs.com/svgjs"><style>svg#freepik_stories-spooky-self-makeup:not(.animated) .animable {opacity: 0;}svg#freepik_stories-spooky-self-makeup.animated #freepik--Character--inject-21 {animation: 1.5s Infinite  linear wind;animation-delay: 0s;}            @keyframes wind {                0% {                    transform: rotate( 0deg );                }                25% {                    transform: rotate( 1deg );                }                75% {                    transform: rotate( -1deg );                }            }        </style><g id="freepik--Sparkles--inject-21" style="transform-origin: 247.48px 143.42px 0px;" class="animable"><g id="freepik--Shine--inject-21" style="transform-origin: 247.48px 143.42px 0px;" class="animable"><path d="M356.24,161.22c.08,7.56-.19,14.84-11.12,16.54,11.54-.16,10.67,7.12,11.23,16.23.31-9.11,1.11-15.65,10.11-16.08C357.15,176.37,357.4,172.06,356.24,161.22Z" style="fill: rgb(102, 80, 233); transform-origin: 355.79px 177.605px 0px;" id="eld6szf9ntx7w" class="animable"></path><path d="M273.55,66.66c0,2.91-.07,5.7-4.27,6.36,4.44-.06,4.1,2.73,4.32,6.24.12-3.51.42-6,3.88-6.18C273.91,72.48,274,70.83,273.55,66.66Z" style="fill: rgb(69, 90, 100); transform-origin: 273.38px 72.96px 0px;" id="elch2nd8bgn4n" class="animable"></path><path d="M131.38,195.65c0,2.9-.07,5.7-4.27,6.35,4.44-.06,4.1,2.74,4.32,6.24.12-3.5.42-6,3.88-6.18C131.73,201.47,131.83,199.81,131.38,195.65Z" style="fill: rgb(69, 90, 100); transform-origin: 131.21px 201.945px 0px;" id="elsaitcsc4jmr" class="animable"></path><path d="M375.1,144.05c0,2.91-.07,5.71-4.27,6.36,4.44-.06,4.1,2.74,4.32,6.24.12-3.5.43-6,3.88-6.18C375.46,149.88,375.55,148.22,375.1,144.05Z" style="fill: rgb(69, 90, 100); transform-origin: 374.93px 150.35px 0px;" id="el5o02lef9m1" class="animable"></path><path d="M86.26,42c.1,9.31-.23,18.27-13.69,20.37,14.21-.2,13.14,8.76,13.84,20,.37-11.22,1.36-19.27,12.44-19.8C87.39,60.64,87.69,55.33,86.26,42Z" style="fill: rgb(69, 90, 100); transform-origin: 85.71px 62.185px 0px;" id="el4zec2xnw5vb" class="animable"></path><path d="M107.32,84.75c0,3.63-.09,7.13-5.35,8,5.55-.07,5.13,3.42,5.4,7.8.15-4.38.54-7.52,4.86-7.73C107.76,92,107.88,90,107.32,84.75Z" style="fill: rgb(102, 80, 233); transform-origin: 107.1px 92.65px 0px;" id="elyu8dxxupof" class="animable"></path><path d="M108.16,174.16c.07,5.9-.15,11.59-8.67,12.91,9-.12,8.32,5.56,8.77,12.67.24-7.11.86-12.21,7.88-12.55C108.88,186,109.07,182.62,108.16,174.16Z" style="fill: rgb(102, 80, 233); transform-origin: 107.815px 186.95px 0px;" id="elkv2n7f5337d" class="animable"></path><path d="M309.78,31.6c.05,4.65-.12,9.12-6.83,10.16,7.09-.09,6.55,4.38,6.9,10,.19-5.6.68-9.62,6.21-9.88C310.34,40.91,310.49,38.26,309.78,31.6Z" style="fill: rgb(102, 80, 233); transform-origin: 309.505px 41.68px 0px;" id="elu8qlv783vi" class="animable"></path><path d="M72.82,119.53c.05,4.22-.1,8.28-6.2,9.22,6.44-.08,5.95,4,6.27,9.06.17-5.08.62-8.73,5.64-9C73.34,128,73.47,125.57,72.82,119.53Z" style="fill: rgb(235, 235, 235); transform-origin: 72.575px 128.67px 0px;" id="elp6wauvtptl" class="animable"></path><path d="M458.15,147.51c0,4.22-.11,8.28-6.2,9.22,6.43-.08,5.95,4,6.26,9.06.17-5.08.62-8.73,5.64-9C458.66,156,458.8,153.55,458.15,147.51Z" style="fill: rgb(235, 235, 235); transform-origin: 457.9px 156.65px 0px;" id="elzoi83bzcjj" class="animable"></path><path d="M413,184.29c.06,5.13-.12,10.06-7.53,11.21,7.82-.1,7.23,4.83,7.61,11,.21-6.18.76-10.61,6.85-10.91C413.67,194.56,413.83,191.64,413,184.29Z" style="fill: rgb(235, 235, 235); transform-origin: 412.7px 195.395px 0px;" id="el7jnkujimfbp" class="animable"></path><path d="M415.08,95c.05,5.13-.13,10.06-7.54,11.22,7.83-.11,7.23,4.82,7.62,11,.21-6.18.75-10.61,6.85-10.9C415.7,105.28,415.87,102.36,415.08,95Z" style="fill: rgb(224, 224, 224); transform-origin: 414.775px 106.11px 0px;" id="elqj0z7vt6xem" class="animable"></path><path d="M40,202.75c.06-6.05-.15-11.87-8.89-13.23,9.23.12,8.53-5.69,9-13,.25,7.29.89,12.52,8.08,12.86C40.68,190.63,40.88,194.08,40,202.75Z" style="fill: rgb(235, 235, 235); transform-origin: 39.65px 189.635px 0px;" id="elkyadsnrn5p" class="animable"></path><path d="M88.56,255.24c.06-5.13-.13-10.06-7.53-11.21,7.82.1,7.23-4.83,7.61-11,.21,6.18.76,10.61,6.85,10.9C89.19,245,89.35,247.89,88.56,255.24Z" style="fill: rgb(224, 224, 224); transform-origin: 88.26px 244.135px 0px;" id="eliwuxbv28y3a" class="animable"></path></g></g><g id="freepik--Plants--inject-21" style="transform-origin: 249.725px 353.478px 0px;" class="animable"><g id="freepik--Leaves--inject-21" style="transform-origin: 65.3597px 379.218px 0px;" class="animable"><path d="M38.94,349.87a9.31,9.31,0,0,1-5-7.44,9.17,9.17,0,0,1,3.78-8s3.83,3.62,3.86,8.4A9.29,9.29,0,0,1,38.94,349.87Z" style="fill: rgb(102, 80, 233); transform-origin: 37.7589px 342.15px 0px;" id="elucy9z3cj7ef" class="animable"></path><path d="M39.11,343.3c0,8.11,3.68,16.71,7,24a104.66,104.66,0,0,0,12.23,20.84,90.21,90.21,0,0,0,21.07,19.35,125.58,125.58,0,0,0,12.45,7.36c5,2.58,10.31,4.57,15.19,7.32,1,.59-.19,2.05-1.11,1.81-9.58-2.47-19.1-8.05-27.3-13.46a91.61,91.61,0,0,1-22.9-21c-9.77-13-18-29.9-17.09-46.4,0-.36.48,0,.48.21Z" style="fill: rgb(55, 71, 79); transform-origin: 73.0053px 383.487px 0px;" id="elrijqak7v6d" class="animable"></path><path d="M65.1,411.89s-2.93,6.42-11.41,3.67-13.1-12.86-13.1-12.86,10.21-1.7,15.81.07C63.1,404.9,64.19,408.42,65.1,411.89Z" style="fill: rgb(102, 80, 233); transform-origin: 52.845px 409.105px 0px;" id="eljnftadule4" class="animable"></path><path d="M78.57,398.06s-5.16-1.21-4.66-10.11S83,372,83,372s4.24,9.44,3.93,15.31C86.61,394.36,82,397.75,78.57,398.06Z" style="fill: rgb(102, 80, 233); transform-origin: 80.411px 385.03px 0px;" id="elqqg33o1vxta" class="animable"></path><path d="M48.16,391.17a9.86,9.86,0,0,1-9.73.52c-5.55-2.59-6.54-11-6.54-11s8.26-2.23,13,1.6A8.6,8.6,0,0,1,48.16,391.17Z" style="fill: rgb(102, 80, 233); transform-origin: 40.1382px 386.387px 0px;" id="el6jqti8inxfa" class="animable"></path><path d="M64.55,378.14a9.83,9.83,0,0,1-5.19-8.24c-.45-6.11,6.42-11.08,6.42-11.08s6,6.13,5,12.16A8.6,8.6,0,0,1,64.55,378.14Z" style="fill: rgb(102, 80, 233); transform-origin: 65.1156px 368.48px 0px;" id="elqk60utwi4bb" class="animable"></path><path d="M38.46,370.59a9.3,9.3,0,0,1-8.63-.2c-4.89-2.44-6.54-10.29-6.54-10.29s7.85-1.15,10.61.61S38.46,370.59,38.46,370.59Z" style="fill: rgb(102, 80, 233); transform-origin: 30.875px 365.643px 0px;" id="elhb83kkww9f9" class="animable"></path><path d="M53.72,340.33a8.69,8.69,0,0,0-5.1,5.66c-1.53,4.56,2.06,10.19,2.06,10.19s5.41-4.37,6-7.17S53.72,340.33,53.72,340.33Z" style="fill: rgb(102, 80, 233); transform-origin: 52.4933px 348.255px 0px;" id="elqv3sotj66xa" class="animable"></path><path d="M49.32,407c1.47.54,3.06.92,4.58,1.38s3.11.83,4.68,1.19c3.18.72,6.41,1.25,9.64,1.67,3,.39,6.1.68,9.16.88s5.82,0,8.71.12c.84.05.52,1.34-.09,1.53-2.67.81-5.8.46-8.56.3q-4.62-.29-9.2-.85A69.23,69.23,0,0,1,59,411.47c-1.77-.48-3.47-1.08-5.18-1.73a41.42,41.42,0,0,1-4.49-2.19c-.18-.09-.3-.64,0-.53Z" style="fill: rgb(55, 71, 79); transform-origin: 67.8733px 410.642px 0px;" id="eluk33lbfq27m" class="animable"></path><path d="M37.92,385c1.29,1.52,3.66,2.36,5.47,3.08s3.81,1.64,5.75,2.39a51.84,51.84,0,0,0,6.1,1.89c1.24.31,2.49.6,3.73.88a10.27,10.27,0,0,1,3.45,1c.42.28.31,1.28-.27,1.31a15.77,15.77,0,0,1-3.9-.56c-1.3-.25-2.62-.47-3.91-.78a52.86,52.86,0,0,1-6.71-2.14c-3.69-1.45-8.07-3.13-10-6.82-.14-.27.09-.51.31-.25Z" style="fill: rgb(55, 71, 79); transform-origin: 50.1304px 390.219px 0px;" id="elt3z0ngp7mto" class="animable"></path><path d="M80.14,384.31a40.1,40.1,0,0,1,0,6.2,34,34,0,0,1-.69,5.79,25.63,25.63,0,0,1-1.77,5.12c-.68,1.42-1.64,3.45-3.14,4.16-.41.2-1.21,0-1.09-.63.18-.88,1.13-1.7,1.62-2.46a15.1,15.1,0,0,0,1.1-2.06,32.54,32.54,0,0,0,1.6-4.36c1.13-3.86,2.19-7.86,1.91-11.92,0-.46.48-.16.51.16Z" style="fill: rgb(55, 71, 79); transform-origin: 76.8489px 394.784px 0px;" id="elvk0fi8l7jmb" class="animable"></path><path d="M65.17,365.54a12.05,12.05,0,0,1,.77,2.52,31.56,31.56,0,0,1,.29,3.5,36.92,36.92,0,0,1-2.55,14.51c-.74,1.87-1.21,4.76-3.22,5.69a.57.57,0,0,1-.84-.42,6.21,6.21,0,0,1,.8-2.67c.33-.89.61-1.8,1-2.69a45,45,0,0,0,2-6,46.15,46.15,0,0,0,1.2-6.62,30,30,0,0,0,.14-3.67c0-1.33,0-2.71-.11-4a.31.31,0,1,1,.6-.13Z" style="fill: rgb(55, 71, 79); transform-origin: 62.9317px 378.552px 0px;" id="el2f2ljfu8ncl" class="animable"></path><path d="M29,364.92a42.72,42.72,0,0,0,5.5,3c1.75.83,3.45,1.78,5.22,2.59,1.57.72,3.17,1.38,4.75,2.09A14.81,14.81,0,0,1,48.87,375c.49.5-.06,1.72-.8,1.41-1.75-.75-3.4-1.79-5.16-2.57s-3.38-1.44-5-2.3-3.09-1.7-4.56-2.67a37,37,0,0,1-4.51-3.56c-.19-.17-.18-.61.14-.4Z" style="fill: rgb(55, 71, 79); transform-origin: 38.8854px 370.657px 0px;" id="el9k2cy12wt5f" class="animable"></path><path d="M52.73,347.78a25.66,25.66,0,0,1,.18,3,30,30,0,0,1-.38,3.13,44.36,44.36,0,0,1-1.16,5.84,33.72,33.72,0,0,1-2.26,5.37,23.48,23.48,0,0,1-2.75,4.92c-.78.94-2,0-1.23-1a22.56,22.56,0,0,0,2.23-4.38,47.9,47.9,0,0,0,2.1-4.75c.58-1.7.93-3.5,1.42-5.23.22-.8.44-1.61.62-2.43a18.46,18.46,0,0,0,.67-4.54c0-.51.52-.4.56,0Z" style="fill: rgb(55, 71, 79); transform-origin: 48.8974px 358.898px 0px;" id="elduxrvdjp2jq" class="animable"></path></g><g id="freepik--leaves--inject-21" style="transform-origin: 434.111px 327.733px 0px;" class="animable"><path d="M460.55,298.38a9.28,9.28,0,0,0,5-7.43,9.16,9.16,0,0,0-3.77-8s-3.84,3.63-3.86,8.4S460.55,298.38,460.55,298.38Z" style="fill: rgb(102, 80, 233); transform-origin: 461.744px 290.665px 0px;" id="elay1rtvnh1n5" class="animable"></path><path d="M460.39,291.82c0,8.11-3.69,16.7-7,24a104.39,104.39,0,0,1-12.23,20.83A90.22,90.22,0,0,1,420.11,356a127.61,127.61,0,0,1-12.46,7.35c-5,2.58-10.3,4.57-15.18,7.32-1.06.6.18,2.06,1.1,1.82,9.59-2.48,19.1-8.06,27.31-13.47a91.4,91.4,0,0,0,22.89-21c9.78-13,18-29.9,17.09-46.39,0-.37-.47,0-.47.21Z" style="fill: rgb(55, 71, 79); transform-origin: 426.496px 331.994px 0px;" id="elj9zxzpwhfs9" class="animable"></path><path d="M434.4,360.4s2.92,6.42,11.41,3.68,13.09-12.87,13.09-12.87-10.21-1.7-15.81.08C436.39,353.41,435.3,356.93,434.4,360.4Z" style="fill: rgb(102, 80, 233); transform-origin: 446.65px 357.619px 0px;" id="el21tk8alnjhz" class="animable"></path><path d="M420.92,346.57s5.17-1.2,4.66-10.11-9.13-15.92-9.13-15.92-4.23,9.45-3.93,15.31C412.88,342.87,417.51,346.27,420.92,346.57Z" style="fill: rgb(102, 80, 233); transform-origin: 419.06px 333.555px 0px;" id="elsgf6pscotf" class="animable"></path><path d="M451.34,339.69a9.82,9.82,0,0,0,9.72.51c5.55-2.58,6.55-11,6.55-11s-8.27-2.24-13,1.59A8.59,8.59,0,0,0,451.34,339.69Z" style="fill: rgb(102, 80, 233); transform-origin: 459.359px 334.898px 0px;" id="el4cd4ytlk4b3" class="animable"></path><path d="M435,326.65a9.84,9.84,0,0,0,5.19-8.24c.44-6.1-6.42-11.08-6.42-11.08s-6,6.13-5,12.17A8.6,8.6,0,0,0,435,326.65Z" style="fill: rgb(102, 80, 233); transform-origin: 434.434px 316.99px 0px;" id="elvk53t52uw5t" class="animable"></path><path d="M461,319.1a9.31,9.31,0,0,0,8.63-.19c4.88-2.45,6.53-10.3,6.53-10.3s-7.85-1.15-10.61.61S461,319.1,461,319.1Z" style="fill: rgb(102, 80, 233); transform-origin: 468.58px 314.154px 0px;" id="elqc2kpmvpqm" class="animable"></path><path d="M445.78,288.85a8.68,8.68,0,0,1,5.1,5.65c1.52,4.56-2.07,10.2-2.07,10.2s-5.4-4.38-6-7.18S445.78,288.85,445.78,288.85Z" style="fill: rgb(102, 80, 233); transform-origin: 446.999px 296.775px 0px;" id="elzbdb2is63m" class="animable"></path><path d="M450.18,355.53c-1.48.55-3.07.92-4.59,1.38s-3.11.83-4.68,1.19c-3.17.73-6.41,1.26-9.64,1.67-3,.4-6.1.68-9.16.89-2.9.2-5.82-.05-8.71.12-.84,0-.51,1.34.09,1.52,2.67.82,5.81.47,8.57.3,3.07-.19,6.14-.46,9.2-.85A67.54,67.54,0,0,0,440.5,360c1.77-.48,3.47-1.08,5.19-1.72a43.38,43.38,0,0,0,4.49-2.2c.17-.09.29-.64,0-.53Z" style="fill: rgb(55, 71, 79); transform-origin: 431.625px 359.176px 0px;" id="eloho6tosluf" class="animable"></path><path d="M461.57,333.49c-1.29,1.53-3.66,2.36-5.46,3.09s-3.81,1.64-5.75,2.38a50.77,50.77,0,0,1-6.11,1.9l-3.73.88a10.64,10.64,0,0,0-3.45,1c-.42.29-.31,1.28.27,1.32a16.19,16.19,0,0,0,3.9-.57c1.31-.25,2.62-.47,3.91-.78a51.3,51.3,0,0,0,6.71-2.14c3.7-1.44,8.07-3.12,10-6.81.15-.27-.09-.52-.31-.26Z" style="fill: rgb(55, 71, 79); transform-origin: 449.362px 338.725px 0px;" id="elclxfs5kqnc" class="animable"></path><path d="M419.36,332.82a37.88,37.88,0,0,0,.05,6.21,33.17,33.17,0,0,0,.69,5.79,26.38,26.38,0,0,0,1.76,5.11c.68,1.43,1.64,3.45,3.14,4.17.41.19,1.21,0,1.09-.63-.17-.89-1.13-1.71-1.62-2.46a16.41,16.41,0,0,1-1.1-2.07,33.43,33.43,0,0,1-1.6-4.36c-1.12-3.86-2.19-7.86-1.91-11.92,0-.45-.48-.15-.5.16Z" style="fill: rgb(55, 71, 79); transform-origin: 422.679px 343.301px 0px;" id="elv54xnf1ifmj" class="animable"></path><path d="M434.33,314.05a12.46,12.46,0,0,0-.78,2.52,31.54,31.54,0,0,0-.28,3.5,36.54,36.54,0,0,0,2.55,14.52c.73,1.87,1.2,4.76,3.21,5.68a.57.57,0,0,0,.84-.41,6.15,6.15,0,0,0-.79-2.67c-.34-.9-.62-1.81-1-2.7a46.39,46.39,0,0,1-2-6,45.16,45.16,0,0,1-1.19-6.63,28.09,28.09,0,0,1-.15-3.67c0-1.32,0-2.71.11-4a.3.3,0,1,0-.59-.14Z" style="fill: rgb(55, 71, 79); transform-origin: 436.562px 327.079px 0px;" id="elp83aemjctqo" class="animable"></path><path d="M470.52,313.43a41.62,41.62,0,0,1-5.5,3c-1.76.84-3.46,1.78-5.23,2.59-1.57.72-3.17,1.38-4.75,2.09a14.79,14.79,0,0,0-4.41,2.46c-.5.49.06,1.71.79,1.4,1.76-.75,3.41-1.79,5.16-2.56s3.38-1.44,5-2.31,3.09-1.7,4.56-2.67a36.11,36.11,0,0,0,4.52-3.56c.18-.17.17-.61-.14-.4Z" style="fill: rgb(55, 71, 79); transform-origin: 460.609px 319.217px 0px;" id="el3n2o9mlqwtc" class="animable"></path><path d="M446.76,296.29a25.69,25.69,0,0,0-.17,3,29.82,29.82,0,0,0,.37,3.12,46.55,46.55,0,0,0,1.16,5.85,32.77,32.77,0,0,0,2.27,5.36,23,23,0,0,0,2.74,4.92c.79.95,2,0,1.23-1a23.53,23.53,0,0,1-2.23-4.39,48.78,48.78,0,0,1-2.1-4.74c-.58-1.7-.93-3.5-1.42-5.23-.22-.81-.44-1.62-.62-2.43a18.06,18.06,0,0,1-.66-4.55c0-.51-.53-.4-.57,0Z" style="fill: rgb(55, 71, 79); transform-origin: 450.598px 307.395px 0px;" id="eli2xn6y1dsp" class="animable"></path></g></g><g id="freepik--Character--inject-21" style="transform-origin: 243.9px 204.313px 0px;" class="animable"><g id="freepik--character--inject-21" style="transform-origin: 243.9px 204.313px 0px;" class="animable"><g id="freepik--Bottom--inject-21" style="transform-origin: 200.215px 308.169px 0px;" class="animable"><path d="M280.42,332.42h0a27.18,27.18,0,0,0-.52-5.15c-1.8-16.25-8.82-66.82-28.22-89.64L145.8,242.48c-17.71,29.33-23.68,70.56-25.29,84.83a27.44,27.44,0,0,0-.5,5.09v0h0c0,11.85,7.83,23.7,23.49,32.74,31.32,18.09,82.1,18.09,113.43,0,15.66-9,23.49-20.89,23.49-32.74Z" style="fill: rgb(69, 90, 100); transform-origin: 200.215px 308.169px 0px;" id="el2s98ooj1ycv" class="animable"></path><g id="el31i6usyoqi2"><g style="opacity: 0.2; transform-origin: 199.5px 318.718px 0px;" class="animable"><path d="M153.63,299.46c.07-.29-.26-.73-.43-.31a277.25,277.25,0,0,0-16.3,61.68c.31.23.61.47.93.7.45-2.94.94-5.88,1.49-8.8a295.68,295.68,0,0,1,8.25-33.7C149.59,312.51,152.09,306.11,153.63,299.46Z" id="elfnyoh471nbj" style="transform-origin: 145.27px 330.253px 0px;" class="animable"></path><path d="M272,353q-.48-4.56-1.09-9.1a305.28,305.28,0,0,0-10.48-47.42,213.74,213.74,0,0,0-9.77-26.78c-.14-.32-.41.13-.35.33,2.43,7.66,5,15.26,7.22,23s4.12,15.55,5.83,23.42a340.88,340.88,0,0,1,6.17,39.21C270.44,354.82,271.25,353.94,272,353Z" id="elejw6a3uy45q" style="transform-origin: 261.151px 312.624px 0px;" class="animable"></path><path d="M201.78,280c-8.17,14.76-12.88,31.45-16.08,47.93-3.15,16.26-4.65,32.78-5.59,49.3,1.07.16,2.14.31,3.21.44.37-7.16.84-14.31,1.51-21.45a287.75,287.75,0,0,1,8.31-48.7,251.24,251.24,0,0,1,9.2-26.84C202.48,280.32,202.1,279.43,201.78,280Z" id="elkxa4nolif7" style="transform-origin: 191.24px 328.742px 0px;" class="animable"></path><path d="M127,351.36c.77,1,1.59,2,2.48,2.92q1.49-11.07,3.71-22a309.08,309.08,0,0,1,13.44-46.7c1.61-4.34,3.34-8.63,5.09-12.92,1.83-4.49,3.95-8.89,5.6-13.45.07-.18-.08-.49-.25-.24a84.83,84.83,0,0,0-5.75,10.77q-2.67,5.53-5,11.21-4.71,11.37-8.43,23.11A293.1,293.1,0,0,0,127,351.36Z" id="elolo0hnb53a8" style="transform-origin: 142.169px 306.578px 0px;" class="animable"></path><path d="M209.08,372.82A419.66,419.66,0,0,1,210.45,328c.31-3.73.67-7.44,1.09-11.16.46-4.1,1.13-8.19,1.38-12.31,0-.35-.35-.53-.46-.12a97.27,97.27,0,0,0-1.83,11.27c-.47,3.57-.88,7.15-1.25,10.73-.7,6.83-1.16,13.7-1.47,20.57q-.71,15.78-.07,31.58l1.42-.1C209.19,376.55,209.13,374.69,209.08,372.82Z" id="ela3gsmqaoy4q" style="transform-origin: 210.228px 341.367px 0px;" class="animable"></path><path d="M254,363.1a359.44,359.44,0,0,0-4.55-36.86c-1.26-7-2.7-14-4.45-20.88-.08-.28-.33,0-.29.17A446.48,446.48,0,0,1,253,367.26c.42-.22.84-.42,1.25-.64C254.2,365.44,254.12,364.27,254,363.1Z" id="el5umyletziom" style="transform-origin: 249.478px 336.251px 0px;" class="animable"></path><path d="M237,373.58q0-6.22-.18-12.44c-.45-14-1.66-28-3.37-41.91q-.72-5.94-1.52-11.87c-.5-3.79-.91-7.65-1.64-11.41-.05-.25-.25,0-.24.14.12,3.39.5,6.8.8,10.19s.6,6.84.89,10.26c.59,7,1.19,14.1,1.67,21.16.83,12.16,1.41,24.34,1.3,36.53Z" id="elyrfrxpjzpqc" style="transform-origin: 233.525px 335.037px 0px;" class="animable"></path><path d="M153.26,369.6c.72-8.49,1.86-17,3.41-25.33a282.41,282.41,0,0,1,13.75-49.07c1.77-4.66,3.64-9.29,5.66-13.85s4.16-8.76,5.87-13.29c.07-.19-.06-.78-.31-.44a77.58,77.58,0,0,0-6.36,11.28c-1.9,3.83-3.68,7.73-5.37,11.67A239.83,239.83,0,0,0,161,314.8a259.49,259.49,0,0,0-10.16,50.42c-.12,1.18-.2,2.36-.3,3.54.89.41,1.78.81,2.69,1.19Z" id="elb9j96f5vdq" style="transform-origin: 166.254px 318.733px 0px;" class="animable"></path><path d="M170,349.53c.77-6.08,1.59-12.15,2.37-18.23,0-.21-.21-.19-.24,0-2.44,14.28-4.3,28.68-5.88,43.1l.81.2Q168.45,362.05,170,349.53Z" id="el7r1dt9kc69a" style="transform-origin: 169.31px 352.875px 0px;" class="animable"></path></g></g></g><g id="freepik--Top--inject-21" style="transform-origin: 249.989px 158.879px 0px;" class="animable"><path d="M229.24,113.63a13.67,13.67,0,0,0-1.27-1.84,14.53,14.53,0,0,1-11.69,19c-1.61.25-3,.11-4.56.72-1.88.76-3.06,2.12-4.69,3.25a11.94,11.94,0,0,1-7.12,1.66,27.61,27.61,0,0,1-9-1.75c-2.54-.95-5-2.27-7.63-2.72-4.4-.73-8.82,1-13.27,1.15a18.31,18.31,0,0,1-17.66-24.79,14,14,0,0,0-4.5,14.74,11.78,11.78,0,0,1-6.26-8.43,15.06,15.06,0,0,1,2.09-10.44c1.7-2.8,4.2-5.15,5.29-8.24,1.28-3.62.42-7.67,1.41-11.38A12.17,12.17,0,0,1,159.82,76c4.94-.91,10.12-1.89,15.19-1.57,2.24.14,4.09.7,6.35.39a71.29,71.29,0,0,1,8.5-1c3,0,5.39,1.11,8.3,1.22,3.75.14,6.88-1.11,10.61-.13,1.68.43,3.12,1.43,4.74,2a10.32,10.32,0,0,0,4,.32,10.76,10.76,0,0,1,8.14,3.86c1.81,2.46,1.76,5.78,2.59,8.71,1.37,4.77,5.1,8.52,6.89,13.14a17.7,17.7,0,0,1-4,18.57A14.27,14.27,0,0,0,229.24,113.63Z" style="fill: rgb(38, 50, 56); transform-origin: 188.809px 105.14px 0px;" id="elx1vya4hn5ap" class="animable"></path><polygon points="359.7 109.36 306.39 128.69 283.97 148.48 287.11 150.54 340.42 131.22 362.84 111.42 359.7 109.36" style="fill: rgb(55, 71, 79); transform-origin: 323.405px 129.95px 0px;" id="eldqissbi22jj" class="animable"></polygon><polygon points="362.84 111.42 340.42 131.22 287.11 150.54 309.54 130.75 362.84 111.42" style="fill: rgb(38, 50, 56); transform-origin: 324.975px 130.98px 0px;" id="eli4q4y2upjub" class="animable"></polygon><polygon points="364.65 66.12 311.93 84.07 306.39 128.69 309.54 130.75 362.84 111.42 367.79 68.18 364.65 66.12" style="fill: rgb(69, 90, 100); transform-origin: 337.09px 98.435px 0px;" id="elgmj3dh8fh0q" class="animable"></polygon><polygon points="315.07 86.14 311.93 84.07 306.39 128.69 309.54 130.75 315.07 86.14" style="fill: rgb(38, 50, 56); transform-origin: 310.73px 107.41px 0px;" id="elrf89g5zii3b" class="animable"></polygon><polygon points="309.54 130.75 315.07 86.14 367.79 68.18 362.84 111.42 309.54 130.75" style="fill: rgb(55, 71, 79); transform-origin: 338.665px 99.465px 0px;" id="elqueyqfu24xb" class="animable"></polygon><path d="M354.15,106.75c-.67-2.87-.86-5.9-1.84-7.35-.49-.72-2.79,1.67-3.2,4.36s.69,8.24.8,9.4-3.12,7.08-3.12,7.08.47-7.2,0-9.52a63.19,63.19,0,0,0-4.47-12.51c-1.79-3.39-2.38-6.53-3.88-5.93s-2.54,1.62-2.62,4.56c-.94-1.53-2.43-1.38-3.62,1.12a7.94,7.94,0,0,0-.52,3.85s-1.58-1.3-2.78,1-.87,5.27-.92,7.68-.41,6.14-.58,7.19a11.16,11.16,0,0,1-4.84,5.62c-4.72,2.3-6.55,3.87-8.14,9.78-2,7.42-21.39,28.26-30.28,37.87-14.73-14-36.11-33-40.78-36.27-7-4.94-13-6.06-25.76-7.64l5.45,36s43.43,35.61,54.5,41.16,14.79,7.27,21.81-1c3.4-4,10-17.74,15.06-28.27s8-17.31,10.95-23.34,5.57-8,12.05-12.33c7-4.71,10-6.87,11.4-8.36s6-13.33,6.5-15.34C355.68,114.39,354.92,110,354.15,106.75Z" style="fill: rgb(255, 168, 167); transform-origin: 286.506px 150.546px 0px;" id="el14oyza1jdsi" class="animable"></path><path d="M269.36,157.29l-.54-.49h0l-5.7-5.14-.65-.58-2.24-2-.91-.8-1.92-1.7-.43-.38h0c-2.93-2.59-5.64-4.94-7.92-6.88-2.32,3.8-10.81,12.46-10.81,12.46l8.65,6.83-11.64,14.31c6.56,5.25,14.73,11.69,22.26,17.38a46.24,46.24,0,0,0,1.62-15.56A180.18,180.18,0,0,1,269.36,157.29Z" style="fill: rgb(242, 143, 143); transform-origin: 252.305px 164.81px 0px;" id="elqoitmetgdfh" class="animable"></path><path d="M284.19,170.93a38.31,38.31,0,0,0-7.9,14.74,35.49,35.49,0,0,1,4.94-17.55Z" style="fill: rgb(242, 143, 143); transform-origin: 280.24px 176.895px 0px;" id="el8gq4sxus6pm" class="animable"></path><path d="M335.87,96.84l2.51,6a28.56,28.56,0,0,1,2,6.24,32.22,32.22,0,0,1-.21,6.53,62.4,62.4,0,0,1-1.06,6.38l.13-3.23.16-3.21a47.88,47.88,0,0,0,0-6.34,41.38,41.38,0,0,0-1.71-6.11l-1-3.07C336.39,98.94,336.08,97.9,335.87,96.84Z" style="fill: rgb(242, 143, 143); transform-origin: 338.164px 109.415px 0px;" id="elherbt0v5jzf" class="animable"></path><path d="M331.73,101.81c.61,1.58,1.15,3.18,1.6,4.81.22.81.44,1.63.62,2.46a11.31,11.31,0,0,1,.36,2.58,44.81,44.81,0,0,1-.3,5.07c-.17,1.68-.42,3.35-.73,5,0-1.69,0-3.38,0-5.06s.09-3.36.06-5a13.6,13.6,0,0,0-.31-2.41l-.48-2.47C332.21,105.16,331.93,103.49,331.73,101.81Z" style="fill: rgb(242, 143, 143); transform-origin: 333.02px 111.77px 0px;" id="elbh0gn572zzo" class="animable"></path><path d="M347.43,122.93s4-6.69,4.21-8.81-.87-4.72-1.48-7.28c-.49-2-.88-3.4-.05-5.73a7.34,7.34,0,0,0-1,2.65c-.41,2.68.69,8.24.8,9.4s-3.12,7.08-3.12,7.08Z" style="fill: rgb(242, 143, 143); transform-origin: 349.228px 112.02px 0px;" id="ellqr2cc10t4o" class="animable"></path><path d="M142.38,131.69c7.38-3.87,32.18-7.19,32.12-13.66C174.46,114,204,123,204,123c.26,2.41,9.4,3.58,13.62,4.07,5.93,4.27,12.63,11.36,23.76,23.08,11.29,11.9,14,20,12.09,30.58a39.25,39.25,0,0,1-9,18.06c-.16,7.41.31,12.85-.65,19.47-17.38,12.24-66,14.91-81.84-.71,2.29-16.42-7.76-31.84-12.16-47.72C145.35,153.5,134.21,136,142.38,131.69Z" style="fill: rgb(255, 168, 167); transform-origin: 196.749px 172.678px 0px;" id="elupkiz97ybgf" class="animable"></path><path d="M219.08,167.35c-.63-5.33-2.27-11.54-9.06-15.11,5.7,1.71,11.68,5.22,12.11,15.5Z" style="fill: rgb(242, 143, 143); transform-origin: 216.075px 159.99px 0px;" id="el3laxyf8pel3" class="animable"></path><path d="M208.76,140.83a15.38,15.38,0,0,0-1.2-4.82c-.53-1.26-1.94-3-3.5-2.59a10.41,10.41,0,0,0-1.64.81c-2,1-3.86.17-5.92.08-1.49-.07-3,1.27-2.3,2.82.63,1.38,2.07,2.08,3.29,2.85l2.36,1.5a51.15,51.15,0,0,0,4.89,3c1,.5,2.57,1.38,3.53.22a2.86,2.86,0,0,0,.49-1.66A13.47,13.47,0,0,0,208.76,140.83Z" style="fill: rgb(250, 250, 250); transform-origin: 201.414px 139.316px 0px;" id="el22w04rg96cw" class="animable"></path><path d="M222.63,134.72c.57-1.32-1.66-2.54-2.69-2.63a4.9,4.9,0,0,0-1.42.14,8.88,8.88,0,0,0-6.71,5.14c-.41.9-.81,1.81-1.21,2.72a1.88,1.88,0,0,0-.23.83c.06,1.25,1.26.37,1.61-.13a13.08,13.08,0,0,1,5-4.14,8.33,8.33,0,0,1,3-.92c.85,0,1.95,0,2.53-.82A1.74,1.74,0,0,0,222.63,134.72Z" style="fill: rgb(250, 250, 250); transform-origin: 216.546px 136.822px 0px;" id="el7axfotwbhr9" class="animable"></path><path d="M201.19,146.52a20.5,20.5,0,0,0-5.64-1.37,54.17,54.17,0,0,0-6.1-.53,63.14,63.14,0,0,0-14,.84,46,46,0,0,0-10.72,3.16c-3.49,1.55-7.62,3.43-9.15,7.15-.27.67.64,1.78,1.35,1.51a33.38,33.38,0,0,0,5.18-2.13c1.43-.81,2.84-1.62,4.32-2.31a55.09,55.09,0,0,1,22.9-5.39c1.76,0,3.52,0,5.28,0,2.07.06,4.57.45,6.57-.09C201.51,147.29,201.46,146.65,201.19,146.52Z" style="fill: rgb(250, 250, 250); transform-origin: 178.471px 150.929px 0px;" id="elj9368a3o1m" class="animable"></path><path d="M224.64,139.13a14.19,14.19,0,0,0-5.39.25c-2.83.59-7.2,1.73-7.21,5.38,0,.16.08.5.32.41a11.1,11.1,0,0,0,1.53-.95,16.44,16.44,0,0,1,1.93-.82,22.38,22.38,0,0,1,4.6-1,12.58,12.58,0,0,1,3.52-.06c1.75.25,3.45.85,5.19,1.16a.62.62,0,0,0,.68-.76C229.32,140.35,226.81,139.5,224.64,139.13Z" style="fill: rgb(250, 250, 250); transform-origin: 220.934px 142.083px 0px;" id="elj218pa7dcq" class="animable"></path><path d="M206.1,151.11a33.12,33.12,0,0,0-12.55-.75,40.85,40.85,0,0,0-23,9.75c-1.65,1.35-3.31,2.7-4.87,4.14s-3.56,3.35-3.66,5.63c0,.4.25,1.16.79.87,1.67-.89,3-2.74,4.45-4s3.09-2.53,4.67-3.76a50.61,50.61,0,0,1,10.26-6.55,46,46,0,0,1,12-3.34c3.94-.57,8-.5,11.87-1.11C206.35,151.93,206.46,151.21,206.1,151.11Z" style="fill: rgb(250, 250, 250); transform-origin: 184.173px 160.445px 0px;" id="eldj29nffw1o4" class="animable"></path><path d="M242.12,153.42c-1.06-2.46-4.17-3.67-6.5-4.58a29.76,29.76,0,0,0-7.38-1.71,30.78,30.78,0,0,0-7.05,0,20.94,20.94,0,0,0-3.52.63,6.1,6.1,0,0,0-3,1.54c-.16.21-.13.66.17.73a11.49,11.49,0,0,0,3.49-.27c1.27-.16,2.54-.32,3.82-.36a29.06,29.06,0,0,1,6.38.42,33.13,33.13,0,0,1,5.92,1.72c2.38.92,4.63,2.41,7.13,3C242.19,154.62,242.31,153.86,242.12,153.42Z" style="fill: rgb(250, 250, 250); transform-origin: 228.388px 150.737px 0px;" id="elbb4r2iq7iik" class="animable"></path><path d="M243.85,218.21a145.47,145.47,0,0,0,1.3-19.23s7.38-7.7,9.35-18.37c1.86-10.06-3.35-23.14-14.6-33-5.92-1.08-14.94,4.39-18.83,18.41-12.81-14-31.28-16.31-51.12-6-14.86,7.72-20.09,15.23-20.1,15.23,4.55,14.19,12,26.35,12.16,42.21a104.27,104.27,0,0,0-16.21,25s51.38,17.24,81.39,45.38c16.54-25.8,22.11-34.78,24.49-50.23Z" style="fill: rgb(55, 71, 79); transform-origin: 200.335px 217.659px 0px;" id="elgdmu37wewn6" class="animable"></path><path d="M225.89,47.86c-3.65-4.33-6.5-6-9.24-8.25-3.57-4.84-10.8-7.6-16.76-8-22.74-1.42-30.1,9.79-31.35,14-10.77,1.5-18.06,19.65-9.12,36.52a2.82,2.82,0,0,0,.7,1.36c3.27,2.44,13.5,5,13.5,5s12.51,4.67,28.15-1.45,24.49-9.93,26.87-13.1C233.26,64.6,230.7,55.12,225.89,47.86Z" style="fill: rgb(38, 50, 56); transform-origin: 193.237px 60.8405px 0px;" id="elcyaree0lkz" class="animable"></path><path d="M179.21,36.8c-1.91-5.57-7.46-6.94-12.57-6.88-6.1.07-9.32,3.73-11.4,9-5.4-.78-11.33.22-15.34,4.3-2.84,2.89-3.78,6.56-3.49,10.55.26,3.6,2.13,5.53,4.36,8-4,1.5-6.11,6.19-4.85,10.49.74,2.51,10.21,11.83,2.6,12.58,3.47,2.4,9.34.36,8.94-4.38a10.55,10.55,0,0,0,10.25,10.92c8.5.37,15.4-4.31,17.42-12.54" style="fill: rgb(38, 50, 56); transform-origin: 157.383px 60.6593px 0px;" id="elxh3q9zi0et" class="animable"></path><path d="M230,85.53c0,.35,0,.69,0,1-.63,13.62-3.18,20-6.54,23.43a15,15,0,0,1-5.6,3.51c-3.31,1.3-7.06,2.22-13.92,1.24l-.07,0c.07,0,.27,12.43.27,12.43l-29.56-1.7-.26-26.35s-3.7,6.61-11.73.15c-4.78-3.84-6.53-14.06-2.5-18.51s9.64-3.45,13.39,2.62c.9,1.46,2.5,2.63,4.16,1.37,1.05-.79,1.35-2.21,1.55-3.51.73-4.61,1.21-9.28,2.57-13.75s3.69-8.78,7.42-11.58A21.74,21.74,0,0,1,201.36,52a14.44,14.44,0,0,1,4,.28,7.24,7.24,0,0,1,1.9.7c.47.27.78.76,1.27,1,.21-.19.38-.41.58-.62s.46-.46.69-.67.33-.29.5-.42.29-.22.43-.32a7.61,7.61,0,0,1,.95-.61l.44-.23a.08.08,0,0,1,.07,0,4.39,4.39,0,0,1,.44-.21,3.89,3.89,0,0,1,.49-.2,3.66,3.66,0,0,1,.43-.15l.48-.14a5.6,5.6,0,0,1,.59-.12l.45-.07h.07a5.86,5.86,0,0,1,.94-.07h.27l.33,0h.16a6.48,6.48,0,0,1,.77.08c.16,0,.33,0,.49.09l.49.11a8.32,8.32,0,0,1,1,.32c.31.12.62.25.92.4.15.08.32.16.47.25l.47.28a7.59,7.59,0,0,1,.9.62,4.41,4.41,0,0,1,.43.35.36.36,0,0,1,.14.11l.47.41a6.86,6.86,0,0,1,.65.67,3.79,3.79,0,0,1,.38.42,8.18,8.18,0,0,1,.53.64c.14.17.26.34.4.53s.4.59.6.9l.28.49c.14.24.27.47.39.72s.32.62.46.94c0,.08.07.16.11.23.14.32.26.64.39,1s.19.52.28.79.17.5.25.76l.24.9c.08.28.16.57.22.87a60.93,60.93,0,0,1,1.06,7.48c.06.77.13,1.53.18,2.3s.09,1.39.12,2.08a1.93,1.93,0,0,1,0,.24C230.12,78.56,230.16,82.15,230,85.53Z" style="fill: rgb(255, 168, 167); transform-origin: 193.974px 88.6449px 0px;" id="ellgup9atzvd" class="animable"></path><path d="M172.24,96.4A3.27,3.27,0,1,1,169,93.11,3.27,3.27,0,0,1,172.24,96.4Z" style="fill: rgb(102, 80, 233); transform-origin: 168.97px 96.3799px 0px;" id="elwk6231k8ga" class="animable"></path><path d="M182.16,80.3a10.37,10.37,0,0,1,.55,2.49c.32,1.65-.5,3.42-.52,5.08A6.36,6.36,0,0,0,184.53,93a22.47,22.47,0,0,1,2.64,2.2,11.67,11.67,0,0,1,2.25,5.54c.21,1,.41,2.06.57,3.1a10.78,10.78,0,0,0,1.9,4.78,14.2,14.2,0,0,0,3.52,3.44,14.4,14.4,0,0,0,4,1.89,30.65,30.65,0,0,0,4.47.74l.07,0c6.86,1,10.61.06,13.92-1.24a10.3,10.3,0,0,0,2.44-1.08,8,8,0,0,0,1.64-2.29,22.14,22.14,0,0,0,2-5.16c.76-2.81,1.15-5.69,1.83-8.52a6.19,6.19,0,0,1,.78-2.06,12.41,12.41,0,0,1,1.55-1.61C230,91,229.87,89,230,86.55c0-.33,0-.67,0-1s0-.41,0-.62c.14-4,0-8.11-.2-12.14s-.36-8.82-1.67-12.68a18.59,18.59,0,0,0-3.23-6,10.63,10.63,0,0,0-5-3.71,10.08,10.08,0,0,0-7.33.28A14.18,14.18,0,0,0,208.52,54,17.37,17.37,0,0,0,192,52.14a18.67,18.67,0,0,0-10.39,10.58A32.93,32.93,0,0,0,179.92,71,12.88,12.88,0,0,0,182.16,80.3Z" style="fill: rgb(245, 245, 245); transform-origin: 204.922px 82.4757px 0px;" id="el9ue50hhar1h" class="animable"></path><path d="M204.46,99.26c2-1.67,4.25-1.21,5.12.07,1.41-1.25,3.76-.9,4.91,1.47,0,0-1,3.29-5.26,2.83A5.19,5.19,0,0,1,204.46,99.26Z" style="fill: rgb(102, 80, 233); transform-origin: 209.475px 100.927px 0px;" id="elwj0jtzlojeg" class="animable"></path><g id="elxwvxg5wpt0j"><path d="M209.23,103.63c4.31.46,5.26-2.83,5.26-2.83-3.17.54-7.18.31-10-1.54A5.19,5.19,0,0,0,209.23,103.63Z" style="opacity: 0.2; transform-origin: 209.49px 101.467px 0px;" class="animable"></path></g><path d="M216.64,100.49c-1.22,0-2.44.09-3.66.1a23.29,23.29,0,0,1-6.43-.86c-1.32-.35-2.55-1-3.86-1.38-.14,0-.38,0-.37.12s.06.11.11.16a11.93,11.93,0,0,0,3.71,1.75,20.21,20.21,0,0,0,5,1,22.2,22.2,0,0,0,5.51-.46C216.78,100.9,216.82,100.49,216.64,100.49Z" style="fill: rgb(38, 50, 56); transform-origin: 209.541px 99.8746px 0px;" id="elevx7lv5ztf8" class="animable"></path><path d="M214.38,99a3.79,3.79,0,0,1-.3-1,2,2,0,0,1,0-.35.82.82,0,0,0,0-.22c0-.09,0-.08-.08-.11s-.28.8-.28.85a2.89,2.89,0,0,0,.11.93,5.6,5.6,0,0,1,.19.81,8,8,0,0,1,0,.85c0,.22.26.52.47.3a1.42,1.42,0,0,0,.16-1.07A5.49,5.49,0,0,0,214.38,99Z" style="fill: rgb(38, 50, 56); transform-origin: 214.204px 99.228px 0px;" id="el99ctbo3kaqm" class="animable"></path><path d="M211.32,98.18a2.74,2.74,0,0,1,.13-.94s0,0,0,0a2.45,2.45,0,0,0-.32,1.91,3.23,3.23,0,0,1,0,.88.87.87,0,0,1-.06.23.57.57,0,0,1-.08.13.7.7,0,0,0-.09.32c0,.17.08.49.31.47s.44-.51.49-.75a2.44,2.44,0,0,0,0-1A7.37,7.37,0,0,1,211.32,98.18Z" style="fill: rgb(38, 50, 56); transform-origin: 211.326px 99.2105px 0px;" id="el5zscflnijlk" class="animable"></path><path d="M208.37,96.75s0,0,0,0a2.9,2.9,0,0,1-.7,1.36,4,4,0,0,0-.45.65,2.33,2.33,0,0,0-.22.85,1.41,1.41,0,0,0,0,.46c0,.12.11.35.25.37.31,0,.24-.53.28-.71a3.12,3.12,0,0,1,.26-.66c.11-.23.24-.45.36-.68a3.21,3.21,0,0,0,.34-.89C208.52,97.3,208.56,96.93,208.37,96.75Z" style="fill: rgb(38, 50, 56); transform-origin: 207.748px 98.595px 0px;" id="elm59ef8hp8y" class="animable"></path><path d="M205.76,95.61s0,0,0,0a1.6,1.6,0,0,1-.38,1,9.32,9.32,0,0,0-.77.77,2.37,2.37,0,0,0-.46.89,1.2,1.2,0,0,0,.16,1.06c.12.11.22-.07.23-.18a1.9,1.9,0,0,1,.09-.53,1.55,1.55,0,0,1,.19-.36,2.85,2.85,0,0,1,.31-.38,5,5,0,0,0,.38-.52,2.84,2.84,0,0,0,.42-1C205.93,96.12,206,95.78,205.76,95.61Z" style="fill: rgb(38, 50, 56); transform-origin: 205.016px 97.4872px 0px;" id="elp57jrdrbqq9" class="animable"></path><path d="M215,101.42a1.23,1.23,0,0,0-.65-.79c-.29-.1-.27.4-.19.54a2,2,0,0,1,.47,1.48c-.09.4-.27.77-.36,1.17a1,1,0,0,0,0,.78c0,.06.08,0,.08-.06a2.79,2.79,0,0,1,.29-1.05,4.4,4.4,0,0,0,.37-.93A2.11,2.11,0,0,0,215,101.42Z" style="fill: rgb(38, 50, 56); transform-origin: 214.596px 102.621px 0px;" id="elveb4xg145qm" class="animable"></path><path d="M211.83,101.38a1.36,1.36,0,0,0-.54-.73c-.14-.09-.27,0-.32.16a.48.48,0,0,0,.13.5.88.88,0,0,1,.27.58,1.5,1.5,0,0,1-.14.88c-.12.31-.26.61-.36.93a.93.93,0,0,0,0,.86c.07.1.13-.08.13-.13a1.52,1.52,0,0,1,.1-.55c.06-.16.13-.31.2-.46a10.38,10.38,0,0,0,.43-1A1.61,1.61,0,0,0,211.83,101.38Z" style="fill: rgb(38, 50, 56); transform-origin: 211.319px 102.602px 0px;" id="el4m2toiyhewa" class="animable"></path><path d="M207.21,99.92a1,1,0,0,0-.56,0,1.27,1.27,0,0,0-.43.33,1.6,1.6,0,0,0-.37,1.24c0,.44.08.88.09,1.32a1.58,1.58,0,0,1-.05.43.76.76,0,0,1-.09.18l-.16.25s0,.14,0,.17.22,0,.32-.09a1.09,1.09,0,0,0,.21-.38,3.64,3.64,0,0,0,.11-1.09,1.75,1.75,0,0,1,.08-.51c.07-.18.16-.35.23-.53a1.22,1.22,0,0,1,.7-.58c.14,0,.16-.3.15-.42S207.36,99.94,207.21,99.92Z" style="fill: rgb(38, 50, 56); transform-origin: 206.541px 101.866px 0px;" id="elvzdziqf78pj" class="animable"></path><path d="M204.54,99.11a.72.72,0,0,0-.52,0,2.11,2.11,0,0,0-.44.24,1.75,1.75,0,0,0-.53,1,5.14,5.14,0,0,0,0,1.24,1.75,1.75,0,0,1-.21,1.06s0,.24.06.17a1.26,1.26,0,0,0,.46-.83,8.26,8.26,0,0,1,.17-1.11,1.45,1.45,0,0,1,.46-.58,1.48,1.48,0,0,1,.3-.23l.14-.07a1.14,1.14,0,0,0,.23-.15C204.84,99.71,204.84,99.19,204.54,99.11Z" style="fill: rgb(38, 50, 56); transform-origin: 203.811px 100.947px 0px;" id="eldgu9d0uos6" class="animable"></path><path d="M211.17,77.87a.14.14,0,0,0,0-.06c.05-.14.19-.29.3-.21a.21.21,0,0,1,.07.13c.39,1.17.75,2.34,1.09,3.53a23.26,23.26,0,0,0,2.48,6,2.27,2.27,0,0,1-.11,2.86,4,4,0,0,1-.87.66l-.9.58a4.93,4.93,0,0,1-1,.52,2.65,2.65,0,0,1-2-.34l-2.1-1.11a2.14,2.14,0,0,1-1.06-.9,1.77,1.77,0,0,1-.06-1,5.25,5.25,0,0,1,1-2.15,7.54,7.54,0,0,0,.84-2.5c.09-.43.16-.86.21-1.3s0-.84.19-1.11a.27.27,0,0,1,.35-.08.42.42,0,0,1,.11.17l.6,1.35a.4.4,0,0,0,.13.18c.17.09.34-.13.39-.31a5.57,5.57,0,0,0,.17-1.53l0-2.11A5.13,5.13,0,0,1,211.17,77.87Z" style="fill: rgb(69, 90, 100); transform-origin: 211.264px 84.7621px 0px;" id="elz31tj442u6" class="animable"></path><path d="M202.19,69.35c1.22-.43,1.56-2,1-4s2.33,1.61,3.42,5.51,0,10.33-8.14,12.41c-6.53,1.66-14.18-4.35-10.46-12.65,3.39-4.6,7.05-3.23,9.26-2.48S200.51,69.94,202.19,69.35Z" style="fill: rgb(224, 224, 224); transform-origin: 196.999px 74.1636px 0px;" id="elvwqqgsobvna" class="animable"></path><path d="M215.33,68.39C214.1,68,213.57,67,214.25,65s-2.06,1.12-2.45,5.16.81,10.18,7.69,12c8.76,2.27,10.91-5.21,8.79-12.14a7,7,0,0,0-7-2.51C218.92,67.82,216.45,68.74,215.33,68.39Z" style="fill: rgb(224, 224, 224); transform-origin: 220.386px 73.4763px 0px;" id="elfns3qtwkyg" class="animable"></path><path d="M228.35,70.23a5.26,5.26,0,0,0-2.82-2.84,8.46,8.46,0,0,0-4.49-.77c-1.5.12-2.94.63-4.43.77a3.56,3.56,0,0,1-2.19-.24c-.52-.4-.15-2,0-2.6,0-.13-.12-.08-.15,0-.53,1.22-1.45,3,.12,3.92,1.36.76,3.35.37,4.8.14a17.53,17.53,0,0,1,5.11-.24,6.09,6.09,0,0,1,2,.64,10.29,10.29,0,0,1,1.85,1.5C228.26,70.62,228.39,70.33,228.35,70.23Z" style="fill: rgb(38, 50, 56); transform-origin: 220.937px 67.5024px 0px;" id="el3n48z7xsm9x" class="animable"></path><path d="M188,70.63a5.64,5.64,0,0,1,3.12-2.85,8.94,8.94,0,0,1,4.77-.58c1.58.2,3.06.81,4.63,1a3.9,3.9,0,0,0,2.32-.15c.56-.39.26-2.1.18-2.73,0-.14.13-.08.16,0,.49,1.31,1.38,3.28-.33,4.13-1.47.73-3.54.21-5.06-.1a18.28,18.28,0,0,0-5.36-.51,6.55,6.55,0,0,0-2.18.56,11,11,0,0,0-2,1.5C188.09,71.05,188,70.74,188,70.63Z" style="fill: rgb(38, 50, 56); transform-origin: 195.926px 68.0881px 0px;" id="elx6l1acnp6p" class="animable"></path><path d="M216.34,73.06c-1.42.87-2.38,3.54-.56,6.44s5.63,3.28,7.9,2.82c4-.8,6.1-7.46,3.26-9.44S218.52,71.73,216.34,73.06Z" style="fill: rgb(69, 90, 100); transform-origin: 221.515px 77.0923px 0px;" id="elz38k6t5u1fj" class="animable"></path><path d="M233.7,73.26A7,7,0,0,1,232,76.07a7.37,7.37,0,0,1-2.82,1.75,7.18,7.18,0,0,1-6.44-.67l0-.07a18.42,18.42,0,0,0,3.15.42,10.62,10.62,0,0,0,3.08-.25,6.87,6.87,0,0,0,4.59-4Z" id="el7cz8rh0t92f" style="transform-origin: 228.22px 75.7704px 0px;" class="animable"></path><path d="M230.72,71.83a6.42,6.42,0,0,1-2.82,4.06,5.35,5.35,0,0,1-2.38,1,5,5,0,0,1-2.53-.33v-.07a16,16,0,0,0,2.38-.34,8.59,8.59,0,0,0,2.2-.77,7,7,0,0,0,1.85-1.49,5.33,5.33,0,0,0,1.22-2.08Z" id="elohuqaoju9h" style="transform-origin: 226.855px 74.3705px 0px;" class="animable"></path><path d="M227.88,71.87a7.33,7.33,0,0,1-1.91,3,4.1,4.1,0,0,1-1.58,1,3.53,3.53,0,0,1-1.85.07v-.08c.57-.25,1.09-.45,1.59-.69a10.77,10.77,0,0,0,1.47-.76,8.2,8.2,0,0,0,2.22-2.62Z" id="elodco5v1nly" style="transform-origin: 225.21px 73.9105px 0px;" class="animable"></path><path d="M224.65,71a5.21,5.21,0,0,1-.62,3,3.6,3.6,0,0,1-1,1.27,2.36,2.36,0,0,1-1.52.52l0-.07a10.21,10.21,0,0,0,1-1c.3-.34.66-.64,1-1a5.53,5.53,0,0,0,1-2.68Z" id="elahxhqhrmlsr" style="transform-origin: 223.092px 73.3952px 0px;" class="animable"></path><path d="M220.79,71.43a2.47,2.47,0,0,1,.83,1.2,6.67,6.67,0,0,1,.33,1.42,3.14,3.14,0,0,1-.06,1.49,1.72,1.72,0,0,1-1.08,1.13l-.07-.07a8.57,8.57,0,0,0,.18-1.3c0-.4.19-.8.23-1.24a6.37,6.37,0,0,0,0-1.31,2.32,2.32,0,0,0-.41-1.24Z" id="el60qnp04eiyn" style="transform-origin: 221.376px 74.05px 0px;" class="animable"></path><path d="M219.55,77.47c-.46-1.09.32-1.46,1.4-1.92s2.07-.83,2.53.25a2.14,2.14,0,0,1-3.93,1.67Z" style="fill: rgb(250, 250, 250); transform-origin: 221.507px 76.8691px 0px;" id="ele9jiqqxv5h" class="animable"></path><path d="M201.91,73.92c1.45.83,2.5,3.46.77,6.42s-5.52,3.46-7.8,3.08c-4-.67-6.34-7.26-3.56-9.33S199.69,72.66,201.91,73.92Z" style="fill: rgb(69, 90, 100); transform-origin: 196.843px 78.1403px 0px;" id="eln0ufydpiyia" class="animable"></path><path d="M185.38,75.21A6.91,6.91,0,0,0,190.15,79a10.68,10.68,0,0,0,3.09.12,19.52,19.52,0,0,0,3.12-.56l0,.07a7.5,7.5,0,0,1-3.07,1.23A7.82,7.82,0,0,1,187.1,78a7.05,7.05,0,0,1-1.79-2.73Z" id="el5rpq5ijlh62" style="transform-origin: 190.835px 77.5701px 0px;" class="animable"></path><path d="M188.31,73.66a5.21,5.21,0,0,0,1.3,2,6.9,6.9,0,0,0,1.91,1.41,8.49,8.49,0,0,0,2.24.67,17.9,17.9,0,0,0,2.39.24l0,.07a5.14,5.14,0,0,1-2.52.44,5.43,5.43,0,0,1-2.42-.89,6.43,6.43,0,0,1-3-3.94Z" id="eljsuifi4vo6a" style="transform-origin: 192.18px 76.0829px 0px;" class="animable"></path><path d="M191.14,73.57a8.17,8.17,0,0,0,2.34,2.51,10.62,10.62,0,0,0,1.49.7c.51.22,1,.39,1.62.62v.07a3.42,3.42,0,0,1-1.85,0,4,4,0,0,1-1.62-.93,7.33,7.33,0,0,1-2.05-3Z" id="elswnwwfriak" style="transform-origin: 193.83px 75.5687px 0px;" class="animable"></path><path d="M194,72.43a5.58,5.58,0,0,0,1.17,2.63c.31.37.68.66,1,1a11.82,11.82,0,0,0,1.09,1l0,.07a2.34,2.34,0,0,1-1.55-.45,3.53,3.53,0,0,1-1-1.23,5.08,5.08,0,0,1-.75-3Z" id="elgwj76l1tsxv" style="transform-origin: 195.605px 74.7828px 0px;" class="animable"></path><path d="M197.89,72.76a1.92,1.92,0,0,0-.28,1.26,4.77,4.77,0,0,0,.21,1.3c.13.42.39.76.51,1.15s.29.77.48,1.27l-.06.08a2,2,0,0,1-1.3-.88,3,3,0,0,1-.41-1.47,5,5,0,0,1,.07-1.5,2.1,2.1,0,0,1,.72-1.28Z" id="el03ancf3txcdg" style="transform-origin: 197.911px 75.255px 0px;" class="animable"></path><path d="M200.06,78c.19-1.16-.73-1.07-1.89-1.26s-2.13-.58-2.32.58a2.13,2.13,0,1,0,4.21.68Z" style="fill: rgb(250, 250, 250); transform-origin: 197.954px 78.1569px 0px;" id="el67kl5orqls" class="animable"></path><path d="M203.93,114.74c-7.85-1.46-23.07-8.29-25.53-13.81a14.31,14.31,0,0,0,6.73,10.26c6.62,4.2,18.86,8.14,18.86,8.14Z" style="fill: rgb(177, 102, 104); transform-origin: 191.195px 110.13px 0px;" id="ela7c5v49wlud" class="animable"></path><path d="M195.48,97.18a4.33,4.33,0,0,0-1.65-2,10.9,10.9,0,0,0-3.71-1.32,16.72,16.72,0,0,1-4.72-1.41,5.25,5.25,0,0,1-2.6-4.33c-.22-2.53.83-5.6-.61-7.88,0,0,0,0,0,0a9,9,0,0,1,0,5,11.61,11.61,0,0,0-.42,3.66,6.83,6.83,0,0,0,3.94,5.42c2.19,1.06,4.5.58,6.75,1.25a4.39,4.39,0,0,1,2.48,1.7,8.11,8.11,0,0,0,.75,1.15A3,3,0,0,0,195.48,97.18Z" style="fill: rgb(69, 90, 100); transform-origin: 188.726px 89.33px 0px;" id="elw4nmjdkz28n" class="animable"></path><path d="M230.11,81.45c-.31,3-.59,9.33-3.05,11.5-.95.84-2.26,1.07-3.22,1.87a4.52,4.52,0,0,0-1.39,2c-.08.22-.35,1-.22,1.19s.52-.72.59-.87A5.25,5.25,0,0,1,226,94.69c1-.38,2.26-.82,2.81-1.79A11.41,11.41,0,0,0,230,89.31C230.29,87.69,230.64,83,230.11,81.45Z" style="fill: rgb(69, 90, 100); transform-origin: 226.29px 89.743px 0px;" id="el2z0cg34puqu" class="animable"></path><path d="M208.52,54c-4-2.35-10.15-2.5-13.71,2.59-2.46,3.52-1.76,26.72-25.26,20.86,6.63-.27,14.93-3,16.74-11.39,1.63-7.55,1.55-13.29,6.27-16.8S208,47.8,208.52,54Z" style="fill: rgb(38, 50, 56); transform-origin: 189.035px 62.9724px 0px;" id="el9qv0ebds4mc" class="animable"></path><path d="M166.7,75l-1.62.53a10.34,10.34,0,0,1-1.4,3.64c-1.08,1.62-5.08,3.08-6.34,1.73s-2.8-3-2.8-3-1.21,1.41-2.06,1.11-2.94-4.73-2.82-5.93a2.15,2.15,0,0,1,.39-1.23s-.23-.15.23-1.16.16-2.93,0-4.23,1.35-2.82,3-3,3.49-.82,3.81-1.57,3-2.58,4.16-1.9,2.57,1.6,2.3,2.68a8.34,8.34,0,0,0,.27,3.09,2.43,2.43,0,0,1,2.92-.22c1.4,1.07,3.11,4.48,2.13,6.1S166.7,75,166.7,75Z" style="fill: rgb(102, 80, 233); transform-origin: 159.407px 70.6363px 0px;" id="el1q15c0zpfq1" class="animable"></path><g id="el0fpvume3b5n6"><path d="M166.7,75l-1.62.53a10.34,10.34,0,0,1-1.4,3.64c-1.08,1.62-5.08,3.08-6.34,1.73s-2.8-3-2.8-3-1.21,1.41-2.06,1.11-2.94-4.73-2.82-5.93a2.15,2.15,0,0,1,.39-1.23s-.23-.15.23-1.16.16-2.93,0-4.23,1.35-2.82,3-3,3.49-.82,3.81-1.57,3-2.58,4.16-1.9,2.57,1.6,2.3,2.68a8.34,8.34,0,0,0,.27,3.09,2.43,2.43,0,0,1,2.92-.22c1.4,1.07,3.11,4.48,2.13,6.1S166.7,75,166.7,75Z" style="opacity: 0.2; transform-origin: 159.407px 70.6363px 0px;" class="animable"></path></g><path d="M165.57,74.44a2.8,2.8,0,0,1-.32,3.24c-1.37,1.55-8,1.27-9-3.54a4.9,4.9,0,0,0,5.18,1.29C164.53,74.33,165.57,74.44,165.57,74.44Z" style="fill: rgb(102, 80, 233); transform-origin: 161.096px 76.3301px 0px;" id="elnsfytfko8is" class="animable"></path><g id="elza2s367t5f"><path d="M165.57,74.44a2.8,2.8,0,0,1-.32,3.24c-1.37,1.55-8,1.27-9-3.54a4.9,4.9,0,0,0,5.18,1.29C164.53,74.33,165.57,74.44,165.57,74.44Z" style="opacity: 0.3; transform-origin: 161.096px 76.3301px 0px;" class="animable"></path></g><path d="M163.2,64.79a4.07,4.07,0,0,1,2.06-.59c1.05,0,2.74,5,2.74,5s-.49-1.68-.85-.46.28,3.58-1.58,5.73l-2-5.91S161.88,65.84,163.2,64.79Z" style="fill: rgb(102, 80, 233); transform-origin: 165.348px 69.335px 0px;" id="elq0x40twe7ed" class="animable"></path><g id="elue7jzzuth4f"><path d="M163.2,64.79a4.07,4.07,0,0,1,2.06-.59c1.05,0,2.74,5,2.74,5s-.49-1.68-.85-.46.28,3.58-1.58,5.73l-2-5.91S161.88,65.84,163.2,64.79Z" style="opacity: 0.3; transform-origin: 165.348px 69.335px 0px;" class="animable"></path></g><path d="M163.55,64.76s.12.12.28-1a3,3,0,0,0-1.13-2.55c-.42-.25-1.36,1.1-2.57,1.14s-3.92.13-4-1.1a2.18,2.18,0,0,0,.93,2.84C158.81,65,162.65,64.15,163.55,64.76Z" style="fill: rgb(102, 80, 233); transform-origin: 159.88px 62.9714px 0px;" id="elmatn9elrwqb" class="animable"></path><g id="el7udbu9qg3v5"><path d="M163.55,64.76s.12.12.28-1a3,3,0,0,0-1.13-2.55c-.42-.25-1.36,1.1-2.57,1.14s-3.92.13-4-1.1a2.18,2.18,0,0,0,.93,2.84C158.81,65,162.65,64.15,163.55,64.76Z" style="opacity: 0.3; transform-origin: 159.88px 62.9714px 0px;" class="animable"></path></g><path d="M156.44,63.63s1.15-.54-.11,1.51-1.75,2.78-1.75,2.78-1.14-.45-1.5.37a6,6,0,0,1-2.84,2.55,3.6,3.6,0,0,0,.57-2.52c-.2-1.52-.07-2.4,2-2.73A5.73,5.73,0,0,0,156.44,63.63Z" style="fill: rgb(102, 80, 233); transform-origin: 153.58px 67.2029px 0px;" id="elu8l3yd9pqvh" class="animable"></path><g id="eld1utom1nxq"><path d="M156.44,63.63s1.15-.54-.11,1.51-1.75,2.78-1.75,2.78-1.14-.45-1.5.37a6,6,0,0,1-2.84,2.55,3.6,3.6,0,0,0,.57-2.52c-.2-1.52-.07-2.4,2-2.73A5.73,5.73,0,0,0,156.44,63.63Z" style="opacity: 0.3; transform-origin: 153.58px 67.2029px 0px;" class="animable"></path></g><path d="M150.05,71.84s-.86-.92,2-2.2c1-.45,2.9,7,2.9,7S149.09,76.54,150.05,71.84Z" style="fill: rgb(102, 80, 233); transform-origin: 152.439px 73.1302px 0px;" id="elgnigvyb5yx7" class="animable"></path><g id="elk75m6tipv5"><path d="M150.05,71.84s-.86-.92,2-2.2c1-.45,2.9,7,2.9,7S149.09,76.54,150.05,71.84Z" style="opacity: 0.3; transform-origin: 152.439px 73.1302px 0px;" class="animable"></path></g><path d="M155.11,76.67a3,3,0,0,0-.46,2.47c.27,1.69,4.94,3.5,6.32,1-3.78-1.68-4.26-4.65-4.26-4.65Z" style="fill: rgb(102, 80, 233); transform-origin: 157.764px 78.4306px 0px;" id="elevks14gan9r" class="animable"></path><g id="elstu14z1i0oj"><path d="M155.11,76.67a3,3,0,0,0-.46,2.47c.27,1.69,4.94,3.5,6.32,1-3.78-1.68-4.26-4.65-4.26-4.65Z" style="opacity: 0.3; transform-origin: 157.764px 78.4306px 0px;" class="animable"></path></g><path d="M162,73.19s-.92,1.32-2.65.21l-1.76-.94s0-2.08.73-2.87.79-.06.79-.06a1.27,1.27,0,0,0,.43,2C161,72.25,162.86,71.54,162,73.19Z" style="fill: rgb(102, 80, 233); transform-origin: 159.904px 71.5334px 0px;" id="el0yk4r4zsqy28" class="animable"></path><path d="M154.4,69.55a4.72,4.72,0,0,0,.71,3.32,4.39,4.39,0,0,0,3,2.15,3.58,3.58,0,0,1-.87-2.53c0-1.74.31-4.74.31-4.74S155.49,66.42,154.4,69.55Z" style="fill: rgb(102, 80, 233); transform-origin: 156.226px 71.2447px 0px;" id="elmyfv885jjk" class="animable"></path><path d="M156.68,67.57a2.89,2.89,0,0,1,2.85-1.2c1.72.44,2.91,2.22,4,2.16,0,0,.23,1.55-.81,1.47s-3.63-.53-4.18.84C158.58,70.84,156,69.71,156.68,67.57Z" style="fill: rgb(102, 80, 233); transform-origin: 160.059px 68.5851px 0px;" id="ely4kl57855y" class="animable"></path><path d="M164.19,71.93a15.93,15.93,0,0,1-.75,1.56,3.82,3.82,0,0,1-3,1.46c-1,.07-2,.12-3,.27-.75.12-.48.21-.77.7s-.52.34-.85,0a6.65,6.65,0,0,1-.8-1.14,18.56,18.56,0,0,1-1.75-2.2c-.74-1.43-1.11-4.18.91-4.75.6-.17.89-.13,1.23-.68a4.81,4.81,0,0,1,2.58-2.32,5,5,0,0,1,4.29.32,5.54,5.54,0,0,1,1.59,1.46,5.86,5.86,0,0,1,.75,2.51A4.45,4.45,0,0,1,164.19,71.93Z" style="fill: rgb(102, 80, 233); transform-origin: 158.683px 70.3625px 0px;" id="elb1foohozsse" class="animable"></path><g id="elxvscjdrjl97"><path d="M164.19,71.93a15.93,15.93,0,0,1-.75,1.56,3.82,3.82,0,0,1-3,1.46c-1,.07-2,.12-3,.27-.75.12-.48.21-.77.7s-.52.34-.85,0a6.65,6.65,0,0,1-.8-1.14,18.56,18.56,0,0,1-1.75-2.2c-.74-1.43-1.11-4.18.91-4.75.6-.17.89-.13,1.23-.68a4.81,4.81,0,0,1,2.58-2.32,5,5,0,0,1,4.29.32,5.54,5.54,0,0,1,1.59,1.46,5.86,5.86,0,0,1,.75,2.51A4.45,4.45,0,0,1,164.19,71.93Z" style="opacity: 0.5; transform-origin: 158.683px 70.3625px 0px;" class="animable"></path></g><path d="M163.57,68.53c.29.4,1,3.64-1.4,5.16s-5.92.45-5.92.45S157.87,77,160.62,77s5.16-1.88,5.28-3.62S165.38,68.82,163.57,68.53Z" style="fill: rgb(102, 80, 233); transform-origin: 161.082px 72.765px 0px;" id="elbwj5388ebkn" class="animable"></path><path d="M159.35,73.4a1.84,1.84,0,0,1-.89-2.66c.87-2,2.57-3.09,1.13-3.55s-3.18-.26-3.75,1.54A3.61,3.61,0,0,0,159.35,73.4Z" style="fill: rgb(102, 80, 233); transform-origin: 157.914px 70.1899px 0px;" id="ela3ia7w6l2cb" class="animable"></path><path d="M162,73.19a3.19,3.19,0,0,0,.71-3.31c-.82-1.73-2.62-1.41-3.56.28a1.86,1.86,0,0,1,2.26.81A3.28,3.28,0,0,1,162,73.19Z" style="fill: rgb(102, 80, 233); transform-origin: 161.026px 70.9589px 0px;" id="elns8bz62j0w" class="animable"></path><path d="M164,65.61c.54,1.52-.36,2-2.05,1.08s-3.21-1.53-4.5-.58a19.12,19.12,0,0,0-3,3.44,9.2,9.2,0,0,0,.13-2.65c-.15-1.29,1.88-3.61,4.3-3.91S163.24,63.56,164,65.61Z" style="fill: rgb(102, 80, 233); transform-origin: 159.303px 66.2412px 0px;" id="el6171cmkw9tc" class="animable"></path><path d="M154.63,67.73s-1.2,1.13-.7,3.82,2.69,3.36,2.5,4.91-1.67,1.55-3.34-.26-1.82-3.72-1.42-6S153.91,67.3,154.63,67.73Z" style="fill: rgb(102, 80, 233); transform-origin: 153.963px 72.5973px 0px;" id="eli701f71a13h" class="animable"></path><path d="M163.68,64.55a4,4,0,0,1,4.58.82c1.61,1.71,2.33,1.45,1.84,3.95s0,3.31-3.4,5.67a11.9,11.9,0,0,1,.79-1.48c.79-1.42-.1-3.55-.19-5.6C167.18,65.25,163.68,64.55,163.68,64.55Z" style="fill: rgb(102, 80, 233); transform-origin: 166.966px 69.5764px 0px;" id="elyvdm7veogud" class="animable"></path><path d="M165.9,76.64c0-.88-.27.52-1.66,1.65s-3.72,2.31-5.74,1.79a6.55,6.55,0,0,1-3.79-2.58,3.27,3.27,0,0,0,.22,2.71c.83,1.9,3.83,3.33,6.66,2.38A6,6,0,0,0,165.9,76.64Z" style="fill: rgb(102, 80, 233); transform-origin: 160.209px 79.6274px 0px;" id="elngif2qqt2y" class="animable"></path><path d="M150.05,71.84a5.16,5.16,0,0,0,.83,4.18c1.46,2,4,.65,3.79,1.63s-.95,1.8-2.69,1.19a4,4,0,0,1-3-3.74C149.07,73.39,148.9,72.29,150.05,71.84Z" style="fill: rgb(102, 80, 233); transform-origin: 151.831px 75.4448px 0px;" id="eljabluqqbuc" class="animable"></path><path d="M156.52,63.16c0,1.24-.83,1-2.51,1.34s-2.27.78-2.62,2.89a10.87,10.87,0,0,1-1.15,3.45,3.62,3.62,0,0,0-.19-2.4c-.55-1.32-1.22-4.79,2.11-5.84S156.53,62.6,156.52,63.16Z" style="fill: rgb(102, 80, 233); transform-origin: 153.058px 66.4959px 0px;" id="elqcqxv73rpwd" class="animable"></path><path d="M163.83,63.74a3.38,3.38,0,0,0-1.74-4.06c-2.67-1.5-6.07.83-6,1.82s1.8,1.34,2.49.72,2.05-2.09,3.66-1.13A3.33,3.33,0,0,1,163.83,63.74Z" style="fill: rgb(102, 80, 233); transform-origin: 160.039px 61.4649px 0px;" id="elzd2tr55gqc" class="animable"></path><path d="M236.11,91.61a.31.31,0,0,1-.13,0,.25.25,0,0,1-.08-.35l3.27-5.4a.26.26,0,0,1,.35-.09.26.26,0,0,1,.08.34l-3.28,5.41A.24.24,0,0,1,236.11,91.61Z" style="fill: rgb(38, 50, 56); transform-origin: 237.746px 88.6765px 0px;" id="elyxe3r9hf41b" class="animable"></path><path d="M237.11,92.22a.28.28,0,0,1-.13,0,.25.25,0,0,1-.09-.34l3.28-5.41a.25.25,0,0,1,.34-.09.26.26,0,0,1,.09.35l-3.28,5.41A.27.27,0,0,1,237.11,92.22Z" style="fill: rgb(38, 50, 56); transform-origin: 238.745px 89.2872px 0px;" id="elr4bvh7cc29d" class="animable"></path><path d="M238.1,92.82a.24.24,0,0,1-.13,0,.25.25,0,0,1-.08-.34L241.17,87a.25.25,0,1,1,.42.26l-3.27,5.41A.25.25,0,0,1,238.1,92.82Z" style="fill: rgb(38, 50, 56); transform-origin: 239.752px 89.838px 0px;" id="elc7b4kchm5od" class="animable"></path><path d="M239.1,93.42a.31.31,0,0,1-.13,0,.26.26,0,0,1-.08-.35l3.27-5.4a.26.26,0,0,1,.35-.09.27.27,0,0,1,.08.35l-3.28,5.4A.22.22,0,0,1,239.1,93.42Z" style="fill: rgb(38, 50, 56); transform-origin: 240.738px 90.4865px 0px;" id="el6nlovg3nynn" class="animable"></path><path d="M240.1,94a.2.2,0,0,1-.13,0,.25.25,0,0,1-.09-.34l3.28-5.41a.25.25,0,0,1,.43.26l-3.28,5.41A.26.26,0,0,1,240.1,94Z" style="fill: rgb(38, 50, 56); transform-origin: 241.737px 91.0698px 0px;" id="elwoogokcks2p" class="animable"></path><path d="M241.09,94.63a.27.27,0,0,1-.12,0,.26.26,0,0,1-.09-.35l3.28-5.4a.25.25,0,0,1,.34-.09.24.24,0,0,1,.08.34l-3.27,5.41A.25.25,0,0,1,241.09,94.63Z" style="fill: rgb(38, 50, 56); transform-origin: 242.733px 91.6968px 0px;" id="elx9q281iz00a" class="animable"></path><path d="M242.09,95.24a.33.33,0,0,1-.13,0,.25.25,0,0,1-.08-.34l3.27-5.41a.26.26,0,0,1,.35-.09.26.26,0,0,1,.08.35l-3.27,5.41A.27.27,0,0,1,242.09,95.24Z" style="fill: rgb(38, 50, 56); transform-origin: 243.73px 92.3062px 0px;" id="elit1se38k2wr" class="animable"></path><path d="M243.09,95.84a.2.2,0,0,1-.13,0,.24.24,0,0,1-.08-.34l3.27-5.41a.26.26,0,0,1,.34-.08.25.25,0,0,1,.09.34l-3.28,5.41A.24.24,0,0,1,243.09,95.84Z" style="fill: rgb(38, 50, 56); transform-origin: 244.727px 92.9142px 0px;" id="el7kz3sap61gl" class="animable"></path><path d="M244.22,96.48a.2.2,0,0,1-.13,0,.25.25,0,0,1-.09-.34l3.28-5.41a.26.26,0,0,1,.34-.08.25.25,0,0,1,.09.34l-3.28,5.41A.25.25,0,0,1,244.22,96.48Z" style="fill: rgb(38, 50, 56); transform-origin: 245.855px 93.5542px 0px;" id="eljh13us9e6lq" class="animable"></path><path d="M245.21,97.09a.28.28,0,0,1-.12,0,.25.25,0,0,1-.09-.34l3.28-5.41a.25.25,0,1,1,.42.26L245.43,97A.26.26,0,0,1,245.21,97.09Z" style="fill: rgb(38, 50, 56); transform-origin: 246.864px 94.1418px 0px;" id="elm5b8tql3aq" class="animable"></path><path d="M246.21,97.69a.22.22,0,0,1-.13,0,.24.24,0,0,1-.08-.34l3.27-5.41a.26.26,0,0,1,.35-.08.25.25,0,0,1,.08.34l-3.27,5.41A.25.25,0,0,1,246.21,97.69Z" style="fill: rgb(38, 50, 56); transform-origin: 247.848px 94.7616px 0px;" id="elmyu5uqbgc8b" class="animable"></path><path d="M290.61,115.09c-.81-2.54-3.05-7.87-4.93-10.06s-4.14-2.84-9.34-1.74-7.58,2.54-9.67,4.58a14.65,14.65,0,0,0-3.12,5.39s-5.13.78-6.73,1.17-.34,4.68,4.13,5.95c0,0-3.4-.18-3.13,2s2.05,4.09,5.42,5.76,18.84,1.36,18.84,1.36Z" style="fill: rgb(242, 143, 143); transform-origin: 273.383px 116.144px 0px;" id="eleqqnkzzm6cp" class="animable"></path><path d="M289.55,117.08c-.85-2.72-7.11-7.17-7.11-7.17s2.32,4.92,1.34,8.13-4.35,5.73-6.55,9.67L266.75,155c5.33-8.66,24.81-20,25.18-23.27S290.4,119.79,289.55,117.08Z" style="fill: rgb(255, 168, 167); transform-origin: 279.364px 132.455px 0px;" id="el2dz2vwyl9dw" class="animable"></path><path d="M268.56,103a8,8,0,0,0-3.78,6.14,2.54,2.54,0,0,0,1,2.37L291.09,127a2.57,2.57,0,0,0,2.56-.18,8,8,0,0,0,3.78-6.15,2.53,2.53,0,0,0-1-2.36l-25.32-15.5A2.52,2.52,0,0,0,268.56,103Z" style="fill: rgb(55, 71, 79); transform-origin: 281.105px 114.905px 0px;" id="eltuscjsrzzbh" class="animable"></path><path d="M264.78,109.12a2.2,2.2,0,0,0,3.55,2.19,8,8,0,0,0,3.78-6.15,2.2,2.2,0,0,0-3.55-2.18A8,8,0,0,0,264.78,109.12Z" style="fill: rgb(69, 90, 100); transform-origin: 268.444px 107.146px 0px;" id="elt6qhtxijowf" class="animable"></path><path d="M236.82,87.15a1.37,1.37,0,0,0-.66,1.08.43.43,0,0,0,.17.41l31.51,19.19a.44.44,0,0,0,.44,0,1.4,1.4,0,0,0,.67-1.08.44.44,0,0,0-.18-.41l-31.5-19.19A.44.44,0,0,0,236.82,87.15Z" style="fill: rgb(55, 71, 79); transform-origin: 252.554px 97.4885px 0px;" id="elgb4ppemh03c" class="animable"></path><path d="M280.28,112.05c-.53-3.61,1.07-7.88-2.57-7.07s-5.28,6.57-7.51,11.69-8.29,5.85-12.63,10.63-4.66,5.92-6.3,12.18-24.71,24.25-46.71,46.17l43.28-.13s12.31-21,18.91-30.5l10.48-27.31C279.81,121.71,280.81,115.66,280.28,112.05Z" style="fill: rgb(255, 168, 167); transform-origin: 242.489px 145.265px 0px;" id="elygbje104l29" class="animable"></path><path d="M218.48,179.93s-35.15-19.47-41.61-25.75S156,132.89,147,130.05c-8.69,2.17-14.47,7.59-14.8,20-.26,9.94,3.34,20.5,17.66,32.22,11,9,43.65,23.56,62.19,29.57,10.09,3.27,12,2.36,16.34-1.64,8.55-7.88,19.46-24.73,19.46-24.73Z" style="fill: rgb(255, 168, 167); transform-origin: 190.019px 171.94px 0px;" id="el1iay3v7wg9z" class="animable"></path><path d="M213.43,177.1c-6.61,6.75-10.37,17-10.37,17s-1-11.49,6.47-19.17Z" style="fill: rgb(242, 143, 143); transform-origin: 208.223px 184.515px 0px;" id="elz104786bnh9" class="animable"></path><path d="M191.74,139.71c-3-1.34-6-2.46-9.08-3.51a41.22,41.22,0,0,0-7.15-1.46c-2.69-.39-5.38-.83-8-1.32a49.2,49.2,0,0,0-7.63-1.09,11,11,0,0,0-5.12,1c-1.23.62-3.72,2.3-3.15,3.92a2.5,2.5,0,0,0,1.61,1.46,7.64,7.64,0,0,0,2.23.3,22.7,22.7,0,0,0,3.3-.07,40.33,40.33,0,0,0,4.33-1c.29-.07.59-.13.89-.18,6.74-1.19,14.1-.22,20.57,1.85,2.58.82,5,1.94,7.58,2.82,1.09.37,2.78,1.1,4,.65s-.84-1.7-1.34-2C193.72,140.64,192.74,140.17,191.74,139.71Z" style="fill: rgb(250, 250, 250); transform-origin: 174.014px 137.77px 0px;" id="el85s3nad1tva" class="animable"></path></g></g></g><g id="freepik--Desk--inject-21" style="transform-origin: 252.225px 351.11px 0px;" class="animable"><g id="freepik--Table--inject-21" style="transform-origin: 252.225px 351.11px 0px;" class="animable"><polygon points="205.31 407.26 408.41 290 408.41 367.6 205.31 484.86 205.31 407.26" style="fill: rgb(55, 71, 79); transform-origin: 306.86px 387.43px 0px;" id="elf1salf9ozlj" class="animable"></polygon><polygon points="205.31 407.26 99.41 346.12 99.41 423.72 205.31 484.86 205.31 407.26" style="fill: rgb(38, 50, 56); transform-origin: 152.36px 415.49px 0px;" id="elaacbkfrolxf" class="animable"></polygon><g id="el4frc5e6rhsv"><polygon points="205.31 441.22 408.41 323.96 408.41 290 205.31 407.26 99.41 346.12 99.41 380.08 205.31 441.22" style="opacity: 0.15; transform-origin: 253.91px 365.61px 0px;" class="animable"></polygon></g><polygon points="75.88 352.91 310.9 217.36 428.57 285.3 193.54 420.84 75.88 352.91" style="fill: rgb(102, 80, 233); transform-origin: 252.225px 319.1px 0px;" id="elyf1krehiijt" class="animable"></polygon><g id="elpltk3afmxc"><polygon points="75.88 352.91 310.9 217.36 428.57 285.3 193.54 420.84 75.88 352.91" style="fill: rgb(255, 255, 255); opacity: 0.9; transform-origin: 252.225px 319.1px 0px;" class="animable"></polygon></g><polygon points="193.54 427.64 193.54 420.84 75.88 352.91 75.88 359.71 193.54 427.64" style="fill: rgb(102, 80, 233); transform-origin: 134.71px 390.275px 0px;" id="ell5ezri7820b" class="animable"></polygon><g id="el31gxr4ys47u"><polygon points="193.54 427.64 193.54 420.84 75.88 352.91 75.88 359.71 193.54 427.64" style="fill: rgb(255, 255, 255); opacity: 0.5; transform-origin: 134.71px 390.275px 0px;" class="animable"></polygon></g><polygon points="428.57 285.3 428.57 292.09 193.54 427.64 193.54 420.84 428.57 285.3" style="fill: rgb(102, 80, 233); transform-origin: 311.055px 356.47px 0px;" id="eleimddwbzgap" class="animable"></polygon><g id="eldqxoq168bfj"><polygon points="428.57 285.3 428.57 292.09 193.54 427.64 193.54 420.84 428.57 285.3" style="fill: rgb(255, 255, 255); opacity: 0.7; transform-origin: 311.055px 356.47px 0px;" class="animable"></polygon></g></g></g><g id="freepik--make-up-tools--inject-21" style="transform-origin: 256.653px 308.106px 0px;" class="animable animator-active"><g id="freepik--Brush--inject-21" style="transform-origin: 317.975px 306.719px 0px;" class="animable"><g id="freepik--Shadow--inject-21"><path d="M354.31,313.27c-.38-2.5-1.61-4-3.22-4.4v0s-2-.89-7.55-1.07a15.18,15.18,0,0,0-8.66,2h0l-50.64-21.84c-2.1-.83-4.23,2-4.95,4.83h0a6.38,6.38,0,0,0-.17,2.78.77.77,0,0,0,0,.15,2.8,2.8,0,0,0,.42,1l.11.13a2,2,0,0,0,.82.63L332.44,316h0s.79,3.72,5,7.38,6.25,4.37,6.25,4.37v0c1.46.8,3.38.55,5.36-1A16,16,0,0,0,354.31,313.27Z" style="opacity: 0.2; transform-origin: 316.713px 308.004px 0px;" class="animable"></path></g><g id="freepik--brush--inject-21" style="transform-origin: 319.218px 305.443px 0px;" class="animable"><path d="M337.77,307.39c-1.44-.57-3.88,5.63-2.44,6.2L283,294.9c-3.62-1.43.12-10.94,3.74-9.51Z" style="fill: rgb(55, 71, 79); transform-origin: 309.648px 299.417px 0px;" id="elou9xfpcvw0g" class="animable"></path><path d="M317.88,307.35l17.45,6.24c-1.44-.57,1-6.77,2.44-6.2l-17-7.34C318,299,315.17,306.28,317.88,307.35Z" style="fill: rgb(102, 80, 233); transform-origin: 327.277px 306.768px 0px;" id="elmwfk84zk2mg" class="animable"></path><g id="elphhj4f560me"><path d="M281.83,290.22c-.52,2-.31,4.08,1.21,4.68l52.29,18.69c-.66-.26-.51-1.69,0-3.12Z" style="opacity: 0.1; transform-origin: 308.452px 301.905px 0px;" class="animable"></path></g><path d="M346.08,305.23c-5.54-.18-8.65,2-8.65,2a5.86,5.86,0,0,0-2,2.82,6,6,0,0,0-.5,3.41s.79,3.72,5,7.37,6.25,4.37,6.25,4.37l3.73-9.46,3.73-9.45S351.63,305.4,346.08,305.23Z" style="fill: rgb(55, 71, 79); transform-origin: 344.253px 315.21px 0px;" id="elaanqjln97s5" class="animable"></path><g id="el09nx0jjd8vkt"><path d="M347.77,321.18c-7.48-1.06-12.87-8.34-12.61-10.1h0a4.77,4.77,0,0,0-.16,2.39s.79,3.72,5,7.37,6.25,4.37,6.25,4.37Z" style="opacity: 0.1; transform-origin: 341.343px 318.145px 0px;" class="animable"></path></g><path d="M343.79,321.09a15.88,15.88,0,0,1,5.29-13.42c3.61-2.85,7.08-1.49,7.76,3.06a15.94,15.94,0,0,1-5.29,13.42C348,327,344.48,325.65,343.79,321.09Z" style="fill: rgb(38, 50, 56); transform-origin: 350.314px 315.911px 0px;" id="el0kp0tjszcmn" class="animable"></path></g></g><g id="freepik--eyeshadow-palette--inject-21" style="transform-origin: 371.7px 259.715px 0px;" class="animable"><g id="freepik--shadow--inject-21"><polygon points="321.19 273.07 378.4 306.09 412.72 286.28 355.51 253.25 321.19 273.07" style="opacity: 0.2; transform-origin: 366.955px 279.67px 0px;" class="animable"></polygon></g><g id="freepik--eyeshadow-palette--inject-21" style="transform-origin: 372.24px 258.255px 0px;" class="animable"><polygon points="322.27 267.71 377.57 299.64 410.75 280.48 355.45 248.56 322.27 267.71" style="fill: rgb(69, 90, 100); transform-origin: 366.51px 274.1px 0px;" id="elj262wg74so" class="animable"></polygon><polygon points="322.27 267.71 322.27 271.24 377.57 303.17 377.57 299.64 322.27 267.71" style="fill: rgb(55, 71, 79); transform-origin: 349.92px 285.44px 0px;" id="elnwfgry6r1tq" class="animable"></polygon><polygon points="410.75 280.48 377.57 299.64 377.57 303.17 410.75 284.01 410.75 280.48" style="fill: rgb(38, 50, 56); transform-origin: 394.16px 291.825px 0px;" id="ell46pv23unz" class="animable"></polygon><path d="M345.2,263.59c3.05,1.76,3.05,4.62,0,6.38a12.18,12.18,0,0,1-11.06,0c-3.05-1.76-3.05-4.62,0-6.38A12.18,12.18,0,0,1,345.2,263.59Z" style="fill: rgb(102, 80, 233); transform-origin: 339.67px 266.78px 0px;" id="elqfocql255kd" class="animable"></path><path d="M359.29,255.45c3,1.76,3,4.62,0,6.38a12.18,12.18,0,0,1-11.06,0c-3.06-1.76-3.06-4.62,0-6.38A12.24,12.24,0,0,1,359.29,255.45Z" style="fill: rgb(102, 80, 233); transform-origin: 353.738px 258.644px 0px;" id="els3e5bcjhq9i" class="animable"></path><g id="el9aogfgxk2qb"><path d="M359.29,255.45c3,1.76,3,4.62,0,6.38a12.18,12.18,0,0,1-11.06,0c-3.06-1.76-3.06-4.62,0-6.38A12.24,12.24,0,0,1,359.29,255.45Z" style="fill: rgb(255, 255, 255); opacity: 0.2; transform-origin: 353.738px 258.644px 0px;" class="animable"></path></g><path d="M358.4,271.18c3.05,1.76,3.05,4.62,0,6.38a12.18,12.18,0,0,1-11.06,0c-3.06-1.76-3.06-4.62,0-6.38A12.24,12.24,0,0,1,358.4,271.18Z" style="fill: rgb(102, 80, 233); transform-origin: 352.866px 274.374px 0px;" id="elvn8zjpbrefa" class="animable"></path><g id="elpkusuxwzj5"><path d="M358.4,271.18c3.05,1.76,3.05,4.62,0,6.38a12.18,12.18,0,0,1-11.06,0c-3.06-1.76-3.06-4.62,0-6.38A12.24,12.24,0,0,1,358.4,271.18Z" style="opacity: 0.1; transform-origin: 352.866px 274.374px 0px;" class="animable"></path></g><path d="M372.49,263c3.05,1.76,3.05,4.62,0,6.39a12.19,12.19,0,0,1-11.05,0c-3.06-1.76-3.06-4.62,0-6.38A12.24,12.24,0,0,1,372.49,263Z" style="fill: rgb(102, 80, 233); transform-origin: 366.961px 266.201px 0px;" id="ely82iwo6zdvp" class="animable"></path><g id="el9u0vz2anii9"><path d="M372.49,263c3.05,1.76,3.05,4.62,0,6.39a12.19,12.19,0,0,1-11.05,0c-3.06-1.76-3.06-4.62,0-6.38A12.24,12.24,0,0,1,372.49,263Z" style="fill: rgb(255, 255, 255); opacity: 0.4; transform-origin: 366.961px 266.201px 0px;" class="animable"></path></g><path d="M371.6,278.77c3,1.76,3,4.62,0,6.38a12.18,12.18,0,0,1-11.06,0c-3.06-1.76-3.06-4.62,0-6.38A12.24,12.24,0,0,1,371.6,278.77Z" style="fill: rgb(102, 80, 233); transform-origin: 366.048px 281.964px 0px;" id="el1cfuv1wf9tn" class="animable"></path><g id="el7jy9k3yck1u"><path d="M371.6,278.77c3,1.76,3,4.62,0,6.38a12.18,12.18,0,0,1-11.06,0c-3.06-1.76-3.06-4.62,0-6.38A12.24,12.24,0,0,1,371.6,278.77Z" style="opacity: 0.2; transform-origin: 366.048px 281.964px 0px;" class="animable"></path></g><path d="M385.68,270.63c3.06,1.76,3.06,4.62,0,6.39a12.22,12.22,0,0,1-11.05,0c-3.06-1.77-3.06-4.63,0-6.39A12.22,12.22,0,0,1,385.68,270.63Z" style="fill: rgb(102, 80, 233); transform-origin: 380.155px 273.825px 0px;" id="elu7cbkuuaktg" class="animable"></path><g id="ely0bkea07y5"><path d="M385.68,270.63c3.06,1.76,3.06,4.62,0,6.39a12.22,12.22,0,0,1-11.05,0c-3.06-1.77-3.06-4.63,0-6.39A12.22,12.22,0,0,1,385.68,270.63Z" style="fill: rgb(255, 255, 255); opacity: 0.6; transform-origin: 380.155px 273.825px 0px;" class="animable"></path></g><path d="M384.8,286.36c3.05,1.76,3.05,4.62,0,6.39a12.22,12.22,0,0,1-11.05,0c-3.06-1.77-3.06-4.63,0-6.39A12.24,12.24,0,0,1,384.8,286.36Z" style="fill: rgb(102, 80, 233); transform-origin: 379.271px 289.556px 0px;" id="elypr5jjhyly" class="animable"></path><g id="elurcgmd3ush8"><path d="M384.8,286.36c3.05,1.76,3.05,4.62,0,6.39a12.22,12.22,0,0,1-11.05,0c-3.06-1.77-3.06-4.63,0-6.39A12.24,12.24,0,0,1,384.8,286.36Z" style="opacity: 0.3; transform-origin: 379.271px 289.556px 0px;" class="animable"></path></g><path d="M398.88,278.22c3.06,1.77,3.06,4.62,0,6.39a12.24,12.24,0,0,1-11.06,0c-3.05-1.77-3.05-4.62,0-6.39A12.24,12.24,0,0,1,398.88,278.22Z" style="fill: rgb(102, 80, 233); transform-origin: 393.354px 281.415px 0px;" id="elo7puhs8150r" class="animable"></path><g id="elz3gwh99gqa"><path d="M398.88,278.22c3.06,1.77,3.06,4.62,0,6.39a12.24,12.24,0,0,1-11.06,0c-3.05-1.77-3.05-4.62,0-6.39A12.24,12.24,0,0,1,398.88,278.22Z" style="fill: rgb(255, 255, 255); opacity: 0.8; transform-origin: 393.354px 281.415px 0px;" class="animable"></path></g><polygon points="363.15 214.69 418.44 246.62 410.75 280.48 355.45 248.56 363.15 214.69" style="fill: rgb(55, 71, 79); transform-origin: 386.945px 247.585px 0px;" id="elwh2kbeqvtd" class="animable"></polygon><polygon points="358.81 247.35 365.24 219.04 415.09 247.82 408.65 276.13 358.81 247.35" style="fill: rgb(250, 250, 250); transform-origin: 386.95px 247.585px 0px;" id="el35btb102ztu" class="animable"></polygon><polygon points="363.15 214.69 366.92 213.34 422.21 245.26 418.44 246.62 363.15 214.69" style="fill: rgb(69, 90, 100); transform-origin: 392.68px 229.98px 0px;" id="elvg73e040u6" class="animable"></polygon><polygon points="410.75 280.48 418.44 246.62 422.21 245.26 414.51 279.13 410.75 280.48" style="fill: rgb(38, 50, 56); transform-origin: 416.48px 262.87px 0px;" id="eliu4wjhki1uj" class="animable"></polygon><g id="elsb1fz83idkh"><g style="opacity: 0.1; transform-origin: 386.95px 247.945px 0px;" class="animable"><polygon points="393.78 235.52 392.18 234.6 365.44 251.18 367.04 252.11 393.78 235.52" style="fill: rgb(102, 80, 233); transform-origin: 379.61px 243.355px 0px;" id="elofdyogenq8" class="animable"></polygon><polygon points="399.31 238.71 396.1 236.86 369.37 253.45 372.57 255.3 399.31 238.71" style="fill: rgb(102, 80, 233); transform-origin: 384.34px 246.08px 0px;" id="elo8sd3mi2htp" class="animable"></polygon><polygon points="370.65 222.16 363.53 226.58 362.51 231.05 373.85 224.01 370.65 222.16" style="fill: rgb(102, 80, 233); transform-origin: 368.18px 226.605px 0px;" id="el7he6cfz2gzb" class="animable"></polygon><polygon points="390.39 233.56 382.41 228.96 359.8 242.98 358.81 247.35 363.65 250.15 390.39 233.56" style="fill: rgb(102, 80, 233); transform-origin: 374.6px 239.555px 0px;" id="ele1t6b63eavj" class="animable"></polygon><polygon points="377.16 225.93 375.56 225 361.97 233.43 361.46 235.66 377.16 225.93" style="fill: rgb(102, 80, 233); transform-origin: 369.31px 230.33px 0px;" id="el0jao6d7v8ejs" class="animable"></polygon><polygon points="414.6 249.99 415.09 247.82 408.67 244.12 381.93 260.7 389.91 265.31 414.6 249.99" style="fill: rgb(102, 80, 233); transform-origin: 398.51px 254.715px 0px;" id="elwfhjxbgzbgm" class="animable"></polygon><polygon points="412.24 260.38 412.74 258.15 395.76 268.69 397.36 269.61 412.24 260.38" style="fill: rgb(102, 80, 233); transform-origin: 404.25px 263.88px 0px;" id="el8dku6uajtjr" class="animable"></polygon><polygon points="409.98 270.33 410.48 268.09 402.89 272.8 404.49 273.73 409.98 270.33" style="fill: rgb(102, 80, 233); transform-origin: 406.685px 270.91px 0px;" id="elyjep776d6gf" class="animable"></polygon><polygon points="414.2 251.74 391.16 266.03 394.37 267.88 413.19 256.21 414.2 251.74" style="fill: rgb(102, 80, 233); transform-origin: 402.68px 259.81px 0px;" id="el1fs9d34pdms" class="animable"></polygon></g></g></g></g><g id="freepik--Lip--inject-21" style="transform-origin: 324.565px 236.289px 0px;" class="animable"><g id="freepik--shadow--inject-21"><path d="M320.45,248.94a2.51,2.51,0,0,0,0,4.75,9.11,9.11,0,0,0,8.23,0,2.51,2.51,0,0,0,0-4.75A9.11,9.11,0,0,0,320.45,248.94Z" style="opacity: 0.2; transform-origin: 324.565px 251.315px 0px;" class="animable"></path></g><g id="freepik--lip--inject-21" style="transform-origin: 324.58px 235.708px 0px;" class="animable"><path d="M328,231.45a7.56,7.56,0,0,0-6.81,0,2.41,2.41,0,0,0-1.41,2v17.25a2.4,2.4,0,0,0,1.41,2,7.56,7.56,0,0,0,6.81,0,2.4,2.4,0,0,0,1.41-2V233.42A2.41,2.41,0,0,0,328,231.45Z" style="fill: rgb(55, 71, 79); transform-origin: 324.595px 242.075px 0px;" id="elozoy14bm6v9" class="animable"></path><path d="M321.16,231.45a2.41,2.41,0,0,0-1.41,2,2.38,2.38,0,0,0,1.41,2,7.5,7.5,0,0,0,6.81,0,2.38,2.38,0,0,0,1.41-2,2.41,2.41,0,0,0-1.41-2A7.56,7.56,0,0,0,321.16,231.45Z" style="fill: rgb(69, 90, 100); transform-origin: 324.565px 233.454px 0px;" id="elzaiczodwek" class="animable"></path><path d="M328,240.78a7.5,7.5,0,0,1-6.81,0,2.38,2.38,0,0,1-1.41-2v1.53a2.38,2.38,0,0,0,1.41,2,7.5,7.5,0,0,0,6.81,0,2.38,2.38,0,0,0,1.41-2v-1.53A2.38,2.38,0,0,1,328,240.78Z" style="fill: rgb(240, 240, 240); transform-origin: 324.595px 240.954px 0px;" id="elnjg53rbbha" class="animable"></path><path d="M328.54,224.92c0-1.74-.21-4.9-1.9-6.38a2.26,2.26,0,0,0-2.94-.17,5.81,5.81,0,0,0-2.51,3.35,11.81,11.81,0,0,0-.57,3.92v7.7s0,0,0,.08a1.94,1.94,0,0,0,1.16,1.61,6.18,6.18,0,0,0,5.6,0,2,2,0,0,0,1.15-1.61h0Z" style="fill: rgb(102, 80, 233); transform-origin: 324.578px 226.804px 0px;" id="elz03uo41xpf" class="animable"></path><g id="elf2vasmh75wc"><path d="M323.7,218.37a5.62,5.62,0,0,0-2.08,2.26,5,5,0,0,0-.62,2.9c.23,1.86,1.81,2.56,3.54,1.57a5.69,5.69,0,0,0,2.08-2.26,5.07,5.07,0,0,0,.62-2.91C327,218.07,325.43,217.37,323.7,218.37Z" style="fill: rgb(255, 255, 255); opacity: 0.2; transform-origin: 324.12px 221.732px 0px;" class="animable"></path></g></g></g><g id="freepik--lip--inject-21" style="transform-origin: 299.196px 239.703px 0px;" class="animable"><g id="freepik--shadow--inject-21"><path d="M295.07,252.28a2.51,2.51,0,0,0,0,4.75,9,9,0,0,0,8.23,0,2.5,2.5,0,0,0,0-4.75A9.11,9.11,0,0,0,295.07,252.28Z" style="opacity: 0.2; transform-origin: 299.196px 254.662px 0px;" class="animable"></path></g><g id="freepik--lip--inject-21" style="transform-origin: 299.185px 239.194px 0px;" class="animable"><path d="M302.59,234.93a7.5,7.5,0,0,0-6.81,0,2.38,2.38,0,0,0-1.41,2v17.26a2.38,2.38,0,0,0,1.41,2,7.5,7.5,0,0,0,6.81,0,2.38,2.38,0,0,0,1.41-2V236.89A2.38,2.38,0,0,0,302.59,234.93Z" style="fill: rgb(55, 71, 79); transform-origin: 299.185px 245.56px 0px;" id="elme0nblucry" class="animable"></path><path d="M295.78,234.93a2.07,2.07,0,0,0,0,3.93,7.5,7.5,0,0,0,6.81,0,2.07,2.07,0,0,0,0-3.93A7.5,7.5,0,0,0,295.78,234.93Z" style="fill: rgb(69, 90, 100); transform-origin: 299.185px 236.895px 0px;" id="elmfqxhvk70s" class="animable"></path><path d="M302.59,244.26a7.56,7.56,0,0,1-6.81,0,2.41,2.41,0,0,1-1.41-2v1.54a2.41,2.41,0,0,0,1.41,2,7.56,7.56,0,0,0,6.81,0,2.41,2.41,0,0,0,1.41-2v-1.54A2.41,2.41,0,0,1,302.59,244.26Z" style="fill: rgb(240, 240, 240); transform-origin: 299.185px 244.435px 0px;" id="elsm2dr0z42k" class="animable"></path><path d="M303.16,228.4c0-1.75-.21-4.91-1.9-6.38a2.26,2.26,0,0,0-2.94-.18,5.69,5.69,0,0,0-2.08,2.26,6.67,6.67,0,0,0-.43,1.09,11.87,11.87,0,0,0-.57,3.93v7.7s0,.05,0,.07a2,2,0,0,0,1.16,1.62,6.21,6.21,0,0,0,5.6,0,2,2,0,0,0,1.15-1.6h0Z" style="fill: rgb(102, 80, 233); transform-origin: 299.198px 230.279px 0px;" id="el458m1t6i1i9" class="animable"></path><g id="elp2898mi8o1"><path d="M303.16,228.4c0-1.75-.21-4.91-1.9-6.38a2.26,2.26,0,0,0-2.94-.18,5.69,5.69,0,0,0-2.08,2.26,6.67,6.67,0,0,0-.43,1.09,11.87,11.87,0,0,0-.57,3.93v7.7s0,.05,0,.07a2,2,0,0,0,1.16,1.62,6.21,6.21,0,0,0,5.6,0,2,2,0,0,0,1.15-1.6h0Z" style="opacity: 0.35; transform-origin: 299.198px 230.279px 0px;" class="animable"></path></g><g id="el2e0xnggapvr"><path d="M298.32,221.84a5.69,5.69,0,0,0-2.08,2.26,5.07,5.07,0,0,0-.62,2.91c.23,1.86,1.82,2.56,3.54,1.56a5.64,5.64,0,0,0,2.09-2.26,5.11,5.11,0,0,0,.61-2.9C301.63,221.55,300.05,220.85,298.32,221.84Z" style="fill: rgb(255, 255, 255); opacity: 0.2; transform-origin: 298.74px 225.208px 0px;" class="animable"></path></g></g></g><g id="freepik--Blush--inject-21" style="transform-origin: 253.97px 265.927px 0px;" class="animable"><g id="eli4at4479ngk"><path d="M264.07,276.91c4.15,2.4,6.22,5.54,6.22,8.68s-2.07,6.28-6.22,8.68c-8.3,4.79-21.76,4.79-30,0-4.15-2.4-6.23-5.54-6.23-8.68s2.08-6.28,6.23-8.68C242.31,272.12,255.77,272.12,264.07,276.91Z" style="opacity: 0.2; transform-origin: 249.065px 285.59px 0px;" class="animable"></path></g><path d="M235.27,268.28c7.6-4.39,19.94-4.39,27.55,0,3.8,2.2,5.7,5.08,5.7,8v7c0,2.88-1.9,5.76-5.7,7.95-7.61,4.4-19.95,4.4-27.55,0-3.81-2.19-5.71-5.07-5.71-7.95v-7C229.56,273.36,231.46,270.48,235.27,268.28Z" style="fill: rgb(55, 71, 79); transform-origin: 249.04px 279.759px 0px;" id="elwx8tm1thf9" class="animable"></path><path d="M262.82,268.28c3.8,2.2,5.7,5.08,5.7,8s-1.9,5.76-5.7,8c-7.61,4.39-19.95,4.39-27.55,0-3.81-2.2-5.71-5.08-5.71-8s1.9-5.75,5.71-8C242.87,263.89,255.21,263.89,262.82,268.28Z" style="fill: rgb(69, 90, 100); transform-origin: 249.04px 276.28px 0px;" id="elgjc7eg05f4b" class="animable"></path><path d="M249.74,245.37c0,8.78,6.17,19.46,13.77,23.86,3.81,2.19,7.25,2.4,9.74,1s2.85-1.58,2.85-1.58c2.5-1.43,4-4.52,4-8.91,0-8.79-6.17-19.47-13.78-23.86-3.8-2.2-7.24-2.4-9.73-1,0,0-.36.13-2.85,1.57S249.74,241,249.74,245.37Z" style="fill: rgb(55, 71, 79); transform-origin: 264.92px 252.553px 0px;" id="el4zix8lfcm97" class="animable"></path><path d="M263.51,269.23c3.81,2.19,7.25,2.4,9.74,1s4-4.52,4-8.92c0-8.78-6.17-19.46-13.78-23.85-3.8-2.2-7.24-2.41-9.73-1s-4,4.53-4,8.92C249.74,254.15,255.91,264.83,263.51,269.23Z" style="fill: rgb(38, 50, 56); transform-origin: 263.495px 253.341px 0px;" id="elkcmhf8kfwh" class="animable"></path><path d="M263.51,266.51c3.16,1.82,6,2,8.08.8s3.34-3.76,3.34-7.4c0-7.28-5.11-16.13-11.42-19.77-3.15-1.82-6-2-8.07-.8s-3.34,3.75-3.34,7.39C252.09,254,257.21,262.87,263.51,266.51Z" style="fill: rgb(250, 250, 250); transform-origin: 263.515px 253.325px 0px;" id="el86jjkaubmyi" class="animable"></path><path d="M258.61,270.71c2.65,1.52,4,3.52,4,5.52s-1.32,4-4,5.53c-5.28,3.05-13.85,3.05-19.14,0-2.64-1.53-4-3.53-4-5.53s1.32-4,4-5.52C244.76,267.65,253.33,267.65,258.61,270.71Z" style="fill: rgb(38, 50, 56); transform-origin: 249.04px 276.231px 0px;" id="el1bulf04xrv7" class="animable"></path><path d="M239.47,272.43c5.29-3.05,13.86-3.05,19.14,0,2.27,1.31,3.5,3,3.83,4.67-.33,1.7-1.56,3.35-3.83,4.66-5.28,3.05-13.85,3.05-19.14,0a7.18,7.18,0,0,1-3.82-4.66A7.19,7.19,0,0,1,239.47,272.43Z" style="fill: rgb(102, 80, 233); transform-origin: 249.045px 277.095px 0px;" id="elxvypy4o44k" class="animable"></path><g id="elj7lvj8jkvh"><path d="M239.47,272.43c5.29-3.05,13.86-3.05,19.14,0,2.27,1.31,3.5,3,3.83,4.67-.33,1.7-1.56,3.35-3.83,4.66-5.28,3.05-13.85,3.05-19.14,0a7.18,7.18,0,0,1-3.82-4.66A7.19,7.19,0,0,1,239.47,272.43Z" style="fill: rgb(255, 255, 255); opacity: 0.3; transform-origin: 249.045px 277.095px 0px;" class="animable"></path></g><g id="el5ii8s31nhxe"><path d="M272.5,250.46a25.2,25.2,0,0,1,1.78,4.86l-13.13,9.54a23.51,23.51,0,0,1-3.47-3.63Z" style="fill: rgb(102, 80, 233); opacity: 0.1; transform-origin: 265.98px 257.66px 0px;" class="animable"></path></g><g id="elfvukycy7mv5"><path d="M274.78,258.13a15.64,15.64,0,0,1,.15,1.78c0,.21,0,.37-.05.57l-9.51,6.91a14.76,14.76,0,0,1-1.86-.88l-.13-.1Z" style="fill: rgb(102, 80, 233); opacity: 0.1; transform-origin: 269.155px 262.76px 0px;" class="animable"></path></g><g id="el748r0qxovys"><path d="M263.62,240.21a19.8,19.8,0,0,1,4,3.23l-14.15,10.28a21.92,21.92,0,0,1-1.25-5.24Z" style="fill: rgb(102, 80, 233); opacity: 0.1; transform-origin: 259.92px 246.965px 0px;" class="animable"></path></g><g id="elx7cl6ebwh1"><path d="M269.81,246c.39.52.74,1.08,1.09,1.63l-15.08,11c-.35-.56-.66-1.14-1-1.73Z" style="fill: rgb(102, 80, 233); opacity: 0.1; transform-origin: 262.86px 252.315px 0px;" class="animable"></path></g><g id="elf8d1uelcky"><path d="M258.67,238.6a9,9,0,0,1,2.63.51l-9.11,6.62a10.77,10.77,0,0,1,.55-2.83Z" style="fill: rgb(102, 80, 233); opacity: 0.1; transform-origin: 256.745px 242.165px 0px;" class="animable"></path></g></g><g id="freepik--blush--inject-21" style="transform-origin: 203.91px 378.659px 0px;" class="animable"><g id="el0d9upvas2s7i"><path d="M221.53,381.93c4.15,2.4,6.22,5.54,6.22,8.68s-2.07,6.28-6.22,8.67c-8.3,4.79-21.76,4.79-30.05,0-4.15-2.39-6.23-5.53-6.23-8.67s2.08-6.28,6.23-8.68C199.77,377.14,213.23,377.14,221.53,381.93Z" style="opacity: 0.2; transform-origin: 206.5px 390.605px 0px;" class="animable"></path></g><path d="M192.73,373.3c7.6-4.4,19.94-4.4,27.55,0,3.8,2.19,5.7,5.07,5.7,7.95v7c0,2.87-1.9,5.75-5.7,7.95-7.61,4.39-19.95,4.39-27.55,0-3.8-2.2-5.71-5.08-5.71-7.95v-7C187,378.37,188.93,375.49,192.73,373.3Z" style="fill: rgb(55, 71, 79); transform-origin: 206.5px 384.746px 0px;" id="el5m7ghb88onx" class="animable"></path><path d="M220.28,373.3c3.8,2.19,5.7,5.07,5.7,7.95s-1.9,5.76-5.7,7.95c-7.61,4.39-19.94,4.39-27.55,0-3.8-2.19-5.71-5.07-5.71-7.95s1.91-5.76,5.71-7.95C200.34,368.9,212.67,368.9,220.28,373.3Z" style="fill: rgb(69, 90, 100); transform-origin: 206.5px 381.246px 0px;" id="el9c5uflo82sh" class="animable"></path><path d="M216.07,375.72c2.65,1.53,4,3.53,4,5.53s-1.32,4-4,5.53c-5.28,3.05-13.85,3.05-19.14,0-2.64-1.53-4-3.53-4-5.53s1.32-4,4-5.53C202.22,372.67,210.79,372.67,216.07,375.72Z" style="fill: rgb(38, 50, 56); transform-origin: 206.5px 381.25px 0px;" id="el1w5qdqmf36d" class="animable"></path><path d="M196.93,377.45c5.29-3.06,13.86-3.06,19.14,0a4.76,4.76,0,0,1,0,9.33c-5.28,3.05-13.85,3.05-19.14,0a4.76,4.76,0,0,1,0-9.33Z" style="fill: rgb(250, 250, 250); transform-origin: 206.5px 382.111px 0px;" id="elgdk3yeg349q" class="animable"></path><path d="M180.08,365.82c0,8.79,6.16,19.47,13.77,23.86,3.81,2.2,7.25,2.4,9.74,1s2.85-1.57,2.85-1.57c2.5-1.44,4-4.53,4-8.92,0-8.78-6.17-19.47-13.78-23.86-3.8-2.19-7.24-2.4-9.74-1,0,0-.35.14-2.85,1.58S180.08,361.43,180.08,365.82Z" style="fill: rgb(55, 71, 79); transform-origin: 195.26px 373.006px 0px;" id="el66hn88c9b9a" class="animable"></path><path d="M193.85,389.68c3.81,2.2,7.25,2.4,9.74,1s4-4.52,4-8.91c0-8.79-6.17-19.47-13.78-23.86-3.8-2.2-7.24-2.4-9.74-1s-4,4.52-4,8.91C180.08,374.61,186.25,385.29,193.85,389.68Z" style="fill: rgb(38, 50, 56); transform-origin: 193.83px 373.795px 0px;" id="el4m76sffzjlm" class="animable"></path></g><g id="freepik--brush--inject-21" style="transform-origin: 286.58px 345.073px 0px;" class="animable"><g id="freepik--shadow--inject-21"><path d="M321.4,324.49c-1.21-.55-4.63.8-6.89,2.47h0l-6.16,3.45v0h0v0l-57.48,33.88h0a.81.81,0,0,0-.33.6,2.37,2.37,0,0,0,.78,2,.69.69,0,0,0,.84.13h0L310,334.41h0l6.19-3.05h0a16.92,16.92,0,0,0,6.13-3.87A2.06,2.06,0,0,0,321.4,324.49Z" style="opacity: 0.1; transform-origin: 286.586px 345.737px 0px;" class="animable"></path></g><g id="freepik--brush--inject-21" style="transform-origin: 285.917px 344.023px 0px;" class="animable"><path d="M315,329.9a17,17,0,0,0,6-3.8,2,2,0,0,0-.94-2.94c-1.2-.54-4.55.79-6.77,2.42Z" style="fill: rgb(69, 90, 100); transform-origin: 317.304px 326.469px 0px;" id="el5nrbjdjuski" class="animable"></path><path d="M315.68,328.91a3.5,3.5,0,0,0-1.17-3,1.2,1.2,0,0,0-1.15-.29h0L307.3,329,309,332.9l6.09-3h0A1.2,1.2,0,0,0,315.68,328.91Z" style="fill: rgb(102, 80, 233); transform-origin: 311.5px 329.238px 0px;" id="elyezmfgb3oo" class="animable"></path><g id="elaykpyn38roh"><path d="M309,332.9l6.09-3h0a1.2,1.2,0,0,0,.64-1,3.4,3.4,0,0,0-.17-1.5l-7.16,4.06Z" style="opacity: 0.2; transform-origin: 312.075px 330.15px 0px;" class="animable"></path></g><path d="M309.5,332a3.3,3.3,0,0,0-1.11-2.81,1,1,0,0,0-1.09-.22v0l-56.45,33.27,1.27,2.68,56.84-32h0A1.08,1.08,0,0,0,309.5,332Z" style="fill: rgb(55, 71, 79); transform-origin: 280.183px 346.907px 0px;" id="el6d9ynagnk9n" class="animable"></path><path d="M252.12,364.92l56.84-32h0a1.08,1.08,0,0,0,.54-.87,2.84,2.84,0,0,0-.11-1.14l-57.87,32.76Z" style="fill: rgb(38, 50, 56); transform-origin: 280.518px 347.915px 0px;" id="elvthuydaodod" class="animable"></path><path d="M252.43,364.34a2.32,2.32,0,0,0-.77-2c-.53-.41-1-.21-1.13.45a2.32,2.32,0,0,0,.77,2C251.82,365.21,252.33,365,252.43,364.34Z" style="fill: rgb(69, 90, 100); transform-origin: 251.48px 363.567px 0px;" id="el6hc5o0gn2ne" class="animable"></path></g></g><g id="freepik--brush--inject-21" style="transform-origin: 217.451px 310.495px 0px;" class="animable"><g id="freepik--shadow--inject-21"><path d="M176.68,312c.73-1.11,4.33-1.82,7.14-1.65h0l7-.43v0h0v0l66.67-2.58h0a.79.79,0,0,1,.6.31,2.39,2.39,0,0,1,.42,2.11.71.71,0,0,1-.64.56h0l-66.32,3.87h0l-6.86.78h0a17.11,17.11,0,0,1-7.26.06A2.07,2.07,0,0,1,176.68,312Z" style="opacity: 0.1; transform-origin: 217.451px 311.365px 0px;" class="animable"></path></g><g id="freepik--brush--inject-21" style="transform-origin: 217.115px 309.573px 0px;" class="animable"><path d="M185,313.13a16.87,16.87,0,0,1-7.13.07,2,2,0,0,1-.79-3c.71-1.09,4.25-1.79,7-1.62Z" style="fill: rgb(69, 90, 100); transform-origin: 180.848px 311.051px 0px;" id="el1sxvj6yuqzg" class="animable"></path><path d="M183.89,312.64a3.45,3.45,0,0,1-.66-3.18,1.21,1.21,0,0,1,.81-.87h0l6.93-.42.72,4.21-6.74.76h0A1.18,1.18,0,0,1,183.89,312.64Z" style="fill: rgb(102, 80, 233); transform-origin: 187.39px 310.657px 0px;" id="elw7qk8vad3ef" class="animable"></path><g id="elrxn0etwbu3"><path d="M191.7,312.38l-6.74.76h0a1.18,1.18,0,0,1-1.07-.49,3.26,3.26,0,0,1-.67-1.34l8.21-.46Z" style="opacity: 0.2; transform-origin: 187.46px 311.998px 0px;" class="animable"></path></g><path d="M190.77,311.92a3.32,3.32,0,0,1-.59-3,1,1,0,0,1,.8-.78h0l65.47-2.54.37,2.94-65.12,3.81v0A1,1,0,0,1,190.77,311.92Z" style="fill: rgb(55, 71, 79); transform-origin: 223.433px 308.978px 0px;" id="el97gkpu3t6uk" class="animable"></path><path d="M256.82,308.57l-65.12,3.81v0a1,1,0,0,1-.92-.44,2.9,2.9,0,0,1-.53-1l66.4-3.73Z" style="fill: rgb(38, 50, 56); transform-origin: 223.535px 309.797px 0px;" id="elseenhhsz25" class="animable"></path><path d="M256.25,308.25a2.34,2.34,0,0,1-.41-2.06c.22-.64.75-.74,1.2-.24a2.36,2.36,0,0,1,.41,2.07A.65.65,0,0,1,256.25,308.25Z" style="fill: rgb(69, 90, 100); transform-origin: 256.645px 307.1px 0px;" id="elcs7cbc84ver" class="animable"></path></g></g><g id="freepik--Pencil--inject-21" style="transform-origin: 259.659px 341.169px 0px;" class="animable"><g id="freepik--shadow--inject-21"><path d="M230.53,357c.35.94,1.36,1.53,3.05,1.76l50.65-29.5,4.48-4a.24.24,0,0,0-.25-.4l-7.1,2.73Z" style="opacity: 0.1; transform-origin: 259.659px 341.802px 0px;" class="animable"></path></g><path d="M281.58,325.41l6.47-1.83a.16.16,0,0,1,.15.26l-4.83,4.76Z" style="fill: rgb(255, 168, 167); transform-origin: 284.908px 326.089px 0px;" id="elqigm7yj613c" class="animable"></path><path d="M281.58,325.41l6.47-1.83a.16.16,0,0,1,.15.26l-4.83,4.76Z" style="fill: rgb(255, 168, 167); transform-origin: 284.908px 326.089px 0px;" id="el8z8joc6r7ar" class="animable"></path><path d="M288.2,323.84a.16.16,0,0,0-.15-.26l-2,.57h0a1.07,1.07,0,0,1,.66,1.18h0Z" style="fill: rgb(38, 50, 56); transform-origin: 287.144px 324.454px 0px;" id="elpt27tiidu5" class="animable"></path><path d="M283.23,326.9a2.37,2.37,0,0,0-1.65-1.49L231.9,354.06c-.79.45-.07,2.15.8,2.91a1,1,0,0,0,1,.25l49.63-28.62A2.33,2.33,0,0,0,283.23,326.9Z" style="fill: rgb(69, 90, 100); transform-origin: 257.502px 341.337px 0px;" id="elgawjpiviw0w" class="animable"></path><g id="elnlabqk7t8r"><path d="M232.35,356.59l.05.06c.1.12.2.22.3.32a2,2,0,0,0,.25.18l.15.06.11.05.18,0s.05,0,.07,0a.58.58,0,0,0,.18,0l.08,0h0l49.63-28.62h0l3.31-3.26h0l1.52-1.5a.16.16,0,0,0-.15-.26l-6,4.45Z" style="opacity: 0.25; transform-origin: 260.283px 340.442px 0px;" class="animable"></path></g><path d="M234,356a2.82,2.82,0,0,0-1.6-1.94.65.65,0,0,0-.59.08c-.59.55.1,2.11.92,2.83a1,1,0,0,0,1,.25C234,357.05,234.12,356.6,234,356Z" style="fill: rgb(55, 71, 79); transform-origin: 232.818px 355.643px 0px;" id="elk3m7j7iiwfj" class="animable"></path></g><g id="freepik--pencil--inject-21" style="transform-origin: 242.538px 335.63px 0px;" class="animable"><g id="freepik--shadow--inject-21"><path d="M211.74,347.77c.23,1,1.17,1.69,2.82,2.11l53.76-23.36,4.91-3.44a.24.24,0,0,0-.2-.43l-7.38,1.88Z" style="opacity: 0.1; transform-origin: 242.538px 336.26px 0px;" class="animable"></path></g><path d="M266.12,322.43l6.65-1.05a.16.16,0,0,1,.12.27l-5.36,4.16Z" style="fill: rgb(255, 168, 167); transform-origin: 269.527px 323.595px 0px;" id="elzgs8yhni4zg" class="animable"></path><path d="M266.12,322.43l6.65-1.05a.16.16,0,0,1,.12.27l-5.36,4.16Z" style="fill: rgb(255, 168, 167); transform-origin: 269.527px 323.595px 0px;" id="elfbani4fjj5j" class="animable"></path><path d="M272.89,321.65a.16.16,0,0,0-.12-.27l-2.09.33h0a1.05,1.05,0,0,1,.52,1.24h0Z" style="fill: rgb(102, 80, 233); transform-origin: 271.807px 322.165px 0px;" id="elj8h0degs1zo" class="animable"></path><path d="M267.59,324.11a2.39,2.39,0,0,0-1.47-1.68l-52.69,22.63c-.83.36-.32,2.13.46,3a1,1,0,0,0,1,.37l52.64-22.61A2.27,2.27,0,0,0,267.59,324.11Z" style="fill: rgb(102, 80, 233); transform-origin: 240.367px 335.441px 0px;" id="elw8estfenwer" class="animable"></path><g id="elbd7yq6eilbs"><path d="M213.38,347.26v0c0,.09.1.18.15.27l.08.13.27.36.23.2a.67.67,0,0,0,.14.09l.09.05a.67.67,0,0,0,.19.05h.07a.55.55,0,0,0,.18,0h.1l52.64-22.61h0L271.2,323h0l1.69-1.31a.16.16,0,0,0-.12-.28l-5.18,2.74Z" style="opacity: 0.25; transform-origin: 243.162px 334.913px 0px;" class="animable"></path></g><path d="M215.26,347.23a2.84,2.84,0,0,0-1.36-2.11.67.67,0,0,0-.59,0c-.65.48-.15,2.11.58,2.92a1,1,0,0,0,1,.37C215.18,348.28,215.34,347.85,215.26,347.23Z" style="fill: rgb(102, 80, 233); transform-origin: 214.145px 346.742px 0px;" id="elq9rkhb7slc" class="animable"></path><g id="el76wcz0dd7r9"><path d="M215.26,347.23a2.84,2.84,0,0,0-1.36-2.11.67.67,0,0,0-.59,0c-.65.48-.15,2.11.58,2.92a1,1,0,0,0,1,.37C215.18,348.28,215.34,347.85,215.26,347.23Z" style="opacity: 0.25; transform-origin: 214.145px 346.742px 0px;" class="animable"></path></g></g><g id="freepik--eye-shadow--inject-21" style="transform-origin: 145.48px 333.25px 0px;" class="animable"><g id="eld5wskd2w7r"><path d="M145.48,346.2q-10.84-3.3-16.57-9.57h0q5.72-6.25,16.57-9.56h0q10.85,3.3,16.57,9.56h0q-5.73,6.27-16.57,9.57Z" style="opacity: 0.2; transform-origin: 145.48px 336.635px 0px;" class="animable"></path></g><path d="M159.61,330.82q-4.87-5.34-14.13-8.16-9.25,2.82-14.13,8.16v5.71q4.88,5.34,14.13,8.16,9.26-2.82,14.13-8.16Z" style="fill: rgb(55, 71, 79); transform-origin: 145.48px 333.675px 0px;" id="elblw7djam1p9" class="animable"></path><path d="M145.48,339q-9.25-2.82-14.13-8.16h0q4.88-5.34,14.13-8.16h0q9.26,2.82,14.13,8.16h0q-4.87,5.34-14.13,8.16Z" style="fill: rgb(69, 90, 100); transform-origin: 145.48px 330.84px 0px;" id="elnrkmp098e8o" class="animable"></path><path d="M145.48,339v5.71q-9.25-2.82-14.13-8.16v-5.71Q136.23,336.16,145.48,339Z" style="fill: rgb(38, 50, 56); transform-origin: 138.415px 337.775px 0px;" id="elrltr892h2hs" class="animable"></path><g id="el7ixk266qb2w"><path d="M159.61,334.61v-1.87q-5.12-5-14.13-7.76h0q-9,2.75-14.13,7.76v1.87q5.11,5,14.13,7.76h0Q154.5,339.63,159.61,334.61Z" style="opacity: 0.25; transform-origin: 145.48px 333.675px 0px;" class="animable"></path></g><path d="M160.54,329q-5.21-5.7-15.06-8.7-9.87,3-15.07,8.7v3.48q5.21,5.69,15.07,8.69,9.86-3,15.06-8.69Z" style="fill: rgb(55, 71, 79); transform-origin: 145.475px 330.735px 0px;" id="el24zjyp0g8ap" class="animable"></path><path d="M145.48,337.74q-9.87-3-15.07-8.7h0q5.21-5.7,15.07-8.7h0q9.86,3,15.06,8.7h0q-5.21,5.68-15.06,8.7Z" style="fill: rgb(69, 90, 100); transform-origin: 145.475px 329.04px 0px;" id="eltfc6ls5g8" class="animable"></path><path d="M145.48,334.32A27.1,27.1,0,0,1,135.6,329a27.1,27.1,0,0,1,9.88-5.28,27,27,0,0,1,9.87,5.28A27,27,0,0,1,145.48,334.32Z" style="fill: rgb(38, 50, 56); transform-origin: 145.475px 329.02px 0px;" id="elnim9uyfkczj" class="animable"></path><path d="M136.36,329.67a28,28,0,0,0,9.12,4.65,28,28,0,0,0,9.12-4.65,28,28,0,0,0-9.12-4.66A28,28,0,0,0,136.36,329.67Z" style="fill: rgb(102, 80, 233); transform-origin: 145.48px 329.665px 0px;" id="elmwrn89kz1ws" class="animable"></path><path d="M145.48,337.74v3.48q-9.85-3-15.07-8.7V329Q135.63,334.74,145.48,337.74Z" style="fill: rgb(38, 50, 56); transform-origin: 137.945px 335.11px 0px;" id="eltj970pjgr3" class="animable"></path></g><g id="freepik--eye-shadow--inject-21" style="transform-origin: 151.34px 364.055px 0px;" class="animable"><g id="ele0cy5p4y5z"><path d="M151.34,377q-10.84-3.3-16.57-9.56h0q5.73-6.27,16.57-9.57h0q10.86,3.3,16.57,9.57h0q-5.72,6.25-16.57,9.56Z" style="opacity: 0.2; transform-origin: 151.34px 367.435px 0px;" class="animable"></path></g><path d="M165.48,361.59q-4.89-5.34-14.14-8.16-9.24,2.82-14.13,8.16v5.71q4.88,5.34,14.13,8.16,9.25-2.81,14.14-8.16Z" style="fill: rgb(55, 71, 79); transform-origin: 151.345px 364.445px 0px;" id="elpm26xk9ucl" class="animable"></path><path d="M151.34,369.75q-9.26-2.82-14.13-8.16h0q4.89-5.34,14.13-8.16h0q9.25,2.82,14.14,8.16h0q-4.89,5.34-14.14,8.16Z" style="fill: rgb(69, 90, 100); transform-origin: 151.345px 361.59px 0px;" id="el8qi5nirgts" class="animable"></path><path d="M151.34,369.75v5.72q-9.24-2.82-14.13-8.17v-5.71Q142.1,366.93,151.34,369.75Z" style="fill: rgb(38, 50, 56); transform-origin: 144.275px 368.53px 0px;" id="el6p35jvqh1br" class="animable"></path><g id="elnbnbvz4j1ri"><path d="M165.48,365.38v-1.87c-3.42-3.33-8.12-5.93-14.14-7.76h0c-6,1.83-10.71,4.43-14.13,7.76v1.88q5.11,5,14.13,7.76h0C157.36,371.31,162.06,368.72,165.48,365.38Z" style="opacity: 0.25; transform-origin: 151.345px 364.45px 0px;" class="animable"></path></g><path d="M166.41,359.81q-5.21-5.7-15.07-8.7-9.85,3-15.06,8.7v3.48q5.21,5.68,15.06,8.7,9.87-3,15.07-8.7Z" style="fill: rgb(55, 71, 79); transform-origin: 151.345px 361.55px 0px;" id="el8780po8b61d" class="animable"></path><path d="M151.34,368.51q-9.85-3-15.06-8.7h0q5.21-5.7,15.06-8.7h0q9.87,3,15.07,8.7h0q-5.21,5.7-15.07,8.7Z" style="fill: rgb(69, 90, 100); transform-origin: 151.345px 359.81px 0px;" id="elbsovvcqygyn" class="animable"></path><path d="M151.34,365.09a27,27,0,0,1-9.87-5.28,27,27,0,0,1,9.87-5.28,27.1,27.1,0,0,1,9.88,5.28A27.1,27.1,0,0,1,151.34,365.09Z" style="fill: rgb(38, 50, 56); transform-origin: 151.345px 359.81px 0px;" id="el8a741ub0e8" class="animable"></path><path d="M142.22,360.44a28,28,0,0,0,9.12,4.65,28,28,0,0,0,9.12-4.65,28.18,28.18,0,0,0-9.12-4.66A28.18,28.18,0,0,0,142.22,360.44Z" style="fill: rgb(102, 80, 233); transform-origin: 151.34px 360.435px 0px;" id="elcejoxuweuxg" class="animable"></path><g id="elz0edk59j2kf"><path d="M142.22,360.44a28,28,0,0,0,9.12,4.65,28,28,0,0,0,9.12-4.65,28.18,28.18,0,0,0-9.12-4.66A28.18,28.18,0,0,0,142.22,360.44Z" style="fill: rgb(255, 255, 255); opacity: 0.5; transform-origin: 151.34px 360.435px 0px;" class="animable"></path></g><path d="M151.34,368.51V372q-9.85-3-15.06-8.7v-3.48Q141.49,365.51,151.34,368.51Z" style="fill: rgb(38, 50, 56); transform-origin: 143.81px 365.91px 0px;" id="elpiisrf8yedl" class="animable"></path></g><g id="freepik--eye-shadow--inject-21" style="transform-origin: 186.69px 336.87px 0px;" class="animable"><g id="elqdupch0v2b"><path d="M186.69,349.8q-10.84-3.3-16.57-9.56h0q5.73-6.27,16.57-9.57h0q10.86,3.3,16.57,9.57h0q-5.72,6.25-16.57,9.56Z" style="opacity: 0.2; transform-origin: 186.69px 340.235px 0px;" class="animable"></path></g><path d="M200.83,334.42q-4.89-5.34-14.14-8.16-9.24,2.82-14.13,8.16v5.72q4.88,5.34,14.13,8.16,9.26-2.82,14.14-8.16Z" style="fill: rgb(55, 71, 79); transform-origin: 186.695px 337.28px 0px;" id="elfoo2czmlzxv" class="animable"></path><path d="M186.69,342.58q-9.25-2.82-14.13-8.16h0q4.88-5.34,14.13-8.16h0q9.26,2.82,14.14,8.16h0q-4.89,5.35-14.14,8.16Z" style="fill: rgb(69, 90, 100); transform-origin: 186.695px 334.42px 0px;" id="el8k2kgtn24tu" class="animable"></path><path d="M186.69,342.59v5.71q-9.24-2.82-14.13-8.16v-5.72Q177.45,339.78,186.69,342.59Z" style="fill: rgb(38, 50, 56); transform-origin: 179.625px 341.36px 0px;" id="elgvystg10nfw" class="animable"></path><g id="elgx2qenxz5pi"><path d="M200.83,338.22v-1.88c-3.42-3.33-8.12-5.92-14.14-7.76h0c-6,1.83-10.71,4.43-14.13,7.76v1.88q5.12,5,14.13,7.76h0C192.71,344.15,197.41,341.55,200.83,338.22Z" style="opacity: 0.25; transform-origin: 186.695px 337.28px 0px;" class="animable"></path></g><path d="M201.76,332.64q-5.2-5.68-15.07-8.7-9.85,3-15.06,8.7v3.48q5.2,5.7,15.06,8.7,9.87-3,15.07-8.7Z" style="fill: rgb(55, 71, 79); transform-origin: 186.695px 334.38px 0px;" id="elbe1nlajh7js" class="animable"></path><path d="M186.69,341.34q-9.85-3-15.06-8.7h0q5.2-5.68,15.06-8.7h0q9.87,3,15.07,8.7h0q-5.2,5.7-15.07,8.7Z" style="fill: rgb(69, 90, 100); transform-origin: 186.695px 332.64px 0px;" id="elc87gtvl0b5b" class="animable"></path><path d="M186.69,337.92a27,27,0,0,1-9.87-5.28,27,27,0,0,1,9.87-5.28,27.1,27.1,0,0,1,9.88,5.28A27.1,27.1,0,0,1,186.69,337.92Z" style="fill: rgb(38, 50, 56); transform-origin: 186.695px 332.64px 0px;" id="el1dff1g9fdl9" class="animable"></path><path d="M177.57,333.27a28,28,0,0,0,9.12,4.65,28,28,0,0,0,9.12-4.65,28,28,0,0,0-9.12-4.65A28,28,0,0,0,177.57,333.27Z" style="fill: rgb(102, 80, 233); transform-origin: 186.69px 333.27px 0px;" id="el1xe29pk7z2i" class="animable"></path><g id="el8086e9oskl9"><path d="M177.57,333.27a28,28,0,0,0,9.12,4.65,28,28,0,0,0,9.12-4.65,28,28,0,0,0-9.12-4.65A28,28,0,0,0,177.57,333.27Z" style="opacity: 0.25; transform-origin: 186.69px 333.27px 0px;" class="animable"></path></g><path d="M186.69,341.34v3.48q-9.85-3-15.06-8.7v-3.48Q176.83,338.34,186.69,341.34Z" style="fill: rgb(38, 50, 56); transform-origin: 179.16px 338.73px 0px;" id="elv3rj73g9msn" class="animable"></path></g><g id="freepik--Primer--inject-21" style="transform-origin: 104.366px 320.451px 0px;" class="animable"><g id="elbmrkdhqherc"><path d="M95,358.79c5.18,3,13.57,3,18.75,0s5.18-7.84,0-10.83-13.57-3-18.75,0S89.77,355.8,95,358.79Z" style="opacity: 0.2; transform-origin: 104.366px 353.377px 0px;" class="animable"></path></g><path d="M93.3,306.7v45.14c0,1.62,1.08,3.25,3.23,4.5a17.26,17.26,0,0,0,15.59,0c2.15-1.25,3.23-2.88,3.23-4.5V306.7Z" style="fill: rgb(102, 80, 233); transform-origin: 104.325px 332.45px 0px;" id="elkbfnvwjgpe" class="animable"></path><g id="el3ur4zs3rjky"><path d="M93.3,306.7v45.14c0,1.62,1.08,3.25,3.23,4.5a17.26,17.26,0,0,0,15.59,0c2.15-1.25,3.23-2.88,3.23-4.5V306.7Z" style="opacity: 0.3; transform-origin: 104.325px 332.45px 0px;" class="animable"></path></g><g id="elxx41eamngoi"><path d="M101.67,358a14.45,14.45,0,0,1-5.14-1.65c-2.15-1.25-3.23-2.88-3.23-4.5V306.7h8.37Z" style="opacity: 0.1; transform-origin: 97.485px 332.35px 0px;" class="animable"></path></g><path d="M96.53,311.2a17.2,17.2,0,0,0,15.59,0c4.31-2.48,4.31-6.51,0-9a17.26,17.26,0,0,0-15.59,0C92.23,304.69,92.23,308.72,96.53,311.2Z" style="fill: rgb(102, 80, 233); transform-origin: 104.329px 306.704px 0px;" id="elpcbesphg68i" class="animable"></path><g id="elgkitoh6rq6t"><path d="M96.53,311.2a17.2,17.2,0,0,0,15.59,0c4.31-2.48,4.31-6.51,0-9a17.26,17.26,0,0,0-15.59,0C92.23,304.69,92.23,308.72,96.53,311.2Z" style="opacity: 0.1; transform-origin: 104.329px 306.704px 0px;" class="animable"></path></g><path d="M96.33,298v7.86a4,4,0,0,0,2.34,3.27,12.52,12.52,0,0,0,11.31,0,4,4,0,0,0,2.34-3.27V298Z" style="fill: rgb(55, 71, 79); transform-origin: 104.325px 304.24px 0px;" id="eljyelizmf0v" class="animable"></path><path d="M102.4,310.28a10.69,10.69,0,0,1-3.73-1.2,4,4,0,0,1-2.34-3.27V298h6.07Z" style="fill: rgb(38, 50, 56); transform-origin: 99.365px 304.14px 0px;" id="elfyo05umhbxa" class="animable"></path><path d="M98.67,301.21a12.46,12.46,0,0,0,11.31,0c3.13-1.8,3.13-4.72,0-6.53a12.52,12.52,0,0,0-11.31,0C95.55,296.49,95.55,299.41,98.67,301.21Z" style="fill: rgb(69, 90, 100); transform-origin: 104.329px 297.949px 0px;" id="elydlkbqyulsp" class="animable"></path><path d="M98.2,293.69v3.44a3,3,0,0,0,1.8,2.5,9.55,9.55,0,0,0,8.65,0,3,3,0,0,0,1.8-2.5v-3.44Z" style="fill: rgb(235, 235, 235); transform-origin: 104.325px 297.178px 0px;" id="elsmgzt7rqzl" class="animable"></path><path d="M102.85,300.54a8,8,0,0,1-2.85-.91,3,3,0,0,1-1.8-2.5v-3.44h4.65Z" style="fill: rgb(224, 224, 224); transform-origin: 100.525px 297.115px 0px;" id="elfkpv5a31yv" class="animable"></path><path d="M100,296.19a9.55,9.55,0,0,0,8.65,0c2.4-1.38,2.4-3.62,0-5a9.55,9.55,0,0,0-8.65,0C97.61,292.57,97.61,294.81,100,296.19Z" style="fill: rgb(250, 250, 250); transform-origin: 104.329px 293.69px 0px;" id="elh0522145okm" class="animable"></path><path d="M100.19,285.36v8a2.08,2.08,0,0,0,1.21,1.69,6.48,6.48,0,0,0,5.85,0,2.08,2.08,0,0,0,1.21-1.69v-8Z" style="fill: rgb(235, 235, 235); transform-origin: 104.325px 290.554px 0px;" id="eloy15gpcm5nr" class="animable"></path><path d="M102.41,295.47a5.34,5.34,0,0,1-1-.41,2.06,2.06,0,0,1-1.2-1.69v-8h2.21Z" style="fill: rgb(224, 224, 224); transform-origin: 101.315px 290.42px 0px;" id="el3r46exdt33s" class="animable"></path><path d="M101.4,287.05a6.48,6.48,0,0,0,5.85,0c1.61-.93,1.61-2.44,0-3.37a6.48,6.48,0,0,0-5.85,0C99.79,284.61,99.79,286.12,101.4,287.05Z" style="fill: rgb(250, 250, 250); transform-origin: 104.325px 285.365px 0px;" id="elgfun6akx9c8" class="animable"></path><g id="elrhuh41doi8"><ellipse cx="107.25" cy="289.54" rx="1.27" ry="0.73" style="fill: rgb(69, 90, 100); transform-origin: 107.25px 289.54px 0px; transform: rotate(-60deg);" class="animable"></ellipse></g><g id="eljclxicdt6bd"><path d="M96.33,284.48a4,4,0,0,1,2.34-3.26,12.46,12.46,0,0,1,11.31,0c1.57.9,2.35,2.08,2.34,3.27v13.45c0,1.19-.77,2.37-2.34,3.27a12.46,12.46,0,0,1-11.31,0A4,4,0,0,1,96.33,298h0V284.48Z" style="fill: rgb(102, 80, 233); opacity: 0.3; transform-origin: 104.325px 291.215px 0px;" class="animable"></path></g><g id="elnfc0yqcaqxq"><path d="M98.67,287.75a12.52,12.52,0,0,0,11.31,0c3.13-1.81,3.13-4.73,0-6.53a12.46,12.46,0,0,0-11.31,0C95.55,283,95.55,285.94,98.67,287.75Z" style="fill: rgb(255, 255, 255); opacity: 0.3; transform-origin: 104.329px 284.481px 0px;" class="animable"></path></g></g></g><defs>     <filter id="active" height="200%">         <feMorphology in="SourceAlpha" result="DILATED" operator="dilate" radius="2"></feMorphology>                <feFlood flood-color="#32DFEC" flood-opacity="1" result="PINK"></feFlood>        <feComposite in="PINK" in2="DILATED" operator="in" result="OUTLINE"></feComposite>        <feMerge>            <feMergeNode in="OUTLINE"></feMergeNode>            <feMergeNode in="SourceGraphic"></feMergeNode>        </feMerge>    </filter>    <filter id="hover" height="200%">        <feMorphology in="SourceAlpha" result="DILATED" operator="dilate" radius="2"></feMorphology>                <feFlood flood-color="#ff0000" flood-opacity="0.5" result="PINK"></feFlood>        <feComposite in="PINK" in2="DILATED" operator="in" result="OUTLINE"></feComposite>        <feMerge>            <feMergeNode in="OUTLINE"></feMergeNode>            <feMergeNode in="SourceGraphic"></feMergeNode>        </feMerge>            <feColorMatrix type="matrix" values="0   0   0   0   0                0   1   0   0   0                0   0   0   0   0                0   0   0   1   0 "></feColorMatrix>    </filter></defs></svg>