<svg class="animated" id="freepik_stories-fashion-photoshoot" xmlns="http://www.w3.org/2000/svg" viewBox="0 0 700 500" version="1.1" xmlns:xlink="http://www.w3.org/1999/xlink" xmlns:svgjs="http://svgjs.com/svgjs"><style>svg#freepik_stories-fashion-photoshoot:not(.animated) .animable {opacity: 0;}svg#freepik_stories-fashion-photoshoot.animated #freepik--background-simple--inject-148 {animation: 1.5s Infinite  linear floating;animation-delay: 0s;}svg#freepik_stories-fashion-photoshoot.animated #freepik--character-2--inject-148 {animation: 1.5s Infinite  linear wind;animation-delay: 0s;}            @keyframes floating {                0% {                    opacity: 1;                    transform: translateY(0px);                }                50% {                    transform: translateY(-10px);                }                100% {                    opacity: 1;                    transform: translateY(0px);                }            }                    @keyframes wind {                0% {                    transform: rotate( 0deg );                }                25% {                    transform: rotate( 1deg );                }                75% {                    transform: rotate( -1deg );                }            }        </style><g id="freepik--background-simple--inject-148" style="transform-origin: 354.727px 213.654px 0px;" class="animable animator-active"><path d="M39.53,410.14H664.37c4.74-17.75,9.74-46.57,3.8-76.86-9.67-49.34-52.36-78.41-50.36-105,1.6-21.45,16.77-41.74,23.51-61.84,29.31-87.39-75.89-164.66-157-146.64-52.25,11.61-75.47,39.66-113.2,39.66-37.93,0-69.82-23.06-106.11-30-3-.58-6.12-1.09-9.22-1.53-49.88-7.07-105.83,4.21-148,31.52C71.2,83.19,50.46,121.67,43.17,164c-9.68,56.12,24.19,95.79,32.89,130.62s-12.57,51.27-30,80.3C38,388.31,37.62,400.7,39.53,410.14Z" style="fill: rgb(102, 80, 233); transform-origin: 354.727px 213.654px 0px;" id="elhll6pwo9a" class="animable"></path><g id="el4dg1jhwenw4"><path d="M39.53,410.14H664.37c4.74-17.75,9.74-46.57,3.8-76.86-9.67-49.34-52.36-78.41-50.36-105,1.6-21.45,16.77-41.74,23.51-61.84,29.31-87.39-75.89-164.66-157-146.64-52.25,11.61-75.47,39.66-113.2,39.66-37.93,0-69.82-23.06-106.11-30-3-.58-6.12-1.09-9.22-1.53-49.88-7.07-105.83,4.21-148,31.52C71.2,83.19,50.46,121.67,43.17,164c-9.68,56.12,24.19,95.79,32.89,130.62s-12.57,51.27-30,80.3C38,388.31,37.62,400.7,39.53,410.14Z" style="fill: rgb(255, 255, 255); opacity: 0.7; transform-origin: 354.727px 213.654px 0px;" class="animable"></path></g></g><g id="freepik--Cyclorama--inject-148" style="transform-origin: 411.89px 243.89px 0px;" class="animable"><path d="M280.28,40.49c-.07,116.7.89,233.77-1,350.84,0,12.57-7.74,24.18-18.38,29-27.09,12.58-54.18,21.29-82.56,30.38l359.17.07c24.28-8.2,47.5-15.94,71.69-23.68a45.47,45.47,0,0,0,25.15-23.22c1-3.87,2.9-8.7,2.9-12.57q0-175.6,0-350.78" style="fill: none; stroke: rgb(38, 50, 56); stroke-linecap: round; stroke-linejoin: round; transform-origin: 407.795px 245.635px 0px;" id="elpnpzlxs8mtd" class="animable"></path><path d="M277.25,50.77h0a3.79,3.79,0,0,1-3.79-3.8V40.81A3.79,3.79,0,0,1,277.25,37h0A3.79,3.79,0,0,1,281,40.81V47A3.8,3.8,0,0,1,277.25,50.77Z" style="fill: rgb(38, 50, 56); stroke: rgb(38, 50, 56); stroke-linecap: round; stroke-linejoin: round; transform-origin: 277.23px 43.885px 0px;" id="elljrqrdvapsp" class="animable"></path><path d="M639.4,50.77h0a3.8,3.8,0,0,1-3.79-3.8V40.81A3.79,3.79,0,0,1,639.4,37h0a3.79,3.79,0,0,1,3.79,3.79V47A3.79,3.79,0,0,1,639.4,50.77Z" style="fill: rgb(38, 50, 56); stroke: rgb(38, 50, 56); stroke-linecap: round; stroke-linejoin: round; transform-origin: 639.4px 43.885px 0px;" id="el1hi8s8yyh2y" class="animable"></path><line x1="266.45" y1="39.61" x2="645.44" y2="39.61" style="fill: rgb(255, 255, 255); stroke: rgb(38, 50, 56); stroke-linecap: round; stroke-linejoin: round; stroke-width: 3px; transform-origin: 455.945px 39.61px 0px;" id="eliozg4utar2f" class="animable"></line></g><g id="freepik--spotlight-2--inject-148" style="transform-origin: 127.665px 244.84px 0px;" class="animable"><g id="elpoka66u6jns"><ellipse cx="111.81" cy="442.62" rx="70.05" ry="15.64" style="opacity: 0.2; transform-origin: 111.81px 442.62px 0px;" class="animable"></ellipse></g><line x1="110.8" y1="127.22" x2="110.8" y2="441.88" style="fill: none; stroke: rgb(38, 50, 56); stroke-linecap: round; stroke-linejoin: round; stroke-width: 6px; transform-origin: 110.8px 284.55px 0px;" id="el99p5nw0o7jw" class="animable"></line><polyline points="60.85 443.88 109.8 290.04 172.73 439.88" style="fill: none; stroke: rgb(38, 50, 56); stroke-linecap: round; stroke-linejoin: round; stroke-width: 6px; transform-origin: 116.79px 366.96px 0px;" id="elz0x62af22tq" class="animable"></polyline><polygon points="150.71 32.1 128.75 85.05 127.96 163.23 150.72 208.69 150.71 32.1" style="fill: rgb(38, 50, 56); stroke: rgb(38, 50, 56); stroke-linecap: round; stroke-linejoin: round; transform-origin: 139.34px 120.395px 0px;" id="el9mwlt9dsejw" class="animable"></polygon><polygon points="150.71 32.1 213.57 31.42 212.87 204.24 150.72 208.69 150.71 32.1" style="fill: rgb(255, 255, 255); stroke: rgb(38, 50, 56); stroke-linecap: round; stroke-linejoin: round; transform-origin: 182.14px 120.055px 0px;" id="elzff8qgt6so" class="animable"></polygon><path d="M138.94,130.89l-30.47-.4a13.49,13.49,0,0,1-13.31-13.65h0a13.48,13.48,0,0,1,13.66-13.31l30.47.39Z" style="fill: rgb(38, 50, 56); stroke: rgb(38, 50, 56); stroke-linecap: round; stroke-linejoin: round; transform-origin: 117.225px 117.209px 0px;" id="el3emt2xicbg2" class="animable"></path><path d="M103.05,119.25s-13.76-3.75-13.76,17.52,25,42.53,27.52,65-14.2,26.68-13.35,43.37,24.61,16.68,17.1,27.94l-7.5,11.26" style="fill: none; stroke: rgb(38, 50, 56); stroke-linecap: round; stroke-linejoin: round; stroke-width: 2px; transform-origin: 105.658px 201.668px 0px;" id="el5py5qi2g9af" class="animable"></path></g><g id="freepik--spotlight-1--inject-148" style="transform-origin: 585.205px 250px 0px;" class="animable"><g id="el7439o5gxc1g"><ellipse cx="595.5" cy="457.06" rx="73.19" ry="18.87" style="opacity: 0.2; transform-origin: 595.5px 457.06px 0px;" class="animable"></ellipse></g><g id="elk9iv5ml3n0p"><circle cx="550.71" cy="73.06" r="48.99" style="fill: rgb(76, 76, 76); transform-origin: 550.71px 73.06px 0px; transform: rotate(-45deg);" class="animable"></circle></g><line x1="595.25" y1="60.8" x2="595.25" y2="448.07" style="fill: none; stroke: rgb(38, 50, 56); stroke-linecap: round; stroke-linejoin: round; stroke-width: 6px; transform-origin: 595.25px 254.435px 0px;" id="elt5ttt4v0mg" class="animable"></line><path d="M604.92,71l-27.08,7.53A16.69,16.69,0,0,1,557.3,66.92h0a16.69,16.69,0,0,1,11.61-20.55L596,38.85a16.68,16.68,0,0,1,20.54,11.61h0A16.68,16.68,0,0,1,604.92,71Z" style="fill: rgb(38, 50, 56); stroke: rgb(38, 50, 56); stroke-linecap: round; stroke-linejoin: round; transform-origin: 586.917px 58.6909px 0px;" id="elx5itfm6mg8" class="animable"></path><polyline points="539.47 460.1 594.17 314.21 660.68 462.25" style="fill: none; stroke: rgb(38, 50, 56); stroke-linecap: round; stroke-linejoin: round; stroke-width: 6px; transform-origin: 600.075px 388.23px 0px;" id="eluhwxl7t5iq" class="animable"></polyline><path d="M613.8,51s18.29-1.14,18.29,24-44.6,45.74-44.6,64,17.16,20.59,17.16,40-12.58,11.44-14.87,32,16,54.51,10.29,69.38-16.37,21.7-5.89,33.72" style="fill: none; stroke: rgb(38, 50, 56); stroke-linecap: round; stroke-linejoin: round; stroke-width: 2px; transform-origin: 609.79px 182.546px 0px;" id="elpxrbnx12uml" class="animable"></path></g><g id="freepik--character-2--inject-148" style="transform-origin: 399.464px 256.34px 0px;" class="animable"><path d="M387,253.79s-13.46,72-15.79,82.18-10.21,24.15-11.6,33-3.25,48.75-3.25,48.75l7.43.47s23.44-60.14,29.94-71.74,20.18-53.82,20.18-53.82l6.52-12.35s-3.25,39.47-4.18,59.44,6,71,6,71l7.89,2.78,10.22-78s8.82-40.4,10.68-63.15,2.32-24.15,2.32-24.15l-62.68-5.57Z" style="fill: rgb(38, 50, 56); stroke: rgb(38, 50, 56); stroke-linecap: round; stroke-linejoin: round; transform-origin: 404.86px 330.41px 0px;" id="eloiez6og4sj" class="animable"></path><path d="M415.75,252.39a134.89,134.89,0,0,0,16.71,1.4,112.15,112.15,0,0,0,15.79-1.4S452,227.78,451,210.6s-20.86-78.23-20.86-78.23l-21.62-.29-1.17,116.6S411.57,251.93,415.75,252.39Z" style="fill: rgb(255, 255, 255); stroke: rgb(38, 50, 56); stroke-linecap: round; stroke-linejoin: round; transform-origin: 429.26px 192.935px 0px;" id="els0p5g48epc" class="animable"></path><path d="M444.54,130.28s19.84,46.47,26.59,61.24c6.39,14,8.05,19.46,4,29.94-4.79,12.37-7.84,19.79-7.84,19.79l-11.61-29.72L438.5,131.67S436.64,121,444.54,130.28Z" style="fill: rgb(102, 80, 233); stroke: rgb(38, 50, 56); stroke-linecap: round; stroke-linejoin: round; transform-origin: 457.82px 183.869px 0px;" id="elvqj8m95g1z" class="animable"></path><path d="M458.76,202.3s2.4-2,11.58.8" style="fill: none; stroke: rgb(38, 50, 56); stroke-linecap: round; stroke-linejoin: round; transform-origin: 464.55px 202.354px 0px;" id="el357ql96y1pr" class="animable"></path><path d="M422.48,131.49s9.06,62.86,17.41,91.65S437.57,316,437.57,316s13,0,21.83-3.72a52.61,52.61,0,0,0,13.92-8.36s.47-43.64-8.35-74.75S442.68,128,442.68,128H421.79Z" style="fill: rgb(102, 80, 233); stroke: rgb(38, 50, 56); stroke-linecap: round; stroke-linejoin: round; transform-origin: 447.557px 222px 0px;" id="elsnfwjdq0n8j" class="animable"></path><path d="M404.42,127.93l-.89,0c-3.54.12-16.81.56-23.69.56-8,0-11.26,3.56-11.26,5s10.37,63.37,10.07,72.55-3.85,29.32-10.07,42.35-16.28,45.9-16.28,45.9,8.29,5.92,30.5,14.8S421.29,316,421.29,316s7.7-53.9,2.67-86.48-7.7-97.13-7.7-97.13Z" style="fill: rgb(102, 80, 233); stroke: rgb(38, 50, 56); stroke-linecap: round; stroke-linejoin: round; transform-origin: 388.983px 222.058px 0px;" id="el677w6vtxdyi" class="animable"></path><polygon points="393.93 127.96 450.11 258.89 446.86 258.43 390.21 127.96 393.93 127.96" style="fill: rgb(255, 255, 255); stroke: rgb(38, 50, 56); stroke-linecap: round; stroke-linejoin: round; transform-origin: 420.16px 193.425px 0px;" id="ell9no2f8krl" class="animable"></polygon><path d="M446.86,258.43s0,33.43,1.39,35.75,8.82,2.79,8.82-1.39-7-33.9-7-33.9Z" style="fill: rgb(255, 255, 255); stroke: rgb(38, 50, 56); stroke-linecap: round; stroke-linejoin: round; transform-origin: 451.965px 277.182px 0px;" id="ely50zoaz1ca" class="animable"></path><path d="M450.11,258.89,470,250.17s13.05,29.62,10.72,33.8-27.21,11.87-27.21,11.87Z" style="fill: rgb(255, 255, 255); stroke: rgb(38, 50, 56); stroke-linecap: round; stroke-linejoin: round; transform-origin: 465.554px 273.005px 0px;" id="elozm7qthbtjg" class="animable"></path><path d="M402.93,125.56s-4.73,30.5-3.85,50.64-1.18,65.15-3.55,75.81-4.14,28.13-4.14,28.13l22.5,1.48s3-45,2.67-72-1.19-62.78-1.19-68.4V131.19l7.11.3a291.57,291.57,0,0,1,5.63,36.72c1.48,18.65.88,48.86.88,49.75s19.84-2.37,19.84-2.37.3-22.51-8.58-51.83-12.14-38.2-12.14-38.2l-25.77-4.74Z" style="fill: rgb(38, 50, 56); stroke: rgb(38, 50, 56); stroke-linecap: round; stroke-linejoin: round; transform-origin: 420.111px 201.22px 0px;" id="el0okdbfkjrdn" class="animable"></path><path d="M428.11,120.23s3.55,9.78,2.07,12.14-11.25,4.74-21.62-.29-4.74-14.51-3.26-15.4S428.11,120.23,428.11,120.23Z" style="fill: rgb(38, 50, 56); stroke: rgb(38, 50, 56); stroke-linecap: round; stroke-linejoin: round; transform-origin: 416.493px 125.806px 0px;" id="elktu5fedaoj" class="animable"></path><path d="M401.36,82.92a55.32,55.32,0,0,1-10.92,23.45c-9.05,11.37-11.6,19-11.14,26.23s6.73,12.07,14.86,13.93,12.07,0,13,4.87,1.62,8.13,7,9.29,8.83-.46,9.75-4.64.24-6,.24-6-2.56,4.18-4.18,2.09,4.64-4.64,2.32-13.93-6.27-9-12.3-14.39-8.83-11.84-8.59-20.43S403,82.92,403,82.92Z" style="fill: rgb(255, 255, 255); stroke: rgb(38, 50, 56); stroke-linecap: round; stroke-linejoin: round; transform-origin: 401.82px 121.988px 0px;" id="elqjuuwlu7pul" class="animable"></path><path d="M399.11,138.59c7.81,3.07,12.75,4,13.16,7.47.46,3.95-.7,11.38,4.18,13.24s6.73-.93,6.73-.93" style="fill: none; stroke: rgb(38, 50, 56); stroke-linecap: round; stroke-linejoin: round; transform-origin: 411.145px 149.265px 0px;" id="eltek4ajt625" class="animable"></path><path d="M394.79,136.76l.53.25,1,.44" style="fill: none; stroke: rgb(38, 50, 56); stroke-linecap: round; stroke-linejoin: round; transform-origin: 395.555px 137.105px 0px;" id="elkhzm5egulf" class="animable"></path><path d="M403.91,84.54s-4.41,18.81-10,25.77c-5.13,6.41-8.1,19.91-.75,25.45" style="fill: none; stroke: rgb(38, 50, 56); stroke-linecap: round; stroke-linejoin: round; transform-origin: 396.332px 110.15px 0px;" id="elwynz0ur2sno" class="animable"></path><path d="M401.59,98.7s-5.11,14.17-1.63,22.52a15.59,15.59,0,0,0,8.59,9.29c6.73,2.79,13.93,9.52,13.93,13.47" style="fill: none; stroke: rgb(38, 50, 56); stroke-linecap: round; stroke-linejoin: round; transform-origin: 410.613px 121.34px 0px;" id="eljx6o6sspwda" class="animable"></path><path d="M400.64,84s-.21,19.09,0,24.19,5.11,11.15,9.75,13.47,13.7,1.62,17.64-2.79,6.27-14.16,6.74-20.43.69-12.07.69-12.07l-34.12-3.48Z" style="fill: rgb(255, 255, 255); stroke: rgb(38, 50, 56); stroke-linecap: round; stroke-linejoin: round; transform-origin: 418.003px 102.925px 0px;" id="elh6tdkwln7h" class="animable"></path><path d="M431.77,85.24A71.19,71.19,0,0,1,429.91,105c-2.55,10.68-4.18,25.54,6.73,33,0,0-7,4.87-4.18,11.37s8.83,7.9,15.1,6.51a18.05,18.05,0,0,0,9.28-4.88s3.48,3.95,8.13,3.95,10.68-2.79,10.91-12.31-5.81-23.45-13.23-31.57S449,98.24,446.39,94.29,443.84,85,443.84,85Z" style="fill: rgb(255, 255, 255); stroke: rgb(38, 50, 56); stroke-linecap: round; stroke-linejoin: round; transform-origin: 451.961px 120.684px 0px;" id="elr7ds5v2e46b" class="animable"></path><path d="M444.39,149.13c-3.4,2.56-5.86-.89-5.42-3.3" style="fill: rgb(255, 255, 255); stroke: rgb(38, 50, 56); stroke-linecap: round; stroke-linejoin: round; transform-origin: 441.655px 147.932px 0px;" id="elkppjcg223lo" class="animable"></path><path d="M436.64,137.94a9.11,9.11,0,0,1,7-.32c3.45,1.21,4.72,6.06,2.49,9.58" style="fill: rgb(255, 255, 255); stroke: rgb(38, 50, 56); stroke-linecap: round; stroke-linejoin: round; transform-origin: 441.941px 142.135px 0px;" id="elohj5yl5z4l" class="animable"></path><path d="M439,86.17s-2.33,5.34.92,19.5,10,19,16,25.07,4.65,16.49.93,20.2" style="fill: none; stroke: rgb(38, 50, 56); stroke-linecap: round; stroke-linejoin: round; transform-origin: 449.112px 118.555px 0px;" id="elzxedfeeeju" class="animable"></path><path d="M456.52,117c10.08,7.53,17.21,14,19.36,25.57" style="fill: none; stroke: rgb(38, 50, 56); stroke-linecap: round; stroke-linejoin: round; transform-origin: 466.2px 129.785px 0px;" id="elb4h9rlbypu4" class="animable"></path><path d="M453.47,114.74l.59.45,1.08.8" style="fill: none; stroke: rgb(38, 50, 56); stroke-linecap: round; stroke-linejoin: round; transform-origin: 454.305px 115.365px 0px;" id="el64jkkk9tw9f" class="animable"></path><path d="M441.29,86.86s1.13,16.21,9.67,25.53" style="fill: none; stroke: rgb(38, 50, 56); stroke-linecap: round; stroke-linejoin: round; transform-origin: 446.125px 99.625px 0px;" id="elqh9zttvqepm" class="animable"></path><path d="M400.64,84l44.66,5s.28-15-3.88-21.08a21.91,21.91,0,0,0-25-8.32C404.8,63.22,399.81,79,400.64,84Z" style="fill: rgb(38, 50, 56); stroke: rgb(38, 50, 56); stroke-linecap: round; stroke-linejoin: round; transform-origin: 422.928px 73.7297px 0px;" id="eljub5p84l4a9" class="animable"></path><path d="M405.25,75.49c1.74-3.82,5.65-9.62,14.34-14.3" style="fill: none; stroke: rgb(112, 112, 112); stroke-linecap: round; stroke-linejoin: round; transform-origin: 412.42px 68.34px 0px;" id="eluqtkokcj1lo" class="animable"></path><path d="M403.92,79.61a12.76,12.76,0,0,1,.6-2.28" style="fill: none; stroke: rgb(112, 112, 112); stroke-linecap: round; stroke-linejoin: round; transform-origin: 404.22px 78.47px 0px;" id="el4vl17yyr7zg" class="animable"></path><path d="M417.61,73a49.59,49.59,0,0,1,6.11-10.7" style="fill: none; stroke: rgb(112, 112, 112); stroke-linecap: round; stroke-linejoin: round; transform-origin: 420.665px 67.65px 0px;" id="el8yd4pjvyhiq" class="animable"></path><path d="M416.29,79.61a10.53,10.53,0,0,1,.57-4.39" style="fill: none; stroke: rgb(112, 112, 112); stroke-linecap: round; stroke-linejoin: round; transform-origin: 416.557px 77.415px 0px;" id="eltk3c0p0d4li" class="animable"></path><path d="M431.1,71.42a49,49,0,0,1,0,9.29" style="fill: none; stroke: rgb(112, 112, 112); stroke-linecap: round; stroke-linejoin: round; transform-origin: 431.21px 76.065px 0px;" id="el2wd3bjgheo" class="animable"></path><path d="M428.39,61.46a18.71,18.71,0,0,1,1.74,4.6" style="fill: none; stroke: rgb(112, 112, 112); stroke-linecap: round; stroke-linejoin: round; transform-origin: 429.26px 63.76px 0px;" id="elcj5ck07sso4" class="animable"></path><path d="M438.79,68.62a37.3,37.3,0,0,1,3.08,13.47" style="fill: none; stroke: rgb(112, 112, 112); stroke-linecap: round; stroke-linejoin: round; transform-origin: 440.33px 75.355px 0px;" id="el3veg6r82kzm" class="animable"></path><path d="M433.89,62.56a8.61,8.61,0,0,1,2.57,2.3" style="fill: none; stroke: rgb(112, 112, 112); stroke-linecap: round; stroke-linejoin: round; transform-origin: 435.175px 63.71px 0px;" id="el9mz7n4qfgxc" class="animable"></path><path d="M414.23,89.34s-8.87-2.5-16.92-2c0,0-1.11,6.94.83,10s9.16,3.6,12.76,2.22S414.23,89.34,414.23,89.34Z" style="fill: rgb(38, 50, 56); stroke: rgb(38, 50, 56); stroke-linecap: round; stroke-linejoin: round; transform-origin: 405.614px 93.776px 0px;" id="el0vdhbe82cseq" class="animable"></path><path d="M419.08,90.21s9.21-.6,17,1.61c0,0-.36,7-2.89,9.6s-9.7,1.62-12.94-.48S419.08,90.21,419.08,90.21Z" style="fill: rgb(38, 50, 56); stroke: rgb(38, 50, 56); stroke-linecap: round; stroke-linejoin: round; transform-origin: 427.254px 96.5598px 0px;" id="eljfuii9eljvm" class="animable"></path><path d="M414.23,89.34s3.13-.5,4.85.87" style="fill: none; stroke: rgb(38, 50, 56); stroke-linecap: round; stroke-linejoin: round; transform-origin: 416.655px 89.7305px 0px;" id="elawd03mexeim" class="animable"></path><path d="M414.39,91.8a2.84,2.84,0,0,1,4,.77" style="fill: none; stroke: rgb(38, 50, 56); stroke-linecap: round; stroke-linejoin: round; transform-origin: 416.39px 91.9293px 0px;" id="el41rccwgoqvc" class="animable"></path><path d="M414.82,94.06s-1.39,3.25-3.25,4.18-3,4.18-1.16,5.11a12.85,12.85,0,0,0,3.71,1.16" style="fill: rgb(255, 255, 255); stroke: rgb(38, 50, 56); stroke-linecap: round; stroke-linejoin: round; transform-origin: 412.148px 99.285px 0px;" id="elou3sg8cnjva" class="animable"></path><path d="M411.34,107.29s4.18,4.42,9.05-.69" style="fill: none; stroke: rgb(38, 50, 56); stroke-linecap: round; stroke-linejoin: round; transform-origin: 415.865px 107.832px 0px;" id="el305iwzhpo2u" class="animable"></path><polygon points="380.79 225.85 386.86 231.92 379.68 242.14 376.37 231.92 380.79 225.85" style="fill: rgb(255, 255, 255); stroke: rgb(38, 50, 56); stroke-linecap: round; stroke-linejoin: round; transform-origin: 381.615px 233.995px 0px;" id="elglu68fvxy2j" class="animable"></polygon><path d="M374,129.81a9.36,9.36,0,0,0-7,3.72c-2.79,3.71-21.2,67.18-24.45,72.75s26.3,43.79,26.3,43.79l14.4-23.21L368.56,203.5l10.51-46.76" style="fill: rgb(102, 80, 233); stroke: rgb(38, 50, 56); stroke-linecap: round; stroke-linejoin: round; transform-origin: 362.775px 189.94px 0px;" id="el99qwb314zm" class="animable"></path><polygon points="390.17 225.02 374.44 249.86 375.82 251.8 392.93 225.3 390.17 225.02" style="fill: rgb(38, 50, 56); stroke: rgb(38, 50, 56); stroke-linecap: round; stroke-linejoin: round; transform-origin: 383.685px 238.41px 0px;" id="eli4v9owgo9o" class="animable"></polygon><polygon points="454.99 221.52 452.55 222.54 469.11 246.83 468.56 241.86 454.99 221.52" style="fill: rgb(38, 50, 56); stroke: rgb(38, 50, 56); stroke-linecap: round; stroke-linejoin: round; transform-origin: 460.83px 234.175px 0px;" id="elxvjc1b8s4jn" class="animable"></polygon><path d="M378.22,390.82l-23.73-3.39-2.06,35.65a50.54,50.54,0,0,0-9,9.81c-4.14,5.94-5.94,11.11-4.14,12.14a14.19,14.19,0,0,0,11.63.52c4.65-2.07,6.2-6.2,8.26-10.33s5.22-9.8,4.91-13.43S378.22,390.82,378.22,390.82Z" style="fill: rgb(38, 50, 56); stroke: rgb(38, 50, 56); stroke-linecap: round; stroke-linejoin: round; transform-origin: 358.407px 416.991px 0px;" id="elkc4zywko3eb" class="animable"></path><path d="M435.6,389.5l-19.11,1.29s1,27.38,1.29,28.93-3.1,15-2.32,16.53,8.52,1,11.36,2.07,8.27,3.36,13.43,4.13,11.63.78,12.92-1.81-13.17-12.14-16-15.24a48.35,48.35,0,0,1-5.42-7.75Z" style="fill: rgb(38, 50, 56); stroke: rgb(38, 50, 56); stroke-linecap: round; stroke-linejoin: round; transform-origin: 434.297px 416.2px 0px;" id="ells54a3ooaad" class="animable"></path><g id="ele4shzfus7u"><ellipse cx="389.41" cy="443.64" rx="71.48" ry="10.58" style="opacity: 0.2; transform-origin: 389.41px 443.64px 0px;" class="animable"></ellipse></g></g><g id="freepik--character-1--inject-148" style="transform-origin: 189.901px 339.555px 0px;" class="animable"><g id="el6ckjyxub4mj"><ellipse cx="173.66" cy="467.83" rx="71.48" ry="10.58" style="opacity: 0.2; transform-origin: 173.66px 467.83px 0px;" class="animable"></ellipse></g><path d="M220.73,222.85h13.2l2.25,2,12.08-5.9s4.21-2.25,8.15,2.81.56,11.79.56,11.79l-17.14,6.18.28,6.18-3.37,2.25-18-.84a119.43,119.43,0,0,1-1.41-12.08A18.46,18.46,0,0,1,220.73,222.85Z" style="fill: rgb(38, 50, 56); stroke: rgb(38, 50, 56); stroke-linecap: round; stroke-linejoin: round; transform-origin: 237.789px 233.306px 0px;" id="elkiea9y3enz8" class="animable"></path><path d="M246.85,285.21S233.93,262.46,232.53,258s-2-14-2.81-15.17-6.46-4.77-3.37-6.46,6.18,1.13,7,2.53a10.29,10.29,0,0,1,1.13,2.53,36.52,36.52,0,0,0,4.77-7.87c1.41-3.65,2.81-4.21,4.78-2.8s0,5.61,0,5.61,1.4,3.09,2.24,3.37,1.13,2.25,1.13,2.25,3.93,2,3.93,4.78-.56,4.77-3.09,7.58a22.56,22.56,0,0,0-3.09,3.93s17.13,27.53,22.75,35.11,9,18.82,8.71,21.91-5.06,5.62-16.57,4.5-23.6-9-23.6-9Z" style="fill: rgb(255, 255, 255); stroke: rgb(38, 50, 56); stroke-linecap: round; stroke-linejoin: round; transform-origin: 251.031px 275.059px 0px;" id="el7dpb9fq1h49" class="animable"></path><line x1="261.86" y1="295.9" x2="265.14" y2="297.59" style="fill: none; stroke: rgb(38, 50, 56); stroke-linecap: round; stroke-linejoin: round; transform-origin: 263.5px 296.745px 0px;" id="elecxepzo8mfm" class="animable"></line><line x1="251.41" y1="290.52" x2="259.68" y2="294.78" style="fill: none; stroke: rgb(38, 50, 56); stroke-linecap: round; stroke-linejoin: round; transform-origin: 255.545px 292.65px 0px;" id="elkixq7zhnlxh" class="animable"></line><path d="M170,235.7s5.83,10.39,6.59,15.21-.76,7.6-.76,7.6,25,5.34,28,5.34c1.52,0,1.4-4.39,4.1-5.37s8.52,2.84,11.05-2.52c1-2.06.31-2.84.65-5.31.73-5.17,2.75-8.5,2.5-13.31a76,76,0,0,0-1-8c0-.76,1.77-3.3,1.77-7.1a24.87,24.87,0,0,0-2-8.36,4.35,4.35,0,0,0,1.52-5.58c-1.52-3.8-12.42-7.6-24.07-7.6s-23.57,3.55-26.87,13.43S166.69,231.14,170,235.7Z" style="fill: rgb(255, 255, 255); stroke: rgb(38, 50, 56); stroke-linecap: round; stroke-linejoin: round; transform-origin: 195.52px 232.275px 0px;" id="elqe9j0044ivk" class="animable"></path><path d="M220.92,213.91a4.35,4.35,0,0,0,1.52-5.58c-1.52-3.8-12.42-7.6-24.07-7.6s-23.57,3.55-26.87,13.43-4.81,17-1.52,21.54c0,0,5.83,10.39,6.59,15.21a16.13,16.13,0,0,1,.2,3.21c4.21,1.92,11.33,3.16,18.3,2.36,8.87-1,11.15-7.35,11.15-7.35s-5.57-1.52-4.81-8.36,5.83-6.59,5.83-6.59a2.66,2.66,0,0,0,2.78-.25c1.53-1,0-5.32,0-5.32a10.47,10.47,0,0,0,5.83-4.57c2-3.54.51-4.56-1.77-6.84s-.76-4.81,0-5.83S220.92,213.91,220.92,213.91Z" style="fill: rgb(38, 50, 56); stroke: rgb(38, 50, 56); stroke-linecap: round; stroke-linejoin: round; transform-origin: 195.519px 228.728px 0px;" id="elncthxr8t69d" class="animable"></path><path d="M131.31,428.22s-7.92.53-10.3,1.85-7.4,20.34-7.4,28.26,1.06,8.71,3.44,9.51,18.75,1.85,23.24.79,3.43-4.23,2.11-6.87a48.11,48.11,0,0,0-4-6.07,4,4,0,0,1-.53-3.7c.53-1.85,4-10.83,2.91-15.32S131.31,428.22,131.31,428.22Z" style="fill: rgb(61, 61, 61); stroke: rgb(61, 61, 61); stroke-linecap: round; stroke-linejoin: round; transform-origin: 128.576px 448.649px 0px;" id="elrzcliejpknb" class="animable"></path><path d="M139,380.69s6.6,18.48,15.58,26.14a116.24,116.24,0,0,1,16.37,18S148,429,146.63,429s-5.55-3.43-8.19-3.43-8.19,2.64-8.19,2.64a49.56,49.56,0,0,1,6.08,11.89,30.93,30.93,0,0,1,1,14s.79,1.32,3.7.27,5-2.91,8.19-2.91,25.35-.26,31.69-1.58a32.37,32.37,0,0,0,17.16-10c4-4.75,6.34-12.94,4.76-16.9s-7.66-18-7.66-18.75-17.43-2.91-29.32-12.41-19.27-15.85-23.24-14.53S139,380.69,139,380.69Z" style="fill: rgb(38, 50, 56); stroke: rgb(38, 50, 56); stroke-linecap: round; stroke-linejoin: round; transform-origin: 166.789px 415.946px 0px;" id="eltd4wl8t2crr" class="animable"></path><path d="M205.78,360.09s28.26-4.49,47.8-1.32,24.57,6.6,24,11.88-16.64,25.62-23,33.54-36.18,34.33-36.71,35.12.79,1.85,1.32,4-3.7,7.65-3.7,7.65,3.44,2.38-8.71-1.58-20.07-4.49-20.07-4.49a27.71,27.71,0,0,1-.27-5.81c.27-2.38,4.49-5.28,5.29-5.81s8.45-10.83,11.35-14.79,13.74-17.69,13.74-17.69-28.53,10.56-47.54,6.6S142.93,394.15,139,380.69s8.71-18.23,17.69-24S205.78,360.09,205.78,360.09Z" style="fill: rgb(38, 50, 56); stroke: rgb(38, 50, 56); stroke-linecap: round; stroke-linejoin: round; transform-origin: 207.943px 403.227px 0px;" id="elgkortc8ohn" class="animable"></path><path d="M252.86,385.35c1.35-.75,2.65-1.52,3.89-2.29" style="fill: none; stroke: rgb(130, 130, 130); stroke-linecap: round; stroke-linejoin: round; transform-origin: 254.805px 384.205px 0px;" id="elczp38o5fo7o" class="animable"></path><path d="M216.88,400.76a267.38,267.38,0,0,0,31.84-13.21" style="fill: none; stroke: rgb(130, 130, 130); stroke-linecap: round; stroke-linejoin: round; transform-origin: 232.8px 394.155px 0px;" id="el29u99a53nh7" class="animable"></path><path d="M150.57,395.29s13.34,9,38.84,10.2" style="fill: none; stroke: rgb(130, 130, 130); stroke-linecap: round; stroke-linejoin: round; transform-origin: 169.99px 400.39px 0px;" id="elpkokc7kuar9" class="animable"></path><path d="M172.24,252.86s12.68.27,19.55.27,11.88,1.85,17.69,5S251.74,288,251.74,288s-6.87,16.64-11.89,22.71-9.51,7.92-9.51,7.92L219,310.44s-5.55,21.92-9,29.84a56.3,56.3,0,0,1-6.87,12.15l5.81,7.13s-10.3,13.73-24.56,20.33-25.09,6.87-34.59,5.55a43.78,43.78,0,0,1-19-7.92,18.61,18.61,0,0,0-3.17-2.12s4.23-43.31,4.49-45.95,12.94-62.33,16.37-68.93,12.42-7.92,16.91-8.18A20,20,0,0,1,172.24,252.86Z" style="fill: rgb(102, 80, 233); stroke: rgb(38, 50, 56); stroke-linecap: round; stroke-linejoin: round; transform-origin: 189.68px 319.159px 0px;" id="elt6hld3imyk8" class="animable"></path><polygon points="210.77 302.98 217.04 317.99 218.99 310.44 210.77 302.98" style="fill: rgb(38, 50, 56); transform-origin: 214.88px 310.485px 0px;" id="elgciagz28eb" class="animable"></polygon><ellipse cx="166.3" cy="248.51" rx="13.07" ry="12.81" style="fill: rgb(38, 50, 56); stroke: rgb(38, 50, 56); stroke-linecap: round; stroke-linejoin: round; transform-origin: 166.3px 248.51px 0px;" id="elb808zaljuyi" class="animable"></ellipse><line x1="203.17" y1="296.27" x2="201.29" y2="294.59" style="fill: none; stroke: rgb(38, 50, 56); stroke-linecap: round; stroke-linejoin: round; transform-origin: 202.23px 295.43px 0px;" id="ely1nx85q0neg" class="animable"></line><line x1="218.99" y1="310.44" x2="206.71" y2="299.44" style="fill: none; stroke: rgb(38, 50, 56); stroke-linecap: round; stroke-linejoin: round; transform-origin: 212.85px 304.94px 0px;" id="eljasgbgbokg" class="animable"></line><path d="M189.31,366.06c-.93.77-1.87,1.52-2.81,2.21" style="fill: none; stroke: rgb(38, 50, 56); stroke-linecap: round; stroke-linejoin: round; transform-origin: 187.905px 367.165px 0px;" id="ela6w1dbkrj4m" class="animable"></path><path d="M203.14,352.43a143.52,143.52,0,0,1-10.76,11" style="fill: none; stroke: rgb(38, 50, 56); stroke-linecap: round; stroke-linejoin: round; transform-origin: 197.76px 357.93px 0px;" id="el2oo7bn18cht" class="animable"></path><path d="M187.82,443.28s-9,15.84-7.39,17.69,14.79,7.92,20.34,10,29.31,3.16,31.95,2.11,3.43-6.87,1.85-8.19-14.26-5.54-15.85-7.39-3.17-6.61-3.17-6.61S197.33,443,187.82,443.28Z" style="fill: rgb(61, 61, 61); stroke: rgb(61, 61, 61); stroke-linecap: round; stroke-linejoin: round; transform-origin: 207.809px 458.38px 0px;" id="el5pqshfbv09l" class="animable"></path></g><defs>     <filter id="active" height="200%">         <feMorphology in="SourceAlpha" result="DILATED" operator="dilate" radius="2"></feMorphology>                <feFlood flood-color="#32DFEC" flood-opacity="1" result="PINK"></feFlood>        <feComposite in="PINK" in2="DILATED" operator="in" result="OUTLINE"></feComposite>        <feMerge>            <feMergeNode in="OUTLINE"></feMergeNode>            <feMergeNode in="SourceGraphic"></feMergeNode>        </feMerge>    </filter>    <filter id="hover" height="200%">        <feMorphology in="SourceAlpha" result="DILATED" operator="dilate" radius="2"></feMorphology>                <feFlood flood-color="#ff0000" flood-opacity="0.5" result="PINK"></feFlood>        <feComposite in="PINK" in2="DILATED" operator="in" result="OUTLINE"></feComposite>        <feMerge>            <feMergeNode in="OUTLINE"></feMergeNode>            <feMergeNode in="SourceGraphic"></feMergeNode>        </feMerge>            <feColorMatrix type="matrix" values="0   0   0   0   0                0   1   0   0   0                0   0   0   0   0                0   0   0   1   0 "></feColorMatrix>    </filter></defs></svg>