<?xml version="1.0" encoding="UTF-8" standalone="no"?>
<svg
   class="animated"
   id="freepik_stories-learning-languages"
   viewBox="0 0 500 500"
   version="1.1"
   sodipodi:docname="onlinelessons.svg"
   inkscape:version="1.3.2 (091e20e, 2023-11-25, custom)"
   xmlns:inkscape="http://www.inkscape.org/namespaces/inkscape"
   xmlns:sodipodi="http://sodipodi.sourceforge.net/DTD/sodipodi-0.dtd"
   xmlns="http://www.w3.org/2000/svg"
   xmlns:svg="http://www.w3.org/2000/svg">
  <sodipodi:namedview
     id="namedview32"
     pagecolor="#ffffff"
     bordercolor="#000000"
     borderopacity="0.25"
     inkscape:showpageshadow="2"
     inkscape:pageopacity="0.0"
     inkscape:pagecheckerboard="0"
     inkscape:deskcolor="#d1d1d1"
     inkscape:zoom="8.144"
     inkscape:cx="197.81434"
     inkscape:cy="80.734283"
     inkscape:window-width="1366"
     inkscape:window-height="705"
     inkscape:window-x="-8"
     inkscape:window-y="-8"
     inkscape:window-maximized="1"
     inkscape:current-layer="freepik--speech-bubbles--inject-137" />
  <style
     id="style1">svg#freepik_stories-learning-languages:not(.animated) .animable {opacity: 0;}svg#freepik_stories-learning-languages.animated #freepik--speech-bubbles--inject-137 {animation: 1.5s Infinite  linear floating;animation-delay: 0s;}            @keyframes floating {                0% {                    opacity: 1;                    transform: translateY(0px);                }                50% {                    transform: translateY(-10px);                }                100% {                    opacity: 1;                    transform: translateY(0px);                }            }        </style>
  <g
     id="freepik--background-complete--inject-137"
     style="transform-origin: 250px 196.084px 0px;"
     class="animable">
    <rect
       x="46.11"
       y="334.62"
       width="26.48"
       height="11.19"
       style="fill: rgb(235, 235, 235); transform-origin: 59.35px 340.215px 0px;"
       id="elhtshhb42nhs"
       class="animable" />
    <rect
       x="31.34"
       y="348.73"
       width="26.48"
       height="11.19"
       style="fill: rgb(235, 235, 235); transform-origin: 44.58px 354.325px 0px;"
       id="el3d0vjlltgtm"
       class="animable" />
    <rect
       x="217.63"
       y="119.88"
       width="26.48"
       height="11.19"
       style="fill: rgb(235, 235, 235); transform-origin: 230.87px 125.475px 0px;"
       id="elmpzgix4c3a"
       class="animable" />
    <rect
       x="202.85"
       y="133.99"
       width="26.48"
       height="11.19"
       style="fill: rgb(235, 235, 235); transform-origin: 216.09px 139.585px 0px;"
       id="elu19v3hx8oy"
       class="animable" />
    <rect
       x="188.14"
       y="119.88"
       width="26.48"
       height="11.19"
       style="fill: rgb(235, 235, 235); transform-origin: 201.38px 125.475px 0px;"
       id="el1b7xj9jicro"
       class="animable" />
    <rect
       x="442.18"
       y="348.73"
       width="26.48"
       height="11.19"
       style="fill: rgb(235, 235, 235); transform-origin: 455.42px 354.325px 0px;"
       id="elapdl5l3vvvp"
       class="animable" />
    <rect
       x="427.41"
       y="33.33"
       width="26.48"
       height="11.19"
       style="fill: rgb(235, 235, 235); transform-origin: 440.65px 38.925px 0px;"
       id="elkmtv262phwq"
       class="animable" />
    <rect
       x="442.18"
       y="47.44"
       width="26.48"
       height="11.19"
       style="fill: rgb(235, 235, 235); transform-origin: 455.42px 53.035px 0px;"
       id="ell7myklkf38"
       class="animable" />
    <rect
       x="46.11"
       y="33.33"
       width="26.48"
       height="11.19"
       style="fill: rgb(235, 235, 235); transform-origin: 59.35px 38.925px 0px;"
       id="el8cwh3hefz8t"
       class="animable" />
    <rect
       x="283.52"
       y="90.33"
       width="160.16"
       height="6.88"
       style="fill: rgb(235, 235, 235); transform-origin: 363.6px 93.77px 0px;"
       id="elc2qit466e9"
       class="animable" />
    <polygon
       points="306.81 124.27 300.57 124.27 298.07 97.2 306.81 97.2 306.81 124.27"
       style="fill: rgb(235, 235, 235); transform-origin: 302.44px 110.735px 0px;"
       id="elk5eg3bpdkb"
       class="animable" />
    <polygon
       points="420.4 124.27 426.64 124.27 429.14 97.2 420.4 97.2 420.4 124.27"
       style="fill: rgb(235, 235, 235); transform-origin: 424.77px 110.735px 0px;"
       id="eleg1i16pjprw"
       class="animable" />
    <polygon
       points="298.07 97.21 306.81 97.21 306.81 106.53 298.93 106.53 298.07 97.21"
       style="fill: rgb(219, 219, 219); transform-origin: 302.44px 101.87px 0px;"
       id="el1g3b7zfmrba"
       class="animable" />
    <polygon
       points="429.14 97.21 428.28 106.53 420.4 106.53 420.4 97.21 429.14 97.21"
       style="fill: rgb(219, 219, 219); transform-origin: 424.77px 101.87px 0px;"
       id="el0ok5gtwcf2q"
       class="animable" />
    <path
       d="M341.52,49.07C334.41,58.7,327,69.87,325.2,81.94c0,.18.27.24.31.06a73.24,73.24,0,0,1,3.14-9.67c4.68-1.28,9.26-2.34,11.72-7s2.18-11,1.7-16.17C342,48.9,341.66,48.89,341.52,49.07Z"
       style="fill: rgb(235, 235, 235); transform-origin: 333.796px 65.5283px 0px;"
       id="eldozborg5i5"
       class="animable" />
    <path
       d="M328.72,72.24A79.88,79.88,0,0,1,341.23,52s.08,0,0,.06a85.83,85.83,0,0,0-8.53,13.42c2.35-2.39,4.93-4.53,7.16-7.07,0,0,.11,0,.07.07-2.21,2.66-4.63,5.55-7.51,7.51q-1.17,2.14-2.35,4.29c.2-.11.4-.2.6-.3,0,0,.06,0,0,0-.22.11-.44.23-.67.33-.37.67-.74,1.35-1.13,2C328.87,72.53,328.66,72.39,328.72,72.24Z"
       style="fill: rgb(166, 166, 166); transform-origin: 334.987px 62.212px 0px;"
       id="elj4m9g8glij"
       class="animable" />
    <path
       d="M331.1,69.74a41.36,41.36,0,0,0,5.45-3.64c.05,0,.12,0,.07.07a29.2,29.2,0,0,1-5.44,3.71C331.09,69.92,331,69.79,331.1,69.74Z"
       style="fill: rgb(166, 166, 166); transform-origin: 333.847px 67.9938px 0px;"
       id="elofnbvzrjo5"
       class="animable" />
    <path
       d="M324.42,81.83c0,.14.26.14.26,0,0-4,0-8,.06-12,1-2,3.21-3.19,4.73-4.84a21.29,21.29,0,0,0,2.83-3.94,28.38,28.38,0,0,0,3.29-11c.42-4.25-1.19-18.28-3-17.79-.93.25-3.93,7.2-4.73,9.49A65.76,65.76,0,0,0,325,53.45,124.71,124.71,0,0,0,324.42,81.83Z"
       style="fill: rgb(235, 235, 235); transform-origin: 329.766px 57.0912px 0px;"
       id="eldy1d30mmmug"
       class="animable" />
    <path
       d="M324.39,64.68l0,0a89.94,89.94,0,0,1,2.41-15c1.14-5.26,2.48-10.21,5.18-14.9a.08.08,0,0,1,.14.08A55.65,55.65,0,0,0,328,46.29c.19-.28.41-.55.59-.82.08-.1.25,0,.18.11a8.3,8.3,0,0,1-.85,1.19l0,0c-.93,3.75-1.6,7.59-2.17,11.43l.12-.15s.08,0,.06,0l-.22.38c-.29,1.95-.56,3.89-.83,5.81a27.31,27.31,0,0,0,8.09-10.75s0,0,0,0a22.31,22.31,0,0,1-8.17,11.13c-.08.52-.15,1-.22,1.56,0,.1-.19.08-.19,0,0-.46,0-.92,0-1.37C324.35,64.8,324.33,64.73,324.39,64.68Z"
       style="fill: rgb(166, 166, 166); transform-origin: 328.661px 50.4935px 0px;"
       id="elibk82amo04"
       class="animable" />
    <path
       d="M326,57.39a80.44,80.44,0,0,0,7.06-12.15c0-.05.1,0,.09,0a39.56,39.56,0,0,1-7,12.22C326.09,57.56,326,57.47,326,57.39Z"
       style="fill: rgb(166, 166, 166); transform-origin: 329.575px 51.361px 0px;"
       id="elwe1cr8vvhbs"
       class="animable" />
    <path
       d="M329.54,44.26c1.1-1.94,2.25-3.83,3.29-5.81,0-.05.1,0,.08,0a30.27,30.27,0,0,1-3.2,5.86A.1.1,0,0,1,329.54,44.26Z"
       style="fill: rgb(166, 166, 166); transform-origin: 331.226px 41.3841px 0px;"
       id="elq76sukiof6s"
       class="animable" />
    <path
       d="M329.11,45.11a0,0,0,1,1,0,0A0,0,0,0,1,329.11,45.11Z"
       style="fill: rgb(166, 166, 166); transform-origin: 329.11px 45.11px 0px;"
       id="elouqbql6553"
       class="animable" />
    <path
       d="M322.47,71.64a40.35,40.35,0,0,1-.92,7.83l.12.86a37.51,37.51,0,0,0,1.4-8.73.28.28,0,0,0,0-.27h0a57.31,57.31,0,0,0-.88-11.83c-1.23-7.3-3.92-14.31-9-19.79a.36.36,0,0,0-.56.12c-2.06,5.23-1.34,11.46.41,16.68a30.22,30.22,0,0,0,4,7.92C318.83,66.88,321.05,69,322.47,71.64Z"
       style="fill: rgb(235, 235, 235); transform-origin: 317.24px 59.9767px 0px;"
       id="elrgybdct8kj"
       class="animable" />
    <path
       d="M313.79,42.15c4.83,7.83,8.19,17.13,8.6,26.38,0,.17-.27.21-.29,0-.12-.83-.24-1.65-.38-2.47h0a31.44,31.44,0,0,1-5.48-6.32s0-.09.07-.05a66.23,66.23,0,0,0,5.32,5.79c-.35-2.05-.76-4.06-1.24-6.05L320,59c-.08-.09.06-.24.15-.14l.11.13a68.39,68.39,0,0,0-2.52-8,24.11,24.11,0,0,1-3.5-4.5s0-.07.07,0a35.25,35.25,0,0,0,2.23,3c.32.37.68.72,1,1.09a60.92,60.92,0,0,0-4-8.24C313.54,42.14,313.72,42,313.79,42.15Z"
       style="fill: rgb(166, 166, 166); transform-origin: 317.965px 55.38px 0px;"
       id="elnas0r0023oi"
       class="animable" />
    <path
       d="M314.77,51.82c1.56,2.1,3.34,4.1,4.79,6.27,0,.06-.05.13-.1.08a31.93,31.93,0,0,1-4.8-6.29A.06.06,0,0,1,314.77,51.82Z"
       style="fill: rgb(166, 166, 166); transform-origin: 317.106px 54.9872px 0px;"
       id="elys28akrybhh"
       class="animable" />
    <path
       d="M319.78,58.58l.06.06a.05.05,0,0,1-.07.08l-.07-.07A.05.05,0,0,1,319.78,58.58Z"
       style="fill: rgb(166, 166, 166); transform-origin: 319.773px 58.6475px 0px;"
       id="elqtdngvhf94"
       class="animable" />
    <path
       d="M305.48,55.23a24.08,24.08,0,0,0,5.1,12,12.62,12.62,0,0,0,4.13,3.22c1.79.89,3.66,1.91,5.51,2.63A35.63,35.63,0,0,1,322.17,80l.18-.62c-1.18-10.2-7.79-18.93-16.24-24.53A.41.41,0,0,0,305.48,55.23Z"
       style="fill: rgb(235, 235, 235); transform-origin: 313.914px 67.3925px 0px;"
       id="el4zwojlezv7x"
       class="animable" />
    <path
       d="M308.4,58.25c-.06,0,0-.16.09-.11A34.55,34.55,0,0,1,319.25,71.4c.06.14-.13.27-.21.13-.39-.69-.79-1.36-1.2-2h0a11.57,11.57,0,0,1-5.19-3s0-.09.06,0a11.52,11.52,0,0,0,2.44,1.71,26,26,0,0,0,2.45,1c-.72-1.13-1.46-2.22-2.24-3.28a22.5,22.5,0,0,1-5.8-3.25c-.05,0,0-.13.06-.1A55.89,55.89,0,0,0,315,65.38,48.18,48.18,0,0,0,311.2,61c-.65-.35-1.32-.7-1.95-1.07a0,0,0,0,1,0-.09,6.91,6.91,0,0,1,1.5.73C310,59.75,309.24,59,308.4,58.25Z"
       style="fill: rgb(166, 166, 166); transform-origin: 313.819px 64.8602px 0px;"
       id="el4sz4husngsl"
       class="animable" />
    <path
       d="M308.58,61.77a2.62,2.62,0,0,1,.32.23s0,.07,0,.06l-.33-.19C308.47,61.83,308.52,61.74,308.58,61.77Z"
       style="fill: rgb(166, 166, 166); transform-origin: 308.706px 61.9125px 0px;"
       id="el2toy0ycd5l6"
       class="animable" />
    <polygon
       points="332.74 90.33 315.34 90.33 316.2 78.92 316.53 75.2 331.4 75.2 331.73 78.92 332.74 90.33"
       style="fill: rgb(219, 219, 219); transform-origin: 324.04px 82.765px 0px;"
       id="elonibufvf5di"
       class="animable" />
    <polygon
       points="331.73 78.92 316.2 78.92 316.53 75.2 331.4 75.2 331.73 78.92"
       style="fill: rgb(199, 199, 199); transform-origin: 323.965px 77.06px 0px;"
       id="elypb4x8qob3"
       class="animable" />
    <rect
       x="315.34"
       y="72.15"
       width="17.24"
       height="3.81"
       style="fill: rgb(219, 219, 219); transform-origin: 323.96px 74.055px 0px;"
       id="elzmuhxfe971"
       class="animable" />
    <g
       id="el774tp7fl8us">
      <rect
         x="349.1"
         y="64.38"
         width="41.41"
         height="10.43"
         style="fill: rgb(199, 199, 199); transform-origin: 369.805px 69.595px 0px; transform: rotate(90deg);"
         class="animable"
         id="rect1" />
    </g>
    <g
       id="el1v28rap9gbc">
      <rect
         x="367.53"
         y="43.74"
         width="4.55"
         height="10.43"
         style="fill: rgb(219, 219, 219); transform-origin: 369.805px 48.955px 0px; transform: rotate(90deg);"
         class="animable"
         id="rect2" />
    </g>
    <g
       id="el7bb8w48xq7">
      <rect
         x="368.96"
         y="52.69"
         width="1.69"
         height="10.43"
         style="fill: rgb(219, 219, 219); transform-origin: 369.805px 57.905px 0px; transform: rotate(90deg);"
         class="animable"
         id="rect3" />
    </g>
    <g
       id="elvmev1nw953d">
      <rect
         x="367.53"
         y="77.38"
         width="4.55"
         height="10.43"
         style="fill: rgb(219, 219, 219); transform-origin: 369.805px 82.595px 0px; transform: rotate(90deg);"
         class="animable"
         id="rect4" />
    </g>
    <g
       id="elo6z2pnzqfk">
      <rect
         x="354.51"
         y="62.51"
         width="48.3"
         height="7.29"
         style="fill: rgb(219, 219, 219); transform-origin: 378.66px 66.155px 0px; transform: rotate(90deg);"
         class="animable"
         id="rect5" />
    </g>
    <g
       id="elh30p75qzp3">
      <rect
         x="369.34"
         y="53.64"
         width="18.58"
         height="4.37"
         style="fill: rgb(235, 235, 235); transform-origin: 378.63px 55.825px 0px; transform: rotate(90deg);"
         class="animable"
         id="rect6" />
    </g>
    <g
       id="ely0l1lye0znj">
      <rect
         x="390.33"
         y="67.03"
         width="48.3"
         height="7.29"
         style="fill: rgb(199, 199, 199); transform-origin: 414.48px 70.675px 0px; transform: rotate(44.67deg);"
         class="animable"
         id="rect7" />
    </g>
    <g
       id="elfmqujegaef">
      <rect
         x="407.71"
         y="70.95"
         width="18.58"
         height="4.37"
         style="fill: rgb(219, 219, 219); transform-origin: 417px 73.135px 0px; transform: rotate(44.67deg);"
         class="animable"
         id="rect8" />
    </g>
    <g
       id="elhlfkhkujfdl">
      <rect
         x="370.14"
         y="65.78"
         width="36.69"
         height="12.38"
         style="fill: rgb(166, 166, 166); transform-origin: 388.485px 71.97px 0px; transform: rotate(90deg);"
         class="animable"
         id="rect9" />
    </g>
    <g
       id="el9uqmgslu8r">
      <rect
         x="386.78"
         y="78.52"
         width="3.42"
         height="12.38"
         style="fill: rgb(199, 199, 199); transform-origin: 388.49px 84.71px 0px; transform: rotate(90deg);"
         class="animable"
         id="rect10" />
    </g>
    <g
       id="eltc7vxhhyvm8">
      <rect
         x="387.82"
         y="73.9"
         width="1.33"
         height="12.38"
         style="fill: rgb(199, 199, 199); transform-origin: 388.485px 80.09px 0px; transform: rotate(90deg);"
         class="animable"
         id="rect11" />
    </g>
    <g
       id="el8kp49u18u3j">
      <rect
         x="336.68"
         y="68.52"
         width="34.48"
         height="8.55"
         style="fill: rgb(166, 166, 166); transform-origin: 353.92px 72.795px 0px; transform: rotate(113.23deg);"
         class="animable"
         id="rect12" />
    </g>
    <g
       id="elafmqs2ns27">
      <rect
         x="347.59"
         y="79.53"
         width="3.21"
         height="8.55"
         style="fill: rgb(199, 199, 199); transform-origin: 349.195px 83.805px 0px; transform: rotate(113.23deg);"
         class="animable"
         id="rect13" />
    </g>
    <g
       id="el6scfza6asjv">
      <rect
         x="355.68"
         y="60.69"
         width="3.21"
         height="8.55"
         style="fill: rgb(199, 199, 199); transform-origin: 357.285px 64.965px 0px; transform: rotate(113.23deg);"
         class="animable"
         id="rect14" />
    </g>
    <g
       id="elbkknh5iat19">
      <rect
         x="354.92"
         y="64.76"
         width="1.25"
         height="8.55"
         style="fill: rgb(199, 199, 199); transform-origin: 355.545px 69.035px 0px; transform: rotate(113.23deg);"
         class="animable"
         id="rect15" />
    </g>
    <path
       d="M84.78,82V33.47h48.51V82Zm2.29-46.22V79.68H131V35.75Z"
       style="fill: rgb(199, 199, 199); transform-origin: 109.035px 57.735px 0px;"
       id="el74as7epqiii"
       class="animable" />
    <g
       id="el1dd0a3qk9l6">
      <rect
         x="103.13"
         y="46.46"
         width="15.19"
         height="34.24"
         style="fill: rgb(235, 235, 235); transform-origin: 110.725px 63.58px 0px; transform: rotate(90deg);"
         class="animable"
         id="rect16" />
    </g>
    <g
       id="elutbfmtjzfr">
      <rect
         x="94.62"
         y="107.94"
         width="11.47"
         height="33.14"
         style="fill: rgb(199, 199, 199); transform-origin: 100.355px 124.51px 0px; transform: rotate(180deg);"
         class="animable"
         id="rect17" />
    </g>
    <g
       id="eldu9iwffk4j7">
      <rect
         x="96.79"
         y="167.21"
         width="14.41"
         height="24.11"
         style="fill: rgb(235, 235, 235); transform-origin: 103.995px 179.265px 0px; transform: rotate(-90deg);"
         class="animable"
         id="rect18" />
    </g>
    <path
       d="M84.78,147.13V98.62h48.51v48.51Zm2.29-46.22v43.93H131V100.91Z"
       style="fill: rgb(199, 199, 199); transform-origin: 109.035px 122.875px 0px;"
       id="el31d38odg40k"
       class="animable" />
    <path
       d="M84.78,212.28v-48.5h48.51v48.5Zm2.29-46.21V210H131V166.07Z"
       style="fill: rgb(199, 199, 199); transform-origin: 109.035px 188.03px 0px;"
       id="elj76gn0pvpui"
       class="animable" />
    <g
       id="eljmakwy4c3ui">
      <rect
         x="100.26"
         y="48.95"
         width="17.54"
         height="17.54"
         style="fill: rgb(199, 199, 199); transform-origin: 109.03px 57.72px 0px; transform: rotate(90deg);"
         class="animable"
         id="rect19" />
    </g>
    <g
       id="elk8uovlxm42">
      <rect
         x="100.26"
         y="114.1"
         width="17.54"
         height="17.54"
         style="fill: rgb(235, 235, 235); transform-origin: 109.03px 122.87px 0px; transform: rotate(90deg);"
         class="animable"
         id="rect20" />
    </g>
    <g
       id="elhsk2pop3n">
      <rect
         x="100.26"
         y="179.26"
         width="17.54"
         height="17.54"
         style="fill: rgb(199, 199, 199); transform-origin: 109.03px 188.03px 0px; transform: rotate(90deg);"
         class="animable"
         id="rect21" />
    </g>
  </g>
  <g
     id="freepik--Shadow--inject-137"
     style="transform-origin: 250px 441.88px 0px;"
     class="animable">
    <ellipse
       cx="250"
       cy="441.88"
       rx="180.39"
       ry="24.31"
       style="fill: rgb(235, 235, 235); transform-origin: 250px 441.88px 0px;"
       id="eliwkv4jxjxt9"
       class="animable" />
  </g>
  <g
     id="freepik--Floor--inject-137"
     style="transform-origin: 250px 403.49px 0px;"
     class="animable">
    <polygon
       points="33.4 403.49 87.55 403.25 141.7 403.16 250 402.99 358.3 403.16 412.45 403.25 466.6 403.49 412.45 403.74 358.3 403.82 250 403.99 141.7 403.82 87.55 403.74 33.4 403.49"
       style="fill: rgb(38, 50, 56); transform-origin: 250px 403.49px 0px;"
       id="el4bxv538w1ib"
       class="animable" />
  </g>
  <g
     id="freepik--Plant--inject-137"
     style="transform-origin: 83.405px 288.045px 0px;"
     class="animable">
    <path
       d="M86.43,225.45s25-3.5,19.15-33.66C105.58,191.79,77.66,198.05,86.43,225.45Z"
       style="fill: rgb(102, 80, 233); transform-origin: 95.5961px 208.62px 0px;"
       id="el4a2bmn4f0o2"
       class="animable" />
    <g
       id="elzzv4hyr4gj">
      <path
         d="M86.43,225.45s25-3.5,19.15-33.66C105.58,191.79,77.66,198.05,86.43,225.45Z"
         style="opacity: 0.1; transform-origin: 95.5961px 208.62px 0px;"
         class="animable"
         id="path21" />
    </g>
    <path
       d="M87.7,219.16a47.78,47.78,0,0,1,1.7-4.5c0-.19,0-.39.06-.57,0-.42.08-.83.11-1.25.07-.9.12-1.8.18-2.7.1-1.8.22-3.61.25-5.41,0-.1.15-.09.15,0,0,1.81,0,3.61,0,5.42,0,.9-.08,1.8-.14,2.7,0,.2,0,.4,0,.6a54.38,54.38,0,0,1,5-8.57q1.29-1.8,2.74-3.46c1-1.14,2-2.23,3-3.36.07-.07.18,0,.11.12a44.3,44.3,0,0,0-4.82,6.4c-.76,1.15-1.47,2.33-2.16,3.53l.24-.09c.29-.13.59-.25.89-.36.67-.27,1.35-.52,2-.78,1.34-.49,2.68-1,4-1.49.08,0,.13.11,0,.14-1.33.53-2.64,1.09-4,1.66l-1.93.83-1,.4a2.73,2.73,0,0,1-.66.23c-.5.91-1,1.82-1.46,2.74a65.89,65.89,0,0,0-3.06,7.2l-.18.52a14.82,14.82,0,0,1,2-1l2.59-1.18c1.75-.8,3.49-1.62,5.17-2.57a.08.08,0,0,1,.08.14c-1.72.94-3.4,1.93-5.12,2.87-.86.46-1.73.92-2.61,1.35a8.69,8.69,0,0,1-2.35.94A29.62,29.62,0,0,0,87,226.75c-.27,3.41-.24,6.85-.32,10.27a0,0,0,0,1-.09,0c-.25-3.1-.39-6.23-.41-9.34A27.15,27.15,0,0,1,87.7,219.16Z"
       style="fill: rgb(38, 50, 56); transform-origin: 93.6349px 217.526px 0px;"
       id="elqobadxxbbtd"
       class="animable" />
    <path
       d="M91.55,201.41a29.63,29.63,0,0,1,.24,5.32,0,0,0,1,1-.07,0c-.1-1.76-.12-3.52-.32-5.28C91.39,201.35,91.53,201.32,91.55,201.41Z"
       style="fill: rgb(38, 50, 56); transform-origin: 91.6097px 204.043px 0px;"
       id="el9dsb5bkdjxb"
       class="animable" />
    <path
       d="M98.69,202.92a20,20,0,0,0,3.22-1.57c.08-.06.15.08.07.13A12.29,12.29,0,0,1,98.73,203C98.67,203.05,98.63,203,98.69,202.92Z"
       style="fill: rgb(38, 50, 56); transform-origin: 100.338px 202.178px 0px;"
       id="elmkwqyz2r2fg"
       class="animable" />
    <path
       d="M85.64,273.35c0-2.76.07-5.52.1-8.29.05-9.17.13-18.34.29-27.51q.19-10.92.51-21.84a.11.11,0,0,1,.07-.09c0-2,0-4,0-6,0-.05.06-.07.12-.07s.12,0,.12.08l0,6a.11.11,0,0,1,.06.09c.37,13,.7,25.92.77,38.88,0,2.63,0,5.27,0,7.9q.14,12.67.09,25.35c0,1.35,0,2.69,0,4,0,7.73-.08,15.46-.08,23.19,0,.42-.46.62-1,.64s-1.16-.2-1.16-.68c0-8.52-.06-17.05-.06-25.57C85.62,284.1,85.6,278.72,85.64,273.35Z"
       style="fill: rgb(38, 50, 56); transform-origin: 86.6266px 262.616px 0px;"
       id="eldltyqb7pi8q"
       class="animable" />
    <path
       d="M96.07,265s12-8.91,23.43-2.89,13.2,29.21,13.2,29.21-16.75,2.4-27.3-7.64C95.23,274,96.07,265,96.07,265Z"
       style="fill: rgb(102, 80, 233); transform-origin: 114.377px 275.796px 0px;"
       id="el5dvdqj1ba29"
       class="animable" />
    <path
       d="M92.8,265.51a14.3,14.3,0,0,1,7-.91,9.14,9.14,0,0,1,1.47-.14l1.7-.13,3.5-.25c2.37-.18,4.75-.32,7.12-.56.08,0,.1.14,0,.15-2.35.3-4.68.63-7,.87-1.21.12-2.41.25-3.63.33L102,265c.36.08.72.16,1.07.26a28.6,28.6,0,0,1,5.45,2.22c1,.17,1.89.43,2.82.65,1.48.35,3,.73,4.44,1.12,2.92.77,5.81,1.63,8.71,2.47a.08.08,0,0,1,0,.15c-2.89-.71-5.8-1.36-8.7-2.05-1.41-.34-2.82-.67-4.23-1l-1.1-.25a35.35,35.35,0,0,1,8.54,7.43,46.17,46.17,0,0,1,5.94,9.36c0,.09-.08.17-.13.08A45.81,45.81,0,0,0,117.6,276c.06.16.11.32.16.48.22.71.44,1.42.67,2.12.44,1.42.89,2.83,1.32,4.26,0,.09-.12.12-.15,0-.51-1.37-1-2.75-1.47-4.13l-.72-2-.36-1.05c0-.11-.08-.22-.11-.33a42,42,0,0,0-4.27-3.63,32.27,32.27,0,0,0-6.38-3.66l.12.62.36,1.64c.23,1.14.45,2.28.68,3.42.45,2.33.73,4.68,1.17,7,0,.1-.13.13-.15,0-.54-2.34-1.24-4.64-1.76-7-.26-1.17-.52-2.34-.77-3.52l-.33-1.65c-.06-.3-.13-.61-.17-.92-.22-.09-.43-.19-.65-.27-3.16-1.17-6.64-2-10-1.37a9.84,9.84,0,0,0-7.24,5.8c-.11.26-.52.1-.46-.17C87.74,268.76,90.16,266.62,92.8,265.51Z"
       style="fill: rgb(38, 50, 56); transform-origin: 106.012px 274.5px 0px;"
       id="el4l3ay7t666k"
       class="animable" />
    <path
       d="M111.2,275.41c.34,1.53.68,3,1,4.57a33.86,33.86,0,0,1,.84,4.45c0,.06-.08.06-.09,0a34.21,34.21,0,0,1-1-4.48c-.29-1.5-.59-3-.88-4.51C111,275.35,111.18,275.32,111.2,275.41Z"
       style="fill: rgb(38, 50, 56); transform-origin: 112.047px 279.915px 0px;"
       id="elpjksb2ciik"
       class="animable" />
    <path
       d="M122.82,279.29c1.53.77,3,1.65,4.62,2.29.1,0,0,.19-.07.14a49.68,49.68,0,0,1-4.58-2.38S122.79,279.27,122.82,279.29Z"
       style="fill: rgb(38, 50, 56); transform-origin: 125.136px 280.507px 0px;"
       id="elv16zlszltdo"
       class="animable" />
    <path
       d="M93.37,248.6s14.69.94,21.53-8.75,5.3-23.52,5.3-23.52-15.44,1.88-21.56,8.83S93.37,248.6,93.37,248.6Z"
       style="fill: rgb(102, 80, 233); transform-origin: 106.839px 232.477px 0px;"
       id="elpjobfgdhhn"
       class="animable" />
    <path
       d="M86.48,263.1c.5-1.58,1.14-3.13,1.73-4.67s1.18-3,1.83-4.4a91.41,91.41,0,0,1,4.4-8.66c1-1.78,2.15-3.51,3.29-5.22,0-.26.08-.52.12-.79.06-.45.13-.91.2-1.36.15-.93.31-1.86.46-2.79.34-2,.76-4,1.08-6.07,0-.1.17-.09.16,0-.3,2-.5,4-.78,6-.14,1-.27,2-.42,3,0,.35-.11.71-.17,1.06a106.42,106.42,0,0,1,7.27-9.42c.35-.41.72-.8,1.07-1.2,0-.12.1-.23.14-.34.11-.28.22-.56.32-.84.22-.58.43-1.17.64-1.75.41-1.15.78-2.31,1.09-3.5a.08.08,0,0,1,.15.05c-.3,1.2-.61,2.41-1,3.6-.17.57-.36,1.14-.56,1.71,0,.09-.07.18-.1.28,1.88-2.05,3.83-4,5.81-6a.08.08,0,0,1,.11.11,105.28,105.28,0,0,0-10.41,12.75,10.2,10.2,0,0,1,1.09-.27c1.13-.22,2.27-.38,3.41-.53,2.39-.3,4.78-.61,7.16-1,.1,0,.14.13,0,.15-2.28.45-4.53,1-6.79,1.48-1.07.24-2.14.45-3.21.66a20.11,20.11,0,0,0-2.58.74c-.24.34-.49.67-.72,1-1.08,1.57-2.11,3.17-3.13,4.79l1.5-.29c1.14-.22,2.28-.43,3.42-.62,2.24-.37,4.48-.76,6.69-1.26.1,0,.14.13,0,.15-2.25.53-4.47,1.14-6.7,1.74-1.08.28-2.16.54-3.25.78l-1.63.36a4.53,4.53,0,0,1-.66.11q-3.23,5.22-6,10.68c-.82,1.6-1.6,3.21-2.37,4.83s-1.46,3.38-2.18,5.07C86.89,263.61,86.36,263.47,86.48,263.1Z"
       style="fill: rgb(38, 50, 56); transform-origin: 100.562px 242.616px 0px;"
       id="eln96mnii3s9r"
       class="animable" />
    <path
       d="M101.51,229.33c.28-1.4.58-2.8.89-4.19,0-.1.16,0,.15,0-.28,1.38-.55,2.76-.8,4.14a41.15,41.15,0,0,1-.83,4.12s0,0,0,0A30.12,30.12,0,0,1,101.51,229.33Z"
       style="fill: rgb(38, 50, 56); transform-origin: 101.735px 229.248px 0px;"
       id="eldu4s858tdii"
       class="animable" />
    <path
       d="M110.08,228.93c.68-.34,1.4-.62,2.11-.89l1.12-.44.57-.23a2.84,2.84,0,0,0,.62-.27c.11-.08.18.11.07.13a2.89,2.89,0,0,0-.63.26l-.56.25-1.07.47a19.19,19.19,0,0,1-2.17.86A.08.08,0,0,1,110.08,228.93Z"
       style="fill: rgb(38, 50, 56); transform-origin: 112.339px 228.075px 0px;"
       id="elwmmrlxuyi4"
       class="animable" />
    <path
       d="M78.33,237.05s-8.89-16.61-22.42-19.18-21.8,11.35-21.8,11.35S44,241.82,56.39,244,78.33,237.05,78.33,237.05Z"
       style="fill: rgb(102, 80, 233); transform-origin: 56.22px 230.945px 0px;"
       id="el0agatzalfz9u"
       class="animable" />
    <path
       d="M46.85,225.31a36.64,36.64,0,0,1,10.61.13l-.6-.32c-1-.51-2-1-3-1.55a70.28,70.28,0,0,0-6.35-3.1.08.08,0,1,1,.07-.14c2.11,1,4.3,1.81,6.43,2.79,1.06.49,2.1,1,3.14,1.54.66.36,1.4.69,2.06,1.11a37.38,37.38,0,0,1,8.59,2.86c-.56-.61-1.12-1.23-1.69-1.84-1.26-1.38-2.5-2.83-3.88-4.09-.07-.06,0-.17.11-.1,1.41,1.28,2.91,2.47,4.28,3.81.67.65,1.3,1.32,1.93,2,.31.35.62.7.91,1.07A35.6,35.6,0,0,1,87.58,254c0,.09-.11.14-.14.05A41,41,0,0,0,77.5,237.2a39.07,39.07,0,0,0-18.12-10.48,39.67,39.67,0,0,0-12.51-1.14A.14.14,0,0,1,46.85,225.31Z"
       style="fill: rgb(38, 50, 56); transform-origin: 67.1678px 237.205px 0px;"
       id="el032lpr5bce6e"
       class="animable" />
    <g
       id="el86ijqavw6j4">
      <path
         d="M34.11,229.22S44,241.82,56.39,244c9.47,1.67,17.26-3.26,20.42-5.69l.68-1.13s-6.4-5.4-18.51-8.51S34.11,229.22,34.11,229.22Z"
         style="opacity: 0.1; transform-origin: 55.8px 235.878px 0px;"
         class="animable"
         id="path22" />
    </g>
    <path
       d="M54.71,219.39a34.63,34.63,0,0,1,3,2,19,19,0,0,1,2.61,2.38.08.08,0,0,1-.12.11c-.89-.78-1.8-1.56-2.73-2.3a30.09,30.09,0,0,0-2.84-2C54.54,219.47,54.62,219.34,54.71,219.39Z"
       style="fill: rgb(38, 50, 56); transform-origin: 57.466px 221.643px 0px;"
       id="elcp3vdal5eza"
       class="animable" />
    <path
       d="M47.28,222.2c.5.21,1,.39,1.52.6l1.5.63c.11,0,.06.22,0,.17L48.74,223c-.5-.2-1-.44-1.5-.64C47.15,222.31,47.19,222.17,47.28,222.2Z"
       style="fill: rgb(38, 50, 56); transform-origin: 48.7772px 222.902px 0px;"
       id="elzl6r46f5dk8"
       class="animable" />
    <path
       d="M80.11,258s-2.38,16.48-14.77,22.24-27.49,0-27.49,0S43.79,244.55,80.11,258Z"
       style="fill: rgb(102, 80, 233); transform-origin: 58.98px 268.885px 0px;"
       id="elmv5cuc2lp3d"
       class="animable" />
    <path
       d="M46.39,269.47c1.14-.13,2.28-.32,3.41-.53l1.66-.31.87-.18c.33-.31.66-.62,1-.93A50.55,50.55,0,0,1,60.91,262a43.17,43.17,0,0,1,4.54-2.33h-.23l-4.08.18c-2.72.12-5.44.18-8.15.36a.08.08,0,1,1,0-.15c2.73-.19,5.44-.49,8.16-.72l4-.36,2-.17.52-.06c.71-.26,1.42-.51,2.14-.74a19.31,19.31,0,0,1,10.49-.57c3.12.79,6.23,2.84,7,6.12,0,.11-.15.19-.2.08-1.16-2.75-4.21-4.13-7-4.7a16.77,16.77,0,0,0-5.61-.11,13.76,13.76,0,0,1-.63,2.49c-.34,1.16-.68,2.32-1,3.48-.7,2.31-1.48,4.6-2.16,6.92a.08.08,0,0,1-.15,0c.58-2.31,1.06-4.65,1.62-7l.84-3.41A19.39,19.39,0,0,1,73.7,259a31.38,31.38,0,0,0-3.22.75,47.78,47.78,0,0,0-5.61,2.06c-.18,1.18-.45,2.34-.72,3.5-.33,1.45-.71,2.89-1.17,4.31a.07.07,0,0,1-.14,0,2.56,2.56,0,0,0,0-.27h0c.27-1.35.57-2.69.86-4,.23-1.08.44-2.17.67-3.26-1.54.7-3.05,1.45-4.51,2.29,0,.34-.12.68-.16,1-.09.56-.2,1.12-.3,1.69-.23,1.27-.49,2.54-.79,3.79A61.48,61.48,0,0,1,56.54,278a.07.07,0,0,1,0,.09l-.07.08c-.06.07-.14,0-.13-.07.57-2.45,1.23-4.87,1.77-7.32.26-1.22.53-2.44.78-3.67.12-.61.23-1.23.35-1.85,0-.17.06-.36.09-.55a51.31,51.31,0,0,0-4.83,3.22,52.39,52.39,0,0,0-7.38,6.74c-.09.1-.27,0-.18-.15a45.85,45.85,0,0,1,3-3.6c.62-.67,1.27-1.31,1.93-1.94l-.21,0-1.74.27c-1.15.15-2.3.26-3.45.39C46.33,269.63,46.29,269.48,46.39,269.47Z"
       style="fill: rgb(38, 50, 56); transform-origin: 66.8172px 267.584px 0px;"
       id="elh4qit7r7mmr"
       class="animable" />
    <path
       d="M55.09,275.06h0c0-.14,0-.29.07-.43a4.77,4.77,0,0,0,.15-.54h0c.25-1.1.47-2.21.67-3.33,0-.07.13-.05.13,0a13.53,13.53,0,0,1-.94,4.31s-.1,0-.09,0Z"
       style="fill: rgb(38, 50, 56); transform-origin: 55.5947px 272.892px 0px;"
       id="eloxfot5tk22b"
       class="animable" />
    <path
       d="M65.46,274.8a.08.08,0,0,1,.08-.07c.34-1.46.68-2.92,1-4.39.16-.77.32-1.55.47-2.32.08-.42.15-.83.23-1.25a3.5,3.5,0,0,1,.26-1.07.08.08,0,0,1,.14,0,7,7,0,0,1-.31,2.21c-.15.8-.31,1.61-.48,2.41-.36,1.62-.77,3.24-1.23,4.84a.08.08,0,0,1-.16,0Z"
       style="fill: rgb(38, 50, 56); transform-origin: 66.5508px 270.449px 0px;"
       id="elraj5e2zjmj8"
       class="animable" />
    <path
       d="M47.52,264.73c2.26-.31,4.52-.64,6.79-.91.09,0,.13.13,0,.14-2.25.34-4.52.62-6.79.92C47.46,264.89,47.42,264.74,47.52,264.73Z"
       style="fill: rgb(38, 50, 56); transform-origin: 50.9261px 264.35px 0px;"
       id="el2tm9d8yjvt6"
       class="animable" />
    <path
       d="M86.45,219.31S94,186.06,58.3,172.6C58.3,172.6,48.4,216.37,86.45,219.31Z"
       style="fill: rgb(102, 80, 233); transform-origin: 72.1287px 195.955px 0px;"
       id="elamc7i215b87"
       class="animable" />
    <path
       d="M78.74,200.45c-.13-.08-.26-.17-.38-.23-.68-.37-1.35-.75-2-1.13l-4.15-2.32c-2.72-1.52-5.42-3.11-8.16-4.6-.09,0,0-.18.08-.13,2.75,1.49,5.55,2.89,8.32,4.36l4.09,2.16,1.67.88c-1.19-2.26-2.46-4.47-3.86-6.61-1.87-2.84-3.91-5.56-6-8.21a.12.12,0,0,1,.17-.17,56.36,56.36,0,0,1,8.26,10.13c0-.12,0-.24,0-.35,0-.83-.06-1.65-.07-2.48,0-1.62,0-3.25,0-4.87,0-.1.15-.1.16,0,.06,1.6.26,3.19.35,4.79,0,.8.08,1.59.1,2.39,0,.43,0,.92,0,1.39.73,1.18,1.44,2.36,2.11,3.57a59.68,59.68,0,0,1,3.19,6.7c0-.83.09-1.66.14-2.49.1-1.82.33-3.63.4-5.45,0-.1.16-.1.16,0,0,1.82,0,3.64,0,5.47,0,.91-.06,1.82-.12,2.72l-.06,1a61.2,61.2,0,0,1,2.7,9.14,100,100,0,0,1,1.33,10,0,0,0,1,1,0,0,53.58,53.58,0,0,0-1.9-8.95q-.66-2.35-1.41-4.68c-1.49-.7-2.91-1.58-4.35-2.37s-3-1.64-4.48-2.46c-3-1.63-6-3.3-9-4.74-.09,0,0-.17.08-.13,3.11,1.41,6.25,2.75,9.31,4.29,1.52.76,3,1.58,4.51,2.42,1.24.7,2.51,1.4,3.7,2.2-.35-1-.71-2.06-1.11-3.08A88.74,88.74,0,0,0,78.74,200.45Z"
       style="fill: rgb(38, 50, 56); transform-origin: 75.5912px 205.262px 0px;"
       id="elf828gv4egnr"
       class="animable" />
    <path
       d="M81.75,192.85c0-.1.16-.1.16,0-.13,1.9-.2,3.8-.4,5.69a.09.09,0,0,1-.17,0C81.41,196.63,81.61,194.74,81.75,192.85Z"
       style="fill: rgb(38, 50, 56); transform-origin: 81.625px 195.688px 0px;"
       id="elzv6lv0gqqig"
       class="animable" />
    <path
       d="M64.62,199.2c2.24.9,4.49,1.75,6.72,2.69.06,0,0,.12,0,.1-2.26-.85-4.49-1.77-6.73-2.64C64.49,199.31,64.53,199.16,64.62,199.2Z"
       style="fill: rgb(38, 50, 56); transform-origin: 67.9509px 200.593px 0px;"
       id="eltqwa1ei4fr"
       class="animable" />
    <path
       d="M61.23,183.86a59.65,59.65,0,0,1,6.35,3.41.09.09,0,0,1-.1.16c-2.07-1.21-4.18-2.37-6.34-3.44C61.06,184,61.14,183.82,61.23,183.86Z"
       style="fill: rgb(38, 50, 56); transform-origin: 64.3657px 185.649px 0px;"
       id="elbv4r1m63sa7"
       class="animable" />
    <g
       id="el4rqylnqcl1g">
      <rect
         x="61.76"
         y="291.23"
         width="51.53"
         height="54.32"
         style="fill: rgb(55, 71, 79); transform-origin: 87.525px 318.39px 0px; transform: rotate(180deg);"
         class="animable"
         id="rect22" />
    </g>
    <rect
       x="114.21"
       y="310.45"
       width="2.64"
       height="93.04"
       style="fill: rgb(38, 50, 56); transform-origin: 115.53px 356.97px 0px;"
       id="elcblsox5dfnk"
       class="animable" />
    <rect
       x="58.5"
       y="310.45"
       width="2.64"
       height="93.04"
       style="fill: rgb(38, 50, 56); transform-origin: 59.82px 356.97px 0px;"
       id="elyl28unwjy5"
       class="animable" />
    <rect
       x="84.95"
       y="310.45"
       width="2.64"
       height="93.04"
       style="fill: rgb(38, 50, 56); transform-origin: 86.27px 356.97px 0px;"
       id="eletoip3avkc8"
       class="animable" />
    <g
       id="elzor6hmwba1">
      <rect
         x="59.81"
         y="342.07"
         width="55.71"
         height="7.52"
         style="fill: rgb(38, 50, 56); transform-origin: 87.665px 345.83px 0px; transform: rotate(180deg);"
         class="animable"
         id="rect23" />
    </g>
  </g>
  <g
     id="freepik--Sofa--inject-137"
     style="transform-origin: 250.005px 279.915px 0px;"
     class="animable">
    <rect
       x="93.88"
       y="233.97"
       width="50.47"
       height="132.43"
       style="fill: rgb(102, 80, 233); transform-origin: 119.115px 300.185px 0px;"
       id="elksg5kn4x76"
       class="animable" />
    <g
       id="elzcmpsz4y83d">
      <rect
         x="93.88"
         y="233.97"
         width="50.47"
         height="132.43"
         style="opacity: 0.2; transform-origin: 119.115px 300.185px 0px;"
         class="animable"
         id="rect24" />
    </g>
    <rect
       x="355.66"
       y="233.97"
       width="50.47"
       height="132.43"
       style="fill: rgb(102, 80, 233); transform-origin: 380.895px 300.185px 0px;"
       id="elr5gld3aogsi"
       class="animable" />
    <g
       id="elyb6egfj9ofd">
      <rect
         x="355.66"
         y="233.97"
         width="50.47"
         height="132.43"
         style="opacity: 0.2; transform-origin: 380.895px 300.185px 0px;"
         class="animable"
         id="rect25" />
    </g>
    <rect
       x="144.34"
       y="140.75"
       width="211.33"
       height="225.65"
       style="fill: rgb(102, 80, 233); transform-origin: 250.005px 253.575px 0px;"
       id="el434kzqz9lrf"
       class="animable" />
    <g
       id="elloj00jazfpl">
      <rect
         x="144.34"
         y="140.75"
         width="211.33"
         height="225.65"
         style="opacity: 0.2; transform-origin: 250.005px 253.575px 0px;"
         class="animable"
         id="rect26" />
    </g>
    <g
       id="el4les7ar0mu">
      <g
         style="opacity: 0.2; transform-origin: 250.325px 300.18px 0px;"
         class="animable"
         id="g26">
        <rect
           x="355.69"
           y="233.97"
           width="1.2"
           height="132.42"
           id="elamtu97jnsbb"
           style="transform-origin: 356.29px 300.18px 0px;"
           class="animable" />
        <rect
           x="143.74"
           y="233.97"
           width="1.2"
           height="132.42"
           id="el742eqmnvan7"
           style="transform-origin: 144.34px 300.18px 0px;"
           class="animable" />
        <path
           d="M356.91,328H143.74V286.89H356.91ZM145,326.73H355.67V288.12H145Z"
           id="el3qgwad53kt4"
           style="transform-origin: 250.325px 307.445px 0px;"
           class="animable" />
      </g>
    </g>
    <g
       id="elxglffhj83m">
      <g
         style="opacity: 0.2; transform-origin: 244.609px 250.842px 0px;"
         class="animable"
         id="g27">
        <path
           d="M157.5,213.16a.84.84,0,0,0,0,1.67A.84.84,0,0,0,157.5,213.16Z"
           id="el5w6edoio3in"
           style="transform-origin: 157.5px 213.995px 0px;"
           class="animable" />
        <path
           d="M158.93,315.41a.84.84,0,0,0,0,1.67A.84.84,0,0,0,158.93,315.41Z"
           id="elert468luoh"
           style="transform-origin: 158.93px 316.245px 0px;"
           class="animable" />
        <path
           d="M216.05,299.44c0-.09-.09-.17-.13-.25a.38.38,0,0,0-.65,0,2,2,0,0,0-.13.25C214.66,300.43,216.52,300.43,216.05,299.44Z"
           id="elw3n66vl6ikp"
           style="transform-origin: 215.593px 299.595px 0px;"
           class="animable" />
        <path
           d="M132.62,317.51c0-.08-.08-.17-.13-.25a.38.38,0,0,0-.65,0c-.05.08-.09.17-.13.25C131.24,318.5,133.1,318.5,132.62,317.51Z"
           id="elapvlpfdkdeq"
           style="transform-origin: 132.167px 317.665px 0px;"
           class="animable" />
        <path
           d="M164.69,218.26a.64.64,0,0,0,0,1.28A.64.64,0,0,0,164.69,218.26Z"
           id="elm012ommb4yr"
           style="transform-origin: 164.69px 218.9px 0px;"
           class="animable" />
        <path
           d="M120.2,283.07a.64.64,0,0,0,0,1.27A.64.64,0,0,0,120.2,283.07Z"
           id="eljafpewv3si"
           style="transform-origin: 120.2px 283.705px 0px;"
           class="animable" />
        <path
           d="M204,182.64a.89.89,0,0,0-1.25,0,1.25,1.25,0,0,0-.3,1.21,1,1,0,0,0,1.86,0A1.24,1.24,0,0,0,204,182.64Z"
           id="el6bd1d55yn5r"
           style="transform-origin: 203.379px 183.433px 0px;"
           class="animable" />
        <path
           d="M165.93,310.68a.89.89,0,0,0-1.25,0,1.23,1.23,0,0,0-.3,1.2,1,1,0,0,0,1.85,0A1.21,1.21,0,0,0,165.93,310.68Z"
           id="eltg78atv41me"
           style="transform-origin: 165.306px 311.462px 0px;"
           class="animable" />
        <path
           d="M341.51,319.3a.84.84,0,0,0,0-1.68A.84.84,0,0,0,341.51,319.3Z"
           id="el0xzzyi1ux3o"
           style="transform-origin: 341.51px 318.46px 0px;"
           class="animable" />
        <path
           d="M290.77,207.74a.84.84,0,0,0,0-1.67A.84.84,0,0,0,290.77,207.74Z"
           id="elbzp8hmxfypu"
           style="transform-origin: 290.77px 206.905px 0px;"
           class="animable" />
        <path
           d="M368.58,311.41c0,.08.08.17.13.25a.38.38,0,0,0,.65,0c.05-.08.09-.17.13-.25C370,310.42,368.11,310.42,368.58,311.41Z"
           id="ellbcdfncamlg"
           style="transform-origin: 369.041px 311.255px 0px;"
           class="animable" />
        <path
           d="M265.27,261.06a.89.89,0,0,0,1.25,0,1.23,1.23,0,0,0,.3-1.21,1,1,0,0,0-1.85,0A1.26,1.26,0,0,0,265.27,261.06Z"
           id="el14r1593y9jv"
           style="transform-origin: 265.897px 260.273px 0px;"
           class="animable" />
      </g>
    </g>
    <g
       id="ell7iprl2b3v">
      <g
         style="opacity: 0.2; transform-origin: 250.33px 333.19px 0px;"
         class="animable"
         id="g28">
        <path
           d="M145,328s53.22,10.38,105.3,10.38S355.66,328,355.66,328Z"
           id="elousw5x7u6w9"
           style="transform-origin: 250.33px 333.19px 0px;"
           class="animable" />
      </g>
    </g>
    <rect
       x="93.88"
       y="354.75"
       width="312.24"
       height="11.64"
       style="fill: rgb(55, 71, 79); transform-origin: 250px 360.57px 0px;"
       id="elpbpec7xg72"
       class="animable" />
    <polygon
       points="161.48 366.4 148.65 392.67 135.76 419.08 124.53 419.08 128.7 392.67 132.85 366.4 161.48 366.4"
       style="fill: rgb(55, 71, 79); transform-origin: 143.005px 392.74px 0px;"
       id="el3smskyo7swg"
       class="animable" />
    <polygon
       points="132.85 366.4 161.49 366.4 153.7 382.33 130.34 382.33 132.85 366.4"
       style="fill: rgb(38, 50, 56); transform-origin: 145.915px 374.365px 0px;"
       id="el0vciaszq1ceb"
       class="animable" />
    <polygon
       points="370.66 419.08 359.44 419.08 346.55 392.67 333.71 366.4 362.35 366.4 366.49 392.67 370.66 419.08"
       style="fill: rgb(55, 71, 79); transform-origin: 352.185px 392.74px 0px;"
       id="elluwsp4lhpwl"
       class="animable" />
    <polygon
       points="364.86 382.33 341.5 382.33 333.71 366.4 362.34 366.4 364.86 382.33"
       style="fill: rgb(38, 50, 56); transform-origin: 349.285px 374.365px 0px;"
       id="elyilf47zzr2l"
       class="animable" />
  </g>
  <g
     id="freepik--Character--inject-137"
     style="transform-origin: 249.998px 278.198px 0px;"
     class="animable">
    <path
       d="M373.3,309.63c-.92-2.77-49.95-67.56-53.3-68.8-.38-.17-22.3,15.43-22.3,15.43-.9,1.21-42.56-7.6-42.56-7.6l-.42,50.26,75.89-1.61s10.25,6,19.63,10.93h0c5.77,3,10.88,5.6,12.34,6C366.4,315.2,374.23,312.38,373.3,309.63Z"
       style="fill: rgb(173, 99, 89); transform-origin: 314.048px 277.63px 0px;"
       id="el6efbgtbs57b"
       class="animable" />
    <path
       d="M362.61,314.23c-1.47-.38-6.57-2.94-12.33-6h0c-9.37-4.91-19.62-10.95-19.62-10.95l-16.89.37L287.28,255c5.81,1,10.14,1.64,10.43,1.26,0,0,21.9-15.6,22.29-15.43,3.35,1.24,52.38,66,53.3,68.79S366.4,315.21,362.61,314.23Z"
       style="fill: rgb(255, 255, 255); transform-origin: 330.327px 277.629px 0px;"
       id="elax94jiindz5"
       class="animable" />
    <path
       d="M373.74,309.71c-1-2.84-50.21-67.58-53.65-68.86-1.3-.5-12,6.13-22.39,15.41L329.51,298s29.34,15.55,33.26,16.55S374.71,312.55,373.74,309.71Z"
       style="fill: rgb(102, 80, 233); transform-origin: 335.76px 277.785px 0px;"
       id="ele0dcsipugot"
       class="animable" />
    <path
       d="M370.45,310.75c-8.52-10.65-41.89-54.41-49.51-65.58-.06-.1,0-.14.07-.06,8.68,10.38,41.69,54.41,49.62,65.51C370.79,310.85,370.63,311,370.45,310.75Z"
       style="fill: rgb(38, 50, 56); transform-origin: 345.806px 277.973px 0px;"
       id="elihnl33mbn4"
       class="animable" />
    <path
       d="M357.27,312.12a11,11,0,0,1-2.29-8.51,10.64,10.64,0,0,1,3.95-6.84c.07,0,.16.07.1.13A12.66,12.66,0,0,0,357.41,312,.09.09,0,0,1,357.27,312.12Z"
       style="fill: rgb(38, 50, 56); transform-origin: 356.954px 304.461px 0px;"
       id="elgb0894jc56h"
       class="animable" />
    <path
       d="M333.18,300.54c-3.36-4.3-5.66-10.5-4.16-15.9.06-.21.35-.13.39.05a75,75,0,0,0,4.37,15.52A.35.35,0,0,1,333.18,300.54Z"
       style="fill: rgb(38, 50, 56); transform-origin: 331.174px 292.588px 0px;"
       id="elnwsf2kw6l2n"
       class="animable" />
    <path
       d="M337,302.9c-3.36-4.3-5.66-10.5-4.16-15.9.06-.21.35-.13.38.05a76.22,76.22,0,0,0,4.37,15.52A.34.34,0,0,1,337,302.9Z"
       style="fill: rgb(38, 50, 56); transform-origin: 334.995px 294.959px 0px;"
       id="el5t90s0hkjj4"
       class="animable" />
    <path
       d="M340.9,305.26c-3.36-4.3-5.66-10.5-4.16-15.9.05-.21.35-.13.38.05a76.22,76.22,0,0,0,4.37,15.52A.34.34,0,0,1,340.9,305.26Z"
       style="fill: rgb(38, 50, 56); transform-origin: 338.895px 297.319px 0px;"
       id="elnit94sgsiss"
       class="animable" />
    <path
       d="M344.76,307.62c-3.37-4.3-5.66-10.5-4.16-15.91,0-.2.35-.12.38.06a75.58,75.58,0,0,0,4.37,15.52A.34.34,0,0,1,344.76,307.62Z"
       style="fill: rgb(38, 50, 56); transform-origin: 342.754px 299.678px 0px;"
       id="el68988qogqeg"
       class="animable" />
    <path
       d="M312.74,255.77c-3.7-4.88,3.89-10.63,7.59-5.74S316.44,260.66,312.74,255.77Z"
       style="fill: rgb(38, 50, 56); transform-origin: 316.535px 252.901px 0px;"
       id="el58047r96r5c"
       class="animable" />
    <path
       d="M331.27,308.86c1.24-4.64.42-9.66.21-14.38a.67.67,0,0,0-.94-.52.15.15,0,0,0-.23,0,28.68,28.68,0,0,0-8.11,12.4c-.86,2.8-.53,6.92,3,7.73C328.47,314.82,330.54,311.57,331.27,308.86Zm-3.45,2.94c-5.05,3.16-4.67-3.86-3.95-5.9a31.74,31.74,0,0,1,1.72-3.81,85.81,85.81,0,0,1,4.58-7.35c0,2.33.12,4.64.17,7C330.4,304.47,330.61,310.06,327.82,311.8Z"
       style="fill: rgb(38, 50, 56); transform-origin: 326.871px 304.047px 0px;"
       id="el6pj7mxgv8dp"
       class="animable" />
    <path
       d="M315.8,280.6c-2.57,2.5-.72,6.2,1.45,8.16a28.63,28.63,0,0,0,13.34,6.44.14.14,0,0,0,.17-.15.67.67,0,0,0,.55-.93c-2.25-4.15-4.14-8.88-7.6-12.22C321.69,280,318.24,278.24,315.8,280.6Zm10.81,7.92c1.16,2,2.21,4.08,3.44,6.05a83.47,83.47,0,0,1-7.71-3.94,28.86,28.86,0,0,1-3.44-2.38c-1.67-1.37-5.62-7.19.34-7.09C322.53,281.22,325.23,286.12,326.61,288.52Z"
       style="fill: rgb(38, 50, 56); transform-origin: 322.957px 287.334px 0px;"
       id="elzwlncfeku18"
       class="animable" />
    <path
       d="M252.84,233.25H218.78S183.15,216.13,154.45,223c-32.9,7.91-37.11,49.23-12.52,63.84,31.16,18.52,169.82,14.93,169.82,14.93l-30-50.8s-46.11-9.71-87.92-8.3l59,8Z"
       style="fill: rgb(38, 50, 56); transform-origin: 218.962px 261.712px 0px;"
       id="elws9scwlrt8"
       class="animable" />
    <path
       d="M283.77,254.28a.82.82,0,0,1-.06-.26l-.06-.22c0-.16-.08-.32-.13-.49a9,9,0,0,0-.35-1c-.12-.33-.27-.65-.42-1a7.07,7.07,0,0,0-.56-.9s-.05,0-.08,0a.1.1,0,0,0-.05,0s-.05,0-.08,0a.15.15,0,0,0-.07,0c-5.07-1-39.53-5.88-44.65-6.46s-10.35-1.07-15.53-1.5a307.23,307.23,0,0,0-31.09-1.12c-1,0-1.94.05-2.91.09-.21-.07-.43-.11-.64-.16-.5-.12-1-.24-1.5-.34-.93-.18-1.88-.32-2.82-.46-2-.3-3.93-.51-5.88-.87a.09.09,0,0,0,0,.18c2,.43,3.9,1,5.86,1.43.57.12,1.13.25,1.7.36-3.8.2-7.6.49-11.39.84a.1.1,0,0,0,0,.19c5.16-.31,10.36-.35,15.54-.26s10.26.2,15.39.5c10.38.59,20.74,1.52,31.08,2.6,5.8.61,40.93,5.74,46.75,6h.07c.05.13.1.27.16.4.16.31.32.63.5.93a9.68,9.68,0,0,0,.52.88c.09.14.18.28.28.42l.15.21a1.07,1.07,0,0,1,.15.22C283.64,254.48,283.84,254.4,283.77,254.28Z"
       style="fill: rgb(69, 90, 100); transform-origin: 228.388px 247.04px 0px;"
       id="elhcunphzqdr"
       class="animable" />
    <path
       d="M300.94,298.71c-1.86-3-3.44-6.13-5.14-9.19s-3.41-6.14-5.12-9.21c-3.41-6.12-15.65-26.7-16.86-28.14-.08-.09-.23,0-.2.12.58,1.59,8.22,15.22,10,18.25,3.52,6.08,7.21,12,10.86,18,1,1.71,2.11,3.4,3.17,5.11s2.18,3.37,3.14,5.12C300.83,298.92,301,298.82,300.94,298.71Z"
       style="fill: rgb(69, 90, 100); transform-origin: 287.284px 275.49px 0px;"
       id="elx5lzeg3rt8g"
       class="animable" />
    <path
       d="M273.47,257.29c-3.06-.74-6.19-1.21-9.28-1.8s-6.2-1.17-9.3-1.74q-9.3-1.73-18.64-3.31c-12.4-2.08-24.86-3.82-37.39-5-7.07-.68-14.15-1.12-21.24-1.64-.15,0-.14.22,0,.23,12.61.57,25.21,2.28,37.7,4.07s24.72,3.73,37,5.81q5.22.88,10.44,1.79c3.53.61,7.06,1.36,10.61,1.81C273.55,257.51,273.61,257.32,273.47,257.29Z"
       style="fill: rgb(69, 90, 100); transform-origin: 225.529px 250.655px 0px;"
       id="elpsks66ksn1e"
       class="animable" />
    <path
       d="M308.71,474.94c-3-.3-77.26-33.68-79.29-36.75-.78-1.15,3.45-12.26,9-25.53,1.18-2.86,2.43-5.81,3.71-8.8,8.27-19.43,17.51-39.85,17.51-39.85l49.75,22.19-18.88,39.23-4.14,8.62s22.72,25.5,24.59,29.1S311.7,475.24,308.71,474.94Z"
       style="fill: rgb(173, 99, 89); transform-origin: 270.6px 419.479px 0px;"
       id="el3lddq1p1kdq"
       class="animable" />
    <path
       d="M308.71,474.94c-3-.3-77.26-33.68-79.29-36.75-.94-1.41,5.5-17.51,12.66-34.33l48.38,21.57-4.14,8.62s22.72,25.5,24.59,29.1S311.7,475.24,308.71,474.94Z"
       style="fill: rgb(255, 255, 255); transform-origin: 270.582px 439.404px 0px;"
       id="elcjauvuya31v"
       class="animable" />
    <path
       d="M308.71,474.94c-3-.3-77.26-33.68-79.29-36.75-.78-1.15,3.45-12.26,9-25.53l47.95,21.39s22.72,25.5,24.59,29.1S311.7,475.24,308.71,474.94Z"
       style="fill: rgb(102, 80, 233); transform-origin: 270.6px 443.804px 0px;"
       id="elcnaxk604r3h"
       class="animable" />
    <path
       d="M309,471.49c-12.31-5.9-62.54-28.55-75.16-33.44-.1,0-.13,0,0,.07,12.08,6.12,62.48,28.36,75.1,33.58C309.16,471.8,309.24,471.62,309,471.49Z"
       style="fill: rgb(38, 50, 56); transform-origin: 271.45px 454.89px 0px;"
       id="el17vpc0kcaisi"
       class="animable" />
    <path
       d="M307.33,458.33a11,11,0,0,0-8.82-.3,10.64,10.64,0,0,0-5.77,5.39c0,.08.11.14.15.07a12.69,12.69,0,0,1,14.37-5A.09.09,0,0,0,307.33,458.33Z"
       style="fill: rgb(38, 50, 56); transform-origin: 300.053px 460.386px 0px;"
       id="ellekgnz35jj"
       class="animable" />
    <path
       d="M290.59,437.46c-4.95-2.31-11.52-3.15-16.45-.46-.19.1,0,.37.15.36a75.57,75.57,0,0,1,16.11.75A.34.34,0,0,0,290.59,437.46Z"
       style="fill: rgb(38, 50, 56); transform-origin: 282.433px 436.72px 0px;"
       id="eljek1z48x44a"
       class="animable" />
    <path
       d="M293.77,440.69c-5-2.31-11.52-3.15-16.45-.46-.19.1,0,.37.14.36a75.66,75.66,0,0,1,16.12.75A.34.34,0,0,0,293.77,440.69Z"
       style="fill: rgb(38, 50, 56); transform-origin: 285.613px 439.95px 0px;"
       id="elh9jduc6juz9"
       class="animable" />
    <path
       d="M296.94,443.92c-4.95-2.31-11.52-3.15-16.45-.47-.19.11,0,.38.14.37a75.66,75.66,0,0,1,16.12.75A.34.34,0,0,0,296.94,443.92Z"
       style="fill: rgb(38, 50, 56); transform-origin: 288.783px 443.179px 0px;"
       id="elb8jwa3amg8p"
       class="animable" />
    <path
       d="M300.11,447.15c-4.95-2.31-11.52-3.15-16.45-.47-.19.11,0,.38.15.37a75.6,75.6,0,0,1,16.11.75A.34.34,0,0,0,300.11,447.15Z"
       style="fill: rgb(38, 50, 56); transform-origin: 291.953px 446.409px 0px;"
       id="elq8iep1lq7e"
       class="animable" />
    <path
       d="M242.31,427.65c-5.6-2.5-9.49,6.2-3.88,8.7S247.92,430.15,242.31,427.65Z"
       style="fill: rgb(38, 50, 56); transform-origin: 240.371px 432px 0px;"
       id="el8nwfp08kmkq"
       class="animable" />
    <path
       d="M302,426.58c-1.59-3.22-5.68-2.61-8.21-1.13a28.63,28.63,0,0,0-10.26,10.7.15.15,0,0,0,.09.22c-.05.4.23.89.72.8,4.65-.86,9.73-1.2,14-3.46C300.76,432.39,303.45,429.63,302,426.58Zm-10.88,7.85c-2.28.47-4.56.84-6.82,1.4a84.27,84.27,0,0,1,6.13-6.12,30.57,30.57,0,0,1,3.33-2.55c1.82-1.16,8.58-3.12,6.64,2.52C299.29,432.8,293.8,433.86,291.08,434.43Z"
       style="fill: rgb(38, 50, 56); transform-origin: 292.959px 430.714px 0px;"
       id="elne66f0mpru"
       class="animable" />
    <path
       d="M270.28,432.44c4,2.61,9.07,3.39,13.63,4.64.47.13.8-.33.78-.74a.14.14,0,0,0,.11-.2,28.69,28.69,0,0,0-9.3-11.55c-2.4-1.68-6.43-2.65-8.28.43C265.47,427.93,267.92,430.91,270.28,432.44Zm-1.74-4.19c-1.45-5.79,5.12-3.25,6.84-1.94a30.57,30.57,0,0,1,3.1,2.82,83.82,83.82,0,0,1,5.58,6.62c-2.2-.75-4.45-1.31-6.68-2C274.73,433,269.34,431.44,268.54,428.25Z"
       style="fill: rgb(38, 50, 56); transform-origin: 275.72px 430.058px 0px;"
       id="elatp60ys3mum"
       class="animable" />
    <path
       d="M243.21,399.3l56,25.3s66.61-127.84,68.35-167c1.48-33.3-21.7-46.15-96.65-24.61l-18.36.23v12.67c8.06,1.06,29.56,4.44,29.56,4.44,15.64,5.9,20.68,8.34,20.43,8.85C263.48,338,243.21,399.3,243.21,399.3Z"
       style="fill: rgb(38, 50, 56); transform-origin: 305.418px 323.498px 0px;"
       id="elqgbuu3kqryg"
       class="animable" />
    <path
       d="M311.66,245.16c-2.26,3-4.35,6.14-6.35,9.34-12-5.35-25.11-8.44-38.13-10.05q-5.52-.67-11.09-1c-.15,0-.14.23,0,.24a167.55,167.55,0,0,1,38.79,7.38c3.49,1.08,6.9,2.32,10.34,3.55-2.4,3.84-4.67,7.78-6.84,11.74a233.3,233.3,0,0,0-10.94,22.84c-1.8,4.32-3.55,8.67-5.1,13.09,0,.13.17.21.22.09q10.26-22.87,22.39-44.76c2.28-4.12,4.66-8.18,6.89-12.33C311.92,245.18,311.74,245,311.66,245.16Z"
       style="fill: rgb(69, 90, 100); transform-origin: 283.921px 272.945px 0px;"
       id="elettd0vu8nmd"
       class="animable" />
    <path
       d="M300.39,411.07c-3.27-1.27-6.43-2.86-9.62-4.3l-9.61-4.31c-6.4-2.86-28.52-12-30.35-12.46-.12,0-.18.15-.09.21,1.42.93,15.69,7.28,18.92,8.66,6.46,2.77,13,5.33,19.49,8,1.86.75,3.73,1.46,5.6,2.19s3.76,1.4,5.59,2.23C300.43,411.3,300.5,411.11,300.39,411.07Z"
       style="fill: rgb(69, 90, 100); transform-origin: 275.561px 400.645px 0px;"
       id="elseefhvmlnp"
       class="animable" />
    <path
       d="M311.38,250.93c-4.41,8.39-8.17,17.17-12,25.84s-7.53,17.31-11.14,26q-10.77,26.06-20.06,52.7c-3.52,10-6.81,20.16-10,30.3-.05.15.18.2.23.06,5.93-17.94,12.35-35.72,19.05-53.38s13.8-35.08,21.32-52.37q3.17-7.28,6.43-14.51c2.18-4.83,4.45-9.63,6.49-14.51C311.76,250.9,311.49,250.73,311.38,250.93Z"
       style="fill: rgb(69, 90, 100); transform-origin: 284.941px 318.376px 0px;"
       id="elacfugnfjj5j"
       class="animable" />
    <path
       d="M217.08,232.19c1.23,1.3,79,3.08,79.4,2.59,1.06-1.34-9-50.7-17.11-69.57C269,141,263.09,138.85,259.6,137.41c-4.46-1.84-12.58-1.41-14.54-.59-2.23.91-11.88,11.74-14.78,20.49C224.47,174.9,216,231.05,217.08,232.19Z"
       style="fill: rgb(69, 90, 100); transform-origin: 256.772px 185.49px 0px;"
       id="elgl83czx8xis"
       class="animable" />
    <path
       d="M265.94,141.72H239.89c.48-.56,1-1.09,1.4-1.57h23C264.8,140.59,265.35,141.11,265.94,141.72Zm3.28,4.1H236.64l-1.11,1.56h34.74Q269.73,146.56,269.22,145.82Zm3.51,5.66H233c-.3.52-.58,1-.85,1.56h41.47Zm2.95,5.67H230.34l-.06.16c-.15.44-.29.91-.44,1.4h46.59C276.18,158.17,275.93,157.66,275.68,157.15Zm2.64,5.66H228.69c-.13.5-.27,1-.4,1.56H279Zm2.36,5.66H227.3c-.11.52-.23,1-.35,1.57h54.31C281.07,169.5,280.87,169,280.68,168.47Zm2,5.67h-56.6q-.18.78-.33,1.56h57.44Zm1.77,5.66H224.91c-.1.52-.21,1-.31,1.56h60.31C284.75,180.83,284.6,180.31,284.44,179.8Zm1.63,5.67H223.82c-.1.52-.19,1-.29,1.56h63C286.36,186.51,286.22,186,286.07,185.47Zm1.53,5.66H222.79c-.1.52-.19,1-.28,1.56H288C287.87,192.17,287.74,191.65,287.6,191.13Zm1.45,5.66H221.8l-.27,1.57h67.9C289.3,197.84,289.17,197.31,289.05,196.79Zm1.37,5.67H220.85c-.08.52-.17,1-.25,1.56h70.18Zm1.3,5.66H220l-.24,1.56h72.36C292,209.16,291.84,208.64,291.72,208.12Zm1.25,5.66H219.09c-.08.53-.15,1.06-.23,1.57H293.3Zm1.18,5.67H218.29q-.12.81-.21,1.56h76.37C294.36,220.5,294.25,220,294.15,219.45Zm1.09,5.66H217.55c-.06.55-.12,1.08-.17,1.57h78.14C295.43,226.18,295.34,225.65,295.24,225.11Zm1,5.67H217a3.45,3.45,0,0,0,.07,1.41,1.17,1.17,0,0,0,.47.15H296.4C296.35,231.88,296.28,231.36,296.2,230.78Z"
       style="fill: rgb(38, 50, 56); transform-origin: 256.679px 186.245px 0px;"
       id="elxthbstvg2an"
       class="animable" />
    <path
       d="M272.49,144c33.54,25.2,62.54,60.18,59.76,71.26-2.95,11.71-26.13,24.81-46.61,27.48-4.19.55-17.16-30.2-12.87-31.61,3.35-1.1,18.57-5.43,20.39-7.51,1.26-1.45-22.35-34.67-30-52C255.08,133.41,263.51,137.21,272.49,144Z"
       style="fill: rgb(173, 99, 89); transform-origin: 296.17px 190.563px 0px;"
       id="ellabplqbrz7d"
       class="animable" />
    <path
       d="M281.42,210.16s-12.8,1.28-21.13,2.52c-4.65.69-12.51,2.58-15.69,4.65-4.76,3.09-22.7,19.07-18.92,23.5,3.42,4,8.59-2.34,8.59-2.34s-6.3,6.41-1.68,9.35,10.58-6,10.58-6-7.16,6.34-1.93,9c4.54,2.31,12.48-7.23,12.48-7.23s-8.25,5.84-3.83,8.66c4.88,3.12,18.58-9.68,18.58-9.68,10.95,1.22,17.7.47,25.42-1.69C295.3,240.54,281.42,210.16,281.42,210.16Z"
       style="fill: rgb(173, 99, 89); transform-origin: 259.576px 231.46px 0px;"
       id="elv1m82na2tlc"
       class="animable" />
    <path
       d="M241.25,244c.49-.68,1-1.35,1.5-2a42.22,42.22,0,0,1,3.06-3.84c1.09-1.17,2.23-2.29,3.4-3.38s2.61-2.17,3.81-3.35a.1.1,0,1,1,.13.14,43.79,43.79,0,0,0-3.42,3.65c-1.09,1.22-2.16,2.45-3.24,3.68s-2.17,2.33-3.26,3.5c-.54.59-1,1.2-1.57,1.8a13.6,13.6,0,0,1-1.5,1.71.08.08,0,0,1-.11-.09A10.18,10.18,0,0,1,241.25,244Z"
       style="fill: rgb(38, 50, 56); transform-origin: 246.627px 238.648px 0px;"
       id="elaxm1tp4sqy5"
       class="animable" />
    <path
       d="M233,239.85a66.6,66.6,0,0,1,5.53-7.25,45.84,45.84,0,0,1,6.75-6.16c.09-.06.2.06.13.14-2,2.28-4.11,4.52-6.18,6.77-1,1.1-5.45,6.23-6,6.71C233.1,240.18,232.92,240,233,239.85Z"
       style="fill: rgb(38, 50, 56); transform-origin: 239.206px 233.262px 0px;"
       id="eljzomoesat7f"
       class="animable" />
    <path
       d="M248.91,248.13a64.56,64.56,0,0,1,5.32-6.73A59.67,59.67,0,0,1,261.1,236c.09,0,.21.06.13.14-2.15,2-4.32,3.92-6.36,6-1,1-4.74,5.3-5.78,6.19C249,248.37,248.85,248.24,248.91,248.13Z"
       style="fill: rgb(38, 50, 56); transform-origin: 255.076px 242.169px 0px;"
       id="el438f5adbtcb"
       class="animable" />
    <path
       d="M309.78,175l-25.54,16.56s-18.95-29.34-23.86-43.24.81-13.93,14.22-3.86S309.78,175,309.78,175Z"
       style="fill: rgb(69, 90, 100); transform-origin: 284.211px 164.451px 0px;"
       id="el1hprhu3kcg4"
       class="animable" />
    <path
       d="M270.72,141.72h-12a7.7,7.7,0,0,1,0-1.57h9.61C269,140.61,269.86,141.14,270.72,141.72Zm5.62,4.1H259.56c.14.5.3,1,.49,1.56h18.28Zm7,5.66H261.61c.21.5.44,1,.68,1.56h22.9C284.57,152.51,284,152,283.33,151.48Zm6.65,5.67H264.24l.78,1.56h26.75Zm6.43,5.66H267.15c.28.51.56,1,.85,1.56h30.14Zm6.27,5.66H270.27l.89,1.57h33.23Zm6.15,5.67H273.54c.31.53.61,1.05.92,1.56h34.29l1-.67Zm-31.92,5.66.94,1.56H300l2.4-1.56Zm3.47,5.67,1,1.56h9.92l2.41-1.56Zm3.57,5.66.29.46.71-.46Z"
       style="fill: rgb(38, 50, 56); transform-origin: 284.215px 165.87px 0px;"
       id="el57szuk5nj0o"
       class="animable" />
    <path
       d="M304,171.37c-9.74,7.75-19.36,13-21.27,14.35-.09.06-.17-.09-.08-.15,1.94-1.18,12.35-8.84,21.25-14.36C304,171.14,304.07,171.3,304,171.37Z"
       style="fill: rgb(38, 50, 56); transform-origin: 293.319px 178.463px 0px;"
       id="elyj8p4bg7iri"
       class="animable" />
    <path
       d="M285.88,190.46a12.81,12.81,0,0,0-1.55.8c-2.84-4.9-5.9-9.86-8.79-14.74l-4.24-7.16c-1.46-2.49-2.8-5.09-4.4-7.49a.06.06,0,0,0-.11.06,76.2,76.2,0,0,0,3.48,6.94c-.26-.34-.51-.7-.79-1-.63-.75-1.25-1.5-1.81-2.3-.09-.12-.3,0-.21.12.54.76,1,1.55,1.51,2.35s1,1.56,1.55,2.33,1.09,1.44,1.66,2.13a2.56,2.56,0,0,0,.2.26c.78,1.43,1.54,2.86,2.35,4.27,2.84,4.93,9.29,14.86,9.38,14.83a13.18,13.18,0,0,0,1.85-1.23C286,190.54,286,190.44,285.88,190.46Z"
       style="fill: rgb(38, 50, 56); transform-origin: 276.383px 176.849px 0px;"
       id="el693hyme03dc"
       class="animable" />
    <path
       d="M230.47,143c-27.22,14.14-52.78,31.34-57.58,43.29-3,7.52.71,21.15,3.74,29.34,1.48,4,39.13-11.54,36-14.85-7.74-8.18-9-11.46-8.15-13.12.53-1.06,30.32-26.92,38.68-38.58C254.82,132.84,242.38,136.81,230.47,143Z"
       style="fill: rgb(173, 99, 89); transform-origin: 209.804px 176.947px 0px;"
       id="ele1pmhqpnh4t"
       class="animable" />
    <path
       d="M226.86,237.71c-3.56,2-7.74-7.19-7.74-7.19a7.5,7.5,0,0,1-2.1,4.67c-2.26,2.12-6.57-.5-6.57-.5a9.31,9.31,0,0,1-3,4.57c-2.37,1.81-7.1-.2-7.1-.2a8.11,8.11,0,0,1-5.17,2.35c-5.22.16-9.65-6.47-12.52-10.65s-7.06-18.75-8.14-21.44l26.71-18.61s18.18,15.12,20.85,20.52C224.32,215.78,232.29,234.66,226.86,237.71Z"
       style="fill: rgb(173, 99, 89); transform-origin: 201.62px 216.061px 0px;"
       id="elm9nrf8q6fzi"
       class="animable" />
    <path
       d="M219.18,230.39C218,225,215.43,219.88,213,215c-.06-.11-.23,0-.17.08,2.53,4.85,3.82,10.49,6.16,15.42A.13.13,0,0,0,219.18,230.39Z"
       style="fill: rgb(38, 50, 56); transform-origin: 215.999px 222.734px 0px;"
       id="elkv3bbtc5yh"
       class="animable" />
    <path
       d="M210.74,234.36a14.64,14.64,0,0,0-1.65-3.4c-.67-1.16-1.35-2.31-2.05-3.46-1.41-2.28-2.87-4.53-4.4-6.74-.07-.1-.23,0-.17.09,1.4,2.28,2.77,4.58,4.07,6.91.65,1.17,1.29,2.35,1.93,3.52a17.14,17.14,0,0,0,1.94,3.25A.19.19,0,0,0,210.74,234.36Z"
       style="fill: rgb(38, 50, 56); transform-origin: 206.602px 227.659px 0px;"
       id="elpyx2mh0zxxk"
       class="animable" />
    <path
       d="M200.29,239a10.17,10.17,0,0,0-1.64-3c-.67-1-1.32-2.06-2-3.09-1.31-2.07-2.61-4.14-3.84-6.25a.1.1,0,0,0-.17.09c1.24,2.15,2.45,4.32,3.71,6.46.62,1,1.24,2.1,1.87,3.15a9.34,9.34,0,0,0,1.94,2.7C200.24,239.06,200.31,239,200.29,239Z"
       style="fill: rgb(38, 50, 56); transform-origin: 196.466px 232.845px 0px;"
       id="elgrkod7k95yl"
       class="animable" />
    <path
       d="M191.15,164.19l19.93,19.55s26.21-23.21,33.8-35.85,2-13.82-13.17-6.62S191.15,164.19,191.15,164.19Z"
       style="fill: rgb(102, 80, 233); transform-origin: 219.7px 160.295px 0px;"
       id="elmalyigj70he"
       class="animable" />
    <path
       d="M191.15,164.19l19.93,19.55s26.21-23.21,33.8-35.85,2-13.82-13.17-6.62S191.15,164.19,191.15,164.19Z"
       style="fill: rgb(69, 90, 100); transform-origin: 219.7px 160.295px 0px;"
       id="eln07zjkbfvh"
       class="animable" />
    <path
       d="M248.2,140.15a8.36,8.36,0,0,1-.35,1.57H230.78l.93-.45c.84-.4,1.65-.77,2.43-1.12Zm-25.41,5.67-2.88,1.56h25.27c.32-.54.62-1.07.89-1.56Zm-10.2,5.66L209.86,153h31.41c.41-.53.8-1,1.18-1.56Zm-9.77,5.67-2.61,1.56H236.5c.46-.52.92-1,1.36-1.56Zm-9.42,5.66-2.25,1.38.18.18h39.92l1.48-1.56Zm2.11,5.66,1.6,1.57h28.55l1.57-1.57Zm5.78,5.67,1.59,1.56H219.8l1.65-1.56Zm5.77,5.66,1.59,1.56h5.07l1.7-1.56Z"
       style="fill: rgb(38, 50, 56); transform-origin: 219.675px 160.755px 0px;"
       id="elp2v2jd1p07d"
       class="animable" />
    <path
       d="M215.22,178.63c-9.2-7.82-16-15.95-17.58-17.51-.07-.08.06-.19.13-.11,1.48,1.62,10.71,10.09,17.6,17.5C215.45,178.6,215.31,178.71,215.22,178.63Z"
       style="fill: rgb(38, 50, 56); transform-origin: 206.507px 169.82px 0px;"
       id="elldv5awd6oqd"
       class="animable" />
    <path
       d="M232.85,152.64c-1,2.14-2,4.27-2.85,6.47,0-.15,0-.29,0-.44a28.33,28.33,0,0,1,.61-4c0-.15-.19-.22-.23-.07-.3,1.33-.57,2.68-.78,4-.11.65-.17,1.3-.22,1.95a2.12,2.12,0,0,1,0,.24.19.19,0,0,0,0,.08c-1,2.93-1.58,5.93-2.41,8.89a.11.11,0,1,0,.22.06c.82-2.9,2-5.71,3-8.54s1.86-5.72,2.84-8.57C233.06,152.62,232.89,152.54,232.85,152.64Z"
       style="fill: rgb(38, 50, 56); transform-origin: 230px 161.249px 0px;"
       id="el3det76oirby"
       class="animable" />
    <path
       d="M246.87,150.31c4.38,1.2,12.21-5.26,15.4-10.62.22-.37-.21-4.34-.5-9.19-.17-3-.29-6.23-.18-9.23,0-.62-19,3.88-19,3.88a48,48,0,0,1,1.4,11.6,7.61,7.61,0,0,1-.18,1.22,1.18,1.18,0,0,0,0,.21C243.31,140.5,242.64,149.14,246.87,150.31Z"
       style="fill: rgb(173, 99, 89); transform-origin: 252.46px 135.833px 0px;"
       id="eltwo63ryc1rp"
       class="animable" />
    <path
       d="M260.43,121.3c-1.06,5-4.67,17.2-14.73,17a10.31,10.31,0,0,1-1.92-.17,1.05,1.05,0,0,1,0-.21,7.61,7.61,0,0,0,.18-1.22,48.16,48.16,0,0,0-1.4-11.61S256.32,121.9,260.43,121.3Z"
       style="fill: rgb(38, 50, 56); transform-origin: 251.495px 129.801px 0px;"
       id="elntqzy3ux0j9"
       class="animable" />
    <path
       d="M241.44,110.75c.09,4.61-3.12,8.42-7.17,8.49s-7.4-3.59-7.49-8.21,3.12-8.42,7.17-8.5S241.35,106.13,241.44,110.75Z"
       style="fill: rgb(102, 80, 233); transform-origin: 234.11px 110.885px 0px;"
       id="elc8atmctfle"
       class="animable" />
    <g
       id="elewa4dmpvti">
      <ellipse
         cx="235.67"
         cy="111.15"
         rx="8.16"
         ry="9.3"
         style="fill: rgb(199, 199, 199); transform-origin: 235.67px 111.15px 0px; transform: rotate(-1.1deg);"
         class="animable"
         id="ellipse28" />
    </g>
    <path
       d="M260.62,96.33c3.11,6.26,2.81,25.88-1.17,30.91-5.77,7.29-16.8,9.73-23.4,2.44-6.39-7.08-5.54-32.64-.94-37.37C241.87,85.34,256,87.09,260.62,96.33Z"
       style="fill: rgb(173, 99, 89); transform-origin: 247.091px 111.064px 0px;"
       id="elzhg6z2iy9o"
       class="animable" />
    <path
       d="M245.16,113.38s.1.06.1.12c-.06,1.32.1,2.84,1.29,3.29,0,0,0,.08,0,.08C245.09,116.65,244.9,114.62,245.16,113.38Z"
       style="fill: rgb(38, 50, 56); transform-origin: 245.806px 115.125px 0px;"
       id="el5u5ypcei0es"
       class="animable" />
    <path
       d="M246.36,112c2.12-.14,2.24,4.13.27,4.26S244.57,112.13,246.36,112Z"
       style="fill: rgb(38, 50, 56); transform-origin: 246.557px 114.13px 0px;"
       id="elhbyiupyil7l"
       class="animable" />
    <path
       d="M237.77,113.63s-.11.07-.1.12c.08,1.32-.06,2.84-1.24,3.32,0,0,0,.08,0,.07C237.9,116.89,238.05,114.87,237.77,113.63Z"
       style="fill: rgb(38, 50, 56); transform-origin: 237.158px 115.385px 0px;"
       id="el1ourinzapa1"
       class="animable" />
    <path
       d="M236.55,112.28c-2.13-.1-2.18,4.17-.21,4.26S238.33,112.37,236.55,112.28Z"
       style="fill: rgb(38, 50, 56); transform-origin: 236.379px 114.41px 0px;"
       id="elnh5rkuiepqc"
       class="animable" />
    <path
       d="M248.23,108.58a14.54,14.54,0,0,1-1.74-.23,2.86,2.86,0,0,1-1.73-.58.89.89,0,0,1-.08-1.09,2.24,2.24,0,0,1,2.16-.69,3.25,3.25,0,0,1,2.15,1A1,1,0,0,1,248.23,108.58Z"
       style="fill: rgb(38, 50, 56); transform-origin: 246.857px 107.258px 0px;"
       id="elu6wjhgr83ml"
       class="animable" />
    <path
       d="M234.5,109.23c.59-.12,1.11-.32,1.68-.49a2.85,2.85,0,0,0,1.62-.83.9.9,0,0,0-.08-1.1,2.22,2.22,0,0,0-2.24-.35,3.27,3.27,0,0,0-2,1.31A1,1,0,0,0,234.5,109.23Z"
       style="fill: rgb(38, 50, 56); transform-origin: 235.657px 107.77px 0px;"
       id="el59kojq1jfba"
       class="animable" />
    <path
       d="M247.72,125.6c-.31.31-.62.75-1.09.8a3.52,3.52,0,0,1-1.43-.29s-.09,0-.06.07a1.79,1.79,0,0,0,1.7.67,1.41,1.41,0,0,0,1-1.2C247.86,125.57,247.76,125.55,247.72,125.6Z"
       style="fill: rgb(38, 50, 56); transform-origin: 246.488px 126.223px 0px;"
       id="elx8ks2h3i87"
       class="animable" />
    <path
       d="M246.21,121.68a4.5,4.5,0,0,1-2.94,2.09,5.85,5.85,0,0,1-1.62.12,1.55,1.55,0,0,1-.31,0l-.29,0a.32.32,0,0,1-.27-.29h0a.66.66,0,0,1,0-.14h0v-.12c-.05-1,0-2.56,0-2.56-.36.19-2.23,1.1-2.22.57.14-4.41.29-9.31,1.36-13.67a.12.12,0,0,1,.24,0c0,4.24-.67,8.46-.71,12.72a7.68,7.68,0,0,1,2.11-.7c.14,0-.16,3-.1,3.44a.18.18,0,0,0,0,0,6.23,6.23,0,0,0,4.62-1.58C246.18,121.49,246.29,121.57,246.21,121.68Z"
       style="fill: rgb(38, 50, 56); transform-origin: 242.399px 115.731px 0px;"
       id="elz2hvpay50i7"
       class="animable" />
    <path
       d="M242.24,123.35a5.34,5.34,0,0,0,2.18,1.6,2.41,2.41,0,0,0,1.46,0c1.05-.31,1.05-1.28.83-2.1a6,6,0,0,0-.51-1.26A6.89,6.89,0,0,1,242.24,123.35Z"
       style="fill: rgb(38, 50, 56); transform-origin: 244.533px 123.327px 0px;"
       id="el1y6kii54zorh"
       class="animable" />
    <path
       d="M244.42,125a2.41,2.41,0,0,0,1.46,0c1.05-.31,1.05-1.28.83-2.1A2.49,2.49,0,0,0,244.42,125Z"
       style="fill: rgb(255, 152, 185); transform-origin: 245.623px 124.007px 0px;"
       id="elfrr9p7zhjeb"
       class="animable" />
    <g
       id="elqo93la9wjjp">
      <path
         d="M262.71,110.25c-1.28-.24-4.24-4.67-5.51-6.43s-1.77-11.06-1.84-13.16a13.92,13.92,0,0,1,5.26,5.67C262,99.13,262.71,104.6,262.71,110.25Z"
         style="fill: rgb(38, 50, 56); opacity: 0.2; transform-origin: 259.035px 100.455px 0px;"
         class="animable"
         id="path28" />
    </g>
    <path
       d="M239.21,97.89a6.66,6.66,0,0,0,6.08,2.22A6.77,6.77,0,0,0,250.48,96c0-.06.12,0,.1,0a6.7,6.7,0,0,1-5.2,4.57,6.84,6.84,0,0,1-6.3-2.64C239,97.91,239.14,97.81,239.21,97.89Z"
       style="fill: rgb(38, 50, 56); transform-origin: 244.819px 98.2988px 0px;"
       id="elw24h191ya19"
       class="animable" />
    <path
       d="M246,81.45c3.85.07,7.39,2.18,8.82,4.79a7.47,7.47,0,0,1,.75,4.85c0,.07-.15.06-.14,0a8.19,8.19,0,0,0-3.9-7.37,10.53,10.53,0,0,0-9.34-1.07,6.74,6.74,0,0,0-3.57,2.9c-.07.14-.36,0-.3-.1C239.34,83,242.5,81.4,246,81.45Z"
       style="fill: rgb(38, 50, 56); transform-origin: 247.002px 86.2938px 0px;"
       id="elce6d3s3rmb5"
       class="animable" />
    <path
       d="M223.68,89.93a8.45,8.45,0,0,1,3.59-4.59c2.35-1.47,5-1.27,7.67-1,.08,0,.07.12,0,.11-2.26-.21-4.56-.29-6.63.79a8.28,8.28,0,0,0-3.84,4.08,8.13,8.13,0,0,0,3.43,10.08,8.25,8.25,0,0,0,6.52.63c.08,0,.14.09.06.13a8.3,8.3,0,0,1-10.8-10.21Z"
       style="fill: rgb(38, 50, 56); transform-origin: 229.158px 92.4093px 0px;"
       id="el23oi2taa2k3"
       class="animable" />
    <path
       d="M261.92,100.15s3.58-6.92.49-10.88c-1.76-2.24-7.5-1.88-7.5-1.88a10.38,10.38,0,0,0-6.66-4.33c-4.82-1-10.51,1.82-10.51,1.82s-4.59-2.57-8.84-.08c-5.93,3.47-5.09,12.55.94,15.41,4.24,2,9.93-1.79,9.93-1.79.55.07,6.22,3.41,10.43-1.66,0,0,3.49,3,6.58.85A5,5,0,0,0,261.92,100.15Z"
       style="fill: rgb(38, 50, 56); transform-origin: 244.264px 91.8191px 0px;"
       id="ela7yicgwix2p"
       class="animable" />
    <path
       d="M259.14,112.53s3.41-6.81,6.44-5.68,1.09,10.56-2,12.27a3.38,3.38,0,0,1-4.75-1.14Z"
       style="fill: rgb(173, 99, 89); transform-origin: 262.964px 113.191px 0px;"
       id="elyktjja2f5ud"
       class="animable" />
    <path
       d="M265,109.54c.05,0,.07.06,0,.09-2.17,1.27-3.07,3.59-3.6,5.93a1.87,1.87,0,0,1,2.69-.91c.07,0,0,.14,0,.13a2.08,2.08,0,0,0-2.16,1,9.82,9.82,0,0,0-.82,2c-.08.23-.47.17-.42-.08v0C260.16,114.75,261.84,110.3,265,109.54Z"
       style="fill: rgb(38, 50, 56); transform-origin: 262.819px 113.732px 0px;"
       id="el8jmb3cx2dcj"
       class="animable" />
    <polygon
       points="251.71 126.18 257.93 123.69 263.04 117.66 262.11 116.87 257.2 122.67 251.26 125.05 251.71 126.18"
       style="fill: rgb(199, 199, 199); transform-origin: 257.15px 121.525px 0px;"
       id="elkata9d05sh8"
       class="animable" />
    <path
       d="M252.39,125.22c-.55-1.81-5.59-1.28-4.75,1.46S253,127,252.39,125.22Z"
       style="fill: rgb(55, 71, 79); transform-origin: 249.996px 126.039px 0px;"
       id="eliec0r2q73is"
       class="animable" />
    <path
       d="M265.68,106.67s.93-10.06-1.87-15.69c-3.13-6.27-16.59-12.51-26.07-6.1,0,0,15.24-2.32,22.07,6.44,2.88,3.69,2.5,15.53,2.5,15.53Z"
       style="fill: rgb(199, 199, 199); transform-origin: 251.784px 94.5178px 0px;"
       id="elvkp9tkdpqt"
       class="animable" />
    <g
       id="elcv7ga8howmh">
      <ellipse
         cx="264.26"
         cy="111.81"
         rx="9.3"
         ry="8.16"
         style="fill: rgb(199, 199, 199); transform-origin: 264.26px 111.81px 0px; transform: rotate(-87.94deg);"
         class="animable"
         id="ellipse29" />
    </g>
    <path
       d="M258.5,111.31c-.17,4.61,3,8.47,7,8.61s7.47-3.47,7.63-8.08-3-8.47-7-8.62S258.66,106.7,258.5,111.31Z"
       style="fill: rgb(102, 80, 233); transform-origin: 265.815px 111.57px 0px;"
       id="elwl9zbyqgzca"
       class="animable" />
    <path
       d="M264.55,141.08a87.88,87.88,0,0,1-6.58,7.31c-2.25,2.1-5,4-8,4.3s-6-.28-7.11-3.92c-.9-2.89-.78-5.87-.3-9.59a.11.11,0,1,0-.22,0c-.64,4.78-1.28,12.19,3.07,13.8,4.88,1.81,9.62-.74,13-4.12a45.8,45.8,0,0,0,6.26-7.67C264.67,141.1,264.59,141,264.55,141.08Z"
       style="fill: rgb(38, 50, 56); transform-origin: 253.276px 146.325px 0px;"
       id="eljd4mtfqop1g"
       class="animable" />
  </g>
  <g
     id="freepik--Device--inject-137"
     style="transform-origin: 231.25px 225.12px 0px;"
     class="animable">
    <rect
       x="200.68"
       y="250.56"
       width="88.93"
       height="3.99"
       style="fill: rgb(199, 199, 199); transform-origin: 245.145px 252.555px 0px;"
       id="el33hw98pofcs"
       class="animable" />
    <polygon
       points="270.57 250.56 273.62 254.55 200.68 254.55 200.68 250.56 270.57 250.56"
       style="fill: rgb(166, 166, 166); transform-origin: 237.15px 252.555px 0px;"
       id="elkzlbd24v12o"
       class="animable" />
    <polygon
       points="266.77 254.55 180.1 254.55 172.89 195.69 259.56 195.69 266.77 254.55"
       style="fill: rgb(199, 199, 199); transform-origin: 219.83px 225.12px 0px;"
       id="el565wg6cgord"
       class="animable" />
    <path
       d="M225.11,225.12a5.17,5.17,0,0,1-5.19,5.27,5.38,5.38,0,0,1-5.36-5.27,5.15,5.15,0,0,1,5.18-5.28A5.4,5.4,0,0,1,225.11,225.12Z"
       style="fill: rgb(255, 255, 255); transform-origin: 219.835px 225.115px 0px;"
       id="el55u0p56pohq"
       class="animable" />
  </g>
  <g
     id="freepik--Table--inject-137"
     style="transform-origin: 419.87px 340.705px 0px;"
     class="animable">
    <rect
       x="373.51"
       y="262.33"
       width="92.72"
       height="11.88"
       style="fill: rgb(69, 90, 100); transform-origin: 419.87px 268.27px 0px;"
       id="eln1sy4f7wqup"
       class="animable" />
    <rect
       x="376.12"
       y="274.21"
       width="87.49"
       height="3.71"
       style="fill: rgb(55, 71, 79); transform-origin: 419.865px 276.065px 0px;"
       id="elnzmjbuq6wy"
       class="animable" />
    <rect
       x="388.62"
       y="364.54"
       width="62.5"
       height="3.71"
       style="fill: rgb(69, 90, 100); transform-origin: 419.87px 366.395px 0px;"
       id="elmxwni5acdum"
       class="animable" />
    <polygon
       points="386.59 419.08 381.96 419.08 381.96 277.92 394.59 277.92 386.59 419.08"
       style="fill: rgb(69, 90, 100); transform-origin: 388.275px 348.5px 0px;"
       id="elo7otakfpksp"
       class="animable" />
    <polygon
       points="394.59 277.92 394.12 286.27 381.96 286.27 381.96 277.92 394.59 277.92"
       style="fill: rgb(38, 50, 56); transform-origin: 388.275px 282.095px 0px;"
       id="el8hi66tb9tm3"
       class="animable" />
    <polygon
       points="453.14 419.08 457.78 419.08 457.78 277.92 445.14 277.92 453.14 419.08"
       style="fill: rgb(69, 90, 100); transform-origin: 451.46px 348.5px 0px;"
       id="elx8calepzyp"
       class="animable" />
    <polygon
       points="445.14 277.92 445.62 286.27 457.77 286.27 457.77 277.92 445.14 277.92"
       style="fill: rgb(38, 50, 56); transform-origin: 451.455px 282.095px 0px;"
       id="elt7ok8ig0y7"
       class="animable" />
  </g>
  <g
     id="freepik--Books--inject-137"
     style="transform-origin: 417.145px 242.875px 0px;"
     class="animable">
    <rect
       x="376.12"
       y="232.71"
       width="71.46"
       height="12.18"
       style="fill: rgb(69, 90, 100); transform-origin: 411.85px 238.8px 0px;"
       id="el61vgkd168bh"
       class="animable" />
    <rect
       x="435.34"
       y="232.71"
       width="6.66"
       height="12.18"
       style="fill: rgb(235, 235, 235); transform-origin: 438.67px 238.8px 0px;"
       id="elo56zdlf92tk"
       class="animable" />
    <rect
       x="381.7"
       y="232.71"
       width="6.66"
       height="12.18"
       style="fill: rgb(235, 235, 235); transform-origin: 385.03px 238.8px 0px;"
       id="elyqfr3jndq1p"
       class="animable" />
    <rect
       x="379.75"
       y="244.89"
       width="78.42"
       height="17.45"
       style="fill: rgb(38, 50, 56); transform-origin: 418.96px 253.615px 0px;"
       id="elyrqgrvcwb5c"
       class="animable" />
    <g
       id="eli4wnni1vean">
      <rect
         x="421.85"
         y="246.69"
         width="36.31"
         height="13.83"
         style="fill: rgb(255, 255, 255); transform-origin: 440.005px 253.605px 0px; transform: rotate(180deg);"
         class="animable"
         id="rect29" />
    </g>
    <path
       d="M458.16,249.54c-4.88-.1-18.16-.27-18.16-.27l-3.52.06q-7.32.06-14.63.21,7.32.15,14.63.2l3.52.06S453.28,249.63,458.16,249.54Z"
       style="fill: rgb(219, 219, 219); transform-origin: 440.005px 249.535px 0px;"
       id="el4u9j5hmx6yx"
       class="animable" />
    <path
       d="M458.16,252.25c-4.88-.1-18.16-.27-18.16-.27l-3.52.06q-7.32.06-14.63.21,7.32.15,14.63.2l3.52.07S453.28,252.35,458.16,252.25Z"
       style="fill: rgb(219, 219, 219); transform-origin: 440.005px 252.25px 0px;"
       id="el0zpgfesmd2po"
       class="animable" />
    <path
       d="M458.16,255c-4.88-.1-18.16-.26-18.16-.26l-3.52.06q-7.32,0-14.63.2,7.32.15,14.63.21l3.52.06S453.28,255.06,458.16,255Z"
       style="fill: rgb(219, 219, 219); transform-origin: 440.005px 255.005px 0px;"
       id="elu89shcbjr3n"
       class="animable" />
    <path
       d="M458.16,257.68c-4.88-.1-18.16-.27-18.16-.27l-3.52.06q-7.32.06-14.63.21,7.32.13,14.63.2l3.52.06S453.28,257.77,458.16,257.68Z"
       style="fill: rgb(219, 219, 219); transform-origin: 440.005px 257.675px 0px;"
       id="elyv77afcpuek"
       class="animable" />
    <path
       d="M385.61,256v-4.13a.38.38,0,0,1,.38-.39h2.29a.39.39,0,1,1,0,.78h-1.89v1.28H388a.4.4,0,0,1,.38.39.38.38,0,0,1-.38.39h-1.63v1.29h1.89a.39.39,0,1,1,0,.78H386A.39.39,0,0,1,385.61,256Z"
       style="fill: rgb(102, 80, 233); transform-origin: 387.14px 253.935px 0px;"
       id="elilrshbiv5n9"
       class="animable" />
    <path
       d="M390.53,256a.4.4,0,0,1-.38.39.39.39,0,0,1-.38-.39v-4.07h0a.4.4,0,0,1,.15-.33.38.38,0,0,1,.53.09l2.27,3.13v-2.89a.38.38,0,0,1,.37-.38.4.4,0,0,1,.39.38V256a.4.4,0,0,1-.39.39.38.38,0,0,1-.28-.14l0,0-2.24-3.11Z"
       style="fill: rgb(102, 80, 233); transform-origin: 391.625px 253.96px 0px;"
       id="elvezotjcmtub"
       class="animable" />
    <path
       d="M394.59,253.85a2.55,2.55,0,0,1,2.58-2.53,2.6,2.6,0,0,1,1.6.55.4.4,0,1,1-.49.63,1.84,1.84,0,0,0-1.11-.38,1.76,1.76,0,0,0-1.26.51,1.69,1.69,0,0,0-.52,1.22,1.66,1.66,0,0,0,.52,1.21,1.76,1.76,0,0,0,1.26.51,2,2,0,0,0,1-.27v-1h-1a.41.41,0,0,1-.4-.4.4.4,0,0,1,.4-.39h1.4a.39.39,0,0,1,.4.39v1.55a.43.43,0,0,1,0,.12.06.06,0,0,0,0,0h0a.32.32,0,0,1-.14.17,2.59,2.59,0,0,1-1.59.55A2.55,2.55,0,0,1,394.59,253.85Z"
       style="fill: rgb(102, 80, 233); transform-origin: 396.782px 253.806px 0px;"
       id="ell37fzjivfvl"
       class="animable" />
    <path
       d="M400.15,256v-4.13a.39.39,0,1,1,.78,0v3.74h1.9a.39.39,0,1,1,0,.78h-2.29A.39.39,0,0,1,400.15,256Z"
       style="fill: rgb(102, 80, 233); transform-origin: 401.685px 253.935px 0px;"
       id="elsvvk8rldnxh"
       class="animable" />
    <path
       d="M404.18,251.85a.38.38,0,0,1,.39-.39.4.4,0,0,1,.39.39V256a.4.4,0,0,1-.39.39.38.38,0,0,1-.39-.39Z"
       style="fill: rgb(102, 80, 233); transform-origin: 404.57px 253.925px 0px;"
       id="eldunmppkp2a6"
       class="animable" />
    <path
       d="M406.11,255.15a.36.36,0,0,1,.51-.05,2.28,2.28,0,0,0,1.34.54,1.56,1.56,0,0,0,.88-.26.62.62,0,0,0,.3-.5.35.35,0,0,0-.07-.23.59.59,0,0,0-.21-.21,2.86,2.86,0,0,0-1-.33h0a3.39,3.39,0,0,1-.9-.27,1.46,1.46,0,0,1-.65-.55,1,1,0,0,1-.16-.57,1.27,1.27,0,0,1,.55-1,2.08,2.08,0,0,1,1.22-.38,2.64,2.64,0,0,1,1.52.57.35.35,0,0,1,.1.49.36.36,0,0,1-.5.11A2,2,0,0,0,408,252a1.35,1.35,0,0,0-.79.24.54.54,0,0,0-.26.44.29.29,0,0,0,.05.19.62.62,0,0,0,.18.19,2.85,2.85,0,0,0,.88.31h0a4.26,4.26,0,0,1,1,.29,1.6,1.6,0,0,1,.7.58,1.11,1.11,0,0,1,.17.6,1.35,1.35,0,0,1-.6,1.08,2.23,2.23,0,0,1-1.3.4,3,3,0,0,1-1.79-.7A.37.37,0,0,1,406.11,255.15Z"
       style="fill: rgb(102, 80, 233); transform-origin: 408.002px 253.83px 0px;"
       id="elgvb5de0bl6u"
       class="animable" />
    <path
       d="M410.94,256v-4.13a.38.38,0,0,1,.38-.39.38.38,0,0,1,.39.39v1.68h1.82v-1.68a.38.38,0,0,1,.38-.39.38.38,0,0,1,.39.39V256a.38.38,0,0,1-.39.39.38.38,0,0,1-.38-.39V254.3h-1.82V256a.38.38,0,0,1-.39.39A.38.38,0,0,1,410.94,256Z"
       style="fill: rgb(102, 80, 233); transform-origin: 412.62px 253.935px 0px;"
       id="el0n2mg3seamtg"
       class="animable" />
    <rect
       x="386.88"
       y="223.41"
       width="70.3"
       height="9.3"
       style="fill: rgb(102, 80, 233); transform-origin: 422.03px 228.06px 0px;"
       id="elaig57jffs4t"
       class="animable" />
    <rect
       x="386.87"
       y="224.38"
       width="47.17"
       height="7.37"
       style="fill: rgb(255, 255, 255); transform-origin: 410.455px 228.065px 0px;"
       id="el4u0uvshhqc8"
       class="animable" />
    <path
       d="M389.93,230.23q5.51.06,11,.08l11,0,11,0q5.52,0,11-.08c-3.67,0-7.35-.06-11-.08l-11,0-11,0C397.28,230.17,393.6,230.19,389.93,230.23Z"
       style="fill: rgb(219, 219, 219); transform-origin: 411.93px 230.23px 0px;"
       id="eli2ryn1d81k"
       class="animable" />
    <path
       d="M389.93,228.79c3.67,0,7.35.06,11,.07l11,0,11,0c3.68,0,7.36,0,11-.07q-5.51-.06-11-.08l-11,0-11,0Q395.44,228.73,389.93,228.79Z"
       style="fill: rgb(219, 219, 219); transform-origin: 411.93px 228.785px 0px;"
       id="eluuegya8owy"
       class="animable" />
    <path
       d="M389.93,227.34c3.67,0,7.35.06,11,.08l11,0,11,0c3.68,0,7.36,0,11-.08q-5.51-.06-11-.08l-11,0-11,0Q395.44,227.28,389.93,227.34Z"
       style="fill: rgb(219, 219, 219); transform-origin: 411.93px 227.34px 0px;"
       id="el95n2f8xids"
       class="animable" />
    <path
       d="M389.93,225.89q5.51.06,11,.08l11,0,11,0q5.52,0,11-.08c-3.67,0-7.35-.06-11-.08l-11,0-11,0C397.28,225.83,393.6,225.85,389.93,225.89Z"
       style="fill: rgb(219, 219, 219); transform-origin: 411.93px 225.89px 0px;"
       id="elo6nw9gmn68"
       class="animable" />
    <path
       d="M436.92,230.21v-4.13c0-.21.12-.39.27-.39h1.58c.14,0,.27.18.27.39s-.13.39-.27.39h-1.31v1.28h1.13c.14,0,.26.18.26.39s-.12.39-.26.39h-1.13v1.68c0,.21-.12.39-.27.39S436.92,230.42,436.92,230.21Z"
       style="fill: rgb(55, 71, 79); transform-origin: 437.98px 228.145px 0px;"
       id="elka3wsehfn1q"
       class="animable" />
    <path
       d="M442.09,230a.44.44,0,0,1-.17.49.24.24,0,0,1-.11,0h0a.3.3,0,0,1-.19-.08.77.77,0,0,1-.16-.25,2.85,2.85,0,0,1-.1-.84.81.81,0,0,0-.05-.3.5.5,0,0,0-.15-.2.74.74,0,0,0-.27-.17h-.57v1.52c0,.21-.12.39-.27.39s-.27-.18-.27-.39v-4.13c0-.22.12-.39.27-.39h.86c.58,0,1,.67,1,1.51a1.82,1.82,0,0,1-.38,1.15,1.06,1.06,0,0,1,.17.26,1.7,1.7,0,0,1,.16.75,3.32,3.32,0,0,0,0,.42A.32.32,0,0,1,442.09,230Zm-.68-2.81c0-.41-.22-.73-.5-.73h-.59v1.44h.59C441.19,227.91,441.41,227.59,441.41,227.2Z"
       style="fill: rgb(55, 71, 79); transform-origin: 440.945px 228.105px 0px;"
       id="elt6akjkxh7vn"
       class="animable" />
    <path
       d="M442.87,230.21v-4.13c0-.22.12-.39.27-.39h1.58c.14,0,.27.17.27.39s-.13.39-.27.39h-1.31v1.28h1.13c.14,0,.26.18.26.39s-.12.39-.26.39h-1.13v1.29h1.31c.14,0,.27.17.27.39s-.13.39-.27.39h-1.58C443,230.6,442.87,230.42,442.87,230.21Z"
       style="fill: rgb(55, 71, 79); transform-origin: 443.93px 228.145px 0px;"
       id="el5e6hz25epd2"
       class="animable" />
    <path
       d="M446.27,230.21c0,.21-.12.39-.26.39s-.26-.18-.26-.39v-4.07h0a.44.44,0,0,1,.1-.32.22.22,0,0,1,.37.09l1.56,3.13v-2.89c0-.2.12-.38.27-.38s.26.18.26.38v4.07c0,.21-.12.39-.26.39a.25.25,0,0,1-.2-.14l0-.05-1.55-3.11Z"
       style="fill: rgb(55, 71, 79); transform-origin: 447.029px 228.181px 0px;"
       id="eltzp29l59el"
       class="animable" />
    <path
       d="M449.32,228.07c0-1.38.81-2.51,1.78-2.52a1.53,1.53,0,0,1,1.12.55.56.56,0,0,1,0,.56.23.23,0,0,1-.38.08,1,1,0,0,0-.78-.39,1.12,1.12,0,0,0-.87.51,2.23,2.23,0,0,0,0,2.43,1.12,1.12,0,0,0,.87.51,1,1,0,0,0,.78-.39.23.23,0,0,1,.38.08.56.56,0,0,1,0,.56,1.53,1.53,0,0,1-1.12.55C450.13,230.6,449.33,229.47,449.32,228.07Z"
       style="fill: rgb(55, 71, 79); transform-origin: 450.808px 228.075px 0px;"
       id="elkf0nm2ff8r"
       class="animable" />
    <path
       d="M453.2,230.21v-4.13c0-.22.12-.39.27-.39s.27.17.27.39v1.68H455v-1.68c0-.22.12-.39.27-.39s.27.17.27.39v4.13c0,.22-.12.39-.27.39s-.27-.17-.27-.39v-1.68h-1.25v1.68c0,.22-.12.39-.27.39S453.2,230.43,453.2,230.21Z"
       style="fill: rgb(55, 71, 79); transform-origin: 454.37px 228.145px 0px;"
       id="elp739r81bppk"
       class="animable" />
    <path
       d="M391.08,240.8v-4.14a.38.38,0,0,1,.39-.38h.82a2.45,2.45,0,1,1,0,4.9h-.82A.38.38,0,0,1,391.08,240.8Zm.78-.4h.43a1.67,1.67,0,1,0,0-3.34h-.43Z"
       style="fill: rgb(235, 235, 235); transform-origin: 392.912px 238.73px 0px;"
       id="el7ffy12kntwm"
       class="animable" />
    <path
       d="M395.81,236.66a.38.38,0,0,1,.39-.38.39.39,0,0,1,.39.38v4.14a.39.39,0,0,1-.39.38.38.38,0,0,1-.39-.38Z"
       style="fill: rgb(235, 235, 235); transform-origin: 396.2px 238.73px 0px;"
       id="elo4989kn5w9p"
       class="animable" />
    <path
       d="M397.68,238.66a2.57,2.57,0,0,1,2.57-2.52,2.63,2.63,0,0,1,1.62.54.41.41,0,0,1,.07.56.4.4,0,0,1-.56.08,1.75,1.75,0,0,0-1.13-.38,1.85,1.85,0,0,0-1.26.5,1.74,1.74,0,0,0-.51,1.22,1.72,1.72,0,0,0,.51,1.22,1.85,1.85,0,0,0,1.26.5,1.75,1.75,0,0,0,1.13-.38.43.43,0,0,1,.56.07.41.41,0,0,1-.07.56,2.59,2.59,0,0,1-4.19-2Z"
       style="fill: rgb(235, 235, 235); transform-origin: 399.85px 238.662px 0px;"
       id="elyohqb0lbe1"
       class="animable" />
    <path
       d="M406.29,237.06h-1.11v3.74a.38.38,0,0,1-.38.38.39.39,0,0,1-.39-.38v-3.74H403.3a.4.4,0,0,1-.38-.4.38.38,0,0,1,.38-.38h3a.39.39,0,0,1,.39.38A.41.41,0,0,1,406.29,237.06Z"
       style="fill: rgb(235, 235, 235); transform-origin: 404.805px 238.73px 0px;"
       id="elt8z4t8ieme"
       class="animable" />
    <path
       d="M407.88,236.66a.38.38,0,0,1,.39-.38.39.39,0,0,1,.39.38v4.14a.39.39,0,0,1-.39.38.38.38,0,0,1-.39-.38Z"
       style="fill: rgb(235, 235, 235); transform-origin: 408.27px 238.73px 0px;"
       id="elhcl3fhdk5ft"
       class="animable" />
    <path
       d="M413.83,236.89a2.56,2.56,0,0,1,0,3.54,2.27,2.27,0,0,1-1.67.75,2.36,2.36,0,0,1-1.72-.75,2.62,2.62,0,0,1,0-3.54,2.36,2.36,0,0,1,1.72-.75A2.27,2.27,0,0,1,413.83,236.89Zm-.09,1.77a1.85,1.85,0,0,0-.47-1.23,1.54,1.54,0,0,0-1.11-.49,1.56,1.56,0,0,0-1.14.49,1.8,1.8,0,0,0-.47,1.23,1.76,1.76,0,0,0,.47,1.22,1.52,1.52,0,0,0,2.25,0A1.81,1.81,0,0,0,413.74,238.66Z"
       style="fill: rgb(235, 235, 235); transform-origin: 412.146px 238.66px 0px;"
       id="elgjcvdnroopa"
       class="animable" />
    <path
       d="M416.51,240.8a.39.39,0,0,1-.38.38.38.38,0,0,1-.39-.38v-4.07h0a.38.38,0,0,1,.16-.32.38.38,0,0,1,.53.08l2.26,3.13v-2.88a.38.38,0,1,1,.76,0v4.07a.38.38,0,0,1-.38.38.4.4,0,0,1-.29-.14l0,0-2.24-3.11Z"
       style="fill: rgb(235, 235, 235); transform-origin: 417.595px 238.763px 0px;"
       id="elr33dcrjkli"
       class="animable" />
    <path
       d="M423.63,240h-1.7l-.34.92a.4.4,0,0,1-.37.24l-.13,0a.4.4,0,0,1-.23-.51l1.55-4.12a.4.4,0,0,1,.74,0l1.55,4.12a.4.4,0,0,1-.23.51l-.14,0a.37.37,0,0,1-.35-.24Zm-.28-.77-.57-1.5-.57,1.5Z"
       style="fill: rgb(235, 235, 235); transform-origin: 422.78px 238.721px 0px;"
       id="el412e6beibk6"
       class="animable" />
    <path
       d="M428.9,240.6a.39.39,0,0,1-.25.49l-.15,0h0a.45.45,0,0,1-.27-.08.66.66,0,0,1-.23-.24,2,2,0,0,1-.14-.84.56.56,0,0,0-.09-.3.6.6,0,0,0-.21-.21,1.32,1.32,0,0,0-.39-.16h-.83v1.52a.39.39,0,0,1-.77,0v-4.14a.38.38,0,0,1,.38-.38h1.26a1.5,1.5,0,0,1,.95,2.65,1.2,1.2,0,0,1,.24.26,1.32,1.32,0,0,1,.23.76,2.62,2.62,0,0,0,0,.41A.42.42,0,0,1,428.9,240.6Zm-1-2.82a.72.72,0,0,0-.72-.72h-.87v1.44h.87A.72.72,0,0,0,427.92,237.78Z"
       style="fill: rgb(235, 235, 235); transform-origin: 427.244px 238.684px 0px;"
       id="elydox6enrmb9"
       class="animable" />
    <path
       d="M433.27,236.94l-1.44,2v1.9a.38.38,0,0,1-.39.38.39.39,0,0,1-.38-.38v-1.9l-1.42-2a.37.37,0,0,1,.07-.54.38.38,0,0,1,.54.09l1.19,1.64,1.2-1.64a.39.39,0,0,1,.54-.09A.41.41,0,0,1,433.27,236.94Z"
       style="fill: rgb(235, 235, 235); transform-origin: 431.444px 238.773px 0px;"
       id="el7x3yj24bk7"
       class="animable" />
  </g>
  <g
     id="freepik--speech-bubbles--inject-137"
     style="transform-origin: 238.26px 123.346px 0px;"
     class="animable animator-active">
    <path
       d="M211,88.79a17.92,17.92,0,0,0,3-9.87c0-12.49-13.72-22.63-30.64-22.63s-30.63,10.14-30.63,22.63,13.71,22.63,30.63,22.63a36.73,36.73,0,0,0,21.13-6.26L215.06,98Z"
       style="fill: rgb(255, 255, 255); transform-origin: 183.895px 78.9226px 0px;"
       id="el58m0zhuqtxd"
       class="animable" />
    <path
       d="M211,88.79a17.92,17.92,0,0,0,2.93-9.33,17.55,17.55,0,0,0-2.57-9.38A24.13,24.13,0,0,0,204.61,63a31.47,31.47,0,0,0-8.78-4.36,41.22,41.22,0,0,0-9.65-1.82,42.89,42.89,0,0,0-9.8.54,35,35,0,0,0-9.33,2.95,28.61,28.61,0,0,0-8,5.56A20,20,0,0,0,154,74a16.31,16.31,0,0,0-.12,9.51,20,20,0,0,0,4.94,8.24,28.67,28.67,0,0,0,7.91,5.66,35.42,35.42,0,0,0,9.32,3,40.66,40.66,0,0,0,9.79.66,36,36,0,0,0,18.52-6l.09-.07.1,0,10.53,2.8L215,98Zm0,0,4.2,9.14.09.2-.22,0-10.58-2.57.19,0a36.35,36.35,0,0,1-18.74,6.35,39.4,39.4,0,0,1-19.54-3.61,29.32,29.32,0,0,1-8.2-5.81A21,21,0,0,1,153,83.8a17.31,17.31,0,0,1,.1-10.08,21.16,21.16,0,0,1,5.33-8.54,30,30,0,0,1,8.27-5.71,35.46,35.46,0,0,1,9.57-3,42.5,42.5,0,0,1,10-.5,41.07,41.07,0,0,1,9.81,2,32.16,32.16,0,0,1,8.9,4.55,24,24,0,0,1,6.74,7.34,17.89,17.89,0,0,1,2.42,9.6A18.09,18.09,0,0,1,211,88.79Z"
       style="fill: rgb(38, 50, 56); transform-origin: 183.795px 78.9421px 0px;"
       id="eljx1q7dfhg2f"
       class="animable" />
    <polygon
       points="259.41 147.35 259.41 178.94 270.48 178.94 270.48 189.88 282.35 178.94 323.74 178.94 323.74 147.35 259.41 147.35"
       style="fill: rgb(255, 255, 255); transform-origin: 291.575px 168.615px 0px;"
       id="el5lsht0xcn0u"
       class="animable" />
    <path
       d="M259.41,147.35l.28,31.58-.28-.27,11.07-.06h.33v.33l.06,10.95-.66-.28,11.84-11,.13-.12h.17l41.39,0-.49.48.05-31.58.44.43-32.06-.17Zm0,0,32.06-.26,32.27-.17h.43v.43l.05,31.58v.49h-.48l-41.39,0,.3-.12-11.9,10.91-.67.61v-.9l.06-10.95.33.34-11.07-.06h-.28v-.28Z"
       style="fill: rgb(38, 50, 56); transform-origin: 291.67px 168.87px 0px;"
       id="elm9ydkfmyrvg"
       class="animable" />
    <text
       xml:space="preserve"
       style="font-size:13.8617px;fill:#263238;fill-opacity:1;stroke-width:1.15514"
       x="164.63069"
       y="80.57328"
       id="text32"
       transform="scale(0.95353744,1.0487265)"><tspan
         id="tspan32"
         x="164.63069"
         y="80.57328"
         sodipodi:role="line"
         style="font-style:normal;font-variant:normal;font-weight:normal;font-stretch:normal;font-family:'Comic Sans MS';-inkscape-font-specification:'Comic Sans MS';fill:#263238;fill-opacity:1;stroke-width:1.15514">Merhaba</tspan></text>
    <text
       xml:space="preserve"
       style="font-style:normal;font-variant:normal;font-weight:normal;font-stretch:normal;font-size:14.9565px;font-family:'Comic Sans MS';-inkscape-font-specification:'Comic Sans MS';fill:#263238;fill-opacity:1;stroke-width:1.24638"
       x="278.67853"
       y="157.59966"
       id="text33"
       transform="scale(0.93460781,1.0699675)"><tspan
         sodipodi:role="line"
         id="tspan33"
         x="278.67853"
         y="157.59966"
         style="stroke-width:1.24638">Merhaba!</tspan></text>
  </g>
  <defs
     id="defs32">
    <filter
       id="active"
       height="200%">
      <feMorphology
         in="SourceAlpha"
         result="DILATED"
         operator="dilate"
         radius="2"
         id="feMorphology29" />
      <feFlood
         flood-color="#32DFEC"
         flood-opacity="1"
         result="PINK"
         id="feFlood29" />
      <feComposite
         in="PINK"
         in2="DILATED"
         operator="in"
         result="OUTLINE"
         id="feComposite29" />
      <feMerge
         id="feMerge30">
        <feMergeNode
           in="OUTLINE"
           id="feMergeNode29" />
        <feMergeNode
           in="SourceGraphic"
           id="feMergeNode30" />
      </feMerge>
    </filter>
    <filter
       id="hover"
       height="200%">
      <feMorphology
         in="SourceAlpha"
         result="DILATED"
         operator="dilate"
         radius="2"
         id="feMorphology30" />
      <feFlood
         flood-color="#ff0000"
         flood-opacity="0.5"
         result="PINK"
         id="feFlood30" />
      <feComposite
         in="PINK"
         in2="DILATED"
         operator="in"
         result="OUTLINE"
         id="feComposite30" />
      <feMerge
         id="feMerge32">
        <feMergeNode
           in="OUTLINE"
           id="feMergeNode31" />
        <feMergeNode
           in="SourceGraphic"
           id="feMergeNode32" />
      </feMerge>
      <feColorMatrix
         type="matrix"
         values="0   0   0   0   0                0   1   0   0   0                0   0   0   0   0                0   0   0   1   0 "
         id="feColorMatrix32" />
    </filter>
  </defs>
</svg>
