<?xml version="1.0" encoding="UTF-8"?>
<!DOCTYPE svg PUBLIC "-//W3C//DTD SVG 1.1//EN" "http://www.w3.org/Graphics/SVG/1.1/DTD/svg11.dtd">
<svg xmlns="http://www.w3.org/2000/svg" viewBox="0 0 1838 2000" width="55" height="60">
<svg xmlns="http://www.w3.org/2000/svg" version="1.1" width="1838px" height="2000px" style="shape-rendering:geometricPrecision; text-rendering:geometricPrecision; image-rendering:optimizeQuality; fill-rule:evenodd; clip-rule:evenodd" xmlns:xlink="http://www.w3.org/1999/xlink">
<g><path style="opacity:0.996" fill="#0010a5" d="M 1124.5,-0.5 C 1141.83,-0.5 1159.17,-0.5 1176.5,-0.5C 1253.46,6.87268 1323.79,32.3727 1387.5,76C 1425.88,103.382 1457.72,136.882 1483,176.5C 1536.61,266.042 1587.95,357.042 1637,449.5C 1686.65,543.793 1729.32,641.127 1765,741.5C 1795.71,829.628 1817.37,919.961 1830,1012.5C 1833.23,1041.26 1835.73,1069.92 1837.5,1098.5C 1837.5,1126.17 1837.5,1153.83 1837.5,1181.5C 1829.2,1344.57 1782.36,1495.57 1697,1634.5C 1575.73,1818.15 1406.9,1933.32 1190.5,1980C 1140.64,1990.03 1090.64,1996.53 1040.5,1999.5C 1006.83,1999.5 973.167,1999.5 939.5,1999.5C 679.919,1983.82 455.585,1887.82 266.5,1711.5C 168.156,1617.09 94.6558,1506.42 46,1379.5C 19.5245,1305.29 4.02447,1228.96 -0.5,1150.5C -0.5,1126.17 -0.5,1101.83 -0.5,1077.5C 8.42406,945.48 44.2574,821.147 107,704.5C 155.812,614.4 216.645,533.233 289.5,461C 366.424,386.744 450.091,321.41 540.5,265C 645.082,201.005 754.082,145.338 867.5,98C 911.977,75.263 956.977,53.263 1002.5,32C 1041.55,14.6306 1082.22,3.79731 1124.5,-0.5 Z M 1192.5,146.5 C 1238.03,144.174 1270.53,163.508 1290,204.5C 1303.18,243.593 1295.35,277.76 1266.5,307C 1235.34,332.732 1201.01,337.732 1163.5,322C 1121.13,297.754 1104.97,261.587 1115,213.5C 1127.82,175.827 1153.66,153.494 1192.5,146.5 Z"/></g>
<g><path style="opacity:1" fill="#fbfbfd" d="M 1203.5,36.5 C 1206.97,37.5249 1210.64,38.1916 1214.5,38.5C 1231.38,40.8879 1248.05,44.2212 1264.5,48.5C 1266.51,49.9238 1268.85,50.5905 1271.5,50.5C 1339.99,70.3923 1398.65,106.059 1447.5,157.5C 1446.8,158.116 1445.8,158.116 1444.5,157.5C 1403.28,121.881 1356.62,95.5479 1304.5,78.5C 1301.5,76.7234 1298.16,75.7234 1294.5,75.5C 1242.4,60.0901 1189.4,55.9234 1135.5,63C 1095.77,70.4652 1057.77,83.1319 1021.5,101C 981.895,120.97 942.228,140.636 902.5,160C 764.024,216.884 634.024,288.218 512.5,374C 437.584,427.893 369.084,489.393 307,558.5C 213.157,665.818 146.657,788.485 107.5,926.5C 106.076,928.515 105.41,930.848 105.5,933.5C 97.7085,962.124 91.7085,991.124 87.5,1020.5C 86.3833,1024.29 85.7167,1028.29 85.5,1032.5C 78.6721,1090.71 77.6721,1149.05 82.5,1207.5C 82.3025,1212.75 82.9692,1217.75 84.5,1222.5C 101.908,1349.6 147.075,1465.6 220,1570.5C 305.169,1689.35 411.336,1784.52 538.5,1856C 618.417,1900.69 702.751,1933.86 791.5,1955.5C 793.515,1956.92 795.848,1957.59 798.5,1957.5C 809.094,1960.15 819.761,1962.48 830.5,1964.5C 831.263,1965.27 832.263,1965.77 833.5,1966C 831.866,1966.49 830.199,1966.66 828.5,1966.5C 629.374,1930.1 456.04,1843.6 308.5,1707C 211.631,1615.75 138.797,1508.25 90,1384.5C 84.3714,1368.99 79.2047,1353.32 74.5,1337.5C 74.0719,1334.22 73.0719,1331.22 71.5,1328.5C 61.4701,1292.98 53.8035,1256.98 48.5,1220.5C 48.5557,1215.27 47.889,1210.27 46.5,1205.5C 40.3763,1151.86 40.0429,1098.2 45.5,1044.5C 46.8063,1039.38 47.473,1034.05 47.5,1028.5C 47.4013,1025.76 47.7347,1023.1 48.5,1020.5C 49.889,1015.73 50.5557,1010.73 50.5,1005.5C 54.4433,980.285 59.4433,955.285 65.5,930.5C 66.9238,928.485 67.5905,926.152 67.5,923.5C 95.3761,817.436 140.209,719.436 202,629.5C 249.221,562.586 303.388,501.42 364.5,446C 455.795,365.335 555.129,296.002 662.5,238C 739.381,196.559 818.048,158.892 898.5,125C 941.766,102.033 985.766,80.6994 1030.5,61C 1085.95,37.6333 1143.62,29.4667 1203.5,36.5 Z"/></g>
<g><path style="opacity:1" fill="#696bc8" d="M 1203.5,36.5 C 1207.49,36.1164 1211.16,36.783 1214.5,38.5C 1210.64,38.1916 1206.97,37.5249 1203.5,36.5 Z"/></g>
<g><path style="opacity:1" fill="#5959c1" d="M 1264.5,48.5 C 1267.15,48.4095 1269.49,49.0762 1271.5,50.5C 1268.85,50.5905 1266.51,49.9238 1264.5,48.5 Z"/></g>
<g><path style="opacity:1" fill="#a6a7df" d="M 1294.5,75.5 C 1298.16,75.7234 1301.5,76.7234 1304.5,78.5C 1300.84,78.2766 1297.5,77.2766 1294.5,75.5 Z"/></g>
<g><path style="opacity:1" fill="#fbfbfd" d="M 1208.5,402.5 C 1204.08,401.028 1199.41,400.362 1194.5,400.5C 1162.74,395.204 1135.74,381.038 1113.5,358C 1128.33,365.224 1144,370.557 1160.5,374C 1173.45,375.401 1186.45,375.901 1199.5,375.5C 1204.43,375.771 1209.1,375.104 1213.5,373.5C 1285.41,356.094 1326.24,310.76 1336,237.5C 1339.33,193.486 1326,155.486 1296,123.5C 1295.33,122.833 1295.33,122.167 1296,121.5C 1353.52,158.216 1377.85,210.55 1369,278.5C 1356.01,338.164 1320.51,377.664 1262.5,397C 1244.79,401.476 1226.79,403.31 1208.5,402.5 Z"/></g>
<g><path style="opacity:1" fill="#c5c7ea" d="M 1444.5,157.5 C 1445.8,158.116 1446.8,158.116 1447.5,157.5C 1451.54,160.543 1454.88,164.209 1457.5,168.5C 1457.17,168.5 1456.83,168.5 1456.5,168.5C 1452.47,164.805 1448.47,161.138 1444.5,157.5 Z"/></g>
<g><path style="opacity:1" fill="#6970c9" d="M 1456.5,168.5 C 1456.83,168.5 1457.17,168.5 1457.5,168.5C 1460.07,169.879 1461.57,171.879 1462,174.5C 1459.96,172.63 1458.13,170.63 1456.5,168.5 Z"/></g>
<g><path style="opacity:1" fill="#9c9edb" d="M 1213.5,373.5 C 1209.1,375.104 1204.43,375.771 1199.5,375.5C 1203.94,374.199 1208.61,373.532 1213.5,373.5 Z"/></g>
<g><path style="opacity:1" fill="#9ea1dc" d="M 1194.5,400.5 C 1199.41,400.362 1204.08,401.028 1208.5,402.5C 1203.59,402.638 1198.92,401.972 1194.5,400.5 Z"/></g>
<g><path style="opacity:1" fill="#a7aadf" d="M 847.5,639.5 C 822.827,639.449 798.16,639.782 773.5,640.5C 788.473,639.031 803.64,638.365 819,638.5C 828.673,638.5 838.173,638.834 847.5,639.5 Z"/></g>
<g><path style="opacity:1" fill="#fefefe" d="M 847.5,639.5 C 895.265,642.178 942.265,649.511 988.5,661.5C 990.515,662.924 992.848,663.59 995.5,663.5C 1150.55,710.401 1271.38,802.068 1358,938.5C 1385.41,982.985 1406.57,1030.32 1421.5,1080.5C 1421.41,1083.15 1422.08,1085.49 1423.5,1087.5C 1432.02,1114.25 1438.02,1141.59 1441.5,1169.5C 1441.28,1174.1 1441.95,1178.43 1443.5,1182.5C 1449.75,1231.97 1450.08,1281.64 1444.5,1331.5C 1443.38,1335.29 1442.72,1339.29 1442.5,1343.5C 1417.19,1509.69 1339.19,1644.86 1208.5,1749C 1081.54,1844.42 938.207,1888.42 778.5,1881C 767.45,1880.16 756.45,1879 745.5,1877.5C 738.736,1875.76 731.736,1874.76 724.5,1874.5C 723.167,1874.5 721.833,1874.5 720.5,1874.5C 720.082,1873.78 719.416,1873.28 718.5,1873C 715.854,1872.5 713.187,1872.34 710.5,1872.5C 697.192,1870.75 684.192,1868.08 671.5,1864.5C 669.485,1863.08 667.152,1862.41 664.5,1862.5C 503.954,1820.68 378.12,1730.68 287,1592.5C 245.269,1526.48 216.769,1455.15 201.5,1378.5C 200.491,1373.72 199.491,1369.05 198.5,1364.5C 197.165,1354.16 195.832,1343.82 194.5,1333.5C 194.556,1328.27 193.889,1323.27 192.5,1318.5C 192.1,1312.17 191.767,1305.84 191.5,1299.5C 190.709,1277.18 190.376,1254.84 190.5,1232.5C 190.824,1216.6 192.158,1200.93 194.5,1185.5C 196.104,1181.1 196.771,1176.43 196.5,1171.5C 221.413,1014.47 294.413,884.968 415.5,783C 506.796,708.371 611.13,662.537 728.5,645.5C 736.066,645.228 743.399,644.228 750.5,642.5C 758.123,641.394 765.79,640.727 773.5,640.5C 798.16,639.782 822.827,639.449 847.5,639.5 Z"/></g>
<g><path style="opacity:1" fill="#b2b4e3" d="M 750.5,642.5 C 743.399,644.228 736.066,645.228 728.5,645.5C 735.589,643.696 742.923,642.696 750.5,642.5 Z"/></g>
<g><path style="opacity:1" fill="#5656c0" d="M 988.5,661.5 C 991.152,661.41 993.485,662.076 995.5,663.5C 992.848,663.59 990.515,662.924 988.5,661.5 Z"/></g>
<g><path style="opacity:1" fill="#e9892a" d="M 761.5,881.5 C 891.798,879.59 1001.63,925.59 1091,1019.5C 1183.89,1126.95 1215.56,1250.62 1186,1390.5C 1153.36,1515.68 1079.53,1607.52 964.5,1666C 856.893,1716.1 746.893,1722.1 634.5,1684C 517.823,1639.66 435.657,1559.82 388,1444.5C 342.966,1321.94 351.966,1203.61 415,1089.5C 474.608,990.752 560.108,925.919 671.5,895C 701.24,887.869 731.24,883.369 761.5,881.5 Z"/></g>
<g><path style="opacity:1" fill="#a4a6de" d="M 67.5,923.5 C 67.5905,926.152 66.9238,928.485 65.5,930.5C 65.4095,927.848 66.0762,925.515 67.5,923.5 Z"/></g>
<g><path style="opacity:1" fill="#575ac1" d="M 107.5,926.5 C 107.59,929.152 106.924,931.485 105.5,933.5C 105.41,930.848 106.076,928.515 107.5,926.5 Z"/></g>
<g><path style="opacity:1" fill="#a5a7de" d="M 50.5,1005.5 C 50.5557,1010.73 49.889,1015.73 48.5,1020.5C 48.4443,1015.27 49.111,1010.27 50.5,1005.5 Z"/></g>
<g><path style="opacity:1" fill="#5556bf" d="M 87.5,1020.5 C 87.8023,1024.79 87.1357,1028.79 85.5,1032.5C 85.7167,1028.29 86.3833,1024.29 87.5,1020.5 Z"/></g>
<g><path style="opacity:1" fill="#989bda" d="M 47.5,1028.5 C 47.473,1034.05 46.8063,1039.38 45.5,1044.5C 45.376,1038.93 46.0427,1033.6 47.5,1028.5 Z"/></g>
<g><path style="opacity:1" fill="#a7a9df" d="M 1421.5,1080.5 C 1422.92,1082.51 1423.59,1084.85 1423.5,1087.5C 1422.08,1085.49 1421.41,1083.15 1421.5,1080.5 Z"/></g>
<g><path style="opacity:1" fill="#1b1918" d="M 770.5,1144.5 C 822.362,1141.39 866.529,1158.06 903,1194.5C 939.095,1237.94 944.428,1284.94 919,1335.5C 894.386,1374.39 859.219,1397.89 813.5,1406C 757.235,1415.03 709.068,1399.53 669,1359.5C 631.968,1315.61 626.301,1267.95 652,1216.5C 674.68,1180.51 706.846,1157.68 748.5,1148C 755.964,1146.73 763.298,1145.57 770.5,1144.5 Z"/></g>
<g><path style="opacity:1" fill="#a7a9df" d="M 1441.5,1169.5 C 1443.05,1173.57 1443.72,1177.9 1443.5,1182.5C 1441.95,1178.43 1441.28,1174.1 1441.5,1169.5 Z"/></g>
<g><path style="opacity:1" fill="#bcbde6" d="M 196.5,1171.5 C 196.771,1176.43 196.104,1181.1 194.5,1185.5C 194.362,1180.59 195.028,1175.92 196.5,1171.5 Z"/></g>
<g><path style="opacity:1" fill="#4d4cbb" d="M 46.5,1205.5 C 47.889,1210.27 48.5557,1215.27 48.5,1220.5C 47.111,1215.73 46.4443,1210.73 46.5,1205.5 Z"/></g>
<g><path style="opacity:1" fill="#b3b4e3" d="M 82.5,1207.5 C 83.889,1212.27 84.5557,1217.27 84.5,1222.5C 82.9692,1217.75 82.3025,1212.75 82.5,1207.5 Z"/></g>
<g><path style="opacity:1" fill="#a8abe0" d="M 190.5,1232.5 C 190.376,1254.84 190.709,1277.18 191.5,1299.5C 189.977,1286.54 189.311,1273.37 189.5,1260C 189.5,1250.66 189.834,1241.49 190.5,1232.5 Z"/></g>
<g><path style="opacity:1" fill="#979ad9" d="M 192.5,1318.5 C 193.889,1323.27 194.556,1328.27 194.5,1333.5C 193.111,1328.73 192.444,1323.73 192.5,1318.5 Z"/></g>
<g><path style="opacity:1" fill="#6361c4" d="M 71.5,1328.5 C 73.0719,1331.22 74.0719,1334.22 74.5,1337.5C 72.5275,1334.92 71.5275,1331.92 71.5,1328.5 Z"/></g>
<g><path style="opacity:1" fill="#6668c7" d="M 1444.5,1331.5 C 1444.8,1335.79 1444.14,1339.79 1442.5,1343.5C 1442.72,1339.29 1443.38,1335.29 1444.5,1331.5 Z"/></g>
<g><path style="opacity:1" fill="#4845b9" d="M 198.5,1364.5 C 199.491,1369.05 200.491,1373.72 201.5,1378.5C 199.044,1374.26 198.044,1369.6 198.5,1364.5 Z"/></g>
<g><path style="opacity:1" fill="#afb1e2" d="M 664.5,1862.5 C 667.152,1862.41 669.485,1863.08 671.5,1864.5C 668.848,1864.59 666.515,1863.92 664.5,1862.5 Z"/></g>
<g><path style="opacity:1" fill="#acade1" d="M 710.5,1872.5 C 713.187,1872.34 715.854,1872.5 718.5,1873C 719.416,1873.28 720.082,1873.78 720.5,1874.5C 716.96,1874.25 713.627,1873.58 710.5,1872.5 Z"/></g>
<g><path style="opacity:1" fill="#bfc0e8" d="M 724.5,1874.5 C 731.736,1874.76 738.736,1875.76 745.5,1877.5C 738.251,1877.32 731.251,1876.32 724.5,1874.5 Z"/></g>
<g><path style="opacity:1" fill="#6164c5" d="M 791.5,1955.5 C 794.152,1955.41 796.485,1956.08 798.5,1957.5C 795.848,1957.59 793.515,1956.92 791.5,1955.5 Z"/></g>
<g><path style="opacity:1" fill="#bebfe7" d="M 830.5,1964.5 C 845.814,1967.33 861.147,1970 876.5,1972.5C 875.791,1973.4 874.791,1973.74 873.5,1973.5C 858.23,1972.05 843.23,1969.72 828.5,1966.5C 830.199,1966.66 831.866,1966.49 833.5,1966C 832.263,1965.77 831.263,1965.27 830.5,1964.5 Z"/></g>
<g><path style="opacity:1" fill="#8f94d7" d="M 876.5,1972.5 C 884.18,1973.43 891.847,1974.6 899.5,1976C 890.631,1976.04 881.964,1975.2 873.5,1973.5C 874.791,1973.74 875.791,1973.4 876.5,1972.5 Z"/></g>
</svg>
